<svg version="1.1" xmlns="http://www.w3.org/2000/svg" xmlns:xlink="http://www.w3.org/1999/xlink" width="290.72002" height="133.20693" viewBox="0,0,290.72002,133.20693"><g transform="translate(-94.63999,-113.39653)"><g data-paper-data="{&quot;isPaintingLayer&quot;:true}" fill="#ff0000" fill-rule="nonzero" stroke="none" stroke-width="0.5" stroke-linecap="butt" stroke-linejoin="miter" stroke-miterlimit="10" stroke-dasharray="" stroke-dashoffset="0" style="mix-blend-mode: normal"><path d="M173.27646,246.15987c-0.72985,0.27392 -1.45266,0.39662 -2.17237,0.42473c-0.17709,0.01251 -0.35588,0.01887 -0.53615,0.01887c-0.48326,0 -0.95584,-0.04571 -1.41366,-0.13303c-1.36975,-0.18468 -2.74126,-0.52727 -4.14204,-0.63345c-13.00382,-0.98571 -22.86705,-5.41222 -34.19013,-12.10221c-4.45522,-2.63227 -8.29826,-6.91045 -11.86198,-10.47417c-15.41138,-15.41138 -31.14377,-38.75737 -21.21726,-61.4157c3.63795,-8.30401 11.2063,-15.28068 18.61623,-20.10421c9.60709,-6.25379 21.38884,-10.80483 32.70659,-12.64955c1.63821,-0.26702 6.48491,-1.3054 8.10122,0.01704c5.4727,4.47767 5.78365,7.58716 1.30599,13.05986c-0.76575,0.93591 -14.44265,3.3312 -14.45961,3.33653c-5.21314,1.63628 -15.17486,5.93936 -19.53202,8.71341c-2.7391,1.74389 -5.22979,3.89251 -7.51023,6.2041c-12.91239,13.0888 -5.67043,30.11657 3.9983,42.68452c9.29644,12.08402 20.77338,21.71684 35.3558,26.51887c5.1475,1.69508 10.11642,0.70308 15.2681,2.04751c0.34381,0.047 0.68021,0.1173 1.00754,0.20926c3.1544,0.88619 5.46715,3.78363 5.46715,7.22123c0,2.85685 -1.59731,5.34062 -3.94756,6.60696c-0.2561,0.18187 -0.53576,0.33378 -0.84392,0.44944z"/><path d="M211.56104,187.52629c1.23905,-0.56635 2.57011,-1.21927 3.9509,-1.8423c-2.019,0.29539 -3.99402,0.68727 -5.97525,1.17407c0.03178,0.51625 0.06294,1.0324 0.09277,1.54836c0.67565,-0.30937 1.32358,-0.60223 1.93158,-0.88013zM235.56028,182.68824c5.86536,4.56195 6.0422,12.77853 -1.9768,14.41904c-5.32798,1.08999 -10.86766,1.74129 -15.81991,3.98864c-4.06748,1.84583 -8.12989,5.80961 -12.45425,8.00928c-1.24748,0.92581 -2.79239,1.47348 -4.46522,1.47348c-3.00037,0 -5.58924,-1.76183 -6.7885,-4.30738c-0.06032,0.35597 -0.15155,0.7209 -0.27635,1.0953c-0.79672,2.39017 -3.37934,3.91315 -5.63281,5.03988c-3.4556,1.7278 -9.47875,-2.98031 -11.68812,-4.89649c-6.86337,-5.95257 -15.83365,-12.35154 -18.04766,-21.67722c-1.46732,-6.18051 5.3256,-10.20873 8.21857,-14.43372c1.11226,-1.62438 0.25,-6.78468 -1.41578,-7.95919c-0.18265,-0.12878 -1.76738,0.11234 -1.80609,0.20097c-2.51481,5.75811 -4.70708,11.65738 -6.76674,17.59353c-2.71567,7.82685 -1.74602,13.77894 -2.33371,21.84432c-0.01562,0.21442 -0.02332,0.44302 -0.03026,0.6783c-0.34282,3.82429 -3.55624,6.8217 -7.46974,6.8217c-2.44072,0 -4.60913,-1.16587 -5.97872,-2.97108c-0.22353,-0.2309 -0.42033,-0.48835 -0.58378,-0.77892c-2.55088,-4.53482 -1.15762,-14.93069 -0.31897,-20.22949c2.36122,-14.91882 6.9499,-39.15771 26.04359,-38.15933c12.07661,0.63147 18.64467,15.45044 15.4538,26.22961c-0.98547,3.32904 -6.53864,8.72644 -6.7531,10.6207c-0.06921,0.61127 0.77611,0.95991 1.22611,1.37937c2.41245,2.24877 4.91353,4.40064 7.35419,6.61877c2.82024,2.56311 8.1659,5.17755 10.13959,8.95935c0.16358,-1.48396 0.7601,-2.83752 1.66047,-3.93161c-0.0831,-0.22363 -0.14801,-0.42723 -0.19279,-0.60637c-2.99651,-11.98604 0.03564,-24.70987 0.01977,-37.06479c-0.00187,-1.45194 0.55379,-4.23453 1.5943,-5.44847c5.47904,-6.39222 18.99959,-7.76324 26.88684,-6.53262c3.58242,0.55895 9.52506,5.11786 8.02717,9.61154c-0.79672,2.39017 -1.93916,5.16221 -4.19263,6.28894c-2.51061,1.2553 -5.55083,-1.38737 -8.34543,-1.12442c-1.57205,0.14792 -8.83969,0.80017 -8.97025,1.48452c-0.39935,2.09322 -0.63343,4.20278 -0.75344,6.32339c4.61884,-0.84322 9.2159,-1.16819 11.64907,-0.9631c4.90412,0.41337 10.43115,3.75605 8.26485,10.25495c-0.25416,0.76248 -0.69018,1.43648 -1.23929,2.0375c3.18345,-0.396 6.79015,-0.64479 7.76202,0.11111z"/><path d="M252.60091,205.4049c0,-2.06803 0.57024,-3.56583 1.39623,-4.65063c-0.79836,-1.2064 -1.10766,-2.28896 -1.10766,-2.28896c-1.40536,-5.00672 -3.15275,-9.92981 -4.21608,-15.02015c-0.68596,-3.28382 0.75974,-12.83202 0.96894,-14.82753c0.65721,-6.26885 0.98645,-11.53619 2.09845,-17.65448c1.01517,-5.58556 0.84981,-12.1316 6.41714,-15.93813c2.48002,-1.69565 5.94466,-0.93091 8.94298,-1.12012c4.41271,-0.27847 10.16271,-0.3347 14.32867,1.77914c2.20593,1.11931 3.8236,3.15393 5.88721,4.51793c7.75292,5.12448 16.7841,9.39768 23.35359,16.17989c2.97377,3.07006 3.93283,7.59047 5.96876,11.34861c1.01559,1.87469 2.38459,3.53515 3.57689,5.30273c0.28281,4.68199 0.74716,9.66115 0.38488,14.37171c-0.19403,2.52288 0.27628,5.29209 -0.88744,7.53893c-2.17464,4.19865 -8.67221,6.67657 -12.74243,8.39016c-2.54018,1.06943 -4.56724,3.24048 -7.19336,4.07697c-2.39138,0.76172 -5.02075,0.48671 -7.44051,1.15279c-1.40958,0.38801 -2.51106,1.57229 -3.91693,1.97352c-4.0937,1.16831 -8.46106,0.95665 -12.70073,1.34208c-4.69878,0.42716 -8.88881,1.02555 -13.6186,1.02555h-2c0,0 -7.5,0 -7.5,-7.5zM267.52697,197.63805c2.25635,-0.20237 4.48526,-0.48303 6.95533,-0.70759c4.0219,-0.36563 5.46443,0.57016 9.29927,-0.65792c1.44704,-0.46341 2.61618,-1.63039 4.08307,-2.02648c2.12843,-0.57472 4.43363,-0.26305 6.55949,-0.84721c0.77738,-0.21362 1.21383,-1.07819 1.91232,-1.48076c1.57969,-0.91046 3.2225,-1.71472 4.89433,-2.44227c1.48649,-0.6469 2.82448,-1.65036 4.34669,-2.19225c-0.5158,-2.75213 -0.22885,-6.81131 0.40831,-9.50694c-0.8077,-0.89909 -1.82248,-1.64846 -2.42311,-2.69727c-0.53956,-0.94217 -2.6345,-7.32365 -4.03124,-8.65139c-0.19976,-0.18989 -13.0698,-9.44692 -13.47586,-9.70756c-2.3188,-1.4884 -4.88471,-2.57399 -7.17055,-4.11255c-1.49017,-1.00301 -2.6132,-2.49319 -4.11279,-3.48207c-1.99603,-1.31626 -4.75191,-0.03568 -7.16946,-0.17045c-0.021,0.12588 -0.04168,0.24876 -0.05806,0.36596c-0.21475,1.53617 -0.80612,2.99931 -1.08369,4.52538c-0.94472,5.19398 -1.35933,11.21625 -1.90155,16.34552c-0.39317,3.71926 -1.90319,7.5356 -1.03106,11.17247c1.05093,4.38247 2.52262,8.65323 3.78392,12.97985c0,0 0.42331,1.4816 0.21463,3.29355z"/><path d="M342.13599,209.73115c-0.21768,1.86568 -1.36819,6.79618 -7.44921,6.79618c-7.5,0 -7.5,-7.5 -7.5,-7.5l0.38488,-4.37171c0.93727,-1.9772 1.29363,-4.35588 2.81182,-5.93159c1.39564,-1.44852 3.62934,-1.73574 5.43318,-2.6258c6.14005,-3.02965 12.3421,-5.68092 18.31767,-9.0312c0.54112,-0.30328 1.33892,-0.35857 1.62336,-0.90983c0.19349,-0.375 -0.52172,-0.71078 -0.5709,-1.12987c-0.10044,-0.85587 0.33287,-1.7429 0.13533,-2.58169c-0.30329,-1.28782 -1.09194,-2.4108 -1.5989,-3.63288c-0.19153,-0.4617 -2.43138,-6.64704 -3.33973,-7.48213c-1.21006,-1.11247 -3.04728,-1.34221 -4.31229,-2.39176c-2.12863,-1.76608 -4.23267,-3.66547 -5.76429,-5.96856c-2.4613,-3.70106 -2.10369,-6.85415 -2.12012,-10.94298c-0.01644,-4.09109 -0.23436,-7.31341 1.72797,-11.22329c3.24243,-6.46044 5.75921,-6.9232 11.51171,-10.9492c1.85212,-1.29624 13.39145,-9.62882 14.85699,-10.51087c0.8456,-0.50894 1.98083,-0.38403 2.81919,-0.9048c1.44056,-0.89485 2.59928,-2.1789 3.89893,-3.26835c0,0 5.85652,-4.68521 10.54173,1.1713c4.68521,5.85652 -1.1713,10.54173 -1.1713,10.54173c-2.03369,1.57722 -3.92136,3.3633 -6.10107,4.73165c-0.94973,0.59621 -2.21833,0.5198 -3.18081,1.0952c-4.63793,2.77266 -8.68251,6.43922 -13.14301,9.48913c-2.64307,1.80722 -6.60329,2.99968 -6.81652,6.74388c-0.05845,1.02638 0.0633,2.0556 0.05619,3.08363c-0.00705,1.01977 -0.82872,2.32363 -0.12012,3.05702c2.2526,2.3314 5.68438,3.29526 7.92342,5.63968c5.39484,5.64877 9.46977,16.59951 9.1967,24.3033c-0.0814,2.29649 0.45292,4.81287 -0.5709,6.87013c-1.4162,2.84569 -4.2511,4.72678 -6.37664,7.09017c-4.98457,2.88618 -10.1667,5.43074 -15.39684,7.84353c-1.9364,0.89331 -3.7382,2.08824 -5.7064,2.89999z"/></g></g></svg>