<svg version="1.1" xmlns="http://www.w3.org/2000/svg" xmlns:xlink="http://www.w3.org/1999/xlink" width="402.9944" height="449.60586" viewBox="0,0,402.9944,449.60586"><g transform="translate(-38.5028,44.80293)"><g data-paper-data="{&quot;isPaintingLayer&quot;:true}" fill-rule="nonzero" stroke-linecap="butt" stroke-linejoin="miter" stroke-miterlimit="10" stroke-dasharray="" stroke-dashoffset="0" style="mix-blend-mode: normal"><path d="M234.1824,212.66036c-2.29786,-0.9848 -1.31306,-3.28266 -1.31306,-3.28266l0.91037,-2.09007c0.81972,-4.16651 2.22602,-8.10608 3.29884,-12.21145c2.77617,-10.62363 4.79182,-21.43541 7.67697,-32.03897c0.78713,-2.89288 1.76858,-5.73143 2.52405,-8.63274c0.24219,-0.93013 1.19047,-2.08505 0.57715,-2.82508c-0.49704,-0.59972 -1.37869,0.77198 -2.1392,0.94033c-1.1649,0.25787 -2.38172,0.16769 -3.56476,0.32235c-4.30903,0.56332 -7.92686,1.01715 -12.31889,1.02042c0,0 -2.5,0 -2.5,-2.5c0,-2.5 2.5,-2.5 2.5,-2.5c5.25005,0.00413 10.25003,-1.28575 15.44969,-1.3239c1.95568,-0.01435 4.52387,-1.15374 5.8608,0.27366c3.73331,3.98595 -0.43624,12.39179 -1.56547,16.54218c-2.87792,10.57755 -4.88701,21.36334 -7.65636,31.96103c-1.09482,4.18963 -2.50582,8.20926 -3.36783,12.45522l-1.08963,2.5766c0,0 -0.9848,2.29786 -3.28266,1.31306z" fill="#ff0000" stroke="#000000" stroke-width="5"/><path d="M234.18241,212.66035c-2.29786,-0.9848 -1.31306,-3.28266 -1.31306,-3.28266l0.91037,-2.09007c0.81972,-4.16651 2.22602,-8.10608 3.29884,-12.21145c2.77617,-10.62363 4.79182,-21.43541 7.67697,-32.03897c0.78713,-2.89288 1.76858,-5.73143 2.52405,-8.63274c0.24219,-0.93013 1.19047,-2.08505 0.57715,-2.82508c-0.49704,-0.59972 -1.37869,0.77198 -2.1392,0.94033c-1.1649,0.25787 -2.38172,0.16769 -3.56476,0.32235c-4.30903,0.56332 -7.92686,1.01715 -12.31889,1.02042c0,0 -2.5,0 -2.5,-2.5c0,-2.5 2.5,-2.5 2.5,-2.5c5.25005,0.00413 10.25003,-1.28575 15.44969,-1.3239c1.95568,-0.01435 4.52387,-1.15374 5.8608,0.27366c3.73331,3.98595 -0.43624,12.39179 -1.56547,16.54218c-2.87792,10.57755 -4.88701,21.36334 -7.65636,31.96103c-1.09482,4.18963 -2.50582,8.20926 -3.36783,12.45522l-1.08963,2.5766c0,0 -0.9848,2.29786 -3.28266,1.31306z" fill="#ff0000" stroke="none" stroke-width="0.5"/><path d="M38.5028,404.80293v-449.60586h402.9944v449.60586z" fill="none" stroke="#000000" stroke-width="0"/></g></g></svg>