<svg version="1.1" xmlns="http://www.w3.org/2000/svg" xmlns:xlink="http://www.w3.org/1999/xlink" width="402.9944" height="449.60586" viewBox="0,0,402.9944,449.60586"><g transform="translate(-38.5028,44.80293)"><g data-paper-data="{&quot;isPaintingLayer&quot;:true}" fill-rule="nonzero" stroke-linecap="butt" stroke-linejoin="miter" stroke-miterlimit="10" stroke-dasharray="" stroke-dashoffset="0" style="mix-blend-mode: normal"><path d="M213.70338,174.79661c-1.76777,-1.76777 0,-3.53553 0,-3.53553l1.86022,-1.84817c6.62694,-9.32709 13.68176,-18.30452 19.51406,-28.17507c1.33946,-2.26689 3.45949,-9.60067 8.57313,-7.41318c1.62301,0.69429 1.32029,8.09371 1.32024,9.7281c-0.35539,18.61556 -1.24998,37.14 -4.11663,55.55614c-0.88463,5.68311 -2.10201,11.36572 -2.5562,17.09731c-0.08446,1.06588 -0.12577,2.18222 -0.03149,3.27297c2.82516,0.07775 5.67622,0.01548 8.40169,0.02643c10.02283,0.04027 18.5019,0.04104 26.83912,-6.05165l1.99494,-1.44823c0,0 2.02311,-1.46868 3.49179,0.55443c1.46868,2.02311 -0.55443,3.49179 -0.55443,3.49179l-1.99494,1.44823c-4.05771,2.92822 -4.44227,3.66799 -9.31993,5.27895c-6.44512,2.12866 -13.77689,1.75311 -20.47655,1.72643c-2.33819,-0.00931 -4.7602,0.02624 -7.18313,-0.00927c-0.08321,0.62014 -0.42843,1.29478 -1.37609,1.76861c-2.23607,1.11803 -3.3541,-1.11803 -3.3541,-1.11803c-0.14141,-0.29893 -0.30538,-0.59095 -0.47516,-0.8812c-0.99859,-0.08304 -1.98685,-0.19326 -2.95865,-0.33921c-9.7064,-1.45776 -18.38208,-5.39763 -28.33012,-5.39763c0,0 -2.5,0 -2.5,-2.5c0,-2.5 2.5,-2.5 2.5,-2.5c10.24545,0 19.10251,3.9557 29.07273,5.45308c0.31035,0.04661 0.62253,0.08927 0.93631,0.12831c0.089,-1.07811 0.26834,-2.16071 0.32909,-3.23661c0.3315,-5.87093 1.70066,-11.72618 2.60462,-17.53373c2.82931,-18.1772 3.70491,-36.46087 4.05736,-54.83496c-0.00001,-0.24009 -0.01058,-0.48149 -0.02598,-0.72347c-0.17947,0.33068 -0.36459,0.65808 -0.55278,0.98267c-0.86353,1.48943 -1.92828,2.85274 -2.89355,4.27835c-2.28831,3.37957 -4.13062,7.07232 -6.46898,10.40456c-3.38807,4.82812 -7.20563,9.3966 -10.65127,14.19775l-2.13978,2.15183c0,0 -1.76777,1.76777 -3.53553,0z" fill="#ff0000" stroke="#000000" stroke-width="5"/><path d="M213.70338,174.79661c-1.76777,-1.76777 0,-3.53553 0,-3.53553l1.86022,-1.84817c6.62694,-9.32709 13.68176,-18.30452 19.51406,-28.17507c1.33946,-2.26689 3.45949,-9.60067 8.57313,-7.41318c1.62301,0.69429 1.32029,8.09371 1.32024,9.7281c-0.35539,18.61556 -1.24998,37.14 -4.11663,55.55614c-0.88463,5.68311 -2.10201,11.36572 -2.5562,17.09731c-0.08446,1.06588 -0.12577,2.18222 -0.03149,3.27297c2.82516,0.07775 5.67622,0.01548 8.40169,0.02643c10.02283,0.04027 18.5019,0.04104 26.83912,-6.05165l1.99494,-1.44823c0,0 2.02311,-1.46868 3.49179,0.55443c1.46868,2.02311 -0.55443,3.49179 -0.55443,3.49179l-1.99494,1.44823c-4.05771,2.92822 -4.44227,3.66799 -9.31993,5.27895c-6.44512,2.12866 -13.77689,1.75311 -20.47655,1.72643c-2.33819,-0.00931 -4.7602,0.02624 -7.18313,-0.00927c-0.08321,0.62014 -0.42843,1.29478 -1.37609,1.76861c-2.23607,1.11803 -3.3541,-1.11803 -3.3541,-1.11803c-0.14141,-0.29893 -0.30538,-0.59095 -0.47516,-0.8812c-0.99859,-0.08304 -1.98685,-0.19326 -2.95865,-0.33921c-9.7064,-1.45776 -18.38208,-5.39763 -28.33012,-5.39763c0,0 -2.5,0 -2.5,-2.5c0,-2.5 2.5,-2.5 2.5,-2.5c10.24545,0 19.10251,3.9557 29.07273,5.45308c0.31035,0.04661 0.62253,0.08927 0.93631,0.12831c0.089,-1.07811 0.26834,-2.16071 0.32909,-3.23661c0.3315,-5.87093 1.70066,-11.72618 2.60462,-17.53373c2.82931,-18.1772 3.70491,-36.46087 4.05736,-54.83496c-0.00001,-0.24009 -0.01058,-0.48149 -0.02598,-0.72347c-0.17947,0.33068 -0.36459,0.65808 -0.55278,0.98267c-0.86353,1.48943 -1.92828,2.85274 -2.89355,4.27835c-2.28831,3.37957 -4.13062,7.07232 -6.46898,10.40456c-3.38807,4.82812 -7.20563,9.3966 -10.65127,14.19775l-2.13978,2.15183c0,0 -1.76777,1.76777 -3.53553,0z" fill="#ff0000" stroke="none" stroke-width="0.5"/><path d="M38.5028,404.80293v-449.60586h402.9944v449.60586z" fill="none" stroke="#000000" stroke-width="0"/></g></g></svg>