<svg version="1.1" xmlns="http://www.w3.org/2000/svg" xmlns:xlink="http://www.w3.org/1999/xlink" width="402.9944" height="449.60586" viewBox="0,0,402.9944,449.60586"><g transform="translate(-38.5028,44.80293)"><g data-paper-data="{&quot;isPaintingLayer&quot;:true}" fill-rule="nonzero" stroke-linecap="butt" stroke-linejoin="miter" stroke-miterlimit="10" stroke-dasharray="" stroke-dashoffset="0" style="mix-blend-mode: normal"><path d="M237.30224,211.56701c0,-3.37885 2.7391,-6.11795 6.11795,-6.11795c3.37885,0 6.11795,2.7391 6.11795,6.11795c0,3.37885 -2.7391,6.11795 -6.11795,6.11795c-3.37885,0 -6.11795,-2.7391 -6.11795,-6.11795z" fill="#ff0000" stroke="#000000" stroke-width="5"/><path d="M237.30225,211.56701c0,-3.37885 2.7391,-6.11795 6.11795,-6.11795c3.37885,0 6.11795,2.7391 6.11795,6.11795c0,3.37885 -2.7391,6.11795 -6.11795,6.11795c-3.37885,0 -6.11795,-2.7391 -6.11795,-6.11795z" fill="#ff0000" stroke="none" stroke-width="0.5"/><path d="M38.5028,404.80293v-449.60586h402.9944v449.60586z" fill="none" stroke="#000000" stroke-width="0"/></g></g></svg>