<svg version="1.1" xmlns="http://www.w3.org/2000/svg" xmlns:xlink="http://www.w3.org/1999/xlink" width="149.40275" height="208.39932" viewBox="0,0,149.40275,208.39932"><defs><linearGradient x1="240" y1="80.94949" x2="240" y2="279.05052" gradientUnits="userSpaceOnUse" id="color-1"><stop offset="0" stop-color="#f00000"/><stop offset="1" stop-color="#c000f0"/></linearGradient><linearGradient x1="240" y1="80.94948" x2="240" y2="279.05051" gradientUnits="userSpaceOnUse" id="color-2"><stop offset="0" stop-color="#f00000"/><stop offset="1" stop-color="#c000f0"/></linearGradient></defs><g transform="translate(-165.1964,-75.81675)"><g data-paper-data="{&quot;isPaintingLayer&quot;:true}" fill-rule="nonzero" stroke-linecap="butt" stroke-linejoin="miter" stroke-miterlimit="10" stroke-dasharray="" stroke-dashoffset="0" style="mix-blend-mode: normal"><path d="M204.06145,270.62478l-0.50606,1.5937l-0.90388,0.71442c-2.73329,3.68237 -7.11416,6.06867 -12.05237,6.06867c-0.62526,0 -1.24158,-0.03826 -1.84676,-0.11256l-1.13841,0.1615l-1.49912,-0.73073c-1.44492,-0.45207 -2.79585,-1.11682 -4.01612,-1.95761l-0.60898,-0.29684l-0.27382,-0.36029c-1.9947,-1.6013 -3.57132,-3.70202 -4.54015,-6.11244l-2.1624,-5.0456l-0.03925,-0.04545l-0.02768,-0.11072l-0.63449,-1.48049l-0.48068,-2.9802l-0.73215,-2.92859v-1.61072l-0.01817,-0.11267l0.01817,-0.05723v-8.59545l-1.94819,-23.37824l0.10256,-0.62818l-0.15437,-0.6175v-122l0.12488,-0.49953l-0.32316,-1.59678l1.80588,-4.33412l0.26739,-1.06957l0.34444,-0.39882l0.20268,-0.48643l0.83707,-0.71749l3.06894,-3.55351l1.57272,-0.42506l0.39095,-0.3351l0.92086,-0.46043l0.28735,-0.24816l0.41796,-0.10449l0.37384,-0.18692l3.36452,-0.74767l3.34369,-0.83592h0.41796l0.42056,-0.09346l0.36799,0.09346h11.55204l10.77545,-1.79591l0.7823,0.06258l0.74801,-0.23746l16,-1l0.47101,0.08696l0.46467,-0.11617h27.42613l0.17729,-0.05208l0.28356,0.05208h1.11303l3.08223,0.77056l3.12482,0.57395l1.01326,0.46057l0.27969,0.06992l0.13985,0.12078l9.5672,4.34873l1.76278,1.40119l1.99563,1.04317l9,8l1.45505,2.13061l1.74792,1.89775l6,11l0.29887,1.1495l0.65883,0.98824l5,14l0.08679,0.88237l0.40295,0.78978l3,13l-0.01181,0.64975l0.24519,0.60183l2,14l-0.11109,1.07391l0.26185,1.04741v25l-0.5309,2.12361l-0.1017,2.18661l-3,10l-1.22304,2.05693l-0.85588,2.23479l-7,10l-0.70279,0.61031l-0.43628,0.82222l-9,10l-1.31156,0.88388l-1.01528,1.21269l-11,8l-0.12925,0.0522l-0.09139,0.10524l-10,7l-0.79387,0.30403l-0.62528,0.57592l-10.55617,5.75791l-10.57348,6.72858l-0.74705,0.24902l-0.59788,0.51247l-10,5l-1.05393,0.23421l-0.91085,0.57963l-15,5l-2.40415,0.18493l-2.33926,0.58482h-2.85353c-0.19684,0.5569 -0.42562,1.0987 -0.68416,1.62321zM225.19884,230.93122l10.34718,-6.58457l0.49025,-0.16342l0.3801,-0.3501l10.2659,-5.59958l9.20392,-6.44274l9.61693,-6.99413l7.33331,-8.14813l5.08929,-7.27042l1.67343,-5.5781v-21.73245l-1.75914,-12.31395l-2.6605,-11.52885l-4.31136,-12.0718l-4.18668,-7.67559l-5.3533,-4.75848l-5.97816,-2.71735h-25.28257l-14.76297,0.92269l-11.23934,1.87322l-1.24971,-0.09998l-1.21627,0.30407h-1v107.37608l1.46866,17.62392h3.09718l11.67944,-3.89315z" fill="url(#color-1)" stroke="#000000" stroke-width="10"/><path d="M204.06145,270.62478l-0.50606,1.5937l-0.90388,0.71442c-2.73329,3.68237 -7.11416,6.06867 -12.05237,6.06867c-0.62526,0 -1.24158,-0.03826 -1.84676,-0.11256l-1.13841,0.1615l-1.49912,-0.73073c-1.44492,-0.45207 -2.79585,-1.11682 -4.01612,-1.95761l-0.60898,-0.29684l-0.27382,-0.36029c-1.9947,-1.6013 -3.57132,-3.70202 -4.54015,-6.11244l-2.1624,-5.0456l-0.03925,-0.04545l-0.02768,-0.11072l-0.63449,-1.48049l-0.48068,-2.9802l-0.73215,-2.92859v-1.61072l-0.01817,-0.11267l0.01817,-0.05723v-8.59545l-1.94819,-23.37824l0.10256,-0.62818l-0.15437,-0.6175v-122l0.12488,-0.49953l-0.32316,-1.59678l1.80588,-4.33412l0.26739,-1.06957l0.34444,-0.39882l0.20268,-0.48643l0.83707,-0.71749l3.06894,-3.55351l1.57272,-0.42506l0.39095,-0.3351l0.92086,-0.46043l0.28735,-0.24816l0.41796,-0.10449l0.37384,-0.18692l3.36452,-0.74767l3.34369,-0.83592h0.41796l0.42056,-0.09346l0.36799,0.09346h11.55204l10.77545,-1.79591l0.7823,0.06258l0.74801,-0.23746l16,-1l0.47101,0.08696l0.46467,-0.11617h27.42613l0.17729,-0.05208l0.28356,0.05208h1.11303l3.08223,0.77056l3.12482,0.57395l1.01326,0.46057l0.27969,0.06992l0.13985,0.12078l9.5672,4.34873l1.76278,1.40119l1.99563,1.04317l9,8l1.45505,2.13061l1.74792,1.89775l6,11l0.29887,1.1495l0.65883,0.98824l5,14l0.08679,0.88237l0.40295,0.78978l3,13l-0.01181,0.64975l0.24519,0.60183l2,14l-0.11109,1.07391l0.26185,1.04741v25l-0.5309,2.12361l-0.1017,2.18661l-3,10l-1.22304,2.05693l-0.85588,2.23479l-7,10l-0.70279,0.61031l-0.43628,0.82222l-9,10l-1.31156,0.88388l-1.01528,1.21269l-11,8l-0.12925,0.0522l-0.09139,0.10524l-10,7l-0.79387,0.30403l-0.62528,0.57592l-10.55617,5.75791l-10.57348,6.72858l-0.74705,0.24902l-0.59788,0.51247l-10,5l-1.05393,0.23421l-0.91085,0.57963l-15,5l-2.40415,0.18493l-2.33926,0.58482h-2.85353c-0.19684,0.5569 -0.42562,1.0987 -0.68416,1.62321zM225.19884,230.93121l10.34718,-6.58457l0.49025,-0.16342l0.3801,-0.3501l10.2659,-5.59958l9.20392,-6.44274l9.61693,-6.99413l7.33331,-8.14813l5.08929,-7.27042l1.67343,-5.5781v-21.73245l-1.75914,-12.31395l-2.6605,-11.52885l-4.31136,-12.0718l-4.18668,-7.67559l-5.3533,-4.75848l-5.97816,-2.71735h-25.28257l-14.76297,0.92269l-11.23934,1.87322l-1.24971,-0.09998l-1.21627,0.30407h-1v107.37608l1.46866,17.62392h3.09718l11.67944,-3.89315z" fill="url(#color-2)" stroke="none" stroke-width="0.5"/></g></g></svg>