<svg version="1.1" xmlns="http://www.w3.org/2000/svg" xmlns:xlink="http://www.w3.org/1999/xlink" width="409.39767" height="235.12216" viewBox="0,0,409.39767,235.12216"><g transform="translate(-35.06167,-43.27879)"><g data-paper-data="{&quot;isPaintingLayer&quot;:true}" fill="#9966ff" fill-rule="nonzero" stroke="none" stroke-width="0.5" stroke-linecap="butt" stroke-linejoin="miter" stroke-miterlimit="10" stroke-dasharray="" stroke-dashoffset="0" style="mix-blend-mode: normal"><path d="M157.6801,78.41729c1.69712,1.83569 -0.13857,3.53282 -0.13857,3.53282l-0.53448,0.49413c-5.12438,4.71197 -11.03968,7.80545 -17.01904,11.33174c-13.26702,7.82413 -27.53479,13.53889 -41.18071,20.65672c-13.29264,6.93355 -26.55035,13.92006 -39.76315,21.00456c-5.23893,2.80903 -9.87892,6.29742 -14.91425,9.4414c-1.08318,0.67632 -2.47654,0.93954 -3.33533,1.88462c-0.48814,0.53719 -0.95192,1.77325 -0.33271,2.15197c0.96446,0.58987 2.24922,-0.31965 3.37934,-0.28862c1.6546,0.04543 3.29024,0.36737 4.93868,0.51701c6.68257,0.6066 13.38754,1.02811 20.07734,1.55052c8.13488,1.75875 17.07054,2.76464 24.94529,5.44364c4.03161,1.37156 8.099,4.43446 11.8178,6.48435c5.65715,3.11835 12.85389,5.8532 17.87626,9.89696c3.75372,3.02231 7.01018,7.95425 10.19117,11.58966c3.29176,3.76201 6.62443,7.49323 9.87757,11.28865c1.2437,1.45102 2.8506,2.67031 3.69218,4.38611c0.20236,0.41256 1.27358,9.30479 1.29542,9.47957c0.19286,1.93998 1.00136,3.9168 0.57857,5.81994c-0.41672,1.8758 -1.95991,3.30597 -2.96918,4.9411c-2.76668,4.48235 -5.05411,8.3009 -9.08643,11.71736c-0.37473,0.31749 -7.75723,6.5434 -7.97652,6.67482c-0.22565,0.13524 -9.16518,3.67261 -9.5905,3.84142c-4.64731,1.84459 -9.29462,3.68919 -13.94192,5.53378c-8.75068,3.47329 -17.19758,7.17812 -26.40024,9.22357c0,0 -2.44046,0.54235 -2.98281,-1.89812c-0.54235,-2.44046 1.89812,-2.98281 1.89812,-2.98281c8.9374,-1.98584 17.13941,-5.61579 25.64034,-8.98996c4.64731,-1.84459 9.29462,-3.68919 13.94192,-5.53378c2.95246,-1.17188 6.1449,-1.85209 8.86926,-3.48556c2.74426,-1.64541 4.86743,-4.15486 7.32167,-6.20793c3.68571,-3.08324 5.45175,-6.57857 8.0888,-10.57718c0.74725,-1.13307 2.01647,-2.02835 2.3093,-3.35367c0.29887,-1.35266 -0.44118,-2.73522 -0.66177,-4.10284c-0.33503,-2.68027 0.3281,-5.64595 -0.89622,-8.05367c-0.64502,-1.26849 -1.94317,-2.07985 -2.89287,-3.13966c-3.33574,-3.72249 -6.58607,-7.52693 -9.87757,-11.28865c-2.98707,-3.4138 -6.03622,-8.14727 -9.56398,-10.98764c-4.78578,-3.85328 -11.75895,-6.43866 -17.15427,-9.41268c-3.48385,-1.92038 -7.38013,-4.92147 -11.16041,-6.18178c-7.56878,-2.52337 -16.10991,-3.4714 -23.91354,-5.1778c-8.21049,-0.62169 -16.67727,-0.73949 -24.81179,-2.04189c-2.2051,-0.35305 -5.21883,0.4515 -6.56636,-1.32931c-5.70473,-7.53899 4.48983,-11.47648 8.73623,-14.33039c16.02627,-10.77088 33.89532,-19.0161 51.00419,-27.94023c13.5677,-7.07703 27.7637,-12.75199 40.95316,-20.53038c5.6513,-3.33282 11.35025,-6.21838 16.16472,-10.6963l0.53448,-0.49413c0,0 1.83569,-1.69712 3.53282,0.13857z"/><path d="M371.42844,146.18477c0.14661,-0.37136 0.99946,-2.23111 3.13874,-1.51804c2.37171,0.79055 1.58116,3.16226 1.58116,3.16226l-3.0392,3.42367c-2.88026,-0.11009 -5.76052,-0.22019 -8.64077,-0.33028c-34.59992,-1.33316 -69.4193,3.91797 -103.76837,7.39002c-16.17203,2.6997 -32.20615,5.51606 -48.21993,9.03908c-5.67827,1.24922 -11.32224,2.517 -16.88882,4.02839c0.45591,17.7671 1.0267,35.52718 1.62713,53.29039c0.16852,4.98561 0.73035,9.85864 1.15743,14.82474c0.3231,3.75701 0.08987,7.19654 1.54585,10.71906c0,0 0.92851,2.32118 -1.39267,3.24969c-2.32118,0.92851 -3.24969,-1.39267 -3.24969,-1.39267c-1.58148,-4.05736 -1.51686,-7.8686 -1.88623,-12.16097c-0.57785,-6.71516 -1.11264,-13.32654 -1.34141,-20.06738c-0.53211,-15.67898 -1.01941,-31.35557 -1.42545,-47.03769c-4.27176,1.29857 -8.48942,2.78351 -12.63296,4.55933c0,0 -2.29786,0.9848 -3.28266,-1.31306c-0.9848,-2.29786 1.31306,-3.28266 1.31306,-3.28266c4.74175,-2.03219 9.57571,-3.69734 14.47527,-5.14067c-0.48228,-22.14284 -0.9881,-44.28517 -1.39073,-66.42961c-0.09052,-4.97856 -0.42186,-10.03606 -0.27291,-15.01255c0.05772,-1.92844 -0.74283,-4.22906 0.41399,-5.77307c2.41936,-3.22913 10.48045,-3.67933 14.20425,-4.4755c12.45239,-1.78264 25.30484,-2.88756 37.59891,-5.52376c4.7912,-1.02737 9.56273,-2.70738 14.2792,-4.04006c15.38042,-4.34587 30.58363,-9.1608 45.78464,-14.0951c8.70425,-2.82302 18.06696,-3.97431 26.25043,-8.0961l1.24789,-0.62394c0,0 2.23607,-1.11803 3.3541,1.11804c1.11803,2.23607 -1.11804,3.3541 -1.11804,3.3541l-1.24789,0.62394c-8.47145,4.20774 -17.96669,5.46345 -26.94276,8.37968c-15.26201,4.9541 -30.52664,9.78766 -45.9688,14.15098c-4.81949,1.36179 -9.69484,3.06756 -14.59045,4.11732c-12.35152,2.64852 -25.25842,3.77384 -37.76933,5.55722c-2.58078,0.55432 -5.16573,1.08928 -7.74424,1.65403c-1.07526,0.23551 -2.55231,-0.14103 -3.21953,0.73445c-0.5889,0.77272 0.39848,1.90782 0.46726,2.87692c0.11764,1.65749 0.06045,3.32277 0.09067,4.98415c0.09092,4.99917 0.18179,9.99835 0.27268,14.99752c0.36446,20.04549 0.83307,40.08916 1.27151,60.13318c5.25855,-1.3947 10.58124,-2.59353 15.936,-3.77157c16.14931,-3.55284 32.32048,-6.39749 48.63083,-9.11165c34.63682,-3.51914 69.73244,-8.75386 104.62276,-7.43058c2.25636,0.08625 4.51273,0.17249 6.76909,0.25874z"/><path d="M432.14519,261.0606c0.94994,2.31249 -1.36255,3.26243 -1.36255,3.26243l-0.39721,0.16317c-4.63121,1.90244 -9.28473,4.16824 -14.03098,5.75775c-7.94887,2.66206 -16.41319,4.31591 -24.52639,6.4322c-13.10154,1.3975 -26.30614,3.17035 -39.32348,-0.24788c-7.1735,-1.88369 -13.97834,-6.52228 -19.85028,-10.8599c-5.72237,-4.22714 -11.50145,-10.31948 -12.28509,-17.80142c-0.11028,-1.0529 0.39936,-2.07954 0.62437,-3.11401c1.15772,-5.32241 3.24146,-9.56505 5.55405,-14.46632c0.86639,-1.73291 1.71869,-3.47662 2.56959,-5.22252c-23.89246,5.37337 -47.54402,12.42004 -71.24167,18.58693c-27.6682,7.20015 -55.19359,15.8739 -83.23678,21.48299c0,0 -2.45144,0.49033 -2.94177,-1.96112c-0.49033,-2.45144 1.96112,-2.94177 1.96112,-2.94177c27.94882,-5.59021 55.38303,-14.24299 82.95821,-21.41894c24.17008,-6.28983 48.29202,-13.48928 72.6696,-18.90931c0.87752,-0.19511 1.75674,-0.38466 2.6374,-0.5694c1.17409,-2.36779 2.37122,-4.7222 3.62329,-7.04153c6.15883,-11.40859 13.68283,-22.02734 20.3926,-33.1006c3.4687,-5.72447 6.4216,-11.80005 10.04131,-17.42964c4.08048,-6.34621 9.42612,-12.17065 14.05076,-18.13521c4.31702,-5.06916 8.75422,-10.05994 12.96398,-15.21825c3.8727,-4.7453 7.16039,-10.02992 11.19364,-14.6378c6.41127,-7.32469 14.38402,-13.19645 20.92892,-20.36019c4.01959,-4.39966 7.34914,-9.38944 11.46058,-13.75049c0.75826,-0.80429 1.78787,-1.35276 2.4411,-2.24446c0.36554,-0.49899 0.90915,-1.31153 0.51012,-1.78416c-0.6495,-0.76931 -1.90214,-0.66076 -2.85321,-0.99114c-17.23705,0.2584 -34.53353,0.17356 -51.47496,4.00757c-10.75671,2.43434 -21.36462,6.60167 -31.76753,10.22006c0,0 -2.36124,0.8213 -3.18254,-1.53994c-0.8213,-2.36124 1.53994,-3.18254 1.53994,-3.18254c10.57816,-3.67935 21.35841,-7.89495 32.29647,-10.37197c17.59813,-3.98526 35.80099,-4.21402 53.73313,-4.00041c2.03295,1.15513 4.92329,1.44418 6.09885,3.46538c1.06512,1.83131 0.34832,4.35911 -0.39389,6.34337c-0.558,1.49176 -2.21449,2.29071 -3.27889,3.47552c-2.97884,3.31584 -5.90379,6.55032 -8.62131,10.08075c-6.84267,8.88959 -16.28585,15.48454 -23.67446,23.92582c-3.98825,4.55646 -7.2359,9.79127 -11.06522,14.48504c-4.21247,5.16341 -8.65265,10.15916 -12.97468,15.23147c-4.52675,5.84154 -9.7953,11.54731 -13.77861,17.76715c-3.56793,5.57124 -6.48823,11.57618 -9.91729,17.23524c-6.67077,11.0089 -14.16032,21.56312 -20.2809,32.9066c-0.60999,1.13052 -1.20675,2.26947 -1.79409,3.41429c6.89884,-1.29458 13.84929,-2.40324 20.73244,-3.67689c8.18149,-1.5139 16.32969,-3.1515 24.48054,-4.82206l1.36126,-0.279c0,0 2.44909,-0.50195 2.95104,1.94714c0.50195,2.44909 -1.94714,2.95104 -1.94714,2.95104l-1.36126,0.279c-8.18216,1.67698 -16.36177,3.3207 -24.57469,4.84042c-8.12354,1.50318 -16.34243,2.7731 -24.45706,4.397c-1.42709,2.91375 -2.83371,5.83798 -4.28059,8.73149c-1.97927,4.19556 -6.16046,10.39542 -5.67705,15.28266c0.56402,5.7021 5.95572,10.75306 10.24604,13.88426c5.42188,3.95705 11.63912,8.36716 18.2507,10.07836c12.296,3.18244 24.69922,1.42376 37.06472,0.14075c7.88214,-2.08028 16.11024,-3.66706 23.83723,-6.25481c4.64111,-1.5543 9.19053,-3.78135 13.71891,-5.64155l0.39721,-0.16317c0,0 2.31249,-0.94994 3.26243,1.36255z"/></g></g></svg>