<svg version="1.1" xmlns="http://www.w3.org/2000/svg" xmlns:xlink="http://www.w3.org/1999/xlink" width="402.9944" height="449.60586" viewBox="0,0,402.9944,449.60586"><g transform="translate(-38.5028,44.80293)"><g data-paper-data="{&quot;isPaintingLayer&quot;:true}" fill-rule="nonzero" stroke-linecap="butt" stroke-linejoin="miter" stroke-miterlimit="10" stroke-dasharray="" stroke-dashoffset="0" style="mix-blend-mode: normal"><path d="M244.97311,212.27628c0.039,0.15109 0.06827,0.31511 0.08608,0.49314c0.24876,2.48759 -2.23883,2.73635 -2.23883,2.73635c-6.55859,0.60003 -11.65882,-1.55737 -16.56993,-5.94673c-0.89762,-0.80226 -1.95575,-1.53263 -2.50017,-2.60638c-2.62176,-5.17082 -2.27865,-11.24755 0.05285,-16.40745c2.03718,-4.50852 5.30185,-8.0617 8.97059,-11.30031c-2.58616,-2.34188 -3.81193,-4.04691 -4.66009,-8.10367c-1.27489,-6.09784 1.39394,-16.48673 6.04246,-20.90953c2.86702,-2.72781 8.21239,-5.00485 12.04379,-5.68574c1.12861,-0.20057 2.3113,-0.20186 3.43886,0.00449c1.35656,0.24826 2.76689,0.57539 3.91387,1.34109c7.0896,4.73288 4.57363,13.71701 1.12417,19.8084c-3.52438,4.89126 -8.73789,9.55794 -13.39344,13.41548c-0.05632,0.04666 -0.11269,0.09326 -0.16912,0.13979c1.85629,1.12839 3.81879,2.11181 5.74235,2.95178c5.81708,4.643 8.28129,8.45428 8.5468,16.05539c0.11442,3.27581 0.40985,5.60297 -1.39648,8.44258c-2.00633,3.15404 -5.48936,4.66994 -9.03375,5.57131zM236.64338,176.00951c5.0033,-4.02788 10.21397,-7.89415 13.82306,-13.00645c1.70444,-2.94673 3.74273,-7.68185 2.20847,-11.18818c-2.43424,-5.5631 -12.32788,-0.50613 -15.02111,1.98976c-3.10531,2.87778 -4.26122,9.16376 -4.58849,13.05742c-0.34277,4.07809 0.68893,6.56555 3.57807,9.14745zM235.54256,209.76176c0.52364,-1.57692 2.36237,-1.57692 2.36237,-1.57692l1.92234,0.03402c3.20876,-0.52467 7.95759,-1.14581 9.97573,-4.22081c1.0644,-1.6218 0.67217,-3.82616 0.60352,-5.55742c-0.23073,-5.81902 -1.64336,-8.35233 -6.11987,-11.94461c-2.42452,-1.01634 -5.00302,-2.34946 -7.31114,-3.901c-3.44516,2.81933 -6.67564,5.81556 -8.62411,10.02697c-1.66639,3.60171 -2.08868,8.11885 -0.29179,11.79504c0.81381,1.66494 2.76579,2.4793 4.27713,3.55178c1.08827,0.77226 2.1403,1.36425 3.20582,1.79296z" fill="#ff0000" stroke="#000000" stroke-width="5"/><path d="M244.97311,212.27628c0.039,0.15109 0.06827,0.31511 0.08608,0.49314c0.24876,2.48759 -2.23883,2.73635 -2.23883,2.73635c-6.55859,0.60003 -11.65882,-1.55737 -16.56993,-5.94673c-0.89762,-0.80226 -1.95575,-1.53263 -2.50017,-2.60638c-2.62176,-5.17082 -2.27865,-11.24755 0.05285,-16.40745c2.03718,-4.50852 5.30185,-8.0617 8.97059,-11.30031c-2.58616,-2.34188 -3.81193,-4.04691 -4.66009,-8.10367c-1.27489,-6.09784 1.39394,-16.48673 6.04246,-20.90953c2.86702,-2.72781 8.21239,-5.00485 12.04379,-5.68574c1.12861,-0.20057 2.3113,-0.20186 3.43886,0.00449c1.35656,0.24826 2.76689,0.57539 3.91387,1.34109c7.0896,4.73288 4.57363,13.71701 1.12417,19.8084c-3.52438,4.89126 -8.73789,9.55794 -13.39344,13.41548c-0.05632,0.04666 -0.11269,0.09326 -0.16912,0.13979c1.85629,1.12839 3.81879,2.11181 5.74235,2.95178c5.81708,4.643 8.28129,8.45428 8.5468,16.05539c0.11442,3.27581 0.40985,5.60297 -1.39648,8.44258c-2.00633,3.15404 -5.48936,4.66994 -9.03375,5.57131zM236.64338,176.00951c5.0033,-4.02788 10.21397,-7.89415 13.82306,-13.00645c1.70444,-2.94673 3.74273,-7.68185 2.20847,-11.18818c-2.43424,-5.5631 -12.32788,-0.50613 -15.02111,1.98976c-3.10531,2.87778 -4.26122,9.16376 -4.58849,13.05742c-0.34277,4.07809 0.68893,6.56555 3.57807,9.14745zM235.54256,209.76176c0.52364,-1.57692 2.36237,-1.57692 2.36237,-1.57692l1.92234,0.03402c3.20876,-0.52467 7.95759,-1.14581 9.97573,-4.22081c1.0644,-1.6218 0.67217,-3.82616 0.60352,-5.55742c-0.23073,-5.81902 -1.64336,-8.35233 -6.11987,-11.94461c-2.42452,-1.01634 -5.00302,-2.34946 -7.31114,-3.901c-3.44516,2.81933 -6.67564,5.81556 -8.62411,10.02697c-1.66639,3.60171 -2.08868,8.11885 -0.29179,11.79504c0.81381,1.66494 2.76579,2.4793 4.27713,3.55178c1.08827,0.77226 2.1403,1.36425 3.20582,1.79296z" fill="#ff0000" stroke="none" stroke-width="0.5"/><path d="M38.5028,404.80293v-449.60586h402.9944v449.60586z" fill="none" stroke="#000000" stroke-width="0"/></g></g></svg>