<svg version="1.1" xmlns="http://www.w3.org/2000/svg" xmlns:xlink="http://www.w3.org/1999/xlink" width="53.16843" height="63.3958" viewBox="0,0,53.16843,63.3958"><g transform="translate(-213.41578,-148.3021)"><g data-paper-data="{&quot;isPaintingLayer&quot;:true}" fill="#ffffff" fill-rule="nonzero" stroke="none" stroke-width="0.5" stroke-linecap="butt" stroke-linejoin="miter" stroke-miterlimit="10" stroke-dasharray="" stroke-dashoffset="0" style="mix-blend-mode: normal"><path d="M256.70977,199.69983c2.2699,1.04765 1.22225,3.31754 1.22225,3.31754l-1.74301,3.68385c-6.83088,6.8016 -16.03928,5.36459 -24.61885,3.20547c-8.81268,-4.29356 -15.93992,-11.36039 -17.86563,-21.36451c-1.26765,-6.58548 1.85395,-12.14993 5.1674,-17.4791c4.80814,-7.73314 10.03675,-16.74232 18.88286,-20.51936c3.5821,-1.52945 4.61384,-1.50852 8.45074,-2.24161c5.40524,0.22823 9.96967,1.84747 14.50354,4.84262c2.39964,1.58524 4.45092,2.66664 5.44059,5.58902c1.40551,4.15033 -0.87565,9.91849 -2.89448,13.42925c-0.96127,1.67166 -5.1701,5.60275 -6.28729,6.63611c-7.51523,6.95128 -17.58463,11.03949 -27.5077,12.92862c0,0 -2.45643,0.46473 -2.92116,-1.99169c-0.46473,-2.45643 1.99169,-2.92116 1.99169,-2.92116c10.93349,-2.05459 20.737,-7.03975 28.52231,-15.05466c2.3358,-2.40468 5.53099,-7.78784 4.37552,-11.37994c-0.4667,-1.45087 -2.41454,-2.38256 -3.44828,-3.04586c-3.56434,-2.28708 -7.1492,-3.87265 -11.40123,-4.0463c-3.04332,0.59859 -3.91916,0.60659 -6.78736,1.82188c-7.8595,3.33017 -12.43157,11.76756 -16.6727,18.59174c-2.64321,4.25305 -5.55052,8.70125 -4.48339,14.01296c1.62405,8.08387 7.47078,14.0228 14.64232,17.49265c5.75298,1.42695 14.04347,3.44456 18.80972,-1.36598l1.3046,-2.9193c0,0 1.04765,-2.2699 3.31754,-1.22225z"/></g></g></svg>