<svg version="1.1" xmlns="http://www.w3.org/2000/svg" xmlns:xlink="http://www.w3.org/1999/xlink" width="402.9944" height="449.60586" viewBox="0,0,402.9944,449.60586"><g transform="translate(-38.5028,44.80293)"><g data-paper-data="{&quot;isPaintingLayer&quot;:true}" fill-rule="nonzero" stroke-linecap="butt" stroke-linejoin="miter" stroke-miterlimit="10" stroke-dasharray="" stroke-dashoffset="0" style="mix-blend-mode: normal"><path d="M267.31801,208.99981c0.87781,2.34082 -1.46301,3.21863 -1.46301,3.21863l-3.09841,1.11906c-8.38417,0.07565 -16.74852,0.39261 -25.1303,0.36205c-4.56299,-0.01664 -10.76914,0.60653 -15.12968,-1.03523c-0.04052,-0.01526 -0.08087,-0.03087 -0.12105,-0.04683l-0.0047,0.01882l-2.61593,-0.65398c-1.1133,-0.25265 -1.9444,-1.24829 -1.9444,-2.43804c0,-1.03935 0.63424,-1.93056 1.53681,-2.30771l2.94785,-1.31015l0.00934,0.02101l0.05901,-0.05018c6.01361,-2.25737 14.17254,-3.536 19.00946,-7.99046c2.82271,-2.59952 3.4387,-4.02384 5.48205,-7.22513c3.46914,-8.21921 1.35125,-18.55442 -0.68648,-27.05324c-0.70157,-2.92608 -1.89043,-8.42397 -4.2808,-10.63811c-2.59228,-2.40116 -5.71574,-1.84975 -8.77322,-0.96288c-8.00863,2.32303 -13.90314,9.12998 -15.70381,17.08945c0,0 -0.5726,2.43354 -3.00614,1.86094c-2.43354,-0.5726 -1.86094,-3.00614 -1.86094,-3.00614c0.42815,-1.76252 0.57059,-3.62015 1.28444,-5.28755c4.44864,-10.39111 21.06783,-22.36212 31.57187,-13.25255c3.12407,2.70934 4.72356,9.29514 5.62916,13.02424c1.57138,6.47063 2.47315,13.10788 2.44807,19.75512c-0.0069,1.82844 0.31588,3.69318 -0.04753,5.48516c-0.37806,1.86422 -1.42521,3.52728 -2.13782,5.29091c-2.4235,3.80146 -3.19373,5.56491 -6.58107,8.64256c-3.80777,3.45964 -9.04208,5.2074 -14.14201,6.80986c0.7156,0.11949 1.43154,0.21038 2.14698,0.23308c9.72414,0.30858 19.42426,-0.36456 29.14872,-0.25479l2.23492,-0.88094c0,0 2.34082,-0.87781 3.21863,1.46301z" fill="#ff0000" stroke="#000000" stroke-width="5"/><path d="M267.31802,208.99981c0.87781,2.34082 -1.46301,3.21863 -1.46301,3.21863l-3.09841,1.11906c-8.38417,0.07565 -16.74852,0.39261 -25.1303,0.36205c-4.56299,-0.01664 -10.76914,0.60653 -15.12968,-1.03523c-0.04052,-0.01526 -0.08087,-0.03087 -0.12105,-0.04683l-0.0047,0.01882l-2.61593,-0.65398c-1.1133,-0.25265 -1.9444,-1.24829 -1.9444,-2.43804c0,-1.03935 0.63424,-1.93056 1.53681,-2.30771l2.94785,-1.31015l0.00934,0.02101l0.05901,-0.05018c6.01361,-2.25737 14.17254,-3.536 19.00946,-7.99046c2.82271,-2.59952 3.4387,-4.02384 5.48205,-7.22513c3.46914,-8.21921 1.35125,-18.55442 -0.68648,-27.05324c-0.70157,-2.92608 -1.89043,-8.42397 -4.2808,-10.63811c-2.59228,-2.40116 -5.71574,-1.84975 -8.77322,-0.96288c-8.00863,2.32303 -13.90314,9.12998 -15.70381,17.08945c0,0 -0.5726,2.43354 -3.00614,1.86094c-2.43354,-0.5726 -1.86094,-3.00614 -1.86094,-3.00614c0.42815,-1.76252 0.57059,-3.62015 1.28444,-5.28755c4.44864,-10.39111 21.06783,-22.36212 31.57187,-13.25255c3.12407,2.70934 4.72356,9.29514 5.62916,13.02424c1.57138,6.47063 2.47315,13.10788 2.44807,19.75512c-0.0069,1.82844 0.31588,3.69318 -0.04753,5.48516c-0.37806,1.86422 -1.42521,3.52728 -2.13782,5.29091c-2.4235,3.80146 -3.19373,5.56491 -6.58107,8.64256c-3.80777,3.45964 -9.04208,5.2074 -14.14201,6.80986c0.7156,0.11949 1.43154,0.21038 2.14698,0.23308c9.72414,0.30858 19.42426,-0.36456 29.14872,-0.25479l2.23492,-0.88094c0,0 2.34082,-0.87781 3.21863,1.46301z" fill="#ff0000" stroke="none" stroke-width="0.5"/><path d="M38.5028,404.80293v-449.60586h402.9944v449.60586z" fill="none" stroke="#000000" stroke-width="0"/></g></g></svg>