<svg version="1.1" xmlns="http://www.w3.org/2000/svg" xmlns:xlink="http://www.w3.org/1999/xlink" width="563.13253" height="420.70443" viewBox="0,0,563.13253,420.70443"><g transform="translate(41.56626,30.35221)"><g data-paper-data="{&quot;isPaintingLayer&quot;:true}" fill-rule="nonzero" stroke-linecap="butt" stroke-linejoin="miter" stroke-miterlimit="10" stroke-dasharray="" stroke-dashoffset="0" style="mix-blend-mode: normal"><path d="M-40.56626,389.35221v-418.70443h561.13253v418.70443z" fill="#ff0000" stroke="#000000" stroke-width="2"/><path d="M-23.92297,146.45663c2.29786,0.9848 1.31306,3.28266 1.31306,3.28266l-1.74592,4.07107c-0.87823,1.75766 -2.27563,3.32288 -2.69483,5.24249c-0.54755,2.50735 0.22486,5.75671 0.04275,8.33061c-0.60225,8.51173 -1.13774,16.99763 -2.88814,25.35058c-0.67551,3.22357 -1.71866,6.3695 -2.26802,9.61695c-0.2763,1.63327 -1.30151,3.50713 -0.48095,4.94608c0.77657,1.36181 3.13744,0.29404 4.70002,0.16777c2.72634,-0.22031 5.45005,-0.57417 8.18527,-0.57829c3.42027,0.04438 7.14538,-0.50212 9.64853,3.05212c0.8873,1.25989 -0.12507,3.0855 -0.35408,4.60937c-0.61182,4.07117 -2.29704,8.54431 -3.79354,12.34918c-6.07953,15.45732 -17.90354,30.00442 -17.87296,47.12533c0,0 0,2.5 -2.5,2.5c-2.5,0 -2.5,-2.5 -2.5,-2.5c0.02601,-16.2324 9.71088,-30.13978 16.23985,-44.50596c2.05604,-4.52406 3.5391,-8.97688 4.88956,-13.75376c0.22487,-0.79541 0.35651,-1.6235 0.67614,-2.38579c0.17567,-0.41895 1.10719,-0.78547 0.78991,-1.11062c-0.64085,-0.65675 -4.79587,-0.38732 -5.22342,-0.37987c-4.62103,-0.00759 -13.49943,2.91641 -16.85882,-1.55451c-3.50883,-4.66981 0.82605,-13.83745 1.82556,-18.60789c1.70073,-8.11728 2.1969,-16.35927 2.79367,-24.6335c0.20998,-2.91134 -0.55676,-6.34182 0.08243,-9.18657c0.50396,-2.24288 1.99654,-4.14166 3.0252,-6.19748l1.68607,-3.93691c0,0 0.9848,-2.29786 3.28266,-1.31306z" fill="#ffd400" stroke="none" stroke-width="0.5"/></g></g></svg>