<svg version="1.1" xmlns="http://www.w3.org/2000/svg" xmlns:xlink="http://www.w3.org/1999/xlink" width="402.9944" height="449.60586" viewBox="0,0,402.9944,449.60586"><g transform="translate(-38.5028,44.80293)"><g data-paper-data="{&quot;isPaintingLayer&quot;:true}" fill-rule="nonzero" stroke-linecap="butt" stroke-linejoin="miter" stroke-miterlimit="10" stroke-dasharray="" stroke-dashoffset="0" style="mix-blend-mode: normal"><path d="M237.1989,149.17722c1.8205,1.71341 0.10709,3.53391 0.10709,3.53391l-1.90651,2.02567c-4.73937,5.005 -8.48903,11.18124 -10.21128,17.95885c-0.37173,1.46286 -0.12816,3.04991 -0.53441,4.49915c5.90657,-3.81825 12.97628,-6.13424 20.13463,-6.68271c-0.09103,-3.05778 -0.13626,-6.11836 -0.13626,-9.18103c0,-6.02939 -0.68905,-12.39867 0.74131,-18.27301c0,0 0.60634,-2.42536 3.0317,-1.81902c2.42536,0.60634 1.81902,3.0317 1.81902,3.0317c-1.38889,5.37994 -0.59202,11.51912 -0.59202,17.06033c0,3.03119 0.04428,6.06105 0.13382,9.08859c3.20413,0.1294 6.37577,0.62703 9.41788,1.51684c0,0 2.39457,0.71837 1.6762,3.11294c-0.71837,2.39457 -3.11294,1.6762 -3.11294,1.6762c-2.51237,-0.77705 -5.13567,-1.21805 -7.79404,-1.35408c0.5893,12.80233 1.99931,25.55355 4.30542,38.17897l0.6108,2.09374c0,0 0.6868,2.40381 -1.71701,3.09061c-2.40381,0.6868 -3.09061,-1.71701 -3.09061,-1.71701l-0.72253,-2.57292c-2.33496,-12.89796 -3.78107,-25.90966 -4.38301,-38.97956c-6.90255,0.59998 -13.72326,3.10484 -19.15491,6.97892l-0.13976,0.03951l0.01813,0.03264l-2.9603,1.64461c-0.36858,0.21408 -0.79688,0.33666 -1.25381,0.33666c-1.38071,0 -2.5,-1.11929 -2.5,-2.5c0,-0.1222 0.00877,-0.24236 0.02571,-0.35987l0.6347,-4.91895c0.01701,-1.62681 0.19576,-3.28485 0.69631,-5.25467c1.93618,-7.61947 6.12002,-14.4961 11.41627,-20.15426l1.90651,-2.02567c0,0 1.71341,-1.8205 3.53391,-0.10709z" fill="#ff0000" stroke="#000000" stroke-width="5"/><path d="M237.1989,149.17722c1.8205,1.71341 0.10709,3.53391 0.10709,3.53391l-1.90651,2.02567c-4.73937,5.005 -8.48903,11.18124 -10.21128,17.95885c-0.37173,1.46286 -0.12816,3.04991 -0.53441,4.49915c5.90657,-3.81825 12.97628,-6.13424 20.13463,-6.68271c-0.09103,-3.05778 -0.13626,-6.11836 -0.13626,-9.18103c0,-6.02939 -0.68905,-12.39867 0.74131,-18.27301c0,0 0.60634,-2.42536 3.0317,-1.81902c2.42536,0.60634 1.81902,3.0317 1.81902,3.0317c-1.38889,5.37994 -0.59202,11.51912 -0.59202,17.06033c0,3.03119 0.04428,6.06105 0.13382,9.08859c3.20413,0.1294 6.37577,0.62703 9.41788,1.51684c0,0 2.39457,0.71837 1.6762,3.11294c-0.71837,2.39457 -3.11294,1.6762 -3.11294,1.6762c-2.51237,-0.77705 -5.13567,-1.21805 -7.79404,-1.35408c0.5893,12.80233 1.99931,25.55355 4.30542,38.17897l0.6108,2.09374c0,0 0.6868,2.40381 -1.71701,3.09061c-2.40381,0.6868 -3.09061,-1.71701 -3.09061,-1.71701l-0.72253,-2.57292c-2.33496,-12.89796 -3.78107,-25.90966 -4.38301,-38.97956c-6.90255,0.59998 -13.72326,3.10484 -19.15491,6.97892l-0.13976,0.03951l0.01813,0.03264l-2.9603,1.64461c-0.36858,0.21408 -0.79688,0.33666 -1.25381,0.33666c-1.38071,0 -2.5,-1.11929 -2.5,-2.5c0,-0.1222 0.00877,-0.24236 0.02571,-0.35987l0.6347,-4.91895c0.01701,-1.62681 0.19576,-3.28485 0.69631,-5.25467c1.93618,-7.61947 6.12002,-14.4961 11.41627,-20.15426l1.90651,-2.02567c0,0 1.71341,-1.8205 3.53391,-0.10709z" fill="#ff0000" stroke="none" stroke-width="0.5"/><path d="M38.5028,404.80293v-449.60586h402.9944v449.60586z" fill="none" stroke="#000000" stroke-width="0"/></g></g></svg>