<svg version="1.1" xmlns="http://www.w3.org/2000/svg" xmlns:xlink="http://www.w3.org/1999/xlink" width="168.33247" height="216.4847" viewBox="0,0,168.33247,216.4847"><defs><linearGradient x1="240.00001" y1="76.30723" x2="240.00001" y2="283.69277" gradientUnits="userSpaceOnUse" id="color-1"><stop offset="0" stop-color="#f00000"/><stop offset="1" stop-color="#c000f0"/></linearGradient><linearGradient x1="240.00002" y1="76.30724" x2="240.00002" y2="283.69278" gradientUnits="userSpaceOnUse" id="color-2"><stop offset="0" stop-color="#f00000"/><stop offset="1" stop-color="#c000f0"/></linearGradient></defs><g transform="translate(-155.83377,-71.30723)"><g data-paper-data="{&quot;isPaintingLayer&quot;:true}" fill-rule="nonzero" stroke-linecap="butt" stroke-linejoin="miter" stroke-miterlimit="10" stroke-dasharray="" stroke-dashoffset="0" style="mix-blend-mode: normal"><path d="M228.22245,174.62611c10.4793,0.92326 20.94551,2.06442 31.45068,2.62087c0.99002,0.05244 1.9973,0.07512 3.01108,0.08533c-0.72729,-3.75155 -1.57011,-8.04641 -2.16302,-11.55513c-1.88725,-11.16847 -3.33501,-22.40682 -4.9649,-33.61574c-0.62963,-4.32999 0.35918,-16.52699 -2.15795,-12.94798c-9.75025,13.86353 -10.09203,18.06917 -21.39249,41.8174c-2.11103,4.43639 -4.20005,8.88319 -6.2761,13.33614c0.86498,0.10022 1.69828,0.18913 2.4927,0.25912zM225.42299,204.4968c-1.33336,-0.11422 -2.60456,-0.40368 -4.06112,-0.49482c-2.12481,-0.13294 -5.54454,-0.05099 -9.26955,-0.1425c-4.59084,9.92407 -9.21614,19.83172 -13.97555,29.67573c-1.95098,4.03526 -4.5983,10.39034 -7.86339,15.91401c-1.16282,4.05144 -3.98694,7.4003 -7.6878,9.26202c-1.03315,0.71803 -2.10229,1.24278 -3.20615,1.52334c-1.45418,0.3696 -3.22143,0.34421 -5.07976,-0.0111c-3.32458,-0.34221 -6.32721,-1.77024 -8.64732,-3.92351c-3.0494,-2.37762 -5.13614,-5.59059 -4.68946,-9.17844c-0.07204,-0.59611 -0.10912,-1.20298 -0.10912,-1.81852c0,-2.81333 0.77451,-5.44577 2.12194,-7.69572c4.79798,-14.07137 14.5827,-30.38407 19.52635,-40.96288c7.52164,-16.0954 14.90131,-32.25677 22.37294,-48.37544c6.11777,-13.19799 12.7836,-26.13538 19.29179,-39.14527c2.53086,-5.05919 6.43634,-9.86355 9.80986,-14.33284c7.98208,-10.57479 20.06488,-23.64466 34.58577,-16.38442c12.34615,6.1729 12.56475,24.57726 14.46468,35.97679c6.36239,38.17416 10.09847,77.5535 20.44138,114.92482c1.97676,7.14247 4.12786,19.63869 8.71595,26.45941c3.13552,4.66131 7.72814,6.56161 6.90464,13.14949c-0.78126,6.25 -4.62503,11.37499 -10.40628,13.87498c-6.52658,2.82229 -13.13188,-1.50509 -17.45303,-5.82617c-6.75714,-6.75704 -9.74741,-15.29226 -12.30213,-24.34909c-1.43227,-5.07761 -2.91118,-10.14197 -4.34808,-15.21827c-0.95702,-3.38097 -2.50945,-9.49342 -2.81631,-10.68916c-1.14613,-4.46615 -2.3432,-9.32678 -3.10491,-13.87788c-0.32424,-1.93729 -0.64241,-3.8756 -0.95728,-5.81446c-12.76371,1.16033 -37.48247,-2.11099 -42.25804,-2.52008z" fill="url(#color-1)" stroke="#000000" stroke-width="10"/><path d="M228.22246,174.62612c10.4793,0.92326 20.94551,2.06442 31.45068,2.62087c0.99002,0.05244 1.9973,0.07512 3.01108,0.08533c-0.72729,-3.75155 -1.57011,-8.04641 -2.16302,-11.55513c-1.88725,-11.16847 -3.33501,-22.40682 -4.9649,-33.61574c-0.62963,-4.32999 0.35918,-16.52699 -2.15795,-12.94798c-9.75025,13.86353 -10.09203,18.06917 -21.39249,41.8174c-2.11103,4.43639 -4.20005,8.88319 -6.2761,13.33614c0.86498,0.10022 1.69828,0.18913 2.4927,0.25912zM225.423,204.49681c-1.33336,-0.11422 -2.60456,-0.40368 -4.06112,-0.49482c-2.12481,-0.13294 -5.54454,-0.05099 -9.26955,-0.1425c-4.59084,9.92407 -9.21614,19.83172 -13.97555,29.67573c-1.95098,4.03526 -4.5983,10.39034 -7.86339,15.91401c-1.16282,4.05144 -3.98694,7.4003 -7.6878,9.26202c-1.03315,0.71803 -2.10229,1.24278 -3.20615,1.52334c-1.45418,0.3696 -3.22143,0.34421 -5.07976,-0.0111c-3.32458,-0.34221 -6.32721,-1.77024 -8.64732,-3.92351c-3.0494,-2.37762 -5.13614,-5.59059 -4.68946,-9.17844c-0.07204,-0.59611 -0.10912,-1.20298 -0.10912,-1.81852c0,-2.81333 0.77451,-5.44577 2.12194,-7.69572c4.79798,-14.07137 14.5827,-30.38407 19.52635,-40.96288c7.52164,-16.0954 14.90131,-32.25677 22.37294,-48.37544c6.11777,-13.19799 12.7836,-26.13538 19.29179,-39.14527c2.53086,-5.05919 6.43634,-9.86355 9.80986,-14.33284c7.98208,-10.57479 20.06488,-23.64466 34.58577,-16.38442c12.34615,6.1729 12.56475,24.57726 14.46468,35.97679c6.36239,38.17416 10.09847,77.5535 20.44138,114.92482c1.97676,7.14247 4.12786,19.63869 8.71595,26.45941c3.13552,4.66131 7.72814,6.56161 6.90464,13.14949c-0.78126,6.25 -4.62503,11.37499 -10.40628,13.87498c-6.52658,2.82229 -13.13188,-1.50509 -17.45303,-5.82617c-6.75714,-6.75704 -9.74741,-15.29226 -12.30213,-24.34909c-1.43227,-5.07761 -2.91118,-10.14197 -4.34808,-15.21827c-0.95702,-3.38097 -2.50945,-9.49342 -2.81631,-10.68916c-1.14613,-4.46615 -2.3432,-9.32678 -3.10491,-13.87788c-0.32424,-1.93729 -0.64241,-3.8756 -0.95728,-5.81446c-12.76371,1.16033 -37.48247,-2.11099 -42.25804,-2.52008z" fill="url(#color-2)" stroke="none" stroke-width="0.5"/></g></g></svg>