<svg version="1.1" xmlns="http://www.w3.org/2000/svg" xmlns:xlink="http://www.w3.org/1999/xlink" width="95.70462" height="93.53198" viewBox="0,0,95.70462,93.53198"><g transform="translate(-192.14769,-133.23401)"><g data-paper-data="{&quot;isPaintingLayer&quot;:true}" fill="#ff0000" fill-rule="nonzero" stroke="none" stroke-width="0.5" stroke-linecap="butt" stroke-linejoin="miter" stroke-miterlimit="10" stroke-dasharray="" stroke-dashoffset="0" style="mix-blend-mode: normal"><path d="M192.14769,171.57505c0.03042,-2.35683 2.89177,-3.94599 5,-5c1.06365,-0.53177 2.07035,0.20887 2.8904,0.9196c0.26686,0.18938 0.51434,0.40428 0.73887,0.64114c2.04493,1.65069 5.14672,1.07976 7.74477,1.47556c1.73038,0.26362 3.47927,0.39523 5.22498,0.52251c1.43118,0.10435 2.86654,0.16592 4.3015,0.17207c1.02739,0.0044 3.75601,0.58833 3.0768,-0.18254c-2.87683,-3.26505 -7.01795,-5.41182 -10.92939,-7.24391c-5.31167,-2.48794 -11.18254,-2.37562 -10.69559,-9.43598c0.23342,-3.38437 6.53764,-4.77146 8.92506,-5.99737c6.07031,-3.11702 12.06238,-7.72229 18.5157,-9.85978c2.9103,-0.96396 6.18042,-2.55789 8.29975,1.68072c3.03015,6.06024 -9.78931,10.33458 -13.57775,12.28567c-1.91943,0.98853 -4.86015,1.11071 -5.68345,3.1066c-0.2379,0.57673 1.07834,0.62863 1.63126,0.91759c2.48156,1.29686 3.65278,1.77899 6.01765,3.30546c5.25524,3.39215 11.80846,11.25221 6.30492,17.21253c-6.96992,7.54841 -21.03881,3.74307 -29.75141,2.08206c-3.14438,-0.59946 -5.96837,-1.29023 -7.46122,-4.27589z"/><path d="M246.70175,177.73321c-4.32484,1.17794 -6.98058,-2.40418 -7.51619,-6.06409c-0.57174,-3.90678 1.25782,-16.46444 2.63014,-20.62917c1.77675,-5.3921 7.76961,-4.99272 10.00651,0.22661c0.62688,1.46269 -1.38134,6.43355 -1.48479,7.98967c-0.23919,3.59807 -0.54086,7.14309 -0.90254,10.76007c0.56877,0.81159 0.90254,1.79992 0.90254,2.86621c0,2.07027 -1.25823,3.84666 -3.0517,4.6062c-0.17927,0.10416 -0.373,0.18703 -0.58397,0.2445z"/><path d="M255.71817,176.31644c-0.12908,-0.22947 -0.23827,-0.49833 -0.32928,-0.80196c-0.18192,-0.5039 -0.28518,-1.04541 -0.29495,-1.6097c-0.58574,-5.89209 2.23843,-17.84147 3.0007,-20.89769c0.89274,-3.57932 2.53178,-9.34466 7.41522,-8.65906c3.99043,0.56022 5.7129,3.95612 6.83867,7.65562c0.23918,0.786 0.47371,1.5735 0.72483,2.35577c0.31075,0.96803 0.81516,3.8848 0.99315,2.88382c1.21367,-6.82512 1.05587,-14.02339 4.0706,-20.49647c1.11891,-2.40247 2.82182,-4.32986 6.32455,-3.16229c3.51204,1.17067 3.70387,3.72963 3.16229,6.32455c-0.872,4.1781 -2.56125,8.07285 -3.14628,12.36652c-0.70804,5.19649 0.39395,14.58423 -2.92251,19.12262c-5.8626,8.02262 -12.462,-2.79223 -15.36235,-7.3003c-0.49207,-0.76483 -0.27427,1.79813 -0.42056,2.69574c-0.1161,0.71237 -0.45392,3.62486 -0.7736,6.05042c0.062,0.31455 0.0945,0.63969 0.0945,0.97242c0,0.89775 -0.2366,1.74025 -0.65085,2.46852c-0.85995,1.51185 -2.48548,2.53148 -4.34915,2.53148c-1.62714,0 -3.07275,-0.77725 -3.98581,-1.98072c-0.14902,-0.15393 -0.28022,-0.32556 -0.38919,-0.51928z"/><path d="M246.14878,193.75897c-2.05336,0.11993 -3.76627,1.66146 -5.59188,2.60899c-4.01608,2.08441 -9.30167,5.28206 -11.02351,9.81447c-3.10783,8.18073 6.12415,11.65923 12.23537,9.43572c3.03958,-1.10592 6.26125,-2.65644 8.23826,-5.3527c0.26895,-0.36679 -0.93128,0.00045 -1.35424,-0.16678c-0.66383,-0.26245 -2.98606,-1.36804 -3.30683,-2.3304c-0.95361,-2.86092 -0.53194,-4.90517 1.71496,-6.85995c3.69092,-3.21106 10.58834,-7.25668 15.5473,-4.93873c1.18286,0.5529 2.36017,2.81142 3.14888,3.1055c3.05953,1.14079 7.76827,1.1105 7.76824,5.77404c-0.00001,1.89699 -0.97617,3.92663 -1.44845,5.79604c-0.53672,2.12447 -0.22048,5.80598 -0.25955,7.62533c-0.02584,1.20333 -0.34922,3.63944 -1.28233,4.30594c-3.83599,2.73996 -5.89098,2.39745 -8.63094,-1.43854c-1.46034,-2.0445 -0.13435,-5.02492 -0.08673,-7.53695c0.01718,-0.90617 0.88526,-3.29015 0.18679,-2.71258c-2.43744,2.01553 -4.2154,5.80384 -6.59382,8.11594c-6.75583,6.56746 -19.97485,10.94542 -28.32565,4.85159c-1.86234,-1.359 -2.88126,-2.56894 -4.1689,-4.45365c-11.2386,-16.44989 4.43155,-27.89678 18.19797,-34.40115c2.0091,-0.94926 12.81944,-2.46787 12.72593,1.92849c0.38704,0.70998 0.60697,1.52417 0.60697,2.38973c0,2.76142 -2.23858,5 -5,5c-0.30167,0.2993 -2.46458,-0.60901 -3.29783,-0.56034z"/></g></g></svg>