<svg version="1.1" xmlns="http://www.w3.org/2000/svg" xmlns:xlink="http://www.w3.org/1999/xlink" width="65.70913" height="117.91097" viewBox="0,0,65.70913,117.91097"><g transform="translate(-207.14544,-121.04452)"><g data-paper-data="{&quot;isPaintingLayer&quot;:true}" fill="#ff0000" fill-rule="nonzero" stroke="none" stroke-width="0.5" stroke-linecap="butt" stroke-linejoin="miter" stroke-miterlimit="10" stroke-dasharray="" stroke-dashoffset="0" style="mix-blend-mode: normal"><path d="M208.63019,196.09447l-0.07462,-0.02099l-0.07126,-0.13361c-0.56469,-0.62432 -0.97396,-1.39187 -1.1668,-2.24163l-0.16142,-0.64566l-0.00002,-2.49957l-0.01063,-0.03899l0.01063,-0.01772l0,-0.02066l0.02918,-0.02796l1.28603,-2.14336l0.56035,-0.56034l0.39518,-0.2371l0.26103,-0.34804l0.3809,-0.30948l0.27428,-0.40699l3.5346,-3.18114l2.99494,-3.34729l0.06054,-0.04105l0.03592,-0.06371l3.17741,-3.3539l2.82577,-3.70883l0.06944,-0.05555l0.03794,-0.08043l3.1912,-3.90036l2.65225,-4.06678l2.42609,-3.73244l0.04147,-0.03859l0.01961,-0.05314l2.80172,-4.1092l0.23389,-0.20822l0.14368,-0.27824l3.92096,-4.45564l2.79753,-4.02144l2.21393,-3.32088l0.10512,-0.09556l0.05513,-0.13093l2.24137,-2.98851l0.12925,-0.10501l0.07447,-0.14895l2.24138,-2.61495l0.15988,-0.11346l0.10087,-0.16811l2.24138,-2.24138l0.3086,-0.18516l0.22694,-0.27931l1.9571,-1.46782l1.61653,-1.61655l0.00002,-0.00001l0.00001,-0.00002l1.0916,-1.09159l0.6321,-1.01136l0.2487,-0.23982l0.15021,-0.31113l0.93392,-1.12069l0.1866,-0.13636l0.11891,-0.19818l0.36019,-0.36019l0.19749,-0.39498l0.29578,-0.34507l0.17637,-0.41887l0.56033,-0.74711l0.47707,-0.63609l0.29658,-0.44488l0.10515,-0.09559l0.05515,-0.13097l0.16356,-0.21807l0.12796,-0.31988l1.04278,-1.44384l0.06399,-0.23465l0.13136,-0.03583l0.27065,-0.37475l2.25891,-0.31518l2.20041,-0.60016l0.39639,0.23783l0.13485,-0.01882l0.15126,0.19047l1.52724,0.9163l0.56035,0.56033l0.01469,0.02448l0.08794,0.02474l0.58434,1.09568l0.6389,1.06479l-0.02404,0.08814l0.01344,0.02519l0.18677,0.74713l-0.00001,0.26243l0.09901,0.24303l0.18679,1.30747l0,0.00004l0.00001,0.00003l0.18677,1.30746l-0.00825,0.07974l0.02791,0.07515l0.18679,1.68105l-0.00379,0.02802l0.00955,0.02661l0.18679,1.86781l-0.03676,0.25122l0.06158,0.24632v1.64103l0.16624,1.82875l-0.03553,0.2284l0.05606,0.22424l0,7.92528l0.33933,2.88418l-0.03797,0.29534l0.07222,0.28888v11.02013l-0.05367,0.21466l0.03487,0.2185l-0.35478,4.07981v4.26577l-0.02589,0.10357l0.02156,0.10456l-0.18644,4.47479l-0.18648,4.84837l-0.01723,0.05914l0.01118,0.06057l-0.3692,5.90725l-0.18438,5.34685l-0.02121,0.07393l0.01381,0.07566l-0.37356,5.79024l-0.00746,0.02333l0.00417,0.02413l-0.3599,4.85867v4.11107l-0.06158,0.24631l0.03676,0.25121l-0.36185,3.61847l-0.17369,3.29997v3.23059l-0.03872,0.15489l0.02898,0.157l-0.17704,2.83271v4.847l0.16624,1.82872l-0.03553,0.22841l0.05606,0.22426v5.79024l-0.14928,0.59713l0,0.61551l-0.18678,0.74713l-0.09226,0.173l-0.01504,0.19548l-0.2704,0.81122l0.01478,0.05418l-0.07389,0.12314l-0.04405,0.13216l-0.6168,0.96926l-0.59109,0.98515l-0.0985,0.0985l-0.0771,0.12116l-0.05507,0.01101l-0.32967,0.32967l-0.42707,0.25624l-0.1745,0.19195l-0.00783,0.02783l-0.03392,0.01809l-0.11877,0.13065l-0.56035,0.37356l-0.80576,0.28776l-0.75494,0.40265l-0.33881,0.08471l-0.02763,0.03173l-0.12261,0.00584l-0.25807,0.06452l-1.09729,0.00001l-1.09605,0.05218l-0.26084,-0.05217l-0.12275,0l-0.02911,-0.03037l-0.52119,-0.10424l-0.28549,-0.13524l-0.31497,-0.02423l-0.82544,-0.27514l-0.6287,-0.12575l-0.60351,-0.28588l-0.65189,-0.14486l-0.74713,-0.37356l-0.14887,-0.1276l-0.18758,-0.05709l-0.93391,-0.56034l-0.02046,-0.02046l-0.02758,-0.00874l-2.42817,-1.49428l-0.12256,-0.12535l-0.16311,-0.06425l-1.30746,-0.9339l-0.00001,-0.00001l-0.00002,-0.00001l-1.30747,-0.93392l-0.14615,-0.17157l-0.20159,-0.10079l-0.98744,-0.84637l-2.44029,-1.46417l-0.30089,-0.30089l-0.3806,-0.1903l-0.94672,-0.81148l-0.89496,-0.5114l-0.18593,-0.17818l-0.2396,-0.09439l-0.86763,-0.61975l-0.81067,-0.34743l-0.23136,-0.17583l-0.27973,-0.07867l-1.18698,-0.67827l-0.99657,-0.49829l-0.40386,-0.34616l-0.48354,-0.22162l-0.80892,-0.64713l-1.73667,-1.21568l-0.10733,-0.12359l-0.14881,-0.0682l-0.93392,-0.74713l-0.00002,-0.00002l-0.00002,-0.00001l-0.9339,-0.74713l-0.17061,-0.22393l-0.2414,-0.14484l-0.73807,-0.73807l-0.71765,-0.5741l-0.03119,-0.04094l-0.04635,-0.02237l-1.10338,-0.91949l-1.91042,-1.56308l-1.1742,-0.83871l-0.1234,-0.14486l-0.17137,-0.08273l-1.12068,-0.93391l-1.12069,-0.93391l-0.13639,-0.18663l-0.19822,-0.11893l-1.04386,-1.04386l-2.16129,-1.98117l-0.06141,-0.09295l-0.09553,-0.05732l-0.58381,-0.58382l-0.70874,-0.47249l-0.18276,-0.20103l-0.24467,-0.11812l-2.24137,-1.86782l-0.13638,-0.18662l-0.1982,-0.11892l-0.58384,-0.58383l-0.70877,-0.47251l-0.14884,-0.16372l-0.20115,-0.09219l-0.9339,-0.74713l-0.06848,-0.08988l-0.10054,-0.05156l-1.49425,-1.30746l-0.37772,-0.54391l-0.48999,-0.44544l-0.37358,-0.56035l-0.04101,-0.11483l-0.08622,-0.08622l-0.56034,-0.9339l-0.75031,-2.46529l0.16921,-0.30165l-0.14462,-0.31418l0.45644,-1.15864c-0.6874,-0.25771 -1.30295,-0.66242 -1.80838,-1.17586z" data-paper-data="{&quot;index&quot;:null}"/></g></g></svg>