<svg version="1.1" xmlns="http://www.w3.org/2000/svg" xmlns:xlink="http://www.w3.org/1999/xlink" width="233.67859" height="146.68862" viewBox="0,0,233.67859,146.68862"><g transform="translate(-123.16069,-106.65569)"><g data-paper-data="{&quot;isPaintingLayer&quot;:true}" fill="#ff0000" fill-rule="nonzero" stroke="none" stroke-width="0.5" stroke-linecap="butt" stroke-linejoin="miter" stroke-miterlimit="10" stroke-dasharray="" stroke-dashoffset="0" style="mix-blend-mode: normal"><path d="M216.18237,126.35714c0.27734,4.9923 -4.71496,5.26965 -4.71496,5.26965l-0.10161,0.00564c-16.05614,0.89046 -32.03588,2.62749 -48.06856,3.68682l-0.37746,1.45203c-0.00883,2.12823 0.69987,4.19862 1.06914,6.29459c1.33591,7.58259 2.10572,15.61672 2.32827,23.29379c0.49721,17.15215 -0.89089,34.56436 -2.43197,51.63022c-0.85422,9.45965 -1.53037,20.32778 -5.41002,29.17603c-0.73012,1.66516 -2.26733,2.84299 -3.40099,4.26449c0,0 -3.20092,3.84111 -7.04203,0.6402c-3.84111,-3.20092 -0.6402,-7.04203 -0.6402,-7.04203c2.32801,-2.5999 3.2701,-6.26106 4.00801,-9.67201c1.87031,-8.64532 1.708,-9.1464 2.52547,-18.26295c1.49551,-16.67819 2.8674,-33.68086 2.39596,-50.44284c-0.29098,-10.34567 -3.21761,-20.44036 -3.32387,-30.64625c-4.71894,0.35182 -9.42641,0.76073 -14.15041,1.20813c-2.86199,0.27106 -5.81141,0.36664 -8.35207,1.73882c0,0 -4.4721,2.23614 -6.70824,-2.23596c-2.23614,-4.4721 2.23596,-6.70824 2.23596,-6.70824c5.97289,-2.85991 12.60514,-2.68535 19.1049,-3.3044c4.88172,-0.46494 9.76908,-0.88475 14.66391,-1.1814c17.02282,-1.03166 33.97884,-2.92537 51.0195,-3.87364l0.10161,-0.00564c0,0 4.9923,-0.27734 5.26965,4.71496z"/><path d="M263.10981,190.98224c1.21269,4.85071 -3.63801,6.0634 -3.63801,6.0634l-7.15924,1.76951c-2.87877,0.20014 -5.72596,0.44986 -8.55314,0.74532c0.91926,4.51098 2.1171,8.51173 3.55852,12.92197c0.34935,1.06889 0.45215,2.21302 0.8505,3.26464c0.15982,0.42192 0.76419,0.89409 0.49819,1.25852l2.90434,-1.11403c0,0 4.88093,-1.08468 5.96561,3.79624c1.08468,4.88093 -3.79624,5.96561 -3.79624,5.96561l-7.18191,1.12742c-1.57427,-1.01105 -3.32972,-1.78421 -4.72281,-3.03314c-3.05492,-2.73878 -2.75585,-4.41805 -4.01462,-8.13346c-1.67761,-4.95167 -2.66301,-9.87711 -3.72808,-14.86247c-6.45514,0.91245 -12.87459,2.04504 -19.40094,3.35039c-6.07604,1.21529 -11.34716,2.39936 -16.52963,4.42814c-0.32744,2.21579 -0.6514,4.43203 -1.14582,6.61498c-1.68844,7.45483 -3.24028,14.24785 -3.24028,21.87727c0,0 0,5 -5,5c-5,0 -5,-5 -5,-5c0,-8.18248 1.86279,-15.7292 3.4533,-23.54202c-1.39825,0.11485 -3.12719,-0.30546 -4.4218,-2.46314c-2.57247,-4.28747 1.715,-6.85994 1.715,-6.85994c1.58419,-0.94367 3.28577,-1.92029 5.04715,-2.85784c0.83978,-3.77005 1.80561,-7.46201 2.74215,-11.36078c1.6636,-6.92551 2.68063,-13.98971 4.52233,-20.89068c1.35129,-5.06335 2.27461,-10.92028 5.81672,-15.07854c1.35695,-1.59299 2.76536,-3.48484 4.77172,-4.07936c2.16053,-0.6402 4.48444,0.44814 6.72666,0.6722c4.20268,2.6904 6.16767,3.61915 9.76521,7.51655c1.05315,1.14093 4.68196,7.2237 5.44031,8.3623c3.18924,4.78835 7.1249,8.90906 9.41596,14.28396c1.21474,2.84983 2.14389,5.89957 2.91278,8.98926c2.99957,-0.31704 6.01989,-0.5787 9.0736,-0.77771l6.28907,-1.59261c0,0 4.85071,-1.21269 6.0634,3.63801zM212.7308,194.29638c6.3839,-1.27671 12.67632,-2.40944 18.99918,-3.32782c-0.61499,-2.15631 -1.3153,-4.28792 -2.17245,-6.35573c-1.94789,-4.69915 -5.72644,-8.43335 -8.51513,-12.61264c-3.3683,-5.04793 -5.56543,-8.52166 -10.57036,-12.13842c0.0055,-0.96922 -2.08006,3.93653 -2.43473,4.92275c-0.31129,0.8656 -0.17267,1.83666 -0.37483,2.73404c-1.38521,6.14872 -3.2192,12.18498 -4.45929,18.38158c-0.72601,3.62779 -1.7097,7.19215 -2.62828,10.76877c3.97492,-1.09694 8.10891,-1.56316 12.15588,-2.37251z"/><path d="M278.16355,165.27399c3.28675,-2.55636 5.96525,-0.24675 6.76918,0.59721c0.27167,-3.68267 0.55311,-7.36729 0.84222,-11.05576c0.76491,-9.75851 0.82112,-19.78489 2.27789,-29.46255c0.47534,-3.15777 1.66384,-5.43487 2.23974,-8.41528c-1.8327,0.24965 -3.669,0.70529 -5.5214,1.45131c0,0 -4.6424,1.8569 -6.49931,-2.7855c-1.8569,-4.6424 2.7855,-6.49931 2.7855,-6.49931c7.08958,-2.81935 10.67597,-2.7285 18.99685,-2.05484c3.23667,0.26204 6.44085,0.84175 9.67251,1.15966c2.67358,0.26301 5.36726,0.2956 8.03837,0.58263c10.76746,1.15705 24.71125,5.00006 32.92353,12.4362c2.68939,2.43522 5.80219,6.46984 6.09895,10.31035c0.1894,2.45111 -0.16955,4.93252 -0.6217,7.349c-0.93367,4.98999 -2.21172,5.44126 -5.46992,9.39756c-5.77708,3.9155 -11.57059,7.77743 -17.37581,11.64605c-6.62199,4.41292 -12.47513,9.51073 -19.84503,12.75924c-5.39176,2.37659 -8.50934,2.55734 -14.03355,4.13312c-2.01867,0.57582 -3.7365,1.03254 -5.35575,1.37141c-0.72683,10.76047 -1.35083,21.52103 -1.82039,32.33c-0.34159,7.86311 -0.6552,11.76337 -0.43116,19.61787c0.15311,5.3679 -0.44246,8.20602 2.09163,12.15247c0,0 2.57253,4.28744 -1.71491,6.85996c-4.28744,2.57253 -6.85996,-1.71491 -6.85996,-1.71491c-3.33235,-5.78476 -3.29699,-9.93755 -3.51189,-16.98547c-0.24435,-8.0141 0.08983,-12.38048 0.43569,-20.36334c0.45278,-10.45094 1.05026,-20.85753 1.74534,-31.26218c-0.34464,-0.02114 -0.69806,-0.04563 -1.06125,-0.07345l-5.67243,-6.465c0,0 -3.0697,-3.94676 0.87706,-7.01646zM309.50878,163.5102c5.99474,-2.63211 7.28083,-4.13459 12.52724,-7.88545c7.1696,-5.12582 14.59616,-9.95932 21.97616,-14.77829c1.01731,-1.18952 2.08524,-2.51262 2.37486,-4.0508c0.23994,-1.27431 0.55559,-2.5625 0.49897,-3.85797c-0.22312,-5.10507 -8.97046,-8.1503 -12.49446,-9.46641c-8.47077,-3.16359 -16.68422,-4.43208 -25.61718,-5.3078c-2.9289,-0.28713 -5.77231,-0.73879 -8.57292,-1.06697l-0.05665,1.55298c-0.40984,1.92333 -1.2449,3.73108 -1.82903,5.60883c-1.46123,4.69731 -1.16079,11.68941 -1.44695,16.15596c-0.32471,5.06832 -0.72848,10.13134 -1.1254,15.19452c-0.31521,4.02097 -0.62114,8.03726 -0.91512,12.05137c4.95825,-1.1543 10.0206,-2.10395 14.68047,-4.14996z"/></g></g></svg>