<svg version="1.1" xmlns="http://www.w3.org/2000/svg" xmlns:xlink="http://www.w3.org/1999/xlink" width="303.0825" height="153.59841" viewBox="0,0,303.0825,153.59841"><defs><linearGradient x1="148.95062" y1="118.40359" x2="148.95062" y2="241.59639" gradientUnits="userSpaceOnUse" id="color-1"><stop offset="0" stop-color="#ff0000"/><stop offset="1" stop-color="#000eff"/></linearGradient><linearGradient x1="212.82239" y1="129.81285" x2="212.82239" y2="227.27932" gradientUnits="userSpaceOnUse" id="color-2"><stop offset="0" stop-color="#ff0000"/><stop offset="1" stop-color="#000eff"/></linearGradient><linearGradient x1="279.08075" y1="131.64397" x2="279.08075" y2="230.1239" gradientUnits="userSpaceOnUse" id="color-3"><stop offset="0" stop-color="#ff0000"/><stop offset="1" stop-color="#000eff"/></linearGradient><linearGradient x1="347.89295" y1="128.73695" x2="347.89295" y2="230.38942" gradientUnits="userSpaceOnUse" id="color-4"><stop offset="0" stop-color="#ff0000"/><stop offset="1" stop-color="#000eff"/></linearGradient><linearGradient x1="148.73239" y1="118.40363" x2="148.73239" y2="241.59637" gradientUnits="userSpaceOnUse" id="color-5"><stop offset="0" stop-color="#ff0000"/><stop offset="1" stop-color="#c700ff"/></linearGradient><linearGradient x1="212.6042" y1="129.81285" x2="212.6042" y2="227.27929" gradientUnits="userSpaceOnUse" id="color-6"><stop offset="0" stop-color="#ff0000"/><stop offset="1" stop-color="#c700ff"/></linearGradient><linearGradient x1="278.86255" y1="131.64393" x2="278.86255" y2="230.1239" gradientUnits="userSpaceOnUse" id="color-7"><stop offset="0" stop-color="#ff0000"/><stop offset="1" stop-color="#c700ff"/></linearGradient><linearGradient x1="347.67473" y1="128.73691" x2="347.67473" y2="230.38938" gradientUnits="userSpaceOnUse" id="color-8"><stop offset="0" stop-color="#ff0000"/><stop offset="1" stop-color="#c700ff"/></linearGradient></defs><g transform="translate(-88.04855,-103.40361)"><g data-paper-data="{&quot;isPaintingLayer&quot;:true}" fill-rule="nonzero" stroke-linecap="butt" stroke-linejoin="miter" stroke-miterlimit="10" stroke-dasharray="" stroke-dashoffset="0" style="mix-blend-mode: normal"><g data-paper-data="{&quot;index&quot;:null}" stroke="#000000" stroke-width="30"><path d="M131.90485,231.56155c0,0.51116 -0.0441,1.01325 -0.12912,1.50347l-0.00467,1.10559l-0.4793,0.61983c-1.30558,3.32464 -4.57103,5.84298 -8.57853,6.48169l-0.77216,0.32426l-1.25091,-0.16641c-1.1454,-0.00155 -2.25047,-0.15464 -3.29079,-0.43777l-0.48717,-0.0648l-0.26675,-0.16684c-1.75299,-0.6017 -3.29159,-1.58137 -4.48687,-2.82542l-2.19208,-2.25393l-0.22303,-0.39311l-1.07299,-1.09497l-0.45178,-1.59267l-0.83305,-1.46838l0.00613,-1.44679l-0.12095,-0.42639v-32.76826l-0.3657,-12.56957l-0.73723,-12.34506l-0.74051,-11.42092l-0.73309,-9.04526l-0.73668,-7.14174l0.02131,-0.12072l-0.04249,-0.11629l-0.36707,-4.85262l-0.36553,-3.86588l0.07656,-0.41327l-0.11524,-0.40626v-4.93422l0.30028,-1.05856l-0.11295,-1.72078l1.03673,-1.53578l0.17561,-0.61909l0.77879,-0.79475l0.60922,-0.90247l0.61087,-0.34261l1.32531,-1.35245l1.88803,-0.44971l1.04451,-0.5858l1.11973,-0.32894l0.43775,-0.02967l0.38739,-0.18209l1.49297,-0.32894h0.58782l0.54437,-0.19546l2.6127,-0.32894l0.80166,0.07308l0.78187,-0.17227h34.71159l0.78188,0.17227l0.80166,-0.07308l7.8381,0.98685l0.60878,0.21859l0.65731,0.00715l7.09162,1.64474l0.61439,0.29742l0.69455,0.08347l5.59864,1.97368l0.21457,0.13658l0.26033,0.04215l4.10567,1.64474l1.23854,0.86764l1.4151,0.62358l2.42512,1.83198l0.42488,0.22277l1.49309,2.06784l1.60954,1.99882l0.07378,0.43084l0.66835,1.76711l0.07807,0.89436l0.38401,0.83071l0.37324,2.30264l-0.08293,0.70652l0.19547,0.68909v2.63158l-0.33432,1.17858v1.21487l-1.11973,3.94737l-0.77924,1.28768l-0.48213,1.39614l-3.35919,4.93422l-0.25061,0.22087l-0.12396,0.29262l-4.10567,5.26316l-0.17736,0.13809l-0.09183,0.19223l-4.47892,5.26316l-0.31353,0.22451l-0.18263,0.31757l-4.85216,4.93422l-0.33405,0.20653l-0.20994,0.30837l-11.94377,10.52632l-0.18237,0.09643l-0.1161,0.15705l-5.2254,4.27632l-0.40892,0.19848l1.72204,1.62609l0.06772,0.10772l0.11539,0.06945l5.85384,5.80401l6.49212,6.03953l6.4531,5.68726l4.63581,3.77137l3.30806,2.62391l1.09267,0.72226l3.63912,3.94737l1.08474,4.37911l-2.48439,5.48932l-5.28371,3.63898l-5.07376,0.30839l-5.31871,-1.97368l-1.49297,-0.98685l-0.32165,-0.3489l-0.45057,-0.2107l-3.73243,-2.96053l-0.04059,-0.05307l-0.06372,-0.03071l-4.85216,-3.94737l-0.1259,-0.16922l-0.19688,-0.1041l-6.71837,-5.92105l-0.07997,-0.11746l-0.13106,-0.07362l-6.71837,-6.25001l-0.0896,-0.14005l-0.15066,-0.09067l-5.88155,-5.83149l-5.00093,-4.72225l-2.84948,-2.5113l-0.41465,-0.60907l-0.6255,-0.44791l-1.11973,-1.31579l-0.12105,-0.25338l-0.2933,-0.29931l0.03743,1.28657l-0.03209,0.12685l0.03577,0.12609v29.27537c0.9427,1.10582 1.62793,2.39187 1.97721,3.789l0.14742,0.25986l-0.00189,0.44317c0.0769,0.46688 0.1167,0.94434 0.1167,1.43zM136.82023,177.61416l4.00875,-2.64975l4.64284,-3.79957l11.51478,-10.14825l4.33165,-4.4049l4.10322,-4.82169l3.77863,-4.84392l2.32367,-3.41317l0.3347,-1.17993l-0.99259,-0.39763l-4.71771,-1.66314l-5.79817,-1.34476l-6.40989,-0.80703h-27.54584l0.31461,4.15916l0.73427,7.11846l-0.01713,0.09702l0.03465,0.09332l0.74648,9.21054l-0.01416,0.07114l0.02438,0.06896l0.74648,11.51316l-0.00484,0.02246l0.00761,0.02185l0.74648,12.5l-0.02963,0.13409l0.04144,0.13163l0.00456,0.15682l3.23,-3.29615l0.77162,-0.1838l0.00009,-0.00006l2.43393,-1.87693l0.3834,-0.17329z" fill="url(#color-1)"/><path d="M240.34159,179.00854c4.60936,4.68731 4.38776,7.42157 -0.93074,11.48391c-0.59286,0.45283 -1.93766,0.58914 -3.40838,0.58888c0.17029,4.08471 0.34008,8.17042 0.51845,12.25751c0.22263,5.10111 0.73784,12.42571 0.37883,17.36153c-0.08204,1.12793 -0.02629,2.49028 -0.9331,3.28947c-4.97657,4.38596 -8.08693,4.38596 -13.0635,0c-0.90682,-0.79921 -0.85015,-2.16161 -0.9331,-3.28947c-0.41304,-5.61544 -0.14385,-11.25482 -0.36881,-16.87855c-0.17461,-4.36511 -0.28901,-8.73206 -0.42907,-13.09818c-1.28936,0.00898 -2.57865,0.02339 -3.86777,0.04251c-2.2602,0.03352 -4.5265,0.07777 -6.77311,0.29847c-2.73065,0.26824 -5.68338,0.734 -8.34176,1.35183c-1.603,3.84927 -3.16438,7.70478 -4.67781,11.54918c-0.49735,1.26335 -0.20484,2.68492 -0.5943,3.97734c-0.142,1.13459 -0.61135,2.18227 -1.323,3.06805c-1.12768,1.78134 -2.9468,3.1288 -6.09649,2.78148c-1.76129,0 -3.38013,-0.53759 -4.65674,-1.43676c-1.22794,-0.69536 -2.15476,-1.62696 -2.31374,-2.7829c-0.31934,-0.73236 -0.49436,-1.52783 -0.49436,-2.3593c0,-0.38613 0.03775,-0.76452 0.11017,-1.13241c1.05413,-9.10794 6.03384,-17.50444 9.63464,-26.01138c5.52098,-13.04342 11.29773,-25.7643 18.71708,-38.06253c2.39277,-3.96622 8.56898,-13.24673 14.83429,-12.09637c0.65289,0.11988 4.98012,1.32488 5.82927,2.38785c3.45797,4.32873 2.41199,12.43286 2.74309,17.29511c0.63812,9.37096 1.11137,18.74172 1.52971,28.11612c2.03738,0.14539 4.11512,0.49 4.91029,1.29861zM219.39424,155.44447c-0.04939,-0.24853 -0.27975,0.44113 -0.39626,0.6716c-2.32012,4.58995 -4.75607,9.13702 -6.91295,13.7884c-1.28586,2.77301 -2.55583,5.56805 -3.80736,8.37815c4.16623,-0.40451 8.27117,-0.57772 12.4365,-0.64624c-0.12248,-7.33223 -0.00143,-15.5564 -1.31992,-22.19191z" fill="url(#color-2)"/><path d="M249.79623,203.03831c1.06986,-3.94873 2.02903,-7.92115 2.92046,-11.90414c0.94547,-4.2245 1.71209,-8.4786 2.5894,-12.71451c0.81703,-3.94485 2.06992,-7.81017 3.03349,-11.72926c0.66453,-2.70284 1.21215,-5.42706 1.84623,-8.13557c0.40885,-1.74648 1.13193,-3.79174 1.61058,-5.35587c0.99731,-3.25907 1.54831,-10.40747 5.64201,-12.35736c0.45367,-0.21609 1.06825,0.0983 1.54467,-0.07564c0.47644,-0.17392 0.64277,-0.84277 1.15293,-0.90916c11.41547,-1.48524 14.90933,14.86161 16.90985,21.61705c1.49361,5.04371 3.00069,10.08436 4.47892,15.13159c0.47831,1.63314 0.71074,8.06215 1.36728,5.74412c1.41254,-4.98725 4.20764,-27.66645 4.86845,-34.86382c0.22366,-2.43612 0.15634,-6.44058 0.72437,-9.02229c0.98403,-4.47232 6.48273,-8.90843 11.94377,-5.75659c0.89265,0.51521 3.57383,4.88302 3.73243,5.75659c0.10963,0.60381 -0.81006,1.06463 -0.84843,1.67518c-0.17028,2.70953 -0.45815,5.71195 -0.6968,8.3794c-1.73752,19.42115 -5.84747,38.68561 -7.427,58.15731c-0.42042,5.18278 0.56877,14.24882 -3.00518,18.75342c-0.29551,0.37246 -1.0487,0.20447 -1.43828,0.50225c-0.38957,0.29779 -0.30739,0.97866 -0.76756,1.18382c-11.42646,5.09415 -13.36036,-8.90084 -14.79047,-14.98213c-0.39972,-1.69971 -0.95681,-3.36783 -1.40934,-5.05722c-0.52306,-1.95277 -1.0559,-4.07887 -1.53696,-6.03841c-0.49488,-2.01579 -0.99769,-4.21813 -1.49945,-6.23258c-0.59757,-2.39915 -1.24076,-4.78932 -1.85299,-7.18559c-0.65212,-2.55238 -0.78181,-3.91197 -1.85702,-7.8506c-1.12503,-4.12119 -2.07444,-8.29726 -3.64212,-12.30455c-0.14414,-0.36845 -0.32323,1.48913 -0.47281,2.07095c-0.97406,3.789 -2.07108,7.55444 -2.94675,11.36206c-0.96763,4.20743 -1.71042,8.45262 -2.58162,12.67638c-1.60401,7.77645 -3.74194,15.06541 -6.1538,22.64763c-0.64226,2.01909 -1.34039,7.28303 -2.78271,9.41225c-0.48339,0.71362 -1.2447,1.81678 -2.2138,2.75114c-1.28361,1.23758 -2.9318,2.17899 -4.78173,1.52674c-2.88776,0 -5.39253,-1.44515 -6.63403,-3.5596c-0.59747,-0.68125 -0.91852,-1.44532 -0.78653,-2.29839c-0.02928,-0.23678 -0.0443,-0.47732 -0.0443,-0.72096c0,-0.97636 0.24133,-1.90306 0.67429,-2.73628c1.53231,-5.88006 3.52253,-11.62235 5.13056,-17.55735z" fill="url(#color-3)"/><path d="M322.74564,171.02928c0.00761,-0.51931 0.13374,-1.01029 0.35327,-1.47438c-0.10125,-1.92547 -0.19945,-3.75708 -0.33035,-5.21631c-0.25647,-2.85895 -0.65667,-5.70725 -1.07805,-8.55097c-0.70416,-4.75219 -1.79279,-9.49914 -2.45442,-14.23578c-0.22376,-1.60184 -0.76897,-4.08733 0.71022,-5.391c4.97658,-4.38596 8.08694,-4.38596 13.0635,0c0.78597,0.69269 1.38153,5.98122 1.59889,7.25828c0.24005,1.41031 0.48833,2.81952 0.73814,4.22851c0.76389,4.30849 1.32609,8.57464 1.78121,12.8483c3.48821,-4.06164 10.90931,-13.07949 13.92888,-16.70362c3.03032,-3.63703 9.48299,-12.16106 14.57656,-14.09233c7.68029,-2.91206 12.55043,1.03188 10.86949,8.43912c-0.33956,1.4963 -3.93624,3.17051 -5.1275,4.30233c-1.91848,1.82276 -7.25916,7.93466 -8.33042,9.19386c-6.57511,7.72862 -12.85493,15.60543 -19.72698,23.12217c0.52222,0.51774 1.0317,1.02858 1.518,1.52979c7.84872,8.08938 14.71063,16.77924 21.15599,25.77998c0.43179,0.60298 6.3992,7.90529 6.31834,8.83174c-0.19234,2.20354 -0.62629,4.80561 -2.53025,6.24389c-7.78108,5.87798 -13.2991,-3.75165 -16.39666,-8.06259c-1.31558,-1.83092 -2.64348,-3.6553 -4.00753,-5.45844c-1.81267,-2.39618 -7.15585,-9.24003 -9.57947,-12.11569c0.21,3.43438 0.37392,7.11235 0.47275,8.31472c0.44209,5.37937 1.48158,11.76098 1.79311,17.26596c0.04079,0.72066 -0.03628,1.45049 0.09193,2.16313c0.00451,0.0251 0.00999,0.05032 0.01638,0.07568c0.5902,0.59327 1.06128,1.28088 1.38035,2.03381c0.43086,0.59084 0.72459,1.18154 0.44116,1.7242c0.01876,0.19021 0.02834,0.38275 0.02834,0.57725c0,3.63346 -3.34213,6.57895 -7.46486,6.57895c-0.59064,0.33826 -1.31444,0.03595 -2.03634,-0.24775c-0.34333,-0.0856 -0.67661,-0.19232 -0.99791,-0.31844c-2.78713,-0.49285 -4.946,-4.17124 -5.74311,-6.36344c-1.29009,-3.54789 -0.84997,-8.11692 -1.25969,-11.84439c-0.83716,-7.61611 -1.3133,-15.25993 -1.89084,-22.89475c-0.1815,-2.39936 -0.4039,-4.79609 -0.62958,-7.19262c-1.01754,-1.12435 -1.62575,-2.54916 -1.62575,-4.09917c0,-0.81251 0.16713,-1.59062 0.47273,-2.30908c0.08703,-0.28806 0.20192,-0.5667 0.36521,-0.82908c0.04559,-0.07325 0.09115,-0.1439 0.1367,-0.21207c-0.02104,-0.31894 -0.04125,-0.64107 -0.06078,-0.96514z" fill="url(#color-4)"/></g><g stroke="none" stroke-width="0.5"><path d="M132.12309,231.56153c0,0.51116 -0.0441,1.01325 -0.12912,1.50347l-0.00467,1.10559l-0.4793,0.61983c-1.30558,3.32464 -4.57103,5.84298 -8.57853,6.48169l-0.77216,0.32426l-1.25091,-0.16641c-1.1454,-0.00155 -2.25047,-0.15464 -3.29079,-0.43777l-0.48717,-0.0648l-0.26675,-0.16684c-1.75299,-0.6017 -3.29159,-1.58137 -4.48687,-2.82542l-2.19208,-2.25392l-0.22303,-0.39311l-1.07299,-1.09497l-0.45179,-1.59268l-0.83305,-1.46837l0.00613,-1.44679l-0.12095,-0.42639v-32.76826l-0.3657,-12.56957l-0.73723,-12.34506l-0.74051,-11.42092l-0.73309,-9.04526l-0.73668,-7.14174l0.02131,-0.12072l-0.0425,-0.11629l-0.36707,-4.85262l-0.36553,-3.86588l0.07656,-0.41328l-0.11523,-0.40624v-4.93422l0.30028,-1.05856l-0.11295,-1.72078l1.03673,-1.53577l0.17561,-0.61909l0.77879,-0.79475l0.60922,-0.90247l0.61088,-0.34261l1.32531,-1.35245l1.88802,-0.44971l1.04451,-0.5858l1.11973,-0.32894l0.43776,-0.02967l0.38739,-0.18209l1.49297,-0.32894h0.58782l0.54437,-0.19546l2.6127,-0.32894l0.80166,0.07309l0.78188,-0.17227h34.71159l0.78188,0.17227l0.80166,-0.07309l7.8381,0.98685l0.60878,0.21859l0.65732,0.00715l7.09162,1.64474l0.61439,0.29744l0.69455,0.08347l5.59864,1.97368l0.21457,0.13658l0.26033,0.04215l4.10567,1.64474l1.23852,0.86764l1.4151,0.62358l2.42512,1.83198l0.42488,0.22277l1.49309,2.06784l1.60954,1.99882l0.07378,0.43084l0.66835,1.76711l0.07806,0.89436l0.38401,0.83071l0.37324,2.30264l-0.08294,0.70652l0.19547,0.68909v2.63158l-0.33432,1.17858v1.21487l-1.11973,3.94737l-0.77924,1.28768l-0.48213,1.39614l-3.35919,4.93422l-0.25061,0.22086l-0.12396,0.29262l-4.10567,5.26316l-0.17736,0.13809l-0.09183,0.19223l-4.47892,5.26316l-0.31353,0.22451l-0.18263,0.31757l-4.85216,4.93422l-0.33405,0.20653l-0.20993,0.30837l-11.94377,10.52632l-0.18237,0.09643l-0.1161,0.15705l-5.2254,4.27632l-0.40892,0.19848l1.72204,1.62607l0.06773,0.10772l0.11539,0.06945l5.85384,5.80401l6.49212,6.03953l6.4531,5.68726l4.63581,3.77137l3.30806,2.62393l1.09267,0.72226l3.63912,3.94737l1.08474,4.37911l-2.48439,5.48932l-5.28371,3.63898l-5.07376,0.30839l-5.31871,-1.97368l-1.49297,-0.98685l-0.32165,-0.3489l-0.45057,-0.2107l-3.73243,-2.96053l-0.04059,-0.05307l-0.06372,-0.03071l-4.85216,-3.94737l-0.1259,-0.16922l-0.19688,-0.1041l-6.71837,-5.92105l-0.07996,-0.11746l-0.13107,-0.07362l-6.71837,-6.25001l-0.0896,-0.14007l-0.15066,-0.09067l-5.88155,-5.83149l-5.00093,-4.72225l-2.84947,-2.5113l-0.41465,-0.60907l-0.6255,-0.44791l-1.11973,-1.31579l-0.12105,-0.25338l-0.2933,-0.29931l0.03743,1.28657l-0.03209,0.12685l0.03578,0.1261v29.27537c0.9427,1.10582 1.62792,2.39187 1.97721,3.789l0.14742,0.25986l-0.00189,0.44317c0.0769,0.46688 0.1167,0.94434 0.1167,1.43zM136.60201,177.61414l4.00875,-2.64975l4.64283,-3.79957l11.51479,-10.14825l4.33165,-4.4049l4.10322,-4.82169l3.77863,-4.84392l2.32367,-3.41317l0.3347,-1.17993l-0.99259,-0.39763l-4.71772,-1.66314l-5.79817,-1.34476l-6.40989,-0.80703h-27.54583l0.31461,4.15916l0.73427,7.11846l-0.01713,0.09702l0.03465,0.09332l0.74648,9.21054l-0.01417,0.07114l0.02438,0.06896l0.74648,11.51316l-0.00484,0.02246l0.00761,0.02187l0.74648,12.5l-0.02963,0.13409l0.04144,0.13163l0.00456,0.15682l3.23,-3.29615l0.77162,-0.1838l0.00009,-0.00006l2.43393,-1.87693l0.3834,-0.17329z" fill="url(#color-5)"/><path d="M240.12338,179.00852c4.60936,4.68731 4.38776,7.42157 -0.93073,11.48391c-0.59286,0.45283 -1.93766,0.58914 -3.40838,0.58888c0.17029,4.08469 0.34009,8.17042 0.51845,12.25751c0.22263,5.1011 0.73784,12.42571 0.37883,17.36153c-0.08204,1.12793 -0.02629,2.49028 -0.9331,3.28947c-4.97657,4.38596 -8.08694,4.38596 -13.0635,0c-0.90682,-0.79921 -0.85015,-2.16161 -0.9331,-3.28947c-0.41304,-5.61544 -0.14385,-11.25482 -0.36881,-16.87855c-0.17461,-4.36511 -0.28901,-8.73206 -0.42907,-13.09818c-1.28936,0.00898 -2.57865,0.02339 -3.86777,0.04251c-2.26021,0.03351 -4.5265,0.07777 -6.77311,0.29847c-2.73067,0.26824 -5.68338,0.734 -8.34176,1.35182c-1.603,3.84927 -3.16438,7.70478 -4.67781,11.54918c-0.49735,1.26335 -0.20484,2.68491 -0.5943,3.97734c-0.142,1.13459 -0.61135,2.18227 -1.323,3.06805c-1.12769,1.78134 -2.9468,3.1288 -6.09649,2.78148c-1.7613,0 -3.38013,-0.5376 -4.65674,-1.43676c-1.22794,-0.69536 -2.15476,-1.62696 -2.31374,-2.7829c-0.31934,-0.73236 -0.49436,-1.52783 -0.49436,-2.3593c0,-0.38614 0.03775,-0.76452 0.11017,-1.13241c1.05413,-9.10794 6.03383,-17.50444 9.63464,-26.01138c5.52098,-13.04342 11.29774,-25.7643 18.71708,-38.06253c2.39277,-3.96622 8.56899,-13.24673 14.83429,-12.09637c0.65289,0.11988 4.98012,1.32488 5.82927,2.38785c3.45797,4.32873 2.41199,12.43286 2.74309,17.29511c0.63812,9.37096 1.11137,18.74172 1.52971,28.11612c2.03738,0.14539 4.11512,0.49 4.91028,1.29861zM219.17603,155.44445c-0.04939,-0.24853 -0.27975,0.44113 -0.39626,0.6716c-2.32012,4.58995 -4.75607,9.13702 -6.91296,13.7884c-1.28586,2.77301 -2.55583,5.56805 -3.80736,8.37815c4.16624,-0.40451 8.27117,-0.57772 12.4365,-0.64624c-0.12248,-7.33223 -0.00142,-15.5564 -1.31992,-22.19191z" fill="url(#color-6)"/><path d="M249.57801,203.03829c1.06986,-3.94873 2.02903,-7.92115 2.92046,-11.90414c0.94547,-4.2245 1.71209,-8.4786 2.5894,-12.71451c0.81703,-3.94485 2.06992,-7.81017 3.03349,-11.72924c0.66453,-2.70284 1.21216,-5.42706 1.84622,-8.13558c0.40885,-1.74648 1.13194,-3.79174 1.61058,-5.35587c0.99731,-3.25907 1.54832,-10.40747 5.64201,-12.35736c0.45367,-0.21609 1.06825,0.0983 1.54468,-0.07564c0.47643,-0.17392 0.64277,-0.84277 1.15293,-0.90914c11.41547,-1.48523 14.90933,14.86161 16.90985,21.61705c1.49361,5.04371 3.00069,10.08436 4.47892,15.13159c0.47831,1.63314 0.71075,8.06215 1.36728,5.7441c1.41254,-4.98725 4.20764,-27.66644 4.86845,-34.86382c0.22366,-2.4361 0.15634,-6.44058 0.72437,-9.02229c0.98403,-4.47232 6.48273,-8.90843 11.94377,-5.75659c0.89265,0.51521 3.57383,4.88302 3.73243,5.75659c0.10963,0.60381 -0.81006,1.06463 -0.84843,1.67518c-0.17028,2.70953 -0.45815,5.71195 -0.6968,8.3794c-1.73752,19.42115 -5.84747,38.68561 -7.427,58.1573c-0.42042,5.18276 0.56877,14.24882 -3.00518,18.75342c-0.29551,0.37246 -1.04869,0.20447 -1.43827,0.50225c-0.38957,0.29779 -0.30739,0.97866 -0.76756,1.18382c-11.42646,5.09415 -13.36036,-8.90084 -14.79047,-14.98213c-0.39972,-1.69971 -0.95681,-3.36781 -1.40933,-5.05722c-0.52306,-1.95278 -1.0559,-4.07887 -1.53696,-6.03841c-0.49489,-2.01579 -0.99769,-4.21812 -1.49945,-6.23258c-0.59757,-2.39915 -1.24076,-4.78931 -1.85299,-7.18558c-0.65212,-2.55238 -0.78183,-3.91198 -1.85702,-7.8506c-1.12505,-4.12119 -2.07443,-8.29726 -3.64212,-12.30455c-0.14414,-0.36845 -0.32323,1.48913 -0.47281,2.07095c-0.97406,3.789 -2.07108,7.55445 -2.94675,11.36206c-0.96763,4.20743 -1.71041,8.45262 -2.58162,12.67638c-1.60401,7.77645 -3.74194,15.0654 -6.1538,22.64763c-0.64226,2.01909 -1.34039,7.28303 -2.78271,9.41225c-0.48339,0.71362 -1.24469,1.81678 -2.2138,2.75114c-1.28361,1.23758 -2.9318,2.17899 -4.78173,1.52674c-2.88776,0 -5.39253,-1.44514 -6.63403,-3.5596c-0.59747,-0.68125 -0.91852,-1.44531 -0.78652,-2.29839c-0.02929,-0.23678 -0.04432,-0.47732 -0.04432,-0.72096c0,-0.97638 0.24133,-1.90307 0.67429,-2.73628c1.53231,-5.88006 3.52252,-11.62235 5.13056,-17.55735z" fill="url(#color-7)"/><path d="M322.52742,171.02926c0.00761,-0.51931 0.13374,-1.01029 0.35326,-1.47438c-0.10125,-1.92547 -0.19945,-3.75709 -0.33034,-5.21632c-0.25647,-2.85895 -0.65667,-5.70725 -1.07805,-8.55097c-0.70416,-4.75219 -1.79279,-9.49914 -2.45442,-14.23578c-0.22376,-1.60184 -0.76897,-4.08733 0.71023,-5.391c4.97658,-4.38597 8.08693,-4.38597 13.0635,0c0.78597,0.69269 1.38153,5.98122 1.59889,7.25827c0.24005,1.41031 0.48833,2.81952 0.73814,4.22851c0.76389,4.30849 1.32609,8.57464 1.7812,12.8483c3.48821,-4.06164 10.90931,-13.07949 13.92888,-16.70362c3.03032,-3.63703 9.48299,-12.16106 14.57656,-14.09233c7.68029,-2.91206 12.55043,1.03188 10.86949,8.43911c-0.33956,1.4963 -3.93624,3.17051 -5.1275,4.30233c-1.91848,1.82276 -7.25916,7.93467 -8.33042,9.19386c-6.57511,7.72862 -12.85493,15.60543 -19.72698,23.12217c0.52222,0.51774 1.0317,1.02857 1.518,1.52979c7.84872,8.08939 14.71063,16.77924 21.15599,25.77999c0.43179,0.60298 6.3992,7.90527 6.31833,8.83174c-0.19233,2.20354 -0.62629,4.80561 -2.53025,6.24389c-7.78108,5.87798 -13.29909,-3.75165 -16.39666,-8.06259c-1.31558,-1.83092 -2.64348,-3.6553 -4.00753,-5.45844c-1.81267,-2.39619 -7.15585,-9.24003 -9.57947,-12.11569c0.21001,3.43438 0.37392,7.11235 0.47273,8.31472c0.44209,5.37937 1.48158,11.76098 1.79312,17.26596c0.04078,0.72066 -0.03628,1.45049 0.09193,2.16313c0.00452,0.02509 0.00999,0.05032 0.01638,0.07568c0.59019,0.59327 1.06128,1.28088 1.38033,2.03381c0.43086,0.59084 0.7246,1.18154 0.44116,1.7242c0.01876,0.19021 0.02834,0.38275 0.02834,0.57725c0,3.63346 -3.34213,6.57895 -7.46486,6.57895c-0.59064,0.33826 -1.31444,0.03595 -2.03634,-0.24775c-0.34333,-0.0856 -0.67661,-0.19232 -0.99791,-0.31844c-2.78713,-0.49285 -4.946,-4.17124 -5.74311,-6.36344c-1.29008,-3.54789 -0.84997,-8.11692 -1.25969,-11.84439c-0.83716,-7.61611 -1.31329,-15.25993 -1.89084,-22.89475c-0.1815,-2.39936 -0.4039,-4.79609 -0.62959,-7.19262c-1.01755,-1.12435 -1.62575,-2.54916 -1.62575,-4.09917c0,-0.81251 0.16713,-1.59062 0.47273,-2.30908c0.08703,-0.28806 0.20192,-0.5667 0.36521,-0.82908c0.04559,-0.07325 0.09115,-0.1439 0.1367,-0.21207c-0.02104,-0.31894 -0.04125,-0.64108 -0.06078,-0.96514z" fill="url(#color-8)"/></g></g></g></svg>