<svg version="1.1" xmlns="http://www.w3.org/2000/svg" xmlns:xlink="http://www.w3.org/1999/xlink" width="212.95239" height="256.38092" viewBox="0,0,212.95239,256.38092"><defs><linearGradient x1="240" y1="76.39177" x2="240" y2="283.60823" gradientUnits="userSpaceOnUse" id="color-1"><stop offset="0" stop-color="#f00000"/><stop offset="1" stop-color="#c000f0"/></linearGradient><linearGradient x1="240" y1="76.39177" x2="240" y2="283.60823" gradientUnits="userSpaceOnUse" id="color-2"><stop offset="0" stop-color="#f00000"/><stop offset="1" stop-color="#c000f0"/></linearGradient></defs><g transform="translate(-142.61904,-57.85718)"><g data-paper-data="{&quot;isPaintingLayer&quot;:true}" fill-rule="nonzero" stroke-linecap="butt" stroke-linejoin="miter" stroke-miterlimit="10" stroke-dasharray="" stroke-dashoffset="0" style="mix-blend-mode: normal"><path d="M251.86507,175.02048c2.45938,-1.65226 7.53699,-3.86694 12.6146,1.21067c7.07107,7.07107 0,14.14213 0,14.14213l-4.95944,3.26908c-5.89342,1.64337 -11.14579,1.1617 -17.10931,1.54531c-12.15507,0.78188 -24.57807,0.42446 -36.81186,0.40027c-1.06813,-0.00211 -2.14003,-0.01868 -3.213,-0.03274c0.33939,2.64971 0.66097,5.30042 0.95874,7.95252c2.58015,22.98046 2.66671,46.13153 4.96654,69.08515c0,0 0.99503,9.95038 -8.95534,10.94541c-9.95037,0.99503 -10.94541,-8.95533 -10.94541,-8.95533c-2.28233,-22.87079 -2.36405,-45.92785 -4.93819,-68.81957c-0.47695,-4.24145 -1.01308,-8.47922 -1.5847,-12.71493c-0.96746,-1.17807 -1.73804,-2.76855 -2.12735,-4.90976c-0.46243,-2.5434 -0.14783,-4.54884 0.57297,-6.1245c-2.3657,-16.27427 -4.95145,-32.53873 -6.41025,-48.88506c-0.24035,-2.69325 -0.06984,-5.41507 -0.35277,-8.10418c-0.75586,-7.18421 -1.60233,-13.95492 -1.57789,-21.2246c-0.20139,-1.94443 -0.43356,-8.6758 -0.60988,-8.67129l-0.0087,0.00579c-0.00002,0.00002 -0.00004,0.00005 -0.00006,0.00007v-0.00003l-0.00001,0.00001l-1.44796,-2.17197c-1.1072,-1.60954 -1.75531,-3.55944 -1.75531,-5.66071c0,-5.52285 4.47716,-10 10,-10c0.91486,0 1.80103,0.12286 2.64291,0.35296l2.07345,0.51836c2.87099,-0.44946 6.24955,0.85337 9.06085,1.06753c3.9511,0.301 7.91605,0.41419 11.86291,0.76646c8.51136,0.75966 17.18334,0.45788 25.71956,0.72817c7.64502,0.24206 15.73018,0.55742 23.35997,0.02029c11.04448,-0.77751 22.04869,-2.93959 33.08986,-3.07283c1.28249,0.00244 8.05558,-0.62574 9.9488,0.62403c1.10686,-0.72235 8.44627,-5.0851 13.80758,2.42073c5.81238,8.13734 -2.32495,13.94971 -2.32495,13.94971l-5.90543,3.43058c-5.2072,-0.06345 -10.33036,-0.43691 -15.52601,-0.42506c-1.97109,-0.04651 -3.90695,0.5494 -5.87178,0.71323c-8.54804,0.71276 -17.22566,1.72791 -25.80026,2.30927c-10.41537,0.70617 -21.0854,-0.05996 -31.49717,-0.36069c-6.94439,-0.20059 -13.81713,0.19083 -20.75655,-0.41472c-3.45497,-0.30148 -6.86923,-0.57676 -10.28545,-0.89465c0.03836,1.33753 0.0873,2.62057 0.19879,3.76846c0.01199,4.52807 -0.28521,9.21484 0.31415,13.71809c0.27736,2.08395 0.9354,4.10944 1.15558,6.2002c0.30258,2.87324 0.15435,5.77985 0.40913,8.65772c1.30545,14.74581 3.55496,29.42646 5.72357,44.10774c5.17306,-0.10747 10.36783,0.10013 15.55284,0.10013c6.36744,0 12.75864,-0.37811 19.10685,-0.38077c5.45117,-0.0023 12.12978,1.03088 17.63536,-0.18669z" fill="url(#color-1)" stroke="#000000" stroke-width="10"/><path d="M251.86507,175.02048c2.45938,-1.65227 7.53699,-3.86694 12.6146,1.21067c7.07107,7.07107 0,14.14214 0,14.14214l-4.95944,3.26908c-5.89342,1.64337 -11.14579,1.1617 -17.10931,1.54531c-12.15506,0.78189 -24.57808,0.42446 -36.81186,0.40027c-1.06813,-0.00211 -2.14003,-0.01868 -3.213,-0.03274c0.33939,2.64972 0.66097,5.30043 0.95874,7.95252c2.58015,22.98045 2.66671,46.13154 4.96654,69.08515c0,0 0.99504,9.95037 -8.95533,10.94541c-9.95037,0.99504 -10.94541,-8.95533 -10.94541,-8.95533c-2.28233,-22.87079 -2.36405,-45.92786 -4.93819,-68.81957c-0.47694,-4.24145 -1.01308,-8.47922 -1.5847,-12.71493c-0.96746,-1.17806 -1.73803,-2.76855 -2.12734,-4.90977c-0.46243,-2.54339 -0.14783,-4.54884 0.57297,-6.1245c-2.3657,-16.27426 -4.95145,-32.53873 -6.41025,-48.88506c-0.24035,-2.69325 -0.06984,-5.41507 -0.35277,-8.10418c-0.75586,-7.18421 -1.60233,-13.95491 -1.57788,-21.2246c-0.20139,-1.94444 -0.43357,-8.67581 -0.60989,-8.6713l-0.0087,0.0058c-0.00002,0.00002 -0.00004,0.00005 -0.00006,0.00007v-0.00003l-0.00001,0.00001l-1.44796,-2.17197c-1.10721,-1.60954 -1.7553,-3.55944 -1.7553,-5.66072c0,-5.52285 4.47715,-10 10,-10c0.91486,0 1.80103,0.12285 2.64291,0.35296l2.07345,0.51836c2.871,-0.44946 6.24955,0.85337 9.06085,1.06754c3.9511,0.30099 7.91605,0.41419 11.86291,0.76646c8.51136,0.75967 17.18334,0.45788 25.71956,0.72817c7.64501,0.24207 15.73018,0.55742 23.35997,0.02029c11.04449,-0.77752 22.04869,-2.93959 33.08986,-3.07283c1.28249,0.00244 8.05558,-0.62574 9.9488,0.62403c1.10687,-0.72235 8.44627,-5.0851 13.80758,2.42073c5.81238,8.13733 -2.32495,13.94972 -2.32495,13.94972l-5.90542,3.43057c-5.20721,-0.06344 -10.33036,-0.43692 -15.52601,-0.42505c-1.9711,-0.04652 -3.90695,0.5494 -5.87178,0.71324c-8.54804,0.71276 -17.22566,1.72791 -25.80026,2.30927c-10.41536,0.70617 -21.0854,-0.05996 -31.49717,-0.36069c-6.94439,-0.20058 -13.81713,0.19083 -20.75655,-0.41472c-3.45497,-0.30149 -6.86923,-0.57675 -10.28545,-0.89465c0.03837,1.33753 0.08731,2.62057 0.1988,3.76846c0.01199,4.52807 -0.28521,9.21484 0.31414,13.71809c0.27736,2.08395 0.9354,4.10944 1.15558,6.2002c0.30259,2.87324 0.15435,5.77985 0.40913,8.65772c1.30545,14.74581 3.55496,29.42645 5.72357,44.10774c5.17306,-0.10747 10.36783,0.10013 15.55284,0.10013c6.36744,0 12.75864,-0.3781 19.10684,-0.38078c5.45116,-0.00229 12.12978,1.03088 17.63536,-0.18669z" fill="url(#color-2)" stroke="none" stroke-width="0.5"/><path d="M142.61904,314.2381v-256.38092h212.95239v256.38092z" fill="none" stroke="none" stroke-width="0"/></g></g></svg>