<svg version="1.1" xmlns="http://www.w3.org/2000/svg" xmlns:xlink="http://www.w3.org/1999/xlink" width="402.9944" height="449.60586" viewBox="0,0,402.9944,449.60586"><g transform="translate(-38.5028,44.80293)"><g data-paper-data="{&quot;isPaintingLayer&quot;:true}" fill-rule="nonzero" stroke-linecap="butt" stroke-linejoin="miter" stroke-miterlimit="10" stroke-dasharray="" stroke-dashoffset="0" style="mix-blend-mode: normal"><path d="M225.9512,199.665c1.88519,-0.6284 2.51358,1.25679 2.51358,1.25679l1.1278,3.3834c0.37377,1.15227 0.74755,2.30453 1.12131,3.4568c1.24696,1.55277 1.9537,3.64306 3.5938,4.77267c0.56871,0.39169 1.38204,0.02685 2.06967,0.0903c1.32472,0.12223 5.71196,0.83822 7.20295,0.51117c0.8529,-0.18708 1.51165,-0.8747 2.2765,-1.29592c2.99377,-1.64876 5.65307,-2.9863 7.96951,-5.52365c6.53365,-7.15676 11.3326,-15.69931 13.55831,-25.23762c1.15447,-4.94746 0.91816,-10.20328 0.91773,-15.23629c-0.70895,-4.68134 -1.12233,-9.17476 -3.96554,-13.17498c-2.49601,-3.51175 -7.0302,-5.73382 -11.09174,-6.79081c-1.80513,-0.46978 -3.73008,0.06034 -5.5953,0.07275c-3.67653,0.02446 -7.92781,-0.32853 -11.55483,0.32194c-2.33041,0.41794 -4.45967,1.59176 -6.69489,2.37235c-3.4211,1.19474 -6.98879,2.78496 -9.84127,5.1054c-2.28163,1.85607 -4.10628,5.27485 -5.95852,7.5785c-0.56055,2.36505 -1.44361,4.66855 -1.74058,7.0809c-0.40607,3.29858 -0.05507,7.0229 0.34487,10.31181c0.76644,6.30285 1.59679,12.93146 3.89845,18.90924c0.82785,2.15007 2.24176,4.02584 3.34855,6.04652c1.94359,3.54842 5.65767,8.95212 9.7771,10.33973c0.27315,0.09201 0.84116,0.15318 1.54691,0.19334c-1.34091,-1.65614 -3.07839,-3.93811 -3.56112,-4.5634c-0.46409,-1.36132 -0.92818,-2.72263 -1.39226,-4.08395l-1.1278,-3.3834c0,0 -0.6284,-1.88519 1.25679,-2.51358zM238.42239,216.89244c-0.37142,1.34989 -1.907,1.34989 -1.907,1.34989c-1.87597,-0.00095 -6.84846,0.1349 -8.57793,-0.46762c-5.11692,-1.78263 -9.49021,-7.71107 -11.96672,-12.18039c-1.19451,-2.1557 -2.66557,-4.18432 -3.55538,-6.4826c-2.43677,-6.29387 -3.35566,-13.27114 -4.15629,-19.91358c-0.43463,-3.60595 -0.78894,-7.65989 -0.3439,-11.27504c0.07082,-0.57532 1.99358,-7.87552 2.11508,-8.34172c2.06209,-2.6846 4.24529,-6.61068 6.87797,-8.79343c3.23096,-2.67879 7.27405,-4.51869 11.17588,-5.89417c0.01689,-0.00595 7.07829,-2.49207 7.26198,-2.52535c3.86123,-0.69964 8.3594,-0.36669 12.27714,-0.39305c2.11383,-0.01422 4.28747,-0.50605 6.34162,-0.00712c5.02832,1.22131 10.46342,4.01578 13.54905,8.31161c3.33378,4.64131 3.94047,9.80808 4.75159,15.26424c0.01525,5.44008 0.23736,11.09039 -1.01047,16.43797c-2.37377,10.17279 -7.48959,19.40159 -14.49898,27.02005c-2.61665,2.84402 -5.61276,4.53645 -9.01322,6.33643c-1.05819,0.56014 -2.02057,1.39392 -3.18992,1.65108c-1.47238,0.32381 -3.99442,0.14367 -6.13049,-0.09717z" fill="#ff0000" stroke="#000000" stroke-width="5"/><path d="M225.9512,199.665c1.88519,-0.6284 2.51358,1.25679 2.51358,1.25679l1.1278,3.3834c0.37377,1.15227 0.74755,2.30453 1.12131,3.4568c1.24696,1.55277 1.9537,3.64306 3.5938,4.77267c0.56871,0.39169 1.38204,0.02685 2.06967,0.0903c1.32472,0.12223 5.71196,0.83822 7.20295,0.51117c0.8529,-0.18708 1.51165,-0.8747 2.2765,-1.29592c2.99377,-1.64876 5.65307,-2.9863 7.96951,-5.52365c6.53365,-7.15676 11.3326,-15.69931 13.55831,-25.23762c1.15447,-4.94746 0.91816,-10.20328 0.91773,-15.23629c-0.70895,-4.68134 -1.12233,-9.17476 -3.96554,-13.17498c-2.49601,-3.51175 -7.0302,-5.73382 -11.09174,-6.79081c-1.80513,-0.46978 -3.73008,0.06034 -5.5953,0.07275c-3.67653,0.02446 -7.92781,-0.32853 -11.55483,0.32194c-2.33041,0.41794 -4.45967,1.59176 -6.69489,2.37235c-3.4211,1.19474 -6.98879,2.78496 -9.84127,5.1054c-2.28163,1.85607 -4.10628,5.27485 -5.95852,7.5785c-0.56055,2.36505 -1.44361,4.66855 -1.74058,7.0809c-0.40607,3.29858 -0.05507,7.0229 0.34487,10.31181c0.76644,6.30285 1.59679,12.93146 3.89845,18.90924c0.82785,2.15007 2.24176,4.02584 3.34855,6.04652c1.94359,3.54842 5.65767,8.95212 9.7771,10.33973c0.27315,0.09201 0.84116,0.15318 1.54691,0.19334c-1.34091,-1.65614 -3.07839,-3.93811 -3.56112,-4.5634c-0.46409,-1.36132 -0.92818,-2.72263 -1.39226,-4.08395l-1.1278,-3.3834c0,0 -0.6284,-1.88519 1.25679,-2.51358zM238.42239,216.89244c-0.37142,1.34989 -1.907,1.34989 -1.907,1.34989c-1.87597,-0.00095 -6.84846,0.1349 -8.57793,-0.46762c-5.11692,-1.78263 -9.49021,-7.71107 -11.96672,-12.18039c-1.19451,-2.1557 -2.66557,-4.18432 -3.55538,-6.4826c-2.43677,-6.29387 -3.35566,-13.27114 -4.15629,-19.91358c-0.43463,-3.60595 -0.78894,-7.65989 -0.3439,-11.27504c0.07082,-0.57532 1.99358,-7.87552 2.11508,-8.34172c2.06209,-2.6846 4.24529,-6.61068 6.87797,-8.79343c3.23096,-2.67879 7.27405,-4.51869 11.17588,-5.89417c0.01689,-0.00595 7.07829,-2.49207 7.26198,-2.52535c3.86123,-0.69964 8.3594,-0.36669 12.27714,-0.39305c2.11383,-0.01422 4.28747,-0.50605 6.34162,-0.00712c5.02832,1.22131 10.46342,4.01578 13.54905,8.31161c3.33378,4.64131 3.94047,9.80808 4.75159,15.26424c0.01525,5.44008 0.23736,11.09039 -1.01047,16.43797c-2.37377,10.17279 -7.48959,19.40159 -14.49898,27.02005c-2.61665,2.84402 -5.61276,4.53645 -9.01322,6.33643c-1.05819,0.56014 -2.02057,1.39392 -3.18992,1.65108c-1.47238,0.32381 -3.99442,0.14367 -6.13049,-0.09717z" fill="#ff0000" stroke="none" stroke-width="0.5"/><path d="M38.5028,404.80293v-449.60586h402.9944v449.60586z" fill="none" stroke="#000000" stroke-width="0"/></g></g></svg>