<svg version="1.1" xmlns="http://www.w3.org/2000/svg" xmlns:xlink="http://www.w3.org/1999/xlink" width="129" height="98.33333" viewBox="0,0,129,98.33333"><g transform="translate(-175.5,-130.83333)"><g data-paper-data="{&quot;isPaintingLayer&quot;:true}" fill-rule="nonzero" stroke-linecap="butt" stroke-linejoin="miter" stroke-miterlimit="10" stroke-dasharray="" stroke-dashoffset="0" style="mix-blend-mode: normal"><g fill="#ff0000" stroke="#000000" stroke-width="5"><path d="M264.8048,142.92026c2.40381,0.6868 1.717,3.09061 1.717,3.09061l-0.88644,2.86308c-6.68003,11.98789 -15.66044,22.57961 -23.07622,34.12774c-7.42448,11.56168 -13.83569,24.63172 -24.50736,33.57628c0,0 -1.92056,1.60046 -3.52102,-0.3201c-1.60046,-1.92056 0.3201,-3.52102 0.3201,-3.52102c10.26551,-8.49961 16.39229,-21.36504 23.49264,-32.42372c7.35907,-11.46164 16.29909,-21.97431 22.92378,-33.87226l0.44689,-1.80359c0,0 0.68681,-2.40381 3.09062,-1.71701z"/><path d="M222.21616,176.417c-0.88075,0.23378 -1.72637,-0.11857 -1.72637,-0.11857c-1.61318,-0.67566 -6.84629,-2.51072 -7.83948,-4.33928c-0.8698,-1.60139 -0.72551,-3.60047 -0.69606,-5.42259c0.16948,-10.48841 11.65758,-15.71962 20.76473,-12.53133c4.01655,1.40614 5.26035,7.20547 5.55177,10.72213c0.15509,1.87147 0.52119,3.89986 -0.20951,5.62975c-2.11219,5.00053 -10.53967,6.1006 -14.94325,6.13363h-0.33333c0,0 -0.23866,0 -0.56851,-0.07374zM222.15866,171.57787c0.35924,-0.08714 0.626,-0.08713 0.626,-0.08713h0.33333c3.06022,0.02872 5.93729,-0.41061 8.6681,-1.949c0.61809,-0.3482 1.48599,-0.58169 1.72199,-1.25071c0.39355,-1.11566 -0.97901,-6.72743 -1.10577,-7.20909c-0.14977,-0.56905 -0.65526,-2.25113 -1.55195,-2.43902c-6.56646,-1.37587 -13.19379,0.57781 -13.90194,8.13533c-0.08015,0.85545 -0.41137,1.80779 -0.0294,2.57741c0.27239,0.54882 1.11526,0.50812 1.67943,0.74712c1.18281,0.50108 2.37299,0.98457 3.56021,1.47509z"/><path d="M244.97998,200.7055c-0.2038,-0.18873 -0.39567,-0.39018 -0.5722,-0.60797c-3.07843,-3.79808 -1.22182,-10.79684 2.87967,-12.98601c1.76991,-0.94469 3.95542,-0.69335 5.95084,-0.90153c3.43385,-0.35824 8.30093,-0.4826 11.13689,1.85196c3.09186,2.54522 5.19498,10.00983 2.36782,13.48279c-1.13096,1.38931 -3.11457,1.79445 -4.77613,2.46414c-4.81345,1.94008 -9.56208,1.47686 -14.53322,0.75204l-2.15293,-3.19649c0,0 -0.20259,-0.35454 -0.30073,-0.85892zM252.83423,200.45754c2.5115,-0.12637 4.93599,-0.39397 7.43489,-1.15161c0.86156,-0.26122 1.91659,-0.23663 2.5572,-0.86919c0.57803,-0.57077 -0.30538,-4.02758 -0.37347,-4.21117c-1.53356,-4.13491 -9.255,-4.00956 -12.83766,-2.68894c-1.70673,0.62912 -2.28246,4.52291 -1.12033,5.68066c0.92323,0.91974 2.2288,1.35111 3.34321,2.02666c0,0 0.6702,0.4468 0.99615,1.2136z"/></g><path d="M264.80481,142.92027c2.40381,0.6868 1.717,3.09061 1.717,3.09061l-0.88644,2.86307c-6.68003,11.98789 -15.66044,22.57961 -23.07622,34.12774c-7.42448,11.56168 -13.83569,24.63172 -24.50736,33.57628c0,0 -1.92056,1.60047 -3.52102,-0.32009c-1.60046,-1.92056 0.32009,-3.52102 0.32009,-3.52102c10.26551,-8.49961 16.39229,-21.36504 23.49264,-32.42372c7.35907,-11.46164 16.29909,-21.97431 22.92379,-33.87226l0.44689,-1.8036c0,0 0.68681,-2.40381 3.09062,-1.71701z" fill="#ff0000" stroke="none" stroke-width="5"/><path d="M221.90381,176.26083c-0.88075,0.23378 -1.72637,-0.11857 -1.72637,-0.11857c-1.61318,-0.67566 -6.84629,-2.51071 -7.83948,-4.33928c-0.8698,-1.60139 -0.72551,-3.60046 -0.69606,-5.42259c0.16948,-10.48841 11.65758,-15.71963 20.76472,-12.53134c4.01655,1.40614 5.26036,7.20548 5.55178,10.72214c0.15509,1.87147 0.52119,3.89986 -0.20951,5.62975c-2.11219,5.00053 -10.53967,6.10059 -14.94325,6.13362h-0.33334c0,0 -0.23866,0 -0.5685,-0.07374zM221.84631,171.42171c0.35924,-0.08714 0.626,-0.08714 0.626,-0.08714h0.33334c3.06022,0.02872 5.93729,-0.4106 8.66809,-1.94899c0.61809,-0.3482 1.48599,-0.58169 1.72199,-1.25071c0.39355,-1.11566 -0.97901,-6.72743 -1.10578,-7.2091c-0.14977,-0.56905 -0.65526,-2.25114 -1.55195,-2.43902c-6.56646,-1.37587 -13.19379,0.57781 -13.90194,8.13533c-0.08015,0.85545 -0.41137,1.8078 -0.02939,2.57741c0.27239,0.54882 1.11526,0.50812 1.67943,0.74712c1.18281,0.50108 2.37299,0.98457 3.56021,1.4751z" fill="#ff0000" stroke="none" stroke-width="5"/><path d="M244.97999,200.7055c-0.2038,-0.18873 -0.39566,-0.39018 -0.57219,-0.60797c-3.07843,-3.79808 -1.22183,-10.79684 2.87966,-12.98601c1.76991,-0.94469 3.95542,-0.69335 5.95084,-0.90153c3.43384,-0.35824 8.30094,-0.4826 11.13689,1.85196c3.09186,2.54522 5.19498,10.00983 2.36781,13.48279c-1.13096,1.38931 -3.11457,1.79445 -4.77612,2.46414c-4.81345,1.94008 -9.56208,1.47686 -14.53323,0.75204l-2.15293,-3.19649c0,0 -0.2026,-0.35454 -0.30074,-0.85892zM252.83424,200.45755c2.5115,-0.12637 4.93599,-0.39397 7.43488,-1.15161c0.86157,-0.26122 1.91659,-0.23663 2.55721,-0.86919c0.57803,-0.57077 -0.30538,-4.02759 -0.37347,-4.21118c-1.53356,-4.13491 -9.25499,-4.00955 -12.83765,-2.68893c-1.70673,0.62912 -2.28247,4.52291 -1.12034,5.68065c0.92323,0.91974 2.22881,1.35111 3.34322,2.02667c0,0 0.6702,0.4468 0.99615,1.2136z" fill="#ff0000" stroke="none" stroke-width="5"/><path d="M175.5,229.16667v-98.33333h129v98.33333z" fill="none" stroke="#000000" stroke-width="0"/></g></g></svg>