<svg version="1.1" xmlns="http://www.w3.org/2000/svg" xmlns:xlink="http://www.w3.org/1999/xlink" width="165.37897" height="159.34151" viewBox="0,0,165.37897,159.34151"><g transform="translate(-157.31051,-100.32925)"><g data-paper-data="{&quot;isPaintingLayer&quot;:true}" fill-rule="nonzero" stroke="none" stroke-width="0.5" stroke-linecap="butt" stroke-linejoin="miter" stroke-miterlimit="10" stroke-dasharray="" stroke-dashoffset="0" style="mix-blend-mode: normal"><path d="M238.90711,139.71548c0.67634,-3.21973 2.41567,-6.56887 3.4946,-9.69849c0.69676,-2.02108 2.02496,-6.13399 3.88598,-6.97789c1.35806,-0.61583 2.88767,0.74546 4.3315,1.11819c5.21834,2.82379 10.4104,5.74697 15.51007,8.78373c1.00382,0.59776 3.87433,2.91437 5.3035,2.10136c2.04741,-1.16471 3.97573,-7.40728 4.87185,-9.07073c2.82181,-5.23809 5.66237,-10.41737 8.24338,-15.79116c1.50311,-3.12955 3.1324,-8.71699 7.22815,-9.67541c3.90821,-0.91453 9.35672,1.97163 12.87273,3.29016c3.88525,1.24822 7.71937,2.60888 11.71219,3.47533c1.12922,0.24504 2.46349,-0.0083 3.40197,0.66583c1.22312,0.87858 2.17921,2.23477 2.63451,3.67026c0.98112,3.09325 -0.73992,5.25306 -1.78037,7.88157c-1.18541,2.99474 -2.35927,5.98142 -3.52881,8.99043c-2.72905,7.02139 -4.85434,14.15245 -7.13637,21.32923c-1.26446,3.9766 -3.65385,8.62733 -4.1429,12.78882c-0.23681,2.01507 1.26891,5.34288 1.64662,7.35735c2.7604,11.03106 6.22224,22.31571 10.33484,32.9213c1.34753,3.47501 5.797,12.06191 4.13838,15.75852c-0.69031,1.53851 -3.14149,1.23097 -4.74113,1.76454c-6.66907,2.22454 -13.82766,2.29052 -20.52406,4.69315c0,0 -1.43356,0.51198 -2.46292,-0.38172c-0.44633,2.78665 -1.67222,5.1666 -4.74664,7.66461c-2.06923,1.68127 -7.91813,5.2728 -10.71282,4.34318c-3.56474,-1.18577 -5.07698,-5.98367 -6.04814,-8.92566c-3.48838,-10.56747 -3.66813,-21.88274 -5.62772,-32.74188c-0.8589,-4.77021 -1.54824,-9.49131 -3.01602,-14.12328c-0.32382,-1.02188 -0.28036,-2.31986 -1.08605,-3.02696c-0.40209,-0.35288 -0.83118,0.69227 -1.31567,0.91915c-1.1597,0.54308 -2.4013,0.89191 -3.58661,1.37657c-3.78058,1.54584 -10.60574,3.30129 -12.84453,7.26644c-1.64629,2.91577 1.05013,10.14574 1.44665,12.98273c0.1477,1.0568 0.23078,2.12413 0.25713,3.19089c0.00778,0.31502 -0.46135,1.0076 -0.1553,0.93253c0.69258,-0.16988 1.08203,-0.93967 1.6918,-1.30941c3.21668,-1.95048 9.44027,-4.85537 13.11759,-3.46722c1.43813,0.54288 1.47035,2.69996 2.20552,4.04995c0.7686,4.25511 2.18667,9.36848 1.4438,13.70853c-0.27739,1.62059 -0.28188,3.51778 -1.38974,4.73264c-0.42606,0.46722 -6.15203,1.75985 -7.14409,2.20843c-0.91122,0.41202 0.69852,1.87427 1.06592,2.80437c0.51098,1.29359 0.89978,2.63406 1.26661,3.97566c0.95966,3.50985 2.71468,8.48216 -0.07969,11.72913c-0.81025,0.94148 -2.20552,1.15417 -3.36262,1.60585c-4.91936,1.92029 -10.12779,2.53706 -15.29088,3.46784c-0.09656,0.48915 -0.23376,0.9289 -0.42134,1.2993c-0.68106,1.34483 -2.44978,1.76014 -3.72213,2.56855c-2.89865,1.84169 -6.12824,3.18098 -9.40795,4.19955c-7.08822,1.30045 -14.17876,3.07733 -21.39835,3.47178c-2.50895,0.13707 -7.73935,0.15762 -9.75941,-1.4544c-2.67611,-2.13554 -2.9234,-10.13196 -3.38971,-13.0766c-1.97607,-12.47846 -4.17031,-24.81815 -5.63023,-37.37348c0,0 -0.0386,-0.33195 0.03379,-0.76724c-3.16084,-2.55739 -6.08954,-5.40531 -9.38289,-7.83668c-4.11028,-3.04023 -7.93526,-6.29833 -11.72039,-9.73748c-5.16625,-4.69404 -9.87926,-9.71661 -7.58347,-17.28167c0.56765,-1.87051 3.73569,-6.29 4.58978,-7.38347c2.05005,-2.62466 6.55681,-8.90681 10.35923,-9.30134c1.50158,-0.1558 6.28745,2.82856 7.42533,3.51324c8.74083,5.25951 15.81111,13.06303 24.48196,18.50107c0.25894,0.05812 0.62632,0.39296 0.77679,0.17437c1.55622,-2.26051 2.24601,-5.02284 3.65984,-7.37503c2.38871,-3.9741 5.09187,-7.75343 7.43611,-11.75735c2.67288,-4.56521 6.12736,-11.01864 12.38015,-11.40285c0.73467,-0.04515 6.63794,2.51231 7.16144,2.69877c0.70442,0.25091 1.42491,0.44504 2.15412,0.6087c-0.04454,-3.51564 -0.10833,-7.39255 0.57512,-10.64617zM294.9821,220.38285c4.7547,-1.69099 9.79415,-2.83228 14.79601,-3.52611c2.09467,-0.29056 4.1061,-1.0713 6.20713,-1.31154c0.58705,-0.06713 1.65348,0.9894 1.72622,0.40301c0.12975,-1.04598 -1.01797,-1.85035 -1.42615,-2.8221c-1.66575,-3.96562 -3.12314,-8.11918 -4.59877,-12.16367c-3.5324,-9.68178 -6.61934,-19.94697 -9.11553,-29.94085c-0.47085,-2.51126 -1.99108,-6.11267 -1.75725,-8.64081c0.14159,-1.5308 2.37391,-7.91323 2.84525,-9.35094c2.35817,-7.19293 4.27696,-14.56797 6.88592,-21.67544c1.68765,-4.59758 3.58187,-9.15553 5.41479,-13.68498c0.42595,-1.0526 1.06276,-2.01707 1.43261,-3.09067c0.04719,-0.137 0.55429,-2.09091 -0.23805,-2.37685c-1.74558,-0.62996 -3.7036,-0.41828 -5.49159,-0.91527c-2.91902,-0.81137 -5.77276,-1.84156 -8.65698,-2.76908c-2.45614,-0.9207 -7.12086,-3.51662 -9.94376,-3.18061c-1.59447,0.18979 -3.81186,6.60197 -4.00459,7.00356c-3.32047,6.91873 -7.10659,13.56018 -10.5457,20.40821c-1.14183,2.27364 -2.35476,5.57842 -4.9316,6.80912c-2.59337,1.23859 -5.30417,0.20894 -7.61898,-0.86326c-6.01551,-2.78633 -11.67837,-6.86899 -17.51967,-10.03644c-0.14464,-0.30803 -0.24246,-1.20541 -0.43392,-0.92408c-0.31877,0.4684 0.03194,1.14443 -0.09225,1.69723c-0.41349,1.84048 -1.17258,3.58708 -1.83471,5.35341c-0.74658,1.99163 -1.82353,3.76497 -2.26562,5.88663c-0.67676,3.24789 -0.5199,7.19157 -0.47447,10.64011c0.51206,0.11256 1.02023,0.23944 1.522,0.38966c1.49835,0.4486 3.50209,0.59855 4.26018,1.96662c0.66958,1.20834 -1.15597,5.6475 -1.82855,7.27972c2.2056,-0.8801 4.42224,-1.54245 6.90716,-2.09163c5.96317,-1.31791 11.98649,-3.67869 18.1553,-1.8092c8.32346,2.52245 9.73645,11.2772 11.52525,18.44285c1.67187,6.69726 4.04458,13.19974 6.15964,19.76239c2.25647,7.38948 4.04318,14.48723 4.2976,22.2332c0.0372,1.13248 0.0769,2.18972 0.08842,3.1868c0.30646,-0.20032 0.55467,-0.28896 0.55467,-0.28896zM235.09963,246.55613c-0.19202,-0.93615 0.04719,-1.58784 0.41602,-2.03578c-0.05268,-0.25164 -0.10048,-0.50155 -0.12448,-0.74567c-0.27612,-2.80822 -0.55371,-5.61957 -0.99475,-8.40665c-1.18886,-7.5128 -3.34595,-14.86862 -5.12772,-22.25037c-0.98376,-4.07561 -2.31032,-8.81188 -2.04089,-13.04688c0.1194,-1.87682 1.83661,-5.76666 2.3389,-7.24544c2.15724,-6.35118 4.4472,-12.61676 6.82543,-18.89426c1.34696,-3.42885 2.88776,-6.76672 4.28777,-10.17379c0.6082,-1.48013 1.26445,-2.94025 1.87058,-4.42123c0.36907,-0.90178 0.55188,-1.89516 1.01695,-2.74607c-1.46834,-0.05535 -2.92567,-0.356 -4.35866,-0.68324c-2.80553,-0.64068 -5.91035,-1.84248 -8.55446,-3.01395c-0.54863,-0.24307 -0.99361,-0.87059 -1.59284,-0.83882c-0.71338,0.03782 -3.07627,1.71766 -3.60237,2.22999c-1.92744,1.87697 -3.15027,4.37234 -4.50607,6.6961c-2.35126,4.02996 -5.07201,7.82842 -7.47555,11.82364c-0.28635,0.47598 -5.01492,8.83996 -5.19022,8.96354c-1.27986,0.90221 -3.11293,0.34318 -4.66939,0.51476c-8.08737,-4.45272 -14.57573,-11.10229 -21.88236,-16.61811c-1.46825,-1.10839 -5.57969,-3.2842 -7.29481,-4.36309c-0.42711,-0.26867 -0.70369,-0.95829 -1.20636,-0.9144c-0.5274,0.04605 -0.76215,0.73543 -1.12786,1.11822c-1.33069,1.39287 -4.65664,4.98447 -5.67118,6.27802c-1.64241,2.09412 -4.3729,5.36881 -4.16743,8.38352c0.29615,4.34534 3.59331,6.79503 6.5809,9.49651c3.67075,3.31921 7.35346,6.48226 11.33389,9.42083c3.84669,2.8452 7.19211,6.3096 11.02106,9.13185c0.63252,-0.2842 1.50118,-0.36969 2.46501,0.40139c1.95216,1.56176 0.3904,3.51391 0.3904,3.51391l-2.31884,0.793c1.44728,11.87093 3.51755,23.5612 5.38899,35.37873c0.42743,2.69909 0.83281,5.4021 1.30976,8.09287c0.11741,0.6624 -0.14029,1.58473 0.40634,1.97684c0.52226,0.37464 6.1587,0.25235 6.23878,0.24751c6.9118,-0.41838 13.67575,-2.11331 20.46925,-3.33597c2.81286,-0.85567 5.44796,-2.24141 8.03503,-3.63835c0.49203,-0.26567 1.24045,-0.22461 1.68824,-0.50353c-0.07234,-0.1735 -0.13239,-0.36791 -0.17705,-0.58563zM249.37745,241.41318c1.99363,-0.54429 4.34256,-0.50333 5.92148,-1.83668c0.87458,-0.73855 -0.0498,-2.30269 -0.29059,-3.42178c-0.65943,-3.06468 -0.86634,-4.12264 -1.92635,-7.08322c-0.46599,-1.3015 -1.53046,-2.47514 -1.52281,-3.85753c0.02607,-4.71012 2.89688,-5.21947 6.72203,-6.40495c0.63619,-0.19717 1.50314,0.40404 1.99767,-0.04211c0.42939,-0.38738 -0.02311,-1.15642 -0.02816,-1.73471c-0.00779,-0.89333 0.04025,-1.78813 -0.01034,-2.68005c-0.17422,-3.07179 -0.75021,-6.11404 -1.26895,-9.14048c0.05439,-0.35196 0.51931,-1.05726 0.16318,-1.05586c-1.06324,0.00418 -2.01535,0.68086 -3.00599,1.06703c-2.6074,1.01639 -8.44355,4.9129 -11.11753,4.02757c-1.60423,-0.53115 -2.24251,-2.60757 -2.87838,-4.17325c-0.49918,-1.22912 -0.23181,-2.64457 -0.42365,-3.95725c-0.68844,-4.71079 -3.35976,-11.35492 -0.93604,-15.95015c2.81842,-5.34355 10.29505,-7.52385 15.40859,-9.60747c1.30177,-0.53043 7.3317,-3.06813 8.71221,-2.27477c1.97864,1.13711 2.77384,3.66158 3.77037,5.71462c2.16314,4.45647 2.45524,10.34709 3.32218,15.16192c1.63912,9.12264 2.14577,18.39136 4.27331,27.44265c0.75379,3.2069 1.32675,5.67034 2.71702,8.64514c0.28117,0.60163 0.48485,1.44013 1.11443,1.65143c0.53127,0.1783 0.99176,-0.52218 1.49085,-0.77704c2.56473,-1.3097 7.38168,-3.11178 7.79505,-6.43292c1.17271,-9.42187 -1.38817,-19.05486 -4.10611,-27.94399c-2.64001,-8.19082 -5.18549,-16.27999 -7.25838,-24.63184c-0.99356,-4.00317 -2.62269,-8.99399 -7.19438,-10.31343c-5.17277,-1.49292 -10.55743,0.84341 -15.54303,1.93504c-3.35613,0.73485 -6.07883,1.67373 -9.11996,3.19829l-1.62681,0.52286c-1.18977,2.74406 -2.38002,5.48725 -3.47111,8.26991c-2.35542,6.21764 -4.62237,12.4227 -6.75948,18.71291c-0.68417,2.01372 -1.98429,3.9053 -2.08615,6.02964c-0.17857,3.72414 1.05258,7.89005 1.91743,11.47156c2.1223,8.78886 4.58461,17.47252 5.63776,26.47328c0.13202,1.12836 0.40482,2.83361 0.57298,4.61396c3.03721,-0.46299 6.14501,-0.82858 9.03764,-1.61831z" fill="#000000"/><path d="M235.3064,247.18198c-0.44779,0.27892 -1.19747,0.23875 -1.6895,0.50443c-2.58707,1.39694 -5.22928,2.78678 -8.04214,3.64246c-6.7935,1.22266 -13.57668,2.92233 -20.48848,3.34071c-0.08007,0.00484 -5.72261,0.12701 -6.24487,-0.24762c-0.54663,-0.39211 -0.28949,-1.31449 -0.40691,-1.97689c-0.47696,-2.69078 -0.88478,-5.39407 -1.31221,-8.09316c-1.87144,-11.81753 -3.97945,-23.53498 -5.42674,-35.40591l2.31958,-0.79156c0,0 1.55621,-1.96912 -0.39594,-3.53088c-0.96383,-0.77107 -1.83282,-0.6887 -2.46534,-0.4045c-3.82895,-2.82225 -7.17149,-6.30743 -11.01818,-9.15263c-3.98043,-2.93858 -7.66054,-6.10757 -11.33128,-9.42678c-2.98759,-2.70148 -6.28194,-5.15593 -6.57809,-9.50127c-0.20547,-3.01471 2.53078,-6.29651 4.17319,-8.39063c1.01453,-1.29355 4.34665,-4.89051 5.67734,-6.28338c0.36571,-0.38279 0.60168,-1.07304 1.12909,-1.11909c0.50267,-0.04389 0.77963,0.64547 1.20674,0.91414c1.71512,1.07889 5.8301,3.25251 7.29835,4.3609c7.30664,5.51581 13.82117,12.159 21.90853,16.61172c1.55647,-0.17158 3.39994,0.3889 4.6798,-0.51331c0.1753,-0.12357 4.90813,-8.48629 5.19448,-8.96227c2.40354,-3.99522 5.12753,-7.79244 7.47879,-11.82239c1.35579,-2.32377 2.57991,-4.81856 4.50735,-6.69553c0.52611,-0.51233 2.89083,-2.19128 3.60421,-2.2291c0.59923,-0.03177 1.04559,0.59648 1.59422,0.83955c2.64411,1.17147 5.75522,2.37738 8.56076,3.01806c1.43299,0.32724 2.89275,0.62987 4.36109,0.68522c-0.46507,0.85091 -0.64723,1.84487 -1.0163,2.74665c-0.60613,1.48099 -1.26132,2.94207 -1.86952,4.42221c-1.4,3.40706 -2.93776,6.74811 -4.28472,10.17697c-2.37824,6.2775 -4.65924,12.55772 -6.81648,18.9089c-0.50229,1.47878 -2.21646,5.3803 -2.33586,7.25713c-0.26943,4.235 1.05447,8.99533 2.03822,13.07094c1.78178,7.38174 3.92704,14.75585 5.1159,22.26864c0.44104,2.78708 0.71489,5.60175 0.991,8.40998c0.024,0.24411 0.07152,0.49424 0.12421,0.74588c-0.36883,0.44793 -0.60922,1.10053 -0.4172,2.03667c0.04466,0.21773 0.10456,0.41225 0.1769,0.58575z" data-paper-data="{&quot;noHover&quot;:false,&quot;origItem&quot;:[&quot;Path&quot;,{&quot;applyMatrix&quot;:true,&quot;selected&quot;:true,&quot;segments&quot;:[[[235.09963,246.55613],[0.04466,0.21773],[-0.19202,-0.93615],7],[[235.51566,244.52035],[-0.36883,0.44793],[-0.05268,-0.25164],7],[[235.39117,243.77469],[0.024,0.24411],[-0.27612,-2.80822],7],[[234.39643,235.36804],[0.44104,2.78708],[-1.18886,-7.5128],7],[[229.2687,213.11767],[1.78178,7.38174],[-0.98376,-4.07561],7],[[227.22781,200.07079],[-0.26943,4.235],[0.1194,-1.87682],7],[[229.56671,192.82534],[-0.50229,1.47878],[2.15724,-6.35118],7],[[236.39214,173.93108],[-2.37823,6.2775],[1.34696,-3.42885],7],[[240.67991,163.75729],[-1.40001,3.40707],[0.6082,-1.48013],7],[[242.55048,159.33606],[-0.60613,1.48099],[0.36907,-0.90178],7],[[243.56744,156.58999],[-0.46507,0.85091],[-1.46834,-0.05535],7],[[239.20878,155.90675],[1.43299,0.32724],[-2.80553,-0.64068],7],[[230.65431,152.89279],[2.64411,1.17147],[-0.54863,-0.24307],7],[[229.06147,152.05398],[0.59923,-0.03177],[-0.71338,0.03782],7],[[225.4591,154.28397],[0.52611,-0.51233],[-1.92744,1.87697],7],[[220.95303,160.98007],[1.35579,-2.32376],[-2.35126,4.02996],7],[[213.47749,172.80371],[2.40354,-3.99522],[-0.28635,0.47598],7],[[208.28727,181.76725],[0.1753,-0.12357],[-1.27986,0.90221],7],[[203.61788,182.28201],[1.55647,-0.17158],[-8.08737,-4.45272],7],[[181.73551,165.6639],[7.30664,5.51581],[-1.46825,-1.10839],7],[[174.4407,161.30081],[1.71512,1.07889],[-0.42711,-0.26867],7],[[173.23434,160.38641],[0.50267,-0.04389],[-0.5274,0.04605],7],[[172.10648,161.50463],[0.36571,-0.38279],[-1.33069,1.39287],7],[[166.4353,167.78265],[1.01453,-1.29355],[-1.64241,2.09412],7],[[162.26787,176.16617],[-0.20547,-3.01471],[0.29615,4.34534],7],[[168.84877,185.66268],[-2.98759,-2.70148],[3.67075,3.31921],7],[[180.18266,195.08351],[-3.98043,-2.93858],[3.84669,2.8452],7],[[191.20372,204.21536],[-3.82895,-2.82225],[0.63252,-0.2842],7],[[193.66873,204.61675],[-0.96383,-0.77107],[1.95216,1.56176],7],[[194.05913,208.13067],[0,0],[0,0],7],[[191.74029,208.92366],[0,0],[1.44728,11.87093],7],[[197.12928,244.30239],[-1.87144,-11.81753],[0.42743,2.69909],7],[[198.43905,252.39527],[-0.47696,-2.69078],[0.11741,0.6624],7],[[198.84539,254.37211],[-0.54663,-0.39211],[0.52226,0.37464],7],[[205.08417,254.61962],[-0.08007,0.00484],[6.9118,-0.41838],7],[[225.55341,251.28365],[-6.7935,1.22266],[2.81286,-0.85567],7],[[233.58844,247.6453],[-2.58707,1.39694],[0.49203,-0.26567],7],[[235.27669,247.14176],[-0.44779,0.27892],[-0.07234,-0.1735],7]],&quot;closed&quot;:true}]}" fill="#ff0000"/><path d="M240.3173,243.07614c-0.16816,-1.78035 -0.44366,-3.48708 -0.57569,-4.61544c-1.05315,-9.00075 -3.53723,-17.71047 -5.65953,-26.49933c-0.86485,-3.58151 -2.09894,-7.76751 -1.92037,-11.49165c0.10186,-2.12434 1.40388,-4.02689 2.08805,-6.04062c2.13711,-6.29021 4.42203,-12.52129 6.77746,-18.73893c1.09109,-2.78267 2.29002,-5.53109 3.47979,-8.27515l1.62884,-0.52377c3.04113,-1.52456 5.77588,-2.4668 9.13202,-3.20165c4.98561,-1.09163 10.38944,-3.42706 15.5622,-1.93414c4.57169,1.31945 6.21363,6.31535 7.2072,10.31852c2.07288,8.35186 4.64246,16.47361 7.28247,24.66444c2.71794,8.88913 5.26922,18.56403 4.09651,27.9859c-0.41337,3.32114 -5.24049,5.1329 -7.80522,6.44259c-0.49909,0.25486 -0.96152,0.95667 -1.4928,0.77836c-0.62958,-0.2113 -0.88738,-1.13388 -1.16855,-1.73551c-1.39027,-2.9748 -1.96716,-5.43543 -2.72096,-8.64233c-2.12754,-9.05129 -2.64371,-18.25141 -4.28283,-27.37405c-0.86694,-4.81483 -1.13437,-10.68736 -3.29752,-15.14383c-0.99653,-2.05304 -1.7827,-4.5754 -3.76134,-5.71251c-1.38051,-0.79336 -7.39486,1.74402 -8.69663,2.27445c-5.11354,2.08363 -12.56074,4.24694 -15.37915,9.59049c-2.42372,4.59523 0.25931,11.20985 0.94775,15.92065c0.19184,1.31268 -0.07604,2.71776 0.42314,3.94688c0.63587,1.56567 1.27042,3.62942 2.87465,4.16057c2.67397,0.88533 8.50665,-3.01765 11.11405,-4.03405c0.99064,-0.38617 1.93413,-1.07309 2.99737,-1.07727c0.35613,-0.0014 -0.11527,0.69893 -0.16966,1.05088c0.51873,3.02643 1.07043,6.06077 1.24466,9.13256c0.05059,0.89192 0.00201,1.7867 0.0098,2.68002c0.00504,0.57829 0.4533,1.44724 0.02391,1.83462c-0.49453,0.44615 -1.36739,-0.15564 -2.00358,0.04153c-3.82515,1.18548 -6.66926,1.59914 -6.69532,6.30926c-0.00765,1.38239 1.05199,2.55435 1.51798,3.85585c1.06001,2.96059 1.2615,4.01728 1.92092,7.08197c0.24079,1.11909 1.14913,2.78193 0.27456,3.52048c-1.57892,1.33335 -3.93453,1.29091 -5.92816,1.8352c-2.89263,0.78973 -6.00881,1.15201 -9.04603,1.615z" data-paper-data="{&quot;noHover&quot;:false,&quot;origItem&quot;:[&quot;Path&quot;,{&quot;applyMatrix&quot;:true,&quot;selected&quot;:true,&quot;segments&quot;:[[[249.37745,241.41318],[-2.89263,0.78973],[1.99363,-0.54429],7],[[255.29893,239.57651],[-1.57892,1.33335],[0.87458,-0.73855],7],[[255.00834,236.15472],[0.24079,1.11909],[-0.65943,-3.06468],7],[[253.08199,229.0715],[1.06001,2.96059],[-0.46599,-1.3015],7],[[251.55918,225.21396],[-0.00765,1.38239],[0.02607,-4.71012],7],[[258.28121,218.80901],[-3.82516,1.18548],[0.63619,-0.19717],7],[[260.27888,218.7669],[-0.49453,0.44615],[0.42939,-0.38738],7],[[260.25072,217.03219],[0.00504,0.57829],[-0.00779,-0.89333],7],[[260.24038,214.35214],[0.05059,0.89192],[-0.17422,-3.07179],7],[[258.97144,205.21166],[0.51873,3.02643],[0.05439,-0.35196],7],[[259.13462,204.1558],[0.35613,-0.0014],[-1.06324,0.00418],7],[[256.12863,205.22283],[0.99064,-0.38617],[-2.6074,1.01639],7],[[245.0111,209.25039],[2.67398,0.88533],[-1.60423,-0.53115],7],[[242.13273,205.07715],[0.63587,1.56567],[-0.49918,-1.22912],7],[[241.70908,201.1199],[0.19183,1.31268],[-0.68844,-4.71079],7],[[240.77304,185.16975],[-2.42372,4.59523],[2.81842,-5.34355],7],[[256.18162,175.56228],[-5.11353,2.08363],[1.30177,-0.53043],7],[[264.89383,173.28751],[-1.38051,-0.79336],[1.97864,1.13711],7],[[268.6642,179.00213],[-0.99653,-2.05304],[2.16314,4.45647],7],[[271.98638,194.16405],[-0.86694,-4.81483],[1.63912,9.12264],7],[[276.25969,221.6067],[-2.12754,-9.05129],[0.75379,3.2069],7],[[278.97671,230.25184],[-1.39027,-2.9748],[0.28117,0.60163],7],[[280.09114,231.90326],[-0.62958,-0.2113],[0.53127,0.1783],7],[[281.58199,231.12622],[-0.49909,0.25486],[2.56473,-1.3097],7],[[289.37704,224.6933],[-0.41337,3.32114],[1.17271,-9.42187],7],[[285.27093,196.74931],[2.71794,8.88913],[-2.64001,-8.19082],7],[[278.01256,172.11747],[2.07288,8.35186],[-0.99356,-4.00317],7],[[270.81817,161.80404],[4.57169,1.31945],[-5.17277,-1.49292],7],[[255.27514,163.73908],[4.9856,-1.09163],[-3.35613,0.73485],7],[[246.15518,166.93737],[3.04113,-1.52456],[0,0],7],[[244.52837,167.46023],[0,0],[-1.18977,2.74406],7],[[241.05726,175.73015],[1.09109,-2.78267],[-2.35542,6.21764],7],[[234.29778,194.44305],[2.1371,-6.29021],[-0.68417,2.01372],7],[[232.21163,200.47269],[0.10186,-2.12434],[-0.17857,3.72414],7],[[234.12906,211.94425],[-0.86485,-3.58151],[2.1223,8.78886],7],[[239.76683,238.41753],[-1.05315,-9.00075],[0.13202,1.12836],7],[[240.3398,243.03149],[-0.16816,-1.78035],[3.03721,-0.46299],7]],&quot;closed&quot;:true}]}" fill="#ff0000"/><path d="M294.43916,220.72041c-0.01152,-0.99707 -0.07526,-2.15139 -0.11245,-3.28386c-0.25441,-7.74597 -2.04299,-14.8432 -4.29946,-22.23268c-2.11507,-6.56266 -4.46057,-12.96892 -6.13244,-19.66617c-1.7888,-7.16565 -3.17443,-15.93922 -11.49788,-18.46167c-6.16881,-1.86948 -12.18313,0.46959 -18.1463,1.78751c-2.48493,0.54919 -4.80087,1.2007 -7.00646,2.0808c0.67258,-1.63222 2.5001,-6.08255 1.83053,-7.29089c-0.75808,-1.36807 -2.66623,-1.48869 -4.16458,-1.93728c-0.50177,-0.15023 -1.10531,-0.30718 -1.61737,-0.41975c-0.04544,-3.44853 -0.19731,-7.40322 0.47945,-10.6511c0.44209,-2.12166 1.52308,-3.90071 2.26966,-5.89233c0.66213,-1.76634 1.42506,-3.51711 1.83855,-5.35759c0.12419,-0.5528 -0.22557,-1.22973 0.0932,-1.69813c0.19146,-0.28133 0.28904,0.61628 0.43368,0.92431c5.8413,3.16746 11.5126,7.24376 17.52811,10.03009c2.31481,1.0722 5.03713,2.0968 7.63049,0.85821c2.57683,-1.2307 3.80065,-4.53742 4.94248,-6.81106c3.43911,-6.84803 7.23684,-13.48889 10.55732,-20.40762c0.19273,-0.40159 2.41244,-6.81332 4.00691,-7.00311c2.8229,-0.33602 7.49607,2.26255 9.95221,3.18325c2.88422,0.92752 5.74468,1.9611 8.6637,2.77247c1.78799,0.49699 3.74946,0.28759 5.49504,0.91755c0.79234,0.28595 0.28629,2.24063 0.2391,2.37763c-0.36985,1.0736 -1.00616,2.03846 -1.43211,3.09106c-1.83292,4.52945 -3.72352,9.09052 -5.41117,13.6881c-2.60896,7.10748 -4.51625,14.49902 -6.87442,21.69195c-0.47135,1.43771 -2.69962,7.8384 -2.84121,9.3692c-0.23383,2.52814 1.2834,6.14816 1.75425,8.65942c2.49619,9.99388 5.56788,20.28061 9.10028,29.96239c1.47563,4.04449 2.93033,8.20011 4.59609,12.16573c0.40818,0.97175 1.55559,1.77634 1.42584,2.82232c-0.07274,0.58639 -1.13993,-0.46961 -1.72699,-0.40248c-2.10104,0.24025 -4.11656,1.02347 -6.21123,1.31403c-5.00185,0.69384 -10.05295,1.83967 -14.80765,3.53066c0,0 -0.24871,0.08877 -0.55516,0.28909z" data-paper-data="{&quot;noHover&quot;:false,&quot;origItem&quot;:[&quot;Path&quot;,{&quot;applyMatrix&quot;:true,&quot;selected&quot;:true,&quot;segments&quot;:[[[294.9821,220.38285],[0,0],[4.7547,-1.69099],7],[[309.7781,216.85673],[-5.00185,0.69384],[2.09467,-0.29056],7],[[315.98524,215.54519],[-2.10104,0.24025],[0.58705,-0.06713],7],[[317.71145,215.9482],[-0.07274,0.58639],[0.12975,-1.04598],7],[[316.28531,213.1261],[0.40818,0.97175],[-1.66575,-3.96562],7],[[311.68654,200.96243],[1.47563,4.04449],[-3.5324,-9.68178],7],[[302.57101,171.02158],[2.49619,9.99388],[-0.47085,-2.51126],7],[[300.81376,162.38076],[-0.23383,2.52814],[0.14159,-1.5308],7],[[303.65901,153.02983],[-0.47135,1.43771],[2.35817,-7.19293],7],[[310.54493,131.35438],[-2.60896,7.10748],[1.68765,-4.59758],7],[[315.95972,117.6694],[-1.83292,4.52945],[0.42595,-1.0526],7],[[317.39233,114.57873],[-0.36985,1.0736],[0.04719,-0.137],7],[[317.15428,112.20188],[0.79234,0.28595],[-1.74558,-0.62996],7],[[311.66269,111.28661],[1.78799,0.49699],[-2.91902,-0.81137],7],[[303.00571,108.51753],[2.88422,0.92752],[-2.45614,-0.9207],7],[[293.06195,105.33692],[2.8229,-0.33602],[-1.59447,0.18979],7],[[289.05736,112.34048],[0.19273,-0.40159],[-3.32047,6.91873],7],[[278.51165,132.74869],[3.43911,-6.84803],[-1.14183,2.27364],7],[[273.58006,139.55781],[2.57683,-1.2307],[-2.59337,1.23859],7],[[265.96108,138.69456],[2.31481,1.0722],[-6.01551,-2.78633],7],[[248.44141,128.65811],[5.8413,3.16746],[-0.14464,-0.30803],7],[[248.00748,127.73403],[0.19146,-0.28133],[-0.31877,0.4684],7],[[247.91523,129.43126],[0.12419,-0.5528],[-0.41349,1.84048],7],[[246.08052,134.78467],[0.66213,-1.76634],[-0.74658,1.99163],7],[[243.8149,140.6713],[0.44209,-2.12166],[-0.67676,3.24789],7],[[243.34043,151.31141],[-0.04544,-3.44853],[0.51206,0.11256],7],[[244.86243,151.70107],[-0.50177,-0.15023],[1.49835,0.4486],7],[[249.12261,153.66769],[-0.75808,-1.36807],[0.66958,1.20834],7],[[247.29406,160.94741],[0.67258,-1.63222],[2.2056,-0.8801],7],[[254.20122,158.85577],[-2.48493,0.54919],[5.96317,-1.31791],7],[[272.35652,157.04657],[-6.16881,-1.86948],[8.32346,2.52245],7],[[283.88177,175.48942],[-1.7888,-7.16565],[1.67187,6.69726],7],[[290.04141,195.25182],[-2.11506,-6.56266],[2.25647,7.38948],7],[[294.33901,217.48501],[-0.25441,-7.74597],[0.0372,1.13248],7],[[294.42743,220.67181],[-0.01152,-0.99707],[0.30646,-0.20032],7]],&quot;closed&quot;:true}]}" fill="#ff0000"/></g></g></svg>