<svg version="1.1" xmlns="http://www.w3.org/2000/svg" xmlns:xlink="http://www.w3.org/1999/xlink" width="402.9944" height="449.60586" viewBox="0,0,402.9944,449.60586"><g transform="translate(-38.5028,44.80293)"><g data-paper-data="{&quot;isPaintingLayer&quot;:true}" fill-rule="nonzero" stroke-linecap="butt" stroke-linejoin="miter" stroke-miterlimit="10" stroke-dasharray="" stroke-dashoffset="0" style="mix-blend-mode: normal"><path d="M261.68741,143.52653c0.79056,2.37171 -1.58116,3.16227 -1.58116,3.16227l-0.60058,0.19243c-8.62322,2.14964 -17.18435,2.3341 -26.02827,2.74861c-1.18518,0.05555 -8.22828,0.37495 -9.56612,0.50417c-1.64973,0.15935 -3.55785,-0.05664 -4.88272,0.93921c-0.99487,0.7478 -0.52398,2.92238 -0.51431,3.65287c0.04744,3.58334 0.22267,6.92024 0.54847,10.50404c0.24702,4.43414 0.66938,8.76926 1.35043,13.16053c0.25252,1.62822 0.4526,3.26421 0.69753,4.89358c0.06746,0.44877 0.21362,2.61572 1.0515,2.91637c1.13084,0.40576 2.16546,-1.04372 3.22022,-1.61897c2.15963,-1.17784 4.36653,-2.28929 6.6596,-3.17987c10.99599,-4.27062 24.80171,-6.64894 32.37842,4.59502c1.90003,4.33481 3.64583,11.90267 1.35423,16.49107c-2.3615,4.72837 -5.19076,5.82977 -9.21528,8.57014c-5.80722,3.95424 -12.4753,7.50006 -19.74028,7.09084c-6.69497,-0.37711 -12.67325,-4.00847 -18.31019,-7.27114c0,0 -2.16357,-1.25258 -0.91099,-3.41615c1.25258,-2.16357 3.41615,-0.91099 3.41615,-0.91099c4.93085,2.85539 10.23712,6.25846 16.10892,6.60752c6.09162,0.36213 11.78911,-2.93319 16.62183,-6.23268c3.0566,-2.08686 5.69677,-2.94057 7.43913,-6.41882c1.56315,-3.1205 0.18814,-9.16411 -1.14395,-12.099c-6.32452,-9.64904 -21.11875,-5.10665 -29.60628,-1.04021c-2.50141,1.19845 -6.61008,4.8258 -9.74204,3.61211c-3.43891,-1.33264 -3.95656,-3.86153 -4.49997,-6.7987c-1.13727,-6.14697 -1.77023,-12.3505 -2.11565,-18.58557c-0.45881,-5.04695 -2.60574,-14.4255 1.69961,-18.31918c2.8196,-2.55 9.07102,-2.22121 12.45774,-2.4021c10.13047,-0.54106 20.17716,-0.36523 30.05959,-2.84341l0.23214,-0.08514c0,0 2.37171,-0.79056 3.16227,1.58116z" fill="#ff0000" stroke="#000000" stroke-width="5"/><path d="M261.6874,143.52654c0.79056,2.37171 -1.58116,3.16227 -1.58116,3.16227l-0.60058,0.19243c-8.62322,2.14964 -17.18435,2.3341 -26.02827,2.74861c-1.18518,0.05555 -8.22828,0.37495 -9.56612,0.50417c-1.64973,0.15935 -3.55785,-0.05664 -4.88272,0.93921c-0.99487,0.7478 -0.52398,2.92238 -0.51431,3.65287c0.04744,3.58334 0.22267,6.92024 0.54847,10.50404c0.24702,4.43414 0.66938,8.76926 1.35043,13.16053c0.25252,1.62822 0.4526,3.26421 0.69753,4.89358c0.06746,0.44877 0.21362,2.61572 1.0515,2.91637c1.13084,0.40576 2.16546,-1.04372 3.22022,-1.61897c2.15963,-1.17784 4.36653,-2.28929 6.6596,-3.17987c10.99599,-4.27062 24.80171,-6.64894 32.37842,4.59502c1.90003,4.33481 3.64583,11.90267 1.35423,16.49107c-2.3615,4.72837 -5.19076,5.82977 -9.21528,8.57014c-5.80722,3.95424 -12.4753,7.50006 -19.74028,7.09084c-6.69497,-0.37711 -12.67325,-4.00847 -18.31019,-7.27114c0,0 -2.16357,-1.25258 -0.91099,-3.41615c1.25258,-2.16357 3.41615,-0.91099 3.41615,-0.91099c4.93085,2.85539 10.23712,6.25846 16.10892,6.60752c6.09162,0.36213 11.78911,-2.93319 16.62183,-6.23268c3.0566,-2.08686 5.69677,-2.94057 7.43913,-6.41882c1.56315,-3.1205 0.18814,-9.16411 -1.14395,-12.099c-6.32452,-9.64904 -21.11875,-5.10665 -29.60628,-1.04021c-2.50141,1.19845 -6.61008,4.8258 -9.74204,3.61211c-3.43891,-1.33264 -3.95656,-3.86153 -4.49997,-6.7987c-1.13727,-6.14697 -1.77023,-12.3505 -2.11565,-18.58557c-0.45881,-5.04695 -2.60574,-14.4255 1.69961,-18.31918c2.8196,-2.55 9.07102,-2.22121 12.45774,-2.4021c10.13047,-0.54106 20.17716,-0.36523 30.05959,-2.84341l0.23214,-0.08514c0,0 2.37171,-0.79056 3.16227,1.58116z" fill="#ff0000" stroke="none" stroke-width="0.5"/><path d="M38.5028,404.80293v-449.60586h402.9944v449.60586z" fill="none" stroke="#000000" stroke-width="0"/></g></g></svg>