<svg version="1.1" xmlns="http://www.w3.org/2000/svg" xmlns:xlink="http://www.w3.org/1999/xlink" width="84.8682" height="34.47287" viewBox="0,0,84.8682,34.47287"><g transform="translate(-197.5659,-162.76357)"><g data-paper-data="{&quot;isPaintingLayer&quot;:true}" fill="#ff0000" fill-rule="nonzero" stroke="none" stroke-width="0.5" stroke-linecap="butt" stroke-linejoin="miter" stroke-miterlimit="10" stroke-dasharray="" stroke-dashoffset="0" style="mix-blend-mode: normal"><path d="M207.20155,167.33454c0.36848,-1.318 1.85456,-1.67567 1.85456,-1.67567c11.79251,-2.80676 24.49611,-2.72138 36.56286,-2.67223c7.19367,0.0293 14.36901,-0.82879 21.46421,0.6379c2.70658,0.79679 6.51514,1.47523 8.77055,3.28832c4.85616,3.9038 6.25761,11.70108 6.52337,17.49587c0.16621,3.62428 0.17882,7.30685 -3.04098,9.83583c-1.95833,1.53817 -4.5531,1.77779 -6.88209,2.10871c-7.78295,1.10584 -15.54761,1.03804 -23.36985,0.5314c-10.7207,-0.77288 -21.36991,-3.31758 -32.1309,-3.54039c-4.39815,-0.09107 -11.19554,0.20786 -14.86437,-2.73518c-4.17038,-3.34537 -4.66029,-10.37234 -4.49652,-15.19427c0.47007,-1.10138 0.72368,-2.32298 1.41021,-3.30415c1.8994,-2.71459 4.96111,-4.00939 8.19895,-4.77612z"/></g></g></svg>