<svg version="1.1" xmlns="http://www.w3.org/2000/svg" xmlns:xlink="http://www.w3.org/1999/xlink" width="173.33334" height="295.23807" viewBox="0,0,173.33334,295.23807"><defs><linearGradient x1="240" y1="76.60686" x2="240" y2="283.39313" gradientUnits="userSpaceOnUse" id="color-1"><stop offset="0" stop-color="#2c00f0"/><stop offset="1" stop-color="#00f0ee"/></linearGradient><linearGradient x1="240" y1="76.60686" x2="240" y2="283.39314" gradientUnits="userSpaceOnUse" id="color-2"><stop offset="0" stop-color="#f00000"/><stop offset="1" stop-color="#c000f0"/></linearGradient></defs><g transform="translate(-153.33333,-32.38097)"><g data-paper-data="{&quot;isPaintingLayer&quot;:true}" fill-rule="nonzero" stroke-linecap="butt" stroke-linejoin="miter" stroke-miterlimit="10" stroke-dasharray="" stroke-dashoffset="0" style="mix-blend-mode: normal"><path d="M284.93163,184.08751c3.58977,9.33346 -5.74369,12.92323 -5.74369,12.92323l-6.30957,2.31888c-4.87055,0.48806 -9.74716,1.4814 -14.63195,1.76091c-8.3763,0.4793 -16.7702,-0.29816 -25.11854,-0.7626c-10.18197,-0.56646 -20.26012,-0.95138 -30.39753,-1.64855c-0.06881,1.07892 -0.1334,2.15618 -0.19328,3.23146c-0.7067,12.68993 0.18954,25.39701 -0.37987,38.07408c-0.28657,6.38006 -1.52334,12.53797 -1.51142,18.93045c0.00162,0.86653 0.00255,1.73306 0.00194,2.5996c0.11514,0.01587 0.23039,0.03089 0.34581,0.04466c2.40137,0.28655 4.83243,0.20625 7.24824,0.3184c6.93138,0.32178 13.88168,1.07942 20.81132,1.5184c15.0727,-0.01359 30.26181,0.53977 44.44218,-5.19287l1.69023,-1.54745c0,0 7.59257,-6.50791 14.10048,1.08465c6.50791,7.59257 -1.08465,14.10048 -1.08465,14.10048l-3.64308,3.02396c-17.38756,8.93631 -37.04345,8.53691 -56.12929,8.52148c-7.02221,-0.43357 -14.07065,-1.21748 -21.0934,-1.5292c-4.00331,-0.1777 -7.93836,-0.09744 -11.90186,-0.89518c-5.37224,-1.08127 -9.45089,-1.5366 -12.94929,-6.94332c-2.00702,-3.10182 -1.8307,-7.65657 -1.83862,-11.29412c-0.01746,-8.0181 1.18589,-15.75734 1.53625,-23.73623c0.55727,-12.69106 -0.32225,-25.40992 0.38203,-38.11641c0.81545,-14.71215 2.4842,-29.75938 3.86036,-44.42281c2.26096,-16.8746 4.10027,-33.75323 6.09357,-50.65183c0.7216,-6.11756 1.55026,-14.46361 6.10137,-19.08774c4.87941,-4.9577 7.80605,-4.29646 13.93538,-4.98753c15.31948,-1.72723 30.6918,-1.9912 46.04522,-3.32824c11.07625,-0.96457 21.37273,-2.72427 32.23309,-1.17197c0,0 9.88372,1.52055 8.36317,11.40427c-1.52055,9.88372 -11.40427,8.36317 -11.40427,8.36317c-8.6665,-1.48449 -19.51315,0.63937 -27.44326,1.32794c-12.55915,1.09051 -25.04092,1.31801 -37.58807,2.3689c-2.77799,0.23267 -5.53124,0.71636 -8.3095,0.94583c-0.27779,0.02294 -0.57642,0.08451 -0.87848,0.14622c-0.08587,0.34017 -0.17926,0.67906 -0.25599,1.01688c-1.42369,6.26778 -1.79231,12.78992 -2.43411,19.20381c-1.2289,12.28103 -2.93934,24.48453 -4.58681,36.71549c-0.61956,6.61584 -1.30237,13.31755 -1.93585,20.03026c9.97202,0.68318 19.87222,1.05878 29.89908,1.61505c7.6114,0.42226 15.24409,1.16675 22.88146,0.7612c3.78145,-0.2008 7.47866,-1.07302 11.27278,-1.2867l3.59521,-1.49063c0,0 9.33346,-3.58977 12.92323,5.74369z" fill="url(#color-1)" stroke="#000000" stroke-width="10"/><path d="M284.93163,184.08751c3.58977,9.33346 -5.74369,12.92323 -5.74369,12.92323l-6.30957,2.31888c-4.87055,0.48806 -9.74716,1.4814 -14.63195,1.76091c-8.3763,0.4793 -16.7702,-0.29816 -25.11854,-0.7626c-10.18197,-0.56646 -20.26012,-0.95138 -30.39753,-1.64855c-0.06881,1.07892 -0.1334,2.15618 -0.19328,3.23146c-0.7067,12.68993 0.18954,25.39701 -0.37987,38.07408c-0.28657,6.38006 -1.52334,12.53797 -1.51142,18.93045c0.00162,0.86653 0.00255,1.73306 0.00194,2.5996c0.11514,0.01587 0.23039,0.03089 0.34581,0.04466c2.40137,0.28655 4.83243,0.20625 7.24824,0.3184c6.93138,0.32178 13.88168,1.07942 20.81132,1.5184c15.0727,-0.01359 30.26181,0.53977 44.44218,-5.19287l1.69023,-1.54745c0,0 7.59257,-6.50791 14.10048,1.08465c6.50791,7.59257 -1.08465,14.10048 -1.08465,14.10048l-3.64308,3.02396c-17.38756,8.93631 -37.04345,8.53691 -56.12929,8.52148c-7.02221,-0.43357 -14.07065,-1.21748 -21.0934,-1.5292c-4.00331,-0.1777 -7.93836,-0.09744 -11.90186,-0.89518c-5.37224,-1.08127 -9.45089,-1.5366 -12.94929,-6.94332c-2.00702,-3.10182 -1.8307,-7.65657 -1.83862,-11.29412c-0.01746,-8.0181 1.18589,-15.75734 1.53625,-23.73623c0.55727,-12.69106 -0.32225,-25.40992 0.38203,-38.11641c0.81545,-14.71215 2.4842,-29.75938 3.86036,-44.42281c2.26096,-16.8746 4.10027,-33.75323 6.09357,-50.65183c0.7216,-6.11756 1.55026,-14.46361 6.10137,-19.08774c4.87941,-4.9577 7.80605,-4.29646 13.93538,-4.98753c15.31948,-1.72723 30.6918,-1.9912 46.04522,-3.32824c11.07625,-0.96457 21.37273,-2.72427 32.23309,-1.17197c0,0 9.88372,1.52055 8.36317,11.40427c-1.52055,9.88372 -11.40427,8.36317 -11.40427,8.36317c-8.6665,-1.48449 -19.51315,0.63937 -27.44326,1.32794c-12.55915,1.09051 -25.04092,1.31801 -37.58807,2.3689c-2.77799,0.23267 -5.53124,0.71636 -8.3095,0.94583c-0.27779,0.02294 -0.57642,0.08451 -0.87848,0.14622c-0.08587,0.34017 -0.17926,0.67906 -0.25599,1.01688c-1.42369,6.26778 -1.79231,12.78992 -2.43411,19.20381c-1.2289,12.28103 -2.93934,24.48453 -4.58681,36.71549c-0.61956,6.61584 -1.30237,13.31755 -1.93585,20.03026c9.97202,0.68318 19.87222,1.05878 29.89908,1.61505c7.6114,0.42226 15.24409,1.16675 22.88146,0.7612c3.78145,-0.2008 7.47866,-1.07302 11.27278,-1.2867l3.59521,-1.49063c0,0 9.33346,-3.58977 12.92323,5.74369z" fill="url(#color-2)" stroke="none" stroke-width="0.5"/><path d="M153.33333,327.61903v-295.23807h173.33334v295.23807z" fill="none" stroke="none" stroke-width="0"/></g></g></svg>