<svg version="1.1" xmlns="http://www.w3.org/2000/svg" xmlns:xlink="http://www.w3.org/1999/xlink" width="402.9944" height="449.60586" viewBox="0,0,402.9944,449.60586"><g transform="translate(-38.5028,44.80293)"><g data-paper-data="{&quot;isPaintingLayer&quot;:true}" fill-rule="nonzero" stroke-linecap="butt" stroke-linejoin="miter" stroke-miterlimit="10" stroke-dasharray="" stroke-dashoffset="0" style="mix-blend-mode: normal"><path d="M212.88565,220.91693c1.11803,-2.23607 3.3541,-1.11803 3.3541,-1.11803l-0.45137,0.0694c8.37639,0 18.01321,1.14133 25.93534,-2.0953c5.17329,-2.11358 12.30427,-8.82548 13.26801,-14.49805c0.88068,-5.18373 -1.17484,-10.15988 -4.68836,-13.85762c-2.52988,-2.66253 -5.78559,-4.64214 -9.06378,-6.52054l-0.05755,0.2302l-3.94927,-0.98732c-1.1133,-0.25265 -1.9444,-1.24829 -1.9444,-2.43804c0,-1.38071 1.11929,-2.5 2.5,-2.5h3.12592c7.48627,-1.71583 12.19482,-4.99969 17.57701,-10.46795c1.48827,-1.66176 4.55249,-4.63247 5.21416,-7.00706c0.33039,-1.1857 -0.0724,-2.46084 -0.08375,-3.69166c-0.06661,-7.22571 -2.55271,-14.82891 -10.84508,-15.85351c-4.02086,-0.49682 -8.51473,0.21883 -12.50393,0.77415c-9.50993,1.32384 -17.80358,3.89194 -24.71656,10.84713c0,0 -1.76777,1.76777 -3.53553,0c-1.76777,-1.76777 0,-3.53553 0,-3.53553c7.74879,-7.7069 16.93106,-10.78431 27.56282,-12.26386c4.39932,-0.61222 9.44381,-1.40294 13.86583,-0.77644c10.727,1.51979 15.24407,10.95382 15.17246,20.80807c-0.01205,1.65853 0.37995,3.38257 -0.08375,4.975c-1.0854,3.72744 -3.94673,6.37693 -6.39838,9.14278c-3.69902,3.74611 -7.60253,7.65387 -12.50133,9.85767c-0.61499,0.27666 -1.4111,0.54095 -2.28657,0.78909c1.44314,0.89079 2.70715,1.72674 2.9492,1.91157c6.54603,4.99856 11.19185,12.90249 9.61747,21.41723c-0.91847,4.96739 -2.2975,6.15621 -5.5394,9.72377c-2.81084,3.0932 -6.5623,6.80605 -10.52592,8.44485c-8.68868,3.59242 -18.8709,2.57137 -28.06466,2.57137l-1.7847,-0.59727c0,0 -2.23607,-1.11803 -1.11803,-3.3541z" fill="#ff0000" stroke="#000000" stroke-width="5"/><path d="M212.88565,220.91693c1.11803,-2.23607 3.3541,-1.11803 3.3541,-1.11803l-0.45137,0.0694c8.37639,0 18.01321,1.14133 25.93534,-2.0953c5.17329,-2.11358 12.30427,-8.82548 13.26801,-14.49805c0.88068,-5.18373 -1.17484,-10.15988 -4.68836,-13.85762c-2.52988,-2.66253 -5.78559,-4.64214 -9.06378,-6.52054l-0.05755,0.2302l-3.94927,-0.98732c-1.1133,-0.25265 -1.9444,-1.24829 -1.9444,-2.43804c0,-1.38071 1.11929,-2.5 2.5,-2.5h3.12592c7.48627,-1.71583 12.19482,-4.99969 17.57701,-10.46795c1.48827,-1.66176 4.55249,-4.63247 5.21416,-7.00706c0.33039,-1.1857 -0.0724,-2.46084 -0.08375,-3.69166c-0.06661,-7.22571 -2.55271,-14.82891 -10.84508,-15.85351c-4.02086,-0.49682 -8.51473,0.21883 -12.50393,0.77415c-9.50993,1.32384 -17.80358,3.89194 -24.71656,10.84713c0,0 -1.76777,1.76777 -3.53553,0c-1.76777,-1.76777 0,-3.53553 0,-3.53553c7.74879,-7.7069 16.93106,-10.78431 27.56282,-12.26386c4.39932,-0.61222 9.44381,-1.40294 13.86583,-0.77644c10.727,1.51979 15.24407,10.95382 15.17246,20.80807c-0.01205,1.65853 0.37995,3.38257 -0.08375,4.975c-1.0854,3.72744 -3.94673,6.37693 -6.39838,9.14278c-3.69902,3.74611 -7.60253,7.65387 -12.50133,9.85767c-0.61499,0.27666 -1.4111,0.54095 -2.28657,0.78909c1.44314,0.89079 2.70715,1.72674 2.9492,1.91157c6.54603,4.99856 11.19185,12.90249 9.61747,21.41723c-0.91847,4.96739 -2.2975,6.15621 -5.5394,9.72377c-2.81084,3.0932 -6.5623,6.80605 -10.52592,8.44485c-8.68868,3.59242 -18.8709,2.57137 -28.06466,2.57137l-1.7847,-0.59727c0,0 -2.23607,-1.11803 -1.11803,-3.3541z" fill="#ff0000" stroke="none" stroke-width="0.5"/><path d="M38.5028,404.80293v-449.60586h402.9944v449.60586z" fill="none" stroke="#000000" stroke-width="0"/></g></g></svg>