<svg version="1.1" xmlns="http://www.w3.org/2000/svg" xmlns:xlink="http://www.w3.org/1999/xlink" width="402.9944" height="449.60586" viewBox="0,0,402.9944,449.60586"><g transform="translate(-38.5028,44.80293)"><g data-paper-data="{&quot;isPaintingLayer&quot;:true}" fill-rule="nonzero" stroke-linecap="butt" stroke-linejoin="miter" stroke-miterlimit="10" stroke-dasharray="" stroke-dashoffset="0" style="mix-blend-mode: normal"><path d="M258.02283,171.36987c0.38014,2.47093 -2.09079,2.85107 -2.09079,2.85107l-1.55814,0.23971c-4.39753,0.67653 -8.95701,1.11772 -13.31839,1.9921c-5.69051,1.14085 -11.41718,2.55969 -17.17283,3.59466l0.1401,0.3094c1.98551,9.95471 1.77252,19.69861 2.27632,29.77459c0.07221,1.4442 0.39112,6.17044 0.25281,8.11861c-0.05234,0.73726 -0.74678,1.54782 -0.37337,2.18567c0.34921,0.59652 1.3276,0.38551 1.99141,0.57826c0,0 0.33854,0.16927 0.68631,0.50781c5.8661,-1.56789 11.63079,-3.86271 17.04027,-5.82994l0.80103,-0.29128c0,0 2.34948,-0.85436 3.20384,1.49513c0.85436,2.34948 -1.49513,3.20384 -1.49513,3.20384l-0.80103,0.29128c-12.87706,4.68221 -27.02097,10.46698 -40.71112,6.77114c0,0 -2.41191,-0.65779 -1.75412,-3.0697c0.65779,-2.41191 3.0697,-1.75412 3.0697,-1.75412c4.47559,1.23436 9.06986,1.28115 13.66343,0.63636c-0.75867,-1.36591 -0.24562,-3.15145 -0.32123,-4.72445c-0.12599,-2.62123 -0.11552,-5.24793 -0.24657,-7.86892c-0.49138,-9.82749 -0.23887,-19.33847 -2.18546,-29.0437l-0.27302,-0.49977c-5.65862,0.74041 -11.3431,0.92661 -17.0467,-0.06508c-1.45758,11.98491 -2.41885,24.0385 -3.24971,36.06306c-0.00151,3.2347 -0.15925,6.47527 -0.51382,9.69048l-1.21694,1.99169c0,0 -1.76777,1.76777 -3.53553,0c-1.46725,-1.46725 -0.49885,-2.93451 -0.12721,-3.39096c0.28083,-2.80999 0.39778,-5.63893 0.39644,-8.46241c0.86687,-12.72294 1.9775,-25.39849 3.60899,-38.00349c-0.14815,-0.40143 -0.18999,-0.90053 -0.03581,-1.51725c0.08454,-0.33814 0.20443,-0.61735 0.34818,-0.84749c1.39851,-10.37598 3.16221,-20.70309 5.44599,-30.96839c0.3165,-1.4226 0.66612,-2.85253 1.02076,-4.28695c-4.6194,10.2058 -9.74902,20.22257 -13.59564,30.7418c-2.08833,5.71088 -2.75499,12.78532 -5.77235,18.08448l-1.64475,4.66013c-0.32686,1.00019 -1.26746,1.72277 -2.37682,1.72277c-1.38071,0 -2.5,-1.11929 -2.5,-2.5v-2.5h0.06002l-0.0562,-0.13825c1.51276,-13.68938 4.85748,-27.12823 6.81419,-40.76555c0.19047,-1.32749 0.34052,-2.66211 0.45081,-4.00029c-1.2965,2.86696 -2.62953,5.7155 -4.04755,8.55123c-8.80491,16.51918 -15.96558,33.13232 -19.75611,51.56242c-1.19694,5.81969 -1.95285,10.99135 -2.26733,16.89435c-0.075,1.40788 -0.58397,2.84047 -0.29111,4.21959c0.19637,0.92473 1.1156,1.52649 1.67339,2.28974c0,0 1.38675,2.08013 -0.69338,3.46688c-2.08013,1.38675 -3.46688,-0.69338 -3.46688,-0.69338c-0.77554,-1.23675 -1.99413,-2.28883 -2.32661,-3.71026c-0.43831,-1.8739 0.05348,-3.84872 0.10857,-5.77241c0.13303,-4.64472 0.42326,-8.24758 1.35778,-12.80549c1.98987,-9.70508 4.25878,-19.57397 7.58269,-28.93003c3.55895,-10.01763 8.65007,-19.46336 13.63641,-28.8157c2.62285,-5.24627 4.94457,-10.53667 7.30063,-15.90806l1.02481,-3.16123c0.30802,-1.03158 1.26411,-1.78358 2.39584,-1.78358c1.22888,0 2.25067,0.88665 2.46053,2.05512l0.49092,2.45459l-0.04356,0.00871c0.02815,0.07773 0.05483,0.15613 0.07994,0.23523c0.42817,1.34914 0.01128,2.83089 0.01217,4.24634c0.00215,3.4431 -0.24731,6.89452 -0.73223,10.3033c-0.71719,5.0415 -1.63224,10.05503 -2.57614,15.06388c5.31111,-13.60971 12.4686,-26.50827 17.58145,-40.17656l0.17596,-0.16527l-0.06526,-0.03934l1.95162,-3.23763c0.43249,-0.74635 1.23992,-1.24837 2.1646,-1.24837c1.38071,0 2.5,1.11929 2.5,2.5v2.5h-0.01707c0.00525,0.03456 0.01022,0.06919 0.01491,0.1039c0.36521,2.70578 -0.99148,7.72621 -1.56864,10.30493c-1.44919,6.47496 -3.06489,12.9413 -4.33819,19.45298c-1.27812,6.53634 -2.32824,13.11411 -3.21186,19.7169c12.58694,2.38183 25.37912,-1.82001 37.6416,-4.27841c4.43481,-0.8891 9.06868,-1.34346 13.54096,-2.03151l1.55814,-0.23971c0,0 2.47093,-0.38014 2.85107,2.09079z" fill="#ff0000" stroke="#000000" stroke-width="5"/><path d="M286.49236,176.20767c0.54233,2.44047 -1.89814,2.98279 -1.89814,2.98279l-4.11906,0.91535c-7.64748,1.69934 -15.18672,3.36256 -22.43059,6.43866c-3.68035,1.56286 -7.56889,4.8828 -11.61227,5.94802c1.09446,0.20307 2.17066,0.53507 3.26072,0.76672c1.56481,0.33253 3.10752,0.78632 4.69114,1.01297c5.92856,0.84851 12.11481,0.84468 18.09286,1.51423c5.43207,1.27145 12.34798,2.00185 17.37527,4.49617c1.9634,0.97415 4.14327,1.96253 5.39114,3.7644c0.82564,1.19219 0.57883,2.93842 0.22473,4.34469c-0.96582,3.8357 -5.59472,8.00812 -8.35256,10.53081c-6.82829,6.24605 -17.41,10.29768 -26.56369,10.32752c-0.91176,0.00297 -10.20044,0.02782 -10.72446,-0.10727c-1.39807,-0.36042 -2.44153,-1.54174 -3.66229,-2.3126c0,0 -2.08013,-1.38675 -0.69338,-3.46688c1.38675,-2.08013 3.46688,-0.69338 3.46688,-0.69338c3.59398,2.59419 7.2429,1.56462 11.61325,1.58013c6.39706,0.02269 14.25334,-2.51435 19.66954,-6.11657c3.16492,-2.10494 6.51895,-5.35315 8.8303,-8.38321c0.62273,-0.81637 1.0901,-1.74166 1.58391,-2.64189c0.11106,-0.20246 0.40496,-0.51093 0.22473,-0.65531c-2.12878,-1.70534 -5.01233,-2.13501 -7.5153,-2.82614c-3.88472,-1.07267 -7.79668,-1.98532 -11.71829,-2.91329c-7.66588,-0.84451 -15.46788,-0.90561 -22.99403,-2.56809c-1.7064,-0.37693 -10.17054,-1.33796 -9.57962,-5.47419c0.21317,-1.49208 6.78969,-5.52564 8.79574,-6.61283c10.04308,-5.44292 20.46031,-8.37095 31.54163,-10.83361l4.11906,-0.91535c0,0 2.44047,-0.54233 2.98279,1.89814z" fill="#ff0000" stroke="#000000" stroke-width="5"/><path d="M272.0519,236.25001c0,-2.5 2.5,-2.5 2.5,-2.5l0.62219,0.15918c5.3338,-1.96477 9.40185,-5.47679 13.78658,-9.08739c6.57658,-5.41547 12.67328,-11.14604 17.77056,-18.00158c0.82508,-6.93322 -0.03806,-15.71472 -8.31982,-17.65365c-3.04063,-0.71187 -6.21916,-0.73517 -9.24909,-1.49127c-2.31602,-0.57795 -5.50774,0.02024 -6.89911,-1.91936c-1.27929,-1.78336 4.87217,-8.07545 5.46942,-8.72064c6.156,-6.65019 12.79163,-11.5035 20.57893,-15.9559c0,0 2.17061,-1.24035 3.41096,0.93026c1.24035,2.17061 -0.93026,3.41096 -0.93026,3.41096c-6.5713,3.75298 -11.84395,7.58204 -17.28441,12.94127c-1.36427,1.3439 -2.453,2.98418 -3.77224,4.36578c1.66815,0.00033 3.37268,0.74703 5.08739,1.0278c4.52293,0.7406 5.07378,-0.05151 9.03524,2.36299c8.24737,5.02674 8.87368,13.97251 7.51434,22.56135c-5.37015,7.74081 -11.97646,14.02959 -19.22944,19.99842c-4.85569,3.99598 -9.33085,7.67318 -15.21342,9.91261l-2.37781,0.15918c0,0 -2.5,0 -2.5,-2.5z" fill="#ff0000" stroke="#000000" stroke-width="5"/><path d="M316.0351,214.51877c0,-1.38071 1.11929,-2.5 2.5,-2.5c1.38071,0 2.5,1.11929 2.5,2.5c0,1.38071 -1.11929,2.5 -2.5,2.5c-1.38071,0 -2.5,-1.11929 -2.5,-2.5z" fill="#ff0000" stroke="#000000" stroke-width="5"/><path d="M321.0351,180.01877c0,-1.38071 1.11929,-2.5 2.5,-2.5c1.38071,0 2.5,1.11929 2.5,2.5c0,1.38071 -1.11929,2.5 -2.5,2.5c-1.38071,0 -2.5,-1.11929 -2.5,-2.5z" fill="#ff0000" stroke="#000000" stroke-width="5"/><path d="M258.02283,171.36986c0.38014,2.47093 -2.09079,2.85107 -2.09079,2.85107l-1.55814,0.23971c-4.39753,0.67653 -8.95701,1.11772 -13.31839,1.9921c-5.69051,1.14085 -11.41718,2.55969 -17.17283,3.59466l0.1401,0.3094c1.98551,9.95471 1.77252,19.69861 2.27632,29.77459c0.07221,1.4442 0.39112,6.17044 0.25281,8.11861c-0.05234,0.73726 -0.74678,1.54782 -0.37337,2.18567c0.34921,0.59652 1.3276,0.38551 1.99141,0.57826c0,0 0.33854,0.16927 0.68631,0.50781c5.8661,-1.56789 11.63079,-3.86271 17.04027,-5.82994l0.80103,-0.29128c0,0 2.34948,-0.85436 3.20384,1.49513c0.85436,2.34948 -1.49513,3.20384 -1.49513,3.20384l-0.80103,0.29128c-12.87706,4.68221 -27.02097,10.46698 -40.71112,6.77114c0,0 -2.41191,-0.65779 -1.75412,-3.0697c0.65779,-2.41191 3.0697,-1.75412 3.0697,-1.75412c4.47559,1.23436 9.06986,1.28115 13.66343,0.63636c-0.75867,-1.36591 -0.24562,-3.15145 -0.32123,-4.72445c-0.12599,-2.62123 -0.11552,-5.24793 -0.24657,-7.86892c-0.49138,-9.82749 -0.23887,-19.33847 -2.18546,-29.0437l-0.27302,-0.49977c-5.65862,0.74041 -11.3431,0.92661 -17.0467,-0.06508c-1.45758,11.98491 -2.41885,24.0385 -3.24971,36.06306c-0.00151,3.2347 -0.15925,6.47527 -0.51382,9.69048l-1.21694,1.99169c0,0 -1.76777,1.76777 -3.53553,0c-1.46725,-1.46725 -0.49885,-2.93451 -0.12721,-3.39096c0.28083,-2.80999 0.39778,-5.63893 0.39644,-8.46241c0.86687,-12.72294 1.9775,-25.39849 3.60899,-38.00349c-0.14815,-0.40143 -0.18999,-0.90053 -0.03581,-1.51725c0.08454,-0.33814 0.20443,-0.61735 0.34818,-0.84749c1.39851,-10.37598 3.16221,-20.70309 5.44599,-30.96839c0.3165,-1.4226 0.66612,-2.85253 1.02076,-4.28695c-4.6194,10.2058 -9.74902,20.22257 -13.59564,30.7418c-2.08833,5.71088 -2.75499,12.78532 -5.77235,18.08448l-1.64475,4.66013c-0.32686,1.00019 -1.26746,1.72277 -2.37682,1.72277c-1.38071,0 -2.5,-1.11929 -2.5,-2.5v-2.5h0.06002l-0.0562,-0.13825c1.51276,-13.68938 4.85748,-27.12823 6.81419,-40.76555c0.19047,-1.32749 0.34052,-2.66211 0.45081,-4.00029c-1.2965,2.86696 -2.62953,5.7155 -4.04755,8.55123c-8.80491,16.51918 -15.96558,33.13232 -19.75611,51.56242c-1.19694,5.81969 -1.95285,10.99135 -2.26733,16.89435c-0.075,1.40788 -0.58397,2.84047 -0.29111,4.21959c0.19637,0.92473 1.1156,1.52649 1.67339,2.28974c0,0 1.38675,2.08013 -0.69338,3.46688c-2.08013,1.38675 -3.46688,-0.69338 -3.46688,-0.69338c-0.77554,-1.23675 -1.99413,-2.28883 -2.32661,-3.71026c-0.43831,-1.8739 0.05348,-3.84872 0.10857,-5.77241c0.13303,-4.64472 0.42326,-8.24758 1.35778,-12.80549c1.98987,-9.70508 4.25878,-19.57397 7.58269,-28.93003c3.55895,-10.01763 8.65007,-19.46336 13.63641,-28.8157c2.62285,-5.24627 4.94457,-10.53667 7.30063,-15.90806l1.02481,-3.16123c0.30802,-1.03158 1.26411,-1.78358 2.39584,-1.78358c1.22888,0 2.25067,0.88665 2.46053,2.05512l0.49092,2.45459l-0.04356,0.00871c0.02815,0.07773 0.05483,0.15613 0.07994,0.23523c0.42817,1.34914 0.01128,2.83089 0.01217,4.24634c0.00215,3.4431 -0.24731,6.89452 -0.73223,10.3033c-0.71719,5.0415 -1.63224,10.05503 -2.57614,15.06388c5.31111,-13.60971 12.4686,-26.50827 17.58145,-40.17656l0.17596,-0.16527l-0.06526,-0.03934l1.95162,-3.23763c0.43249,-0.74635 1.23992,-1.24837 2.1646,-1.24837c1.38071,0 2.5,1.11929 2.5,2.5v2.5h-0.01707c0.00525,0.03456 0.01022,0.06919 0.01491,0.1039c0.36521,2.70578 -0.99148,7.72621 -1.56864,10.30493c-1.44919,6.47496 -3.06489,12.9413 -4.33819,19.45298c-1.27812,6.53634 -2.32824,13.11411 -3.21186,19.7169c12.58694,2.38183 25.37912,-1.82001 37.6416,-4.27841c4.43481,-0.8891 9.06868,-1.34346 13.54096,-2.03151l1.55814,-0.23971c0,0 2.47093,-0.38014 2.85107,2.09079z" fill="#ff0000" stroke="none" stroke-width="0.5"/><path d="M286.49235,176.20767c0.54233,2.44047 -1.89814,2.98279 -1.89814,2.98279l-4.11906,0.91535c-7.64748,1.69934 -15.18672,3.36256 -22.43059,6.43866c-3.68035,1.56286 -7.56889,4.8828 -11.61227,5.94802c1.09446,0.20307 2.17066,0.53507 3.26072,0.76672c1.56481,0.33253 3.10752,0.78632 4.69114,1.01297c5.92856,0.84851 12.11481,0.84468 18.09286,1.51423c5.43207,1.27145 12.34798,2.00185 17.37527,4.49617c1.9634,0.97415 4.14327,1.96253 5.39114,3.7644c0.82564,1.19219 0.57883,2.93842 0.22473,4.34469c-0.96582,3.8357 -5.59472,8.00812 -8.35256,10.53081c-6.82829,6.24605 -17.41,10.29768 -26.56369,10.32752c-0.91176,0.00297 -10.20044,0.02782 -10.72446,-0.10727c-1.39807,-0.36042 -2.44153,-1.54174 -3.66229,-2.3126c0,0 -2.08013,-1.38675 -0.69338,-3.46688c1.38675,-2.08013 3.46688,-0.69338 3.46688,-0.69338c3.59398,2.59419 7.2429,1.56462 11.61325,1.58013c6.39706,0.02269 14.25334,-2.51435 19.66954,-6.11657c3.16492,-2.10494 6.51895,-5.35315 8.8303,-8.38321c0.62273,-0.81637 1.0901,-1.74166 1.58391,-2.64189c0.11106,-0.20246 0.40496,-0.51093 0.22473,-0.65531c-2.12878,-1.70534 -5.01233,-2.13501 -7.5153,-2.82614c-3.88472,-1.07267 -7.79668,-1.98532 -11.71829,-2.91329c-7.66588,-0.84451 -15.46788,-0.90561 -22.99403,-2.56809c-1.7064,-0.37693 -10.17054,-1.33796 -9.57962,-5.47419c0.21317,-1.49208 6.78969,-5.52564 8.79574,-6.61283c10.04308,-5.44292 20.46031,-8.37095 31.54163,-10.83361l4.11906,-0.91535c0,0 2.44047,-0.54233 2.98279,1.89814z" fill="#ff0000" stroke="none" stroke-width="0.5"/><path d="M272.0519,236.25c0,-2.5 2.5,-2.5 2.5,-2.5l0.62219,0.15918c5.3338,-1.96477 9.40185,-5.47679 13.78658,-9.08739c6.57658,-5.41547 12.67328,-11.14604 17.77056,-18.00158c0.82508,-6.93322 -0.03806,-15.71472 -8.31982,-17.65365c-3.04063,-0.71187 -6.21916,-0.73517 -9.24909,-1.49127c-2.31602,-0.57795 -5.50774,0.02024 -6.89911,-1.91936c-1.27929,-1.78336 4.87217,-8.07545 5.46942,-8.72064c6.156,-6.65019 12.79163,-11.5035 20.57893,-15.9559c0,0 2.17061,-1.24035 3.41096,0.93026c1.24035,2.17061 -0.93026,3.41096 -0.93026,3.41096c-6.5713,3.75298 -11.84395,7.58204 -17.28441,12.94127c-1.36427,1.3439 -2.453,2.98418 -3.77224,4.36578c1.66815,0.00033 3.37268,0.74703 5.08739,1.0278c4.52293,0.7406 5.07378,-0.05151 9.03524,2.36299c8.24737,5.02674 8.87368,13.97251 7.51434,22.56135c-5.37015,7.74081 -11.97646,14.02959 -19.22944,19.99842c-4.85569,3.99598 -9.33085,7.67318 -15.21342,9.91261l-2.37781,0.15918c0,0 -2.5,0 -2.5,-2.5z" fill="#ff0000" stroke="none" stroke-width="0.5"/><path d="M316.0351,214.51876c0,-1.38071 1.11929,-2.5 2.5,-2.5c1.38071,0 2.5,1.11929 2.5,2.5c0,1.38071 -1.11929,2.5 -2.5,2.5c-1.38071,0 -2.5,-1.11929 -2.5,-2.5z" fill="#ff0000" stroke="none" stroke-width="0.5"/><path d="M321.0351,180.01876c0,-1.38071 1.11929,-2.5 2.5,-2.5c1.38071,0 2.5,1.11929 2.5,2.5c0,1.38071 -1.11929,2.5 -2.5,2.5c-1.38071,0 -2.5,-1.11929 -2.5,-2.5z" fill="#ff0000" stroke="none" stroke-width="0.5"/><path d="M38.5028,404.80293v-449.60586h402.9944v449.60586z" fill="none" stroke="#000000" stroke-width="0"/></g></g></svg>