<svg version="1.1" xmlns="http://www.w3.org/2000/svg" xmlns:xlink="http://www.w3.org/1999/xlink" width="402.9944" height="449.60586" viewBox="0,0,402.9944,449.60586"><g transform="translate(-38.5028,44.80293)"><g data-paper-data="{&quot;isPaintingLayer&quot;:true}" fill-rule="nonzero" stroke-linecap="butt" stroke-linejoin="miter" stroke-miterlimit="10" stroke-dasharray="" stroke-dashoffset="0" style="mix-blend-mode: normal"><path d="M224.11724,185.99365c-0.87063,3.51637 -1.4708,7.06732 -1.69183,10.63641c-0.35747,5.77239 -0.42288,10.00319 2.51391,15.05768c2.24112,2.52086 3.34975,4.28855 6.48537,5.7811c3.12593,1.48793 5.52677,1.27155 8.89905,1.56175c1.00661,0.08662 2.02637,0.52018 3.01492,0.31157c4.30548,-0.90856 10.06289,-5.6455 12.36383,-9.28636c3.11851,-4.93452 2.95288,-11.06011 3.12554,-16.64433c0.13175,-4.26128 1.38201,-11.33513 -1.84959,-14.85383c-2.49033,-2.71157 -8.90065,-1.92136 -12.06089,-1.92312c-7.1856,0.86257 -14.85689,4.69748 -20.80031,9.35913zM226.38947,178.42492c5.62336,-3.47614 11.93868,-5.9706 18.21739,-6.78074c4.96616,-0.00244 12.13052,-0.63519 15.93911,3.41021c4.55675,4.84008 3.46661,12.47844 3.27967,18.51177c-0.20614,6.6526 -0.29676,13.48223 -4.00371,19.32341c-3.06638,4.83181 -10.03759,10.17916 -15.63617,11.38031c-1.38774,0.29773 -2.83461,-0.15352 -4.25034,-0.25439c-4.02366,-0.28668 -6.89495,-0.23041 -10.66499,-2.03454c-4.19152,-2.00582 -5.40514,-4.02738 -8.3906,-7.37422c-0.93854,-1.66312 -2.18324,-3.18744 -2.81563,-4.98937c-1.43819,-4.09801 -0.90088,-9.05912 -0.62887,-13.30198c0.0942,-1.46939 0.2471,-2.93451 0.45228,-4.3946c-0.10865,-0.02834 -0.22081,-0.06387 -0.33654,-0.10727c-2.34082,-0.87781 -1.46301,-3.21863 -1.46301,-3.21863l1.25996,-3.1745c0.74528,-0.71699 1.52047,-1.41877 2.32239,-2.10227c2.62328,-9.73971 7.06697,-19.18004 11.34101,-28.08629c2.68764,-5.60052 5.15449,-13.43564 9.83697,-17.69614c0.97178,-0.8842 2.37676,-1.12056 3.56515,-1.68084c0,0 2.28453,-1.01535 3.29988,1.26918c1.01535,2.28453 -1.26918,3.29988 -1.26918,3.29988c-5.90166,2.38947 -8.30942,11.5233 -10.92519,16.97158c-3.21812,6.70288 -6.59744,13.76356 -9.12955,21.02946z" fill="#ff0000" stroke="#000000" stroke-width="5"/><path d="M224.11725,185.99367c-0.87063,3.51637 -1.4708,7.06732 -1.69183,10.63641c-0.35747,5.77239 -0.42288,10.00319 2.51391,15.05768c2.24112,2.52086 3.34975,4.28855 6.48537,5.7811c3.12593,1.48793 5.52677,1.27155 8.89905,1.56175c1.00661,0.08662 2.02637,0.52018 3.01492,0.31157c4.30548,-0.90856 10.06289,-5.6455 12.36383,-9.28636c3.11851,-4.93452 2.95288,-11.06011 3.12554,-16.64433c0.13175,-4.26128 1.38201,-11.33513 -1.84959,-14.85383c-2.49033,-2.71157 -8.90065,-1.92136 -12.06089,-1.92312c-7.1856,0.86257 -14.85689,4.69748 -20.80031,9.35913zM226.38948,178.42494c5.62336,-3.47614 11.93868,-5.9706 18.21739,-6.78074c4.96616,-0.00244 12.13052,-0.63519 15.93911,3.41021c4.55675,4.84008 3.46661,12.47844 3.27967,18.51177c-0.20614,6.6526 -0.29676,13.48223 -4.00371,19.32341c-3.06638,4.83181 -10.03759,10.17916 -15.63617,11.38031c-1.38774,0.29773 -2.83461,-0.15352 -4.25034,-0.25439c-4.02366,-0.28668 -6.89495,-0.23041 -10.66499,-2.03454c-4.19152,-2.00582 -5.40514,-4.02738 -8.3906,-7.37422c-0.93854,-1.66312 -2.18324,-3.18744 -2.81563,-4.98937c-1.43819,-4.09801 -0.90088,-9.05912 -0.62887,-13.30198c0.0942,-1.46939 0.2471,-2.93451 0.45228,-4.3946c-0.10865,-0.02834 -0.22081,-0.06387 -0.33654,-0.10727c-2.34082,-0.87781 -1.46301,-3.21863 -1.46301,-3.21863l1.25996,-3.1745c0.74528,-0.71699 1.52047,-1.41877 2.32239,-2.10227c2.62328,-9.73971 7.06697,-19.18004 11.34101,-28.08629c2.68764,-5.60052 5.15449,-13.43564 9.83697,-17.69614c0.97178,-0.8842 2.37676,-1.12056 3.56515,-1.68084c0,0 2.28453,-1.01535 3.29988,1.26918c1.01535,2.28453 -1.26918,3.29988 -1.26918,3.29988c-5.90166,2.38947 -8.30942,11.5233 -10.92519,16.97158c-3.21812,6.70288 -6.59744,13.76356 -9.12955,21.02946z" fill="#ff0000" stroke="none" stroke-width="0.5"/><path d="M38.5028,404.80293v-449.60586h402.9944v449.60586z" fill="none" stroke="#000000" stroke-width="0"/></g></g></svg>