<svg version="1.1" xmlns="http://www.w3.org/2000/svg" xmlns:xlink="http://www.w3.org/1999/xlink" width="640.90658" height="438.93258" viewBox="0,0,640.90658,438.93258"><defs><linearGradient x1="230.55573" y1="122.47431" x2="238.32814" y2="169.81657" gradientUnits="userSpaceOnUse" id="color-1"><stop offset="0" stop-color="#909090"/><stop offset="1" stop-color="#222222"/></linearGradient><linearGradient x1="231.02774" y1="125.34935" x2="237.85613" y2="166.94153" gradientUnits="userSpaceOnUse" id="color-2"><stop offset="0" stop-color="#ffffff"/><stop offset="1" stop-color="#a1a1a1"/></linearGradient><linearGradient x1="351.2734" y1="23.81112" x2="359.04581" y2="71.15337" gradientUnits="userSpaceOnUse" id="color-3"><stop offset="0" stop-color="#909090"/><stop offset="1" stop-color="#222222"/></linearGradient><linearGradient x1="351.74541" y1="26.68616" x2="358.5738" y2="68.27834" gradientUnits="userSpaceOnUse" id="color-4"><stop offset="0" stop-color="#ffffff"/><stop offset="1" stop-color="#a1a1a1"/></linearGradient><linearGradient x1="106.88617" y1="73.12157" x2="114.65857" y2="120.46383" gradientUnits="userSpaceOnUse" id="color-5"><stop offset="0" stop-color="#909090"/><stop offset="1" stop-color="#222222"/></linearGradient><linearGradient x1="107.35818" y1="75.99661" x2="114.18657" y2="117.58879" gradientUnits="userSpaceOnUse" id="color-6"><stop offset="0" stop-color="#ffffff"/><stop offset="1" stop-color="#a1a1a1"/></linearGradient><linearGradient x1="319.82689" y1="98.06803" x2="327.5993" y2="145.41028" gradientUnits="userSpaceOnUse" id="color-7"><stop offset="0" stop-color="#4800ff"/><stop offset="1" stop-color="#23008f"/></linearGradient><linearGradient x1="320.2989" y1="100.94307" x2="327.12729" y2="142.53525" gradientUnits="userSpaceOnUse" id="color-8"><stop offset="0" stop-color="#ffffff"/><stop offset="1" stop-color="#a1a1a1"/></linearGradient><linearGradient x1="317.74446" y1="89.08174" x2="328.06332" y2="151.93465" gradientUnits="userSpaceOnUse" id="color-9"><stop offset="0" stop-color="#ffffff" stop-opacity="0"/><stop offset="1" stop-color="#ffffff"/></linearGradient><linearGradient x1="337.55593" y1="147.36904" x2="345.32834" y2="194.71129" gradientUnits="userSpaceOnUse" id="color-10"><stop offset="0" stop-color="#7eff00"/><stop offset="1" stop-color="#4b8f00"/></linearGradient><linearGradient x1="337.9823" y1="149.96657" x2="344.81069" y2="191.55875" gradientUnits="userSpaceOnUse" id="color-11"><stop offset="0" stop-color="#ffffff"/><stop offset="1" stop-color="#a1a1a1"/></linearGradient><linearGradient x1="330.2577" y1="151.22839" x2="319.93884" y2="88.37549" gradientUnits="userSpaceOnUse" id="color-12"><stop offset="0" stop-color="#ffffff" stop-opacity="0"/><stop offset="1" stop-color="#ffffff"/></linearGradient><linearGradient x1="232.7025" y1="243.9694" x2="240.4749" y2="291.31166" gradientUnits="userSpaceOnUse" id="color-13"><stop offset="0" stop-color="#909090"/><stop offset="1" stop-color="#222222"/></linearGradient><linearGradient x1="233.1745" y1="246.84444" x2="240.00289" y2="288.43662" gradientUnits="userSpaceOnUse" id="color-14"><stop offset="0" stop-color="#ffffff"/><stop offset="1" stop-color="#a1a1a1"/></linearGradient><linearGradient x1="48.89958" y1="141.28546" x2="56.67199" y2="188.62771" gradientUnits="userSpaceOnUse" id="color-15"><stop offset="0" stop-color="#909090"/><stop offset="1" stop-color="#222222"/></linearGradient><linearGradient x1="49.37159" y1="144.16049" x2="56.19998" y2="185.75267" gradientUnits="userSpaceOnUse" id="color-16"><stop offset="0" stop-color="#ffffff"/><stop offset="1" stop-color="#a1a1a1"/></linearGradient><linearGradient x1="237.35348" y1="53.85988" x2="245.12589" y2="101.20214" gradientUnits="userSpaceOnUse" id="color-17"><stop offset="0" stop-color="#909090"/><stop offset="1" stop-color="#222222"/></linearGradient><linearGradient x1="237.82549" y1="56.73492" x2="244.65388" y2="98.3271" gradientUnits="userSpaceOnUse" id="color-18"><stop offset="0" stop-color="#ffffff"/><stop offset="1" stop-color="#a1a1a1"/></linearGradient><linearGradient x1="456.96538" y1="120.58866" x2="464.73778" y2="167.93092" gradientUnits="userSpaceOnUse" id="color-19"><stop offset="0" stop-color="#909090"/><stop offset="1" stop-color="#222222"/></linearGradient><linearGradient x1="457.43739" y1="123.4637" x2="464.26577" y2="165.05588" gradientUnits="userSpaceOnUse" id="color-20"><stop offset="0" stop-color="#ffffff"/><stop offset="1" stop-color="#a1a1a1"/></linearGradient><linearGradient x1="189.91533" y1="245.10525" x2="189.91533" y2="336.01405" gradientUnits="userSpaceOnUse" id="color-21"><stop offset="0" stop-color="#fff500"/><stop offset="1" stop-color="#ffed00"/></linearGradient><linearGradient x1="241.2216" y1="253.52459" x2="241.2216" y2="325.44892" gradientUnits="userSpaceOnUse" id="color-22"><stop offset="0" stop-color="#fff500"/><stop offset="1" stop-color="#ffed00"/></linearGradient><linearGradient x1="294.44495" y1="254.87583" x2="294.44495" y2="327.54805" gradientUnits="userSpaceOnUse" id="color-23"><stop offset="0" stop-color="#fff500"/><stop offset="1" stop-color="#ffed00"/></linearGradient><linearGradient x1="349.7197" y1="252.73063" x2="349.7197" y2="327.74399" gradientUnits="userSpaceOnUse" id="color-24"><stop offset="0" stop-color="#fff500"/><stop offset="1" stop-color="#ffed00"/></linearGradient><linearGradient x1="188.71911" y1="245.07138" x2="188.71911" y2="335.26687" gradientUnits="userSpaceOnUse" id="color-25"><stop offset="0" stop-color="#fff500"/><stop offset="1" stop-color="#ffb000"/></linearGradient><linearGradient x1="239.6228" y1="253.42466" x2="239.6228" y2="324.78464" gradientUnits="userSpaceOnUse" id="color-26"><stop offset="0" stop-color="#fff500"/><stop offset="1" stop-color="#ffb000"/></linearGradient><linearGradient x1="292.42853" y1="254.7653" x2="292.42853" y2="326.86731" gradientUnits="userSpaceOnUse" id="color-27"><stop offset="0" stop-color="#fff500"/><stop offset="1" stop-color="#ffb000"/></linearGradient><linearGradient x1="347.26958" y1="252.63693" x2="347.26958" y2="327.0617" gradientUnits="userSpaceOnUse" id="color-28"><stop offset="0" stop-color="#fff500"/><stop offset="1" stop-color="#ffb000"/></linearGradient><linearGradient x1="245.48059" y1="7.39522" x2="245.48059" y2="242.89833" gradientUnits="userSpaceOnUse" id="color-29"><stop offset="0" stop-color="#00fffb"/><stop offset="1" stop-color="#2fff00"/></linearGradient></defs><g transform="translate(80.45329,39.46629)"><g data-paper-data="{&quot;isPaintingLayer&quot;:true}" fill-rule="nonzero" stroke-linecap="butt" stroke-linejoin="miter" stroke-miterlimit="10" stroke-dasharray="" stroke-dashoffset="0" style="mix-blend-mode: normal"><path d="M-67.14392,399.46629v-438.93258h614.28785v438.93258z" fill="#ffffff" stroke="none" stroke-width="NaN"/><g><path d="M-24.22419,399.24232l-56.2291,-342.49534l584.67748,-95.9893l56.2291,342.49534z" fill="#ffffff" stroke="none" stroke-width="0"/><g stroke-width="2"><path d="M207.861,174.8185l-7.7724,-47.34225l60.93427,-10.00387l7.7724,47.34225z" fill="url(#color-1)" stroke="#000000"/><path d="M211.08946,171.33594l-6.82839,-41.59218l53.53335,-8.78883l6.82839,41.59218z" fill="none" stroke="url(#color-2)"/></g><g stroke-width="2"><path d="M328.57867,76.15531l-7.7724,-47.34225l60.93427,-10.00387l7.7724,47.34225z" fill="url(#color-3)" stroke="#000000"/><path d="M331.80712,72.67275l-6.82839,-41.59218l53.53335,-8.78883l6.82839,41.59218z" fill="none" stroke="url(#color-4)"/></g><g stroke-width="2"><path d="M84.19144,125.46576l-7.7724,-47.34225l60.93427,-10.00387l7.7724,47.34225z" fill="url(#color-5)" stroke="#000000"/><path d="M87.41989,121.9832l-6.82839,-41.59218l53.53335,-8.78883l6.82839,41.59218z" fill="none" stroke="url(#color-6)"/></g><path d="M297.13216,150.41222l-7.7724,-47.34225l60.93427,-10.00387l7.7724,47.34225z" fill="url(#color-7)" stroke="#000000" stroke-width="2"/><path d="M300.36061,146.92966l-6.82839,-41.59218l53.53335,-8.78883l6.82839,41.59218z" fill="none" stroke="url(#color-8)" stroke-width="2"/><path d="M292.45082,157.78132l-10.31886,-62.8529l71.22501,-11.69335l10.31886,62.8529z" fill="url(#color-9)" stroke="none" stroke-width="2"/><path d="M314.8612,199.71323l-7.7724,-47.34225l60.93427,-10.00387l7.7724,47.34225z" fill="url(#color-10)" stroke="#000000" stroke-width="2"/><path d="M318.04402,195.95316l-6.82839,-41.59218l53.53335,-8.78883l6.82839,41.59218z" fill="none" stroke="url(#color-11)" stroke-width="2"/><path d="M355.55135,82.52881l10.31886,62.8529l-71.22502,11.69335l-10.31886,-62.8529z" data-paper-data="{&quot;index&quot;:null}" fill="url(#color-12)" stroke="none" stroke-width="2"/><g stroke-width="2"><path d="M210.00777,296.31359l-7.7724,-47.34225l60.93427,-10.00387l7.7724,47.34225z" fill="url(#color-13)" stroke="#000000"/><path d="M213.23622,292.83103l-6.82839,-41.59218l53.53335,-8.78883l6.82839,41.59218z" fill="none" stroke="url(#color-14)"/></g><g stroke-width="2"><path d="M26.20485,193.62964l-7.7724,-47.34225l60.93427,-10.00387l7.7724,47.34225z" fill="url(#color-15)" stroke="#000000"/><path d="M29.4333,190.14709l-6.82839,-41.59218l53.53335,-8.78883l6.82839,41.59218z" fill="none" stroke="url(#color-16)"/></g><g stroke-width="2"><path d="M214.65875,106.20407l-7.7724,-47.34225l60.93427,-10.00387l7.7724,47.34225z" fill="url(#color-17)" stroke="#000000"/><path d="M217.88721,102.72151l-6.82839,-41.59218l53.53335,-8.78883l6.82839,41.59218z" fill="none" stroke="url(#color-18)"/></g><g stroke-width="2"><path d="M434.27065,172.93285l-7.7724,-47.34225l60.93427,-10.00387l7.7724,47.34225z" fill="url(#color-19)" stroke="#000000"/><path d="M437.4991,169.45029l-6.82839,-41.59218l53.53335,-8.78883l6.82839,41.59218z" fill="none" stroke="url(#color-20)"/></g></g><g data-paper-data="{&quot;index&quot;:null}" stroke="#000000" stroke-width="30"><path d="M176.57358,328.60896c0,0.3772 -0.03542,0.74772 -0.10371,1.10946l-0.00375,0.81586l-0.38501,0.45739c-1.04873,2.45338 -3.67178,4.31176 -6.89088,4.78309l-0.62025,0.23929l-1.00482,-0.1228c-0.92006,-0.00113 -1.80774,-0.11412 -2.64339,-0.32305l-0.39133,-0.04782l-0.21427,-0.12312c-1.40812,-0.44402 -2.64404,-1.16696 -3.60417,-2.08498l-1.76084,-1.66326l-0.17916,-0.29009l-0.8619,-0.80802l-0.3629,-1.1753l-0.66916,-1.08357l0.00492,-1.06764l-0.09716,-0.31464v-24.18099l-0.29375,-9.27558l-0.5922,-9.1099l-0.59482,-8.42794l-0.58886,-6.67486l-0.59175,-5.27017l0.01712,-0.08908l-0.03414,-0.08581l-0.29486,-3.58094l-0.29363,-2.85278l0.0615,-0.30497l-0.09257,-0.29979v-3.64115l0.24121,-0.78116l-0.09073,-1.26984l0.83277,-1.13331l0.14106,-0.45685l0.62559,-0.58648l0.48937,-0.66597l0.49069,-0.25282l1.06458,-0.99803l1.5166,-0.33187l0.83902,-0.43229l0.89944,-0.24274l0.35163,-0.0219l0.31118,-0.13437l1.19925,-0.24274h0.47218l0.43728,-0.14424l2.09871,-0.24274l0.64395,0.05393l0.62806,-0.12712h27.88278l0.62806,0.12712l0.64395,-0.05393l6.29611,0.72823l0.48902,0.16131l0.528,0.00527l5.69648,1.21372l0.49351,0.21949l0.55791,0.06159l4.49722,1.45646l0.17236,0.10079l0.20912,0.03109l3.29797,1.21372l0.99488,0.64026l1.1367,0.46016l1.94802,1.35189l0.34129,0.1644l1.19935,1.52593l1.29289,1.47501l0.05927,0.31793l0.53687,1.30403l0.06271,0.65998l0.30846,0.61301l0.29982,1.6992l-0.06662,0.52137l0.15701,0.5085v1.94195l-0.26854,0.86972v0.8965l-0.89944,2.91292l-0.62595,0.95023l-0.38729,1.03026l-2.69833,3.64115l-0.20131,0.16298l-0.09957,0.21593l-3.29797,3.88389l-0.14246,0.1019l-0.07377,0.14185l-3.59778,3.88389l-0.25185,0.16568l-0.1467,0.23434l-3.89759,3.64115l-0.26833,0.1524l-0.16864,0.22756l-9.59407,7.76779l-0.14649,0.07116l-0.09326,0.1159l-4.1974,3.15566l-0.32847,0.14646l1.38327,1.19995l0.0544,0.07949l0.09269,0.05125l4.70221,4.283l5.21492,4.45681l5.18358,4.19686l3.7238,2.78304l2.65726,1.93629l0.8777,0.53297l2.9232,2.91292l0.87134,3.23152l-1.99564,4.05078l-4.24424,2.68535l-4.07561,0.22757l-4.27236,-1.45646l-1.19925,-0.72823l-0.25837,-0.25746l-0.36193,-0.15549l-2.99815,-2.18469l-0.0326,-0.03916l-0.05119,-0.02266l-3.89759,-2.91292l-0.10113,-0.12487l-0.15815,-0.07682l-5.39666,-4.36938l-0.06423,-0.08667l-0.10527,-0.05433l-5.39666,-4.61212l-0.07197,-0.10335l-0.12102,-0.06692l-4.72447,-4.30328l-4.0171,-3.48474l-2.2889,-1.8532l-0.33307,-0.44946l-0.50244,-0.33053l-0.89944,-0.97097l-0.09724,-0.18697l-0.2356,-0.22088l0.03006,0.94941l-0.02578,0.09361l0.02873,0.09305v21.60345c0.75724,0.81603 1.30766,1.76505 1.58824,2.79604l0.11842,0.19177l-0.00152,0.32703c0.06177,0.34453 0.09375,0.69687 0.09375,1.05525zM180.17136,288.79905l3.22011,-1.95535l3.72946,-2.80385l9.24948,-7.48879l3.47948,-3.25054l3.296,-3.55811l3.03527,-3.57452l1.86654,-2.51871l0.26885,-0.87072l-0.79731,-0.29342l-3.7896,-1.22729l-4.65749,-0.99235l-5.14887,-0.59553h-22.12675l0.25272,3.0692l0.58982,5.25299l-0.01375,0.0716l0.02783,0.06887l0.59963,6.79681l-0.01137,0.0525l0.01959,0.05089l0.59963,8.49602l-0.00389,0.01658l0.00611,0.01613l0.59963,9.22425l-0.02381,0.09894l0.03329,0.09714l0.00367,0.11573l2.59456,-2.43235l0.61983,-0.13564l0.00007,-0.00004l1.95511,-1.38506l0.30797,-0.12787z" fill="url(#color-21)"/><path d="M263.32695,289.82802c3.70256,3.45895 3.52455,5.47667 -0.74764,8.47443c-0.47622,0.33417 -1.55646,0.43475 -2.73785,0.43456c0.13679,3.01426 0.27318,6.02928 0.41646,9.0453c0.17883,3.7643 0.59269,9.16942 0.3043,12.81176c-0.0659,0.83234 -0.02112,1.83767 -0.74954,2.42743c-3.99753,3.23658 -6.49599,3.23658 -10.49351,0c-0.72842,-0.58976 -0.68289,-1.59514 -0.74954,-2.42743c-0.33178,-4.14386 -0.11555,-8.30537 -0.29626,-12.45534c-0.14026,-3.22118 -0.23215,-6.44373 -0.34466,-9.66567c-1.0357,0.00663 -2.07136,0.01726 -3.10687,0.03137c-1.81555,0.02473 -3.636,0.05739 -5.44063,0.22025c-2.19345,0.19795 -4.56529,0.54165 -6.70068,0.99757c-1.28764,2.84052 -2.54186,5.68567 -3.75755,8.52259c-0.3995,0.93228 -0.16454,1.98131 -0.47738,2.93504c-0.11406,0.83726 -0.49109,1.61038 -1.06273,2.26404c-0.90583,1.31453 -2.36707,2.30887 -4.89713,2.05255c-1.41479,0 -2.71515,-0.39671 -3.74062,-1.06024c-0.98637,-0.51313 -1.73086,-1.2006 -1.85856,-2.0536c-0.25652,-0.54044 -0.39711,-1.12744 -0.39711,-1.74102c0,-0.28494 0.03032,-0.56416 0.0885,-0.83565c0.84676,-6.72111 4.8468,-12.91721 7.73922,-19.19482c4.43483,-9.62526 9.07513,-19.01249 15.03487,-28.08784c1.92204,-2.92683 6.8832,-9.77529 11.91594,-8.92639c0.52445,0.08847 4.00039,0.97768 4.68248,1.76209c2.77768,3.19434 1.93748,9.17469 2.20344,12.76274c0.51258,6.91521 0.89273,13.83025 1.22876,20.74799c1.63657,0.10729 3.30555,0.36159 3.94429,0.95829zM246.50057,272.43915c-0.03967,-0.18341 -0.22472,0.32552 -0.3183,0.4956c-1.86368,3.3871 -3.82041,6.74257 -5.55297,10.175c-1.03289,2.04631 -2.05302,4.10887 -3.05833,6.18256c3.34661,-0.29851 6.64398,-0.42632 9.98986,-0.47689c-0.09839,-5.41074 -0.00115,-11.47967 -1.06025,-16.37629z" fill="url(#color-22)"/><path d="M270.92157,307.56052c0.85939,-2.91392 1.62986,-5.84532 2.34593,-8.78453c0.75947,-3.11742 1.37527,-6.25669 2.07999,-9.38253c0.65629,-2.91106 1.6627,-5.76344 2.43671,-8.65548c0.5338,-1.99454 0.97369,-4.00484 1.48301,-6.00356c0.32842,-1.2888 0.90924,-2.79808 1.29373,-3.9523c0.80111,-2.405 1.24371,-7.68007 4.53206,-9.11898c0.36441,-0.15946 0.85809,0.07254 1.24079,-0.05581c0.38271,-0.12834 0.51633,-0.62192 0.92612,-0.6709c9.16971,-1.09601 11.97622,10.96697 13.58317,15.95208c1.19977,3.72195 2.41036,7.44164 3.59778,11.16619c0.38421,1.20516 0.57092,5.94939 1.09829,4.2388c1.13466,-3.68029 3.37987,-20.41616 3.91068,-25.72738c0.17967,-1.79771 0.12558,-4.75276 0.58186,-6.6579c0.79045,-3.3003 5.20738,-6.57388 9.59407,-4.24801c0.71704,0.38018 2.87076,3.60337 2.99815,4.24801c0.08806,0.44558 -0.6507,0.78563 -0.68152,1.23619c-0.13678,1.99947 -0.36802,4.21507 -0.55972,6.18349c-1.39569,14.33162 -4.6971,28.54764 -5.96589,42.91657c-0.33771,3.82457 0.45688,10.51476 -2.41397,13.83888c-0.23738,0.27485 -0.84239,0.15088 -1.15533,0.37064c-0.31294,0.21974 -0.24692,0.7222 -0.61656,0.87358c-9.17853,3.75917 -10.73197,-6.56828 -11.88074,-11.0559c-0.32109,-1.25429 -0.76858,-2.48525 -1.13208,-3.73193c-0.42016,-1.44103 -0.84817,-3.00996 -1.2346,-4.45598c-0.39752,-1.48753 -0.80141,-3.11272 -1.20446,-4.59927c-0.48001,-1.77043 -0.99667,-3.53422 -1.48845,-5.30253c-0.52383,-1.8835 -0.628,-2.8868 -1.49169,-5.79327c-0.90371,-3.04118 -1.66634,-6.12288 -2.9256,-9.08001c-0.11578,-0.2719 -0.25964,1.09889 -0.37979,1.52824c-0.78243,2.79604 -1.66363,5.57472 -2.36704,8.38451c-0.77727,3.10482 -1.37393,6.23752 -2.07374,9.3544c-1.28845,5.73854 -3.00579,11.11736 -4.94316,16.71258c-0.51591,1.48997 -1.07669,5.37444 -2.23527,6.94567c-0.38829,0.52661 -0.99983,1.34068 -1.77828,2.03018c-1.03109,0.91326 -2.35502,1.60796 -3.84102,1.12664c-2.31965,0 -4.33166,-1.06643 -5.32891,-2.62677c-0.47993,-0.50273 -0.73782,-1.06655 -0.63179,-1.69608c-0.02352,-0.17472 -0.03559,-0.35223 -0.03559,-0.53202c0,-0.7205 0.19386,-1.40435 0.54164,-2.01921c1.23086,-4.33912 2.82955,-8.57659 4.12123,-12.95626z" fill="url(#color-23)"/><path d="M329.51963,283.93981c0.00611,-0.38321 0.10743,-0.74554 0.28377,-1.08801c-0.08134,-1.42088 -0.16021,-2.77249 -0.26536,-3.84932c-0.20601,-2.10972 -0.52748,-4.2116 -0.86596,-6.3101c-0.56563,-3.50683 -1.4401,-7.00979 -1.97156,-10.50515c-0.17974,-1.18206 -0.6177,-3.01621 0.57049,-3.97822c3.99753,-3.23658 6.496,-3.23658 10.49351,0c0.63134,0.51116 1.10974,4.41377 1.28434,5.35617c0.19283,1.04072 0.39226,2.08064 0.59292,3.12038c0.61361,3.17941 1.06521,6.32756 1.43079,9.48126c2.80197,-2.99724 8.76312,-9.65186 11.18865,-12.32625c2.43417,-2.6839 7.6174,-8.97412 11.70891,-10.39929c6.16935,-2.14892 10.08138,0.76145 8.73114,6.22756c-0.27275,1.10418 -3.16187,2.33964 -4.11877,3.17486c-1.54106,1.34509 -5.83107,5.8553 -6.69157,6.78451c-5.28159,5.70325 -10.32598,11.51585 -15.84609,17.06276c0.41948,0.38206 0.82873,0.75903 1.21937,1.12889c6.30464,5.96947 11.81661,12.38206 16.99396,19.02406c0.34684,0.44497 5.14028,5.83361 5.07533,6.51728c-0.1545,1.62608 -0.50308,3.54625 -2.03247,4.60762c-6.25031,4.3376 -10.68276,-2.76848 -13.17094,-5.9497c-1.05677,-1.3511 -2.12343,-2.69739 -3.21913,-4.028c-1.45607,-1.76824 -5.74808,-6.81859 -7.6949,-8.94064c0.16869,2.53436 0.30036,5.24848 0.37975,6.13576c0.35511,3.96964 1.19011,8.67889 1.44035,12.74124c0.03277,0.5318 -0.02914,1.07037 0.07384,1.59626c0.00363,0.01852 0.00803,0.03713 0.01316,0.05584c0.47409,0.4378 0.8525,0.9452 1.10879,1.50083c0.3461,0.436 0.58204,0.87191 0.35437,1.27236c0.01507,0.14036 0.02276,0.28245 0.02276,0.42598c0,2.68127 -2.68463,4.85487 -5.99629,4.85487c-0.47445,0.2496 -1.05584,0.02652 -1.63573,-0.18284c-0.27579,-0.06317 -0.54349,-0.14192 -0.80159,-0.23499c-2.23882,-0.36369 -3.97297,-3.07812 -4.61327,-4.69583c-1.03629,-2.61814 -0.68276,-5.9898 -1.01188,-8.74045c-0.67246,-5.62023 -1.05493,-11.26089 -1.51885,-16.89494c-0.14579,-1.77058 -0.32444,-3.53922 -0.50572,-5.30771c-0.81736,-0.82971 -1.30591,-1.88113 -1.30591,-3.02494c0,-0.59958 0.13425,-1.17378 0.37974,-1.70395c0.06991,-0.21256 0.16219,-0.41819 0.29337,-0.6118c0.03662,-0.05405 0.07322,-0.10619 0.10981,-0.15649c-0.0169,-0.23535 -0.03313,-0.47307 -0.04882,-0.71221z" fill="url(#color-24)"/></g><g stroke="none" stroke-width="0.5"><path d="M175.48204,327.91988c0,0.37425 -0.03514,0.74185 -0.1029,1.10076l-0.00373,0.80946l-0.38198,0.4538c-1.0405,2.43414 -3.64296,4.27793 -6.8368,4.74556l-0.61538,0.23741l-0.99694,-0.12184c-0.91285,-0.00113 -1.79355,-0.11322 -2.62265,-0.32051l-0.38826,-0.04745l-0.21259,-0.12215c-1.39708,-0.44053 -2.62329,-1.1578 -3.57589,-2.06863l-1.74702,-1.65021l-0.17775,-0.28782l-0.85514,-0.80168l-0.36006,-1.16608l-0.66391,-1.07507l0.00488,-1.05926l-0.0964,-0.31218v-23.99126l-0.29145,-9.2028l-0.58755,-9.03842l-0.59016,-8.36182l-0.58425,-6.62248l-0.58711,-5.22882l0.01699,-0.08838l-0.03387,-0.08514l-0.29254,-3.55284l-0.29132,-2.8304l0.06102,-0.30259l-0.09184,-0.29743v-3.61258l0.23931,-0.77503l-0.09002,-1.25987l0.82624,-1.12441l0.13996,-0.45327l0.62067,-0.58187l0.48553,-0.66074l0.48685,-0.25084l1.05623,-0.9902l1.50469,-0.32926l0.83244,-0.4289l0.89238,-0.24084l0.34888,-0.02173l0.30874,-0.13332l1.18985,-0.24084h0.46848l0.43385,-0.14311l2.08224,-0.24084l0.6389,0.05351l0.62313,-0.12613h27.66399l0.62313,0.12613l0.6389,-0.05351l6.24671,0.72252l0.48518,0.16004l0.52386,0.00523l5.65178,1.20419l0.48965,0.21776l0.55354,0.06111l4.46193,1.44503l0.171,0.1l0.20747,0.03085l3.27209,1.20419l0.98706,0.63524l1.12779,0.45656l1.93274,1.34128l0.33862,0.1631l1.18994,1.51396l1.28275,1.46344l0.0588,0.31544l0.53266,1.29379l0.06221,0.6548l0.30604,0.6082l0.29746,1.68587l-0.0661,0.51728l0.15578,0.50451v1.92671l-0.26644,0.8629v0.88946l-0.89238,2.89006l-0.62103,0.94277l-0.38424,1.02218l-2.67716,3.61258l-0.19973,0.16171l-0.09879,0.21424l-3.27209,3.85342l-0.14135,0.1011l-0.07318,0.14074l-3.56955,3.85342l-0.24987,0.16438l-0.14555,0.23251l-3.86701,3.61258l-0.26623,0.15121l-0.16731,0.22578l-9.51879,7.70684l-0.14534,0.0706l-0.09253,0.11499l-4.16447,3.1309l-0.3259,0.14531l1.37241,1.19053l0.05398,0.07887l0.09196,0.05085l4.66531,4.2494l5.174,4.42183l5.14291,4.16393l3.69459,2.7612l2.63641,1.9211l0.87082,0.5288l2.90026,2.89006l0.8645,3.20616l-1.97998,4.019l-4.21095,2.66428l-4.04362,0.22579l-4.23883,-1.44503l-1.18985,-0.72252l-0.25634,-0.25544l-0.35909,-0.15427l-2.97462,-2.16755l-0.03235,-0.03886l-0.05079,-0.02248l-3.86701,-2.89006l-0.10034,-0.12389l-0.15691,-0.07622l-5.35432,-4.3351l-0.06373,-0.08599l-0.10446,-0.0539l-5.35432,-4.57593l-0.07141,-0.10254l-0.12007,-0.06639l-4.6874,-4.26952l-3.98558,-3.45739l-2.27093,-1.83865l-0.33046,-0.44593l-0.49851,-0.32793l-0.89238,-0.96336l-0.09647,-0.18551l-0.23375,-0.21914l0.02983,0.94197l-0.02558,0.09288l0.02851,0.09232v21.43394c0.7513,0.80962 1.2974,1.7512 1.57577,2.77411l0.11749,0.19026l-0.0015,0.32446c0.06128,0.34182 0.09301,0.6914 0.09301,1.04698zM179.05159,288.42234l3.19484,-1.94001l3.70018,-2.78185l9.17691,-7.43003l3.45218,-3.22504l3.27013,-3.5302l3.01145,-3.54647l1.85189,-2.49895l0.26675,-0.86388l-0.79106,-0.29112l-3.75986,-1.21766l-4.62095,-0.98456l-5.10847,-0.59086h-21.95312l0.25074,3.04512l0.58519,5.21177l-0.01365,0.07104l0.02761,0.06832l0.59492,6.74348l-0.01129,0.05209l0.01943,0.05049l0.59492,8.42935l-0.00386,0.01645l0.00606,0.01601l0.59492,9.15187l-0.02362,0.09817l0.03303,0.09638l0.00364,0.11482l2.5742,-2.41327l0.61495,-0.13457l0.00007,-0.00004l1.93976,-1.37419l0.30556,-0.12687z" fill="url(#color-25)"/><path d="M261.5547,289.44323c3.67351,3.43181 3.4969,5.4337 -0.74176,8.40793c-0.47249,0.33154 -1.54425,0.43134 -2.71637,0.43115c0.13572,2.99061 0.27104,5.98197 0.41319,8.97433c0.17743,3.73476 0.58803,9.09748 0.30192,12.71123c-0.06538,0.82581 -0.02096,1.82325 -0.74365,2.40839c-3.96616,3.21118 -6.44502,3.21118 -10.41118,0c-0.7227,-0.58513 -0.67754,-1.58262 -0.74365,-2.40839c-0.32918,-4.11134 -0.11464,-8.24021 -0.29393,-12.35762c-0.13916,-3.19591 -0.23033,-6.39317 -0.34195,-9.58982c-1.02758,0.00658 -2.0551,0.01712 -3.08249,0.03112c-1.80131,0.02453 -3.60747,0.05694 -5.39795,0.21852c-2.17625,0.19639 -4.52947,0.5374 -6.64811,0.98974c-1.27754,2.81823 -2.52191,5.64105 -3.72806,8.45572c-0.39637,0.92496 -0.16325,1.96576 -0.47364,2.91201c-0.11317,0.83069 -0.48723,1.59774 -1.05439,2.24627c-0.89873,1.30421 -2.3485,2.29075 -4.8587,2.03645c-1.4037,0 -2.69385,-0.3936 -3.71127,-1.05192c-0.97863,-0.50911 -1.71727,-1.19117 -1.84397,-2.03749c-0.2545,-0.5362 -0.39399,-1.11859 -0.39399,-1.72736c0,-0.28271 0.03008,-0.55974 0.0878,-0.82909c0.84011,-6.66837 4.80877,-12.81585 7.67849,-19.0442c4.40004,-9.54973 9.00393,-18.86331 14.9169,-27.86745c1.90696,-2.90387 6.8292,-9.69859 11.82244,-8.85635c0.52034,0.08777 3.96899,0.97001 4.64574,1.74827c2.75589,3.16928 1.92228,9.1027 2.18615,12.6626c0.50856,6.86094 0.88572,13.72173 1.21913,20.58519c1.62373,0.10645 3.27962,0.35875 3.91333,0.95078zM244.86036,272.19082c-0.03936,-0.18197 -0.22295,0.32297 -0.31581,0.49171c-1.84906,3.36053 -3.79043,6.68966 -5.5094,10.09516c-1.02478,2.03025 -2.03691,4.07664 -3.03434,6.13405c3.32035,-0.29617 6.59185,-0.42297 9.91148,-0.47314c-0.09762,-5.36829 -0.00113,-11.3896 -1.05193,-16.24779z" fill="url(#color-26)"/><path d="M269.08973,307.0366c0.85265,-2.89106 1.61707,-5.79946 2.32751,-8.7156c0.75351,-3.09297 1.36448,-6.2076 2.06367,-9.30892c0.65114,-2.88822 1.64966,-5.71822 2.41759,-8.58756c0.52961,-1.97888 0.96605,-3.97341 1.47138,-5.95646c0.32584,-1.27869 0.90212,-2.77612 1.28358,-3.9213c0.79482,-2.38613 1.23396,-7.61981 4.49649,-9.04743c0.36156,-0.15821 0.85136,0.07197 1.23106,-0.05538c0.3797,-0.12734 0.51227,-0.61703 0.91885,-0.66563c9.09776,-1.08741 11.88224,10.88092 13.47659,15.82691c1.19036,3.69275 2.39145,7.38325 3.56955,11.07858c0.3812,1.1957 0.56644,5.90269 1.08967,4.20554c1.12575,-3.65141 3.35335,-20.25596 3.87999,-25.52551c0.17825,-1.7836 0.1246,-4.71547 0.5773,-6.60566c0.78424,-3.2744 5.16652,-6.5223 9.51879,-4.21468c0.71142,0.3772 2.84823,3.5751 2.97462,4.21468c0.08737,0.44208 -0.64559,0.77947 -0.67617,1.22649c-0.13571,1.98378 -0.36513,4.182 -0.55533,6.13497c-1.38474,14.21918 -4.66024,28.32363 -5.91907,42.57982c-0.33506,3.79456 0.45329,10.43226 -2.39503,13.7303c-0.23551,0.2727 -0.83577,0.1497 -1.14626,0.36772c-0.31048,0.21802 -0.24498,0.71653 -0.61172,0.86673c-9.10651,3.72967 -10.64776,-6.51674 -11.78752,-10.96916c-0.31856,-1.24445 -0.76255,-2.46575 -1.12319,-3.70264c-0.41686,-1.42972 -0.84151,-2.98635 -1.2249,-4.42102c-0.39441,-1.47586 -0.79513,-3.08829 -1.19501,-4.56318c-0.47624,-1.75654 -0.98884,-3.50649 -1.47677,-5.26092c-0.51972,-1.86873 -0.62309,-2.86415 -1.47999,-5.74782c-0.89662,-3.01732 -1.65325,-6.07483 -2.90265,-9.00876c-0.11488,-0.26976 -0.2576,1.09027 -0.37681,1.51625c-0.7763,2.77411 -1.65058,5.53098 -2.34846,8.31872c-0.77117,3.08047 -1.36314,6.18857 -2.05747,9.281c-1.27834,5.69351 -2.9822,11.03012 -4.90437,16.58144c-0.51186,1.47828 -1.06825,5.33226 -2.21773,6.89117c-0.38525,0.52247 -0.99198,1.33016 -1.76433,2.01425c-1.023,0.90609 -2.33655,1.59535 -3.81088,1.1178c-2.30145,0 -4.29767,-1.05806 -5.2871,-2.60616c-0.47616,-0.49878 -0.73203,-1.05818 -0.62683,-1.68277c-0.02334,-0.17335 -0.03532,-0.34947 -0.03532,-0.52785c0,-0.71485 0.19233,-1.39333 0.53739,-2.00337c1.2212,-4.30508 2.80734,-8.5093 4.08888,-12.8546z" fill="url(#color-27)"/><path d="M327.228,283.60123c0.00606,-0.38021 0.10659,-0.73968 0.28154,-1.07947c-0.0807,-1.40973 -0.15895,-2.75075 -0.26327,-3.81913c-0.2044,-2.09317 -0.52335,-4.17856 -0.85917,-6.26058c-0.56119,-3.47931 -1.4288,-6.95479 -1.95609,-10.42271c-0.17833,-1.17279 -0.61285,-2.99253 0.56603,-3.94701c3.96617,-3.21118 6.44501,-3.21118 10.41118,0c0.62639,0.50715 1.10103,4.37914 1.27426,5.31413c0.19131,1.03255 0.38918,2.06431 0.58828,3.0959c0.6088,3.15446 1.05685,6.27791 1.41956,9.40687c2.77999,-2.97373 8.69436,-9.57614 11.10085,-12.22954c2.41507,-2.66285 7.55763,-8.9037 11.61704,-10.31769c6.12094,-2.13206 10.00228,0.75548 8.66263,6.17869c-0.27062,1.09552 -3.13705,2.32128 -4.08645,3.14994c-1.52897,1.33453 -5.78531,5.80936 -6.63907,6.73128c-5.24015,5.6585 -10.24495,11.4255 -15.72175,16.92888c0.41619,0.37906 0.82223,0.75307 1.2098,1.12003c6.25517,5.92264 11.72388,12.28491 16.86063,18.8748c0.34412,0.44147 5.09995,5.78784 5.0355,6.46614c-0.15328,1.61332 -0.49914,3.51842 -2.01652,4.57146c-6.20126,4.30356 -10.59894,-2.74677 -13.0676,-5.90302c-1.04847,-1.3405 -2.10677,-2.67622 -3.19387,-3.99639c-1.44464,-1.75437 -5.70298,-6.76508 -7.63452,-8.87049c0.16737,2.51448 0.29801,5.2073 0.37675,6.08762c0.35233,3.93851 1.18077,8.6108 1.42906,12.64126c0.0325,0.52763 -0.02891,1.06198 0.07326,1.58373c0.0036,0.01837 0.00796,0.03684 0.01305,0.05541c0.47036,0.43436 0.8458,0.93779 1.10008,1.48905c0.34338,0.43258 0.57748,0.86507 0.35159,1.26238c0.01495,0.13927 0.02258,0.28023 0.02258,0.42264c0,2.66023 -2.66356,4.81677 -5.94924,4.81677c-0.47072,0.24765 -1.04756,0.02632 -1.6229,-0.1814c-0.27362,-0.06268 -0.53923,-0.14081 -0.7953,-0.23315c-2.22125,-0.36084 -3.9418,-3.05397 -4.57707,-4.65898c-1.02815,-2.59759 -0.6774,-5.9428 -1.00393,-8.67186c-0.66719,-5.57613 -1.04665,-11.17254 -1.50693,-16.76237c-0.14465,-1.75669 -0.3219,-3.51145 -0.50176,-5.26607c-0.81095,-0.8232 -1.29567,-1.86636 -1.29567,-3.0012c0,-0.59488 0.13319,-1.16457 0.37675,-1.69059c0.06936,-0.2109 0.16092,-0.41491 0.29106,-0.607c0.03633,-0.05363 0.07264,-0.10535 0.10895,-0.15527c-0.01677,-0.23351 -0.03288,-0.46937 -0.04844,-0.70662z" fill="url(#color-28)"/></g><path d="M154.51821,196.37776c-0.19103,-2.76985 -0.85798,-5.49311 -1.049,-8.26294c-0.42344,-6.13979 3.92933,-12.46405 9.65639,-16.76501c1.92139,-1.63688 4.14926,-2.92472 6.58551,-3.76541c2.57875,-1.04804 5.182,-1.61982 7.57377,-1.56217c1.18939,0.02867 2.42215,0.3762 3.68362,0.96188c6.48481,1.48225 11.79596,6.04505 14.31184,12.06676c2.39179,2.33814 4.69581,4.47277 6.81552,5.87132c3.00517,1.98276 5.98072,4.03352 9.15923,5.72452c15.85209,8.4335 32.66144,9.88975 50.32208,10.61268c5.82655,0.23851 9.86055,0.57861 15.18422,-1.50656c5.70875,-2.236 8.66689,-5.19264 13.2749,-9.42683c5.71074,-5.24746 14.9479,-14.89127 15.07725,-23.52166c0.04386,-2.92625 -3.04607,-5.01974 -4.89351,-7.28951c-8.70713,-10.69768 -21.12343,-22.06667 -35.1629,-24.77751c-37.65622,-7.27093 -87.76782,21.94154 -114.6651,-17.29515c-5.85647,-8.54317 -6.03766,-22.82306 -5.70109,-32.1881c0.28591,-7.95577 0.40714,-18.09368 4.02051,-25.82687c17.29096,-37.0054 49.68809,-53.72153 89.75347,-51.89762c5.90629,0.26887 12.89287,3.33012 18.06373,4.70819c10.89016,2.9023 24.11822,2.21305 32.77753,10.87238c12.17138,12.17138 6.34907,31.18843 -10.16159,35.69133c-2.98914,0.81522 -6.25044,0.015 -9.27018,-0.6783c-1.84063,-0.42259 -3.12348,-2.3514 -4.97888,-2.70356c-19.7339,-3.74554 -38.7138,-11.54668 -58.02154,-1.65935c-13.97597,7.15698 -20.8119,17.14322 -21.55824,32.95378c-0.15522,3.2881 -1.90513,7.99266 0.81851,9.84129c5.02711,3.4121 12.14998,0.47654 18.22405,0.33549c11.24366,-0.26107 22.38481,-3.87507 33.42446,-4.09288c11.35249,-0.22399 25.63128,-0.68603 37.00078,2.15168c23.06932,5.7579 42.51345,20.82578 57.18028,39.13149c6.20246,7.7413 14.40785,18.65027 14.40785,29.43982c0,30.2194 -28.65642,66.81152 -57.23955,75.32762c-26.03871,7.75802 -57.03555,3.54947 -82.18311,-5.69107c-14.05675,-5.16519 -26.14381,-12.81581 -38.04944,-21.81956c-3.8278,-2.89482 -12.76197,-8.8606 -13.74358,-14.14401z" fill="url(#color-29)" stroke="none" stroke-width="0.5"/></g></g></svg>