<svg version="1.1" xmlns="http://www.w3.org/2000/svg" xmlns:xlink="http://www.w3.org/1999/xlink" width="242.38892" height="208.61035" viewBox="0,0,242.38892,208.61035"><defs><linearGradient x1="240.00001" y1="93.69051" x2="240.00001" y2="266.30949" gradientUnits="userSpaceOnUse" id="color-1"><stop offset="0" stop-color="#f00000"/><stop offset="1" stop-color="#c000f0"/></linearGradient><linearGradient x1="240.00001" y1="93.69051" x2="240.00001" y2="266.30949" gradientUnits="userSpaceOnUse" id="color-2"><stop offset="0" stop-color="#f00000"/><stop offset="1" stop-color="#c000f0"/></linearGradient></defs><g transform="translate(-118.80554,-75.69482)"><g data-paper-data="{&quot;isPaintingLayer&quot;:true}" fill-rule="nonzero" stroke-linecap="butt" stroke-linejoin="miter" stroke-miterlimit="10" stroke-dasharray="" stroke-dashoffset="0" style="mix-blend-mode: normal"><path d="M173.32644,232.21086c-0.14002,-2.03024 -0.62888,-4.02634 -0.7689,-6.05657c-0.31037,-4.50034 2.88012,-9.13589 7.07794,-12.28841c1.40834,-1.1998 3.04132,-2.14376 4.82704,-2.75997c1.89017,-0.76819 3.7983,-1.18729 5.55142,-1.14504c0.8718,0.02101 1.77539,0.27575 2.70002,0.70504c4.75323,1.08646 8.6462,4.4309 10.49029,8.84469c1.75313,1.71381 3.44193,3.27845 4.99564,4.30356c2.20273,1.45332 4.38375,2.95649 6.71353,4.19596c11.61926,6.18158 23.94017,7.24899 36.88506,7.77888c4.27074,0.17482 7.22758,0.42411 11.12972,-1.10428c4.1844,-1.63894 6.35265,-3.8061 9.73023,-6.90967c4.18586,-3.84628 10.95651,-10.915 11.05132,-17.2409c0.03215,-2.14488 -2.23271,-3.67937 -3.58684,-5.34306c-6.38215,-7.84118 -15.48304,-16.17442 -25.77369,-18.16141c-27.60124,-5.32944 -64.33202,16.0827 -84.04718,-12.67699c-4.29267,-6.26197 -4.42548,-16.72884 -4.17878,-23.59322c0.20957,-5.83142 0.29842,-13.2623 2.94695,-18.93057c12.67392,-27.1242 36.42036,-39.37679 65.78747,-38.0399c4.32919,0.19708 9.45021,2.44091 13.24035,3.45101c7.98227,2.12733 17.67816,1.62212 24.02526,7.96923c8.92137,8.92137 4.65374,22.86048 -7.44824,26.16102c-2.19098,0.59754 -4.58144,0.011 -6.79485,-0.49718c-1.34914,-0.30975 -2.28945,-1.72353 -3.64942,-1.98165c-14.46455,-2.7454 -28.37643,-8.46348 -42.52861,-1.21627c-10.2441,5.24592 -15.2547,12.56563 -15.80175,24.15445c-0.11377,2.41011 -1.39642,5.85846 0.59995,7.21347c3.68477,2.501 8.90569,0.34929 13.35786,0.24591c8.24137,-0.19136 16.40761,-2.84035 24.49945,-3c8.32114,-0.16418 18.78721,-0.50285 27.12082,1.57714c16.90934,4.22042 31.16149,15.26487 41.91198,28.68259c4.54628,5.67422 10.56066,13.67027 10.56066,21.57879c0,22.1502 -21.00457,48.97148 -41.95542,55.21361c-19.08584,5.68647 -41.8059,2.60169 -60.23854,-4.17144c-10.30331,-3.78598 -19.16288,-9.39373 -27.88946,-15.99329c-2.8057,-2.12184 -9.35426,-6.49464 -10.07376,-10.36727z" fill="url(#color-1)" stroke="#000000" stroke-width="10"/><path d="M173.32644,232.21086c-0.14002,-2.03024 -0.62888,-4.02634 -0.7689,-6.05657c-0.31037,-4.50034 2.88012,-9.13589 7.07794,-12.28841c1.40834,-1.1998 3.04132,-2.14376 4.82704,-2.75997c1.89017,-0.76819 3.7983,-1.18729 5.55142,-1.14504c0.8718,0.02101 1.77539,0.27575 2.70002,0.70504c4.75323,1.08646 8.6462,4.4309 10.49029,8.84469c1.75313,1.71381 3.44193,3.27845 4.99564,4.30356c2.20273,1.45332 4.38375,2.95649 6.71353,4.19596c11.61926,6.18158 23.94017,7.24899 36.88506,7.77888c4.27074,0.17482 7.22758,0.42411 11.12972,-1.10428c4.1844,-1.63894 6.35265,-3.8061 9.73023,-6.90967c4.18586,-3.84628 10.95651,-10.915 11.05132,-17.2409c0.03215,-2.14488 -2.23271,-3.67937 -3.58684,-5.34306c-6.38215,-7.84118 -15.48304,-16.17442 -25.77369,-18.16141c-27.60124,-5.32944 -64.33202,16.0827 -84.04718,-12.67699c-4.29267,-6.26197 -4.42548,-16.72884 -4.17878,-23.59322c0.20957,-5.83142 0.29842,-13.2623 2.94695,-18.93057c12.67392,-27.1242 36.42036,-39.37679 65.78747,-38.0399c4.32919,0.19708 9.45021,2.44091 13.24035,3.45101c7.98227,2.12733 17.67816,1.62212 24.02526,7.96923c8.92137,8.92137 4.65374,22.86048 -7.44824,26.16102c-2.19098,0.59754 -4.58144,0.011 -6.79485,-0.49718c-1.34914,-0.30975 -2.28945,-1.72353 -3.64942,-1.98165c-14.46455,-2.7454 -28.37643,-8.46348 -42.52861,-1.21627c-10.2441,5.24592 -15.2547,12.56563 -15.80175,24.15445c-0.11377,2.41011 -1.39642,5.85846 0.59995,7.21347c3.68477,2.501 8.90569,0.34929 13.35786,0.24591c8.24137,-0.19136 16.40761,-2.84035 24.49945,-3c8.32114,-0.16418 18.78721,-0.50285 27.12082,1.57714c16.90934,4.22042 31.16149,15.26487 41.91198,28.68259c4.54628,5.67422 10.56066,13.67027 10.56066,21.57879c0,22.1502 -21.00457,48.97148 -41.95542,55.21361c-19.08584,5.68647 -41.8059,2.60169 -60.23854,-4.17144c-10.30331,-3.78598 -19.16288,-9.39373 -27.88946,-15.99329c-2.8057,-2.12184 -9.35426,-6.49464 -10.07376,-10.36727z" fill="url(#color-2)" stroke="none" stroke-width="0.5"/><path d="M118.80554,284.30518v-208.61035h242.38892v208.61035z" fill="none" stroke="#000000" stroke-width="0"/></g></g></svg>