<svg version="1.1" xmlns="http://www.w3.org/2000/svg" xmlns:xlink="http://www.w3.org/1999/xlink" width="140.42214" height="183.60449" viewBox="0,0,140.42214,183.60449"><defs><linearGradient x1="240" y1="92.65505" x2="240" y2="267.34496" gradientUnits="userSpaceOnUse" id="color-1"><stop offset="0" stop-color="#f00000"/><stop offset="1" stop-color="#c000f0"/></linearGradient></defs><g transform="translate(-169.78893,-87.98157)"><g data-paper-data="{&quot;isPaintingLayer&quot;:true}" fill="url(#color-1)" fill-rule="nonzero" stroke-linecap="butt" stroke-linejoin="miter" stroke-miterlimit="10" stroke-dasharray="" stroke-dashoffset="0" style="mix-blend-mode: normal"><path d="M294.56066,238.98718c6.61173,6.21718 5.34037,16.96292 -0.7814,22.38482c-4.5613,4.03983 -13.01454,4.69731 -18.47897,5.2384c-11.40181,1.129 -33.62138,1.40598 -45.49446,-2.51152c-16.74705,-5.52566 -36.68808,-16.09137 -45.40575,-32.437c-4.76044,-8.92582 -6.53949,-16.76559 -8.10134,-27.58926c-2.95294,-20.46393 -1.33792,-31.06218 2.79409,-50.78315c1.89363,-9.0378 8.89289,-17.60983 14.2323,-24.39141c9.96921,-12.66189 23.76174,-24.76574 39.66081,-29.41884c18.99323,-5.55865 36.9162,-7.6939 56.86494,-6.50648c15.07826,0.89752 21.72852,21.01074 7.5,28.125c-7.58287,3.79144 -26.67847,1.69008 -30.43398,1.875c-19.71468,0.97073 -37.78234,8.65159 -50.19743,24.34462c-8.64866,10.93215 -10.95622,17.61373 -11.81215,31.69753c-0.53847,8.86018 0.39801,26.90598 4.6491,35.93342c1.65684,3.5184 4.65516,6.29413 7.53618,8.9064c16.90274,15.32596 42.3168,15.70928 63.51282,11.47007c1.04509,-0.23051 2.13108,-0.35203 3.24546,-0.35203c2.00479,0 3.91772,0.3933 5.66584,1.10695c1.77821,0.55616 3.45422,1.41263 5.04394,2.90749z" stroke="#000000" stroke-width="10"/><path d="M294.56066,238.98718c6.61173,6.21718 5.34037,16.96292 -0.7814,22.38482c-4.5613,4.03983 -13.01454,4.69731 -18.47897,5.2384c-11.40181,1.129 -33.62138,1.40598 -45.49446,-2.51152c-16.74705,-5.52566 -36.68808,-16.09137 -45.40575,-32.437c-4.76044,-8.92582 -6.53949,-16.76559 -8.10134,-27.58926c-2.95294,-20.46393 -1.33792,-31.06218 2.79409,-50.78315c1.89363,-9.0378 8.89289,-17.60983 14.2323,-24.39141c9.96921,-12.66189 23.76174,-24.76574 39.66081,-29.41884c18.99323,-5.55865 36.9162,-7.6939 56.86494,-6.50648c15.07826,0.89752 21.72852,21.01074 7.5,28.125c-7.58287,3.79144 -26.67847,1.69008 -30.43398,1.875c-19.71468,0.97073 -37.78234,8.65159 -50.19743,24.34462c-8.64866,10.93215 -10.95622,17.61373 -11.81215,31.69753c-0.53847,8.86018 0.39801,26.90598 4.6491,35.93342c1.65684,3.5184 4.65516,6.29413 7.53618,8.9064c16.90274,15.32596 42.3168,15.70928 63.51282,11.47007c1.04509,-0.23051 2.13108,-0.35203 3.24546,-0.35203c2.00479,0 3.91772,0.3933 5.66584,1.10695c1.77821,0.55616 3.45422,1.41263 5.04394,2.90749z" stroke="none" stroke-width="0.5"/></g></g></svg>