<svg version="1.1" xmlns="http://www.w3.org/2000/svg" xmlns:xlink="http://www.w3.org/1999/xlink" width="233.1915" height="214.49272" viewBox="0,0,233.1915,214.49272"><defs><linearGradient x1="201.49534" y1="105.06307" x2="233.60868" y2="274.66863" gradientUnits="userSpaceOnUse" id="color-1"><stop offset="0" stop-color="#f00000"/><stop offset="1" stop-color="#c000f0"/></linearGradient><linearGradient x1="331.55986" y1="78.0064" x2="290.65629" y2="169.24149" gradientUnits="userSpaceOnUse" id="color-2"><stop offset="0" stop-color="#f00000"/><stop offset="1" stop-color="#c000f0"/></linearGradient><linearGradient x1="201.49534" y1="105.06307" x2="233.60868" y2="274.66863" gradientUnits="userSpaceOnUse" id="color-3"><stop offset="0" stop-color="#f00000"/><stop offset="1" stop-color="#c000f0"/></linearGradient><linearGradient x1="311.90085" y1="70.03815" x2="311.90085" y2="171.45431" gradientUnits="userSpaceOnUse" id="color-4"><stop offset="0" stop-color="#f00000"/><stop offset="1" stop-color="#c000f0"/></linearGradient></defs><g transform="translate(-133.17792,-65.03815)"><g data-paper-data="{&quot;isPaintingLayer&quot;:true}" fill-rule="nonzero" stroke-linecap="butt" stroke-linejoin="miter" stroke-miterlimit="10" stroke-dasharray="" stroke-dashoffset="0" style="mix-blend-mode: normal"><path d="M161.75547,253.56895c-0.51527,-1.96875 -1.36695,-3.83906 -1.88222,-5.8078c-1.14218,-4.36404 1.13024,-9.51221 4.66829,-13.39064c1.16055,-1.44086 2.58941,-2.67213 4.22932,-3.60979c1.71426,-1.10642 3.51111,-1.87318 5.24149,-2.15781c0.86049,-0.14154 1.7957,-0.05935 2.78405,0.19043c4.87237,0.18322 9.31957,2.74505 11.95259,6.73872c2.04136,1.35775 3.99175,2.58089 5.70905,3.29906c2.43465,1.01816 4.85724,2.08934 7.37693,2.87375c12.56642,3.91207 24.87082,2.66871 37.68831,0.78113c4.22871,-0.62274 7.18031,-0.92788 10.72999,-3.15553c3.80645,-2.38878 5.53368,-4.92148 8.27492,-8.59922c3.39724,-4.55786 8.73466,-12.76276 7.65097,-18.99587c-0.36744,-2.11342 -2.87823,-3.19977 -4.51823,-4.5825c-7.72948,-6.51699 -18.22178,-13.01166 -28.70243,-13.04953c-28.11087,-0.10158 -60.21701,27.77001 -84.93834,3.18011c-5.38268,-5.35406 -7.46039,-15.6135 -8.49502,-22.40395c-0.87894,-5.76861 -2.17405,-13.0863 -0.62626,-19.14834c7.40659,-29.0085 28.45907,-45.46488 57.56222,-49.61467c4.29028,-0.61175 9.73933,0.64022 13.65122,0.92758c8.23868,0.6052 17.67132,-1.69497 25.08841,3.36055c10.42532,7.10593 8.82537,21.59564 -2.45132,27.08997c-2.04157,0.99471 -4.49942,0.86312 -6.76873,0.77559c-1.38321,-0.05335 -2.57012,-1.26752 -3.95437,-1.26813c-14.72278,-0.00655 -29.45557,-3.03669 -42.01246,6.71681c-9.08934,7.06011 -12.65074,15.18419 -11.0323,26.67248c0.33658,2.3892 -0.28216,6.01597 1.93144,6.97593c4.08572,1.77184 8.8152,-1.31359 13.17042,-2.24343c8.0619,-1.72121 15.59277,-5.84317 23.51365,-7.50541c8.14533,-1.70935 18.36569,-3.98917 26.94077,-3.49584c17.3993,1.001 33.45732,9.20123 46.51631,20.38474c5.52252,4.72939 12.91946,11.46696 14.39073,19.23742c4.12073,21.76352 -11.52743,52.02419 -30.95128,62.05496c-17.69477,9.13785 -40.59208,10.33367 -59.96299,7.10792c-10.82777,-1.8031 -20.57592,-5.66476 -30.37792,-10.52565c-3.15146,-1.56284 -10.3992,-4.64103 -11.82659,-8.31221z" fill="url(#color-1)" stroke="#000000" stroke-width="10"/><path d="M361.36942,127.07352c-1.7201,12.38109 -14.10118,10.66098 -14.10118,10.66098l-10.81374,-1.51674c-4.34028,-1.03402 -8.55362,-2.85851 -13.00318,-3.28613c-3.34326,-0.3213 -6.7164,-0.52231 -10.09825,-0.6948c-1.29443,7.08845 -2.48557,14.18501 -3.48316,21.36694l0.69973,1.51905c0,0 3.68142,11.94559 -8.26417,15.62701c-11.94559,3.68142 -15.62701,-8.26417 -15.62701,-8.26417l-1.6561,-6.12522c0.48829,-8.88159 1.73337,-17.5776 3.2701,-26.25125c-2.34203,-0.38109 -4.67395,-0.82555 -6.98626,-1.35151c-1.35634,0.74304 -11.02357,5.56475 -16.98716,-4.38871c-6.42447,-10.72269 4.29822,-17.14716 4.29822,-17.14716c1.99771,-1.04162 3.82333,-2.51839 5.99312,-3.12487c5.98076,-1.67168 12.51348,0.2632 18.41704,1.39083c1.76312,-9.06264 3.62598,-18.12111 6.59587,-26.84408c0,0 4.06594,-11.82024 15.88619,-7.7543c11.82024,4.06594 7.7543,15.88619 7.7543,15.88619c-2.33771,6.71186 -3.83997,13.67676 -5.19106,20.67329c2.81281,0.15793 5.6179,0.35923 8.40446,0.66656c5.22619,0.57642 9.58314,2.34328 14.59574,3.53264l9.63552,1.32427c0,0 12.38109,1.7201 10.66098,14.10118z" fill="url(#color-2)" stroke="#000000" stroke-width="10"/><path d="M161.75547,253.56895c-0.51527,-1.96875 -1.36695,-3.83906 -1.88222,-5.8078c-1.14218,-4.36404 1.13024,-9.51221 4.66829,-13.39064c1.16055,-1.44086 2.58941,-2.67213 4.22932,-3.60979c1.71426,-1.10642 3.51111,-1.87318 5.24149,-2.15781c0.86049,-0.14154 1.7957,-0.05935 2.78405,0.19043c4.87237,0.18322 9.31957,2.74505 11.95259,6.73872c2.04136,1.35775 3.99175,2.58089 5.70905,3.29906c2.43465,1.01816 4.85724,2.08934 7.37693,2.87375c12.56642,3.91207 24.87082,2.66871 37.68831,0.78113c4.22871,-0.62274 7.18031,-0.92788 10.72999,-3.15553c3.80645,-2.38878 5.53368,-4.92148 8.27492,-8.59922c3.39724,-4.55786 8.73466,-12.76276 7.65097,-18.99587c-0.36744,-2.11342 -2.87823,-3.19977 -4.51823,-4.5825c-7.72948,-6.51699 -18.22178,-13.01166 -28.70243,-13.04953c-28.11087,-0.10158 -60.21701,27.77001 -84.93834,3.18011c-5.38268,-5.35406 -7.46039,-15.6135 -8.49502,-22.40395c-0.87894,-5.76861 -2.17405,-13.0863 -0.62626,-19.14834c7.40659,-29.0085 28.45907,-45.46488 57.56222,-49.61467c4.29028,-0.61175 9.73933,0.64022 13.65122,0.92758c8.23868,0.6052 17.67132,-1.69497 25.08841,3.36055c10.42532,7.10593 8.82537,21.59564 -2.45132,27.08997c-2.04157,0.99471 -4.49942,0.86312 -6.76873,0.77559c-1.38321,-0.05335 -2.57012,-1.26752 -3.95437,-1.26813c-14.72278,-0.00655 -29.45557,-3.03669 -42.01246,6.71681c-9.08934,7.06011 -12.65074,15.18419 -11.0323,26.67248c0.33658,2.3892 -0.28216,6.01597 1.93144,6.97593c4.08572,1.77184 8.8152,-1.31359 13.17042,-2.24343c8.0619,-1.72121 15.59277,-5.84317 23.51365,-7.50541c8.14533,-1.70935 18.36569,-3.98917 26.94077,-3.49584c17.3993,1.001 33.45732,9.20123 46.51631,20.38474c5.52252,4.72939 12.91946,11.46696 14.39073,19.23742c4.12073,21.76352 -11.52743,52.02419 -30.95128,62.05496c-17.69477,9.13785 -40.59208,10.33367 -59.96299,7.10792c-10.82777,-1.8031 -20.57592,-5.66476 -30.37792,-10.52565c-3.15146,-1.56284 -10.3992,-4.64103 -11.82659,-8.31221z" fill="url(#color-3)" stroke="none" stroke-width="0.5"/><path d="M361.36942,127.07352c-1.7201,12.38109 -14.10118,10.66098 -14.10118,10.66098l-10.81374,-1.51674c-4.34028,-1.03402 -8.55362,-2.85851 -13.00318,-3.28613c-3.34326,-0.3213 -6.7164,-0.52231 -10.09825,-0.6948c-1.29443,7.08845 -2.48557,14.18501 -3.48316,21.36694l0.69973,1.51905c0,0 3.68142,11.94559 -8.26417,15.62701c-11.94559,3.68142 -15.62701,-8.26417 -15.62701,-8.26417l-1.6561,-6.12522c0.48829,-8.88159 1.73337,-17.5776 3.2701,-26.25125c-2.34203,-0.38109 -4.67395,-0.82555 -6.98626,-1.35151c-1.35634,0.74304 -11.02357,5.56475 -16.98716,-4.38871c-6.42447,-10.72269 4.29822,-17.14716 4.29822,-17.14716c1.99771,-1.04162 3.82333,-2.51839 5.99312,-3.12487c5.98076,-1.67168 12.51348,0.2632 18.41704,1.39083c1.76312,-9.06264 3.62598,-18.12111 6.59587,-26.84408c0,0 4.06594,-11.82024 15.88619,-7.7543c11.82024,4.06594 7.7543,15.88619 7.7543,15.88619c-2.33771,6.71186 -3.83997,13.67676 -5.19106,20.67329c2.81281,0.15793 5.6179,0.35923 8.40446,0.66656c5.22619,0.57642 9.58314,2.34328 14.59574,3.53264l9.63552,1.32427c0,0 12.38109,1.7201 10.66098,14.10118z" fill="url(#color-4)" stroke="none" stroke-width="0.5"/></g></g></svg>