<svg version="1.1" xmlns="http://www.w3.org/2000/svg" xmlns:xlink="http://www.w3.org/1999/xlink" width="145.59341" height="201.23257" viewBox="-5.00777,-5,145.59341,201.23257"><defs><linearGradient x1="240" y1="84.45329" x2="240" y2="275.54671" gradientUnits="userSpaceOnUse" id="color-1"><stop offset="0" stop-color="#f00000"/><stop offset="1" stop-color="#c000f0"/></linearGradient><linearGradient x1="240" y1="84.45329" x2="240" y2="275.54671" gradientUnits="userSpaceOnUse" id="color-2"><stop offset="0" stop-color="#f00000"/><stop offset="1" stop-color="#c000f0"/></linearGradient></defs><g transform="translate(-172.20718,-84.45328)"><g data-paper-data="{&quot;isPaintingLayer&quot;:true}" fill-rule="nonzero" stroke-linecap="butt" stroke-linejoin="miter" stroke-miterlimit="10" stroke-dasharray="" stroke-dashoffset="0" style="mix-blend-mode: normal"><path d="M197.78939,274.61432c-0.64054,0 -1.2701,-0.04708 -1.88538,-0.13798l-0.97234,0.11383l-1.26243,-0.65392c-1.22059,-0.41505 -2.3583,-1.00941 -3.38175,-1.75169l-0.51457,-0.26654l-0.22637,-0.31342c-1.66582,-1.40524 -2.9677,-3.22827 -3.74407,-5.30752l-3.3003,-8.25076l-0.32732,-2.40031l-0.58755,-2.35019v-11.73247l-1.4666,-8.79961l-2.46954,-10.70131l0.00495,-0.27184l-0.11342,-0.2471l-2.55822,-13.64384l0.05027,-0.84201l-0.24966,-0.80572l-1.70548,-30.69864l0.00362,-0.01887l-0.00564,-0.01837l-0.85274,-16.20206l0.06587,-0.33811l-0.08354,-0.33418v-32.40412l0.25929,-1.03716l-0.08526,-1.06568l0.85274,-5.11644l0.20787,-0.47811v-0.52135l0.85274,-3.41096l0.6629,-1.24294l0.30558,-1.37512l0.57711,-1.15422l-0.00803,-0.13888l0.48551,-0.81606l0.6509,-1.3018l0.40401,-0.47134l1.43006,-2.40372l1.3866,-0.88238l1.0696,-1.24787l2.5818,-1.07575l0.52374,-0.33328l1.38077,-0.46026l0.87652,-0.36522l0.13634,0.02759l0.16458,-0.05486l0.80589,-0.06199l0.73047,-0.34601l2.95773,-0.59155l4.74503,-2.03359l0.68398,-0.11032l0.593,-0.35827l10.71708,-3.29756l13.28281,-4.98105l1.18194,-0.13508l1.08641,-0.48471l14.49658,-2.55822l0.32889,0.02316l0.30747,-0.11903l13.64384,-1.70548l0.8024,0.09726l0.78414,-0.19604h11.08562l1.12794,0.28198l1.1602,-0.07566l8.36789,1.52143l0.323,-0.02227l0.33859,0.14256l0.35066,0.06376l2.67779,1.21138l2.70873,1.14051l0.28513,0.21385l0.33473,0.15142l0.20322,0.25204l5.99884,4.49913l1.23863,1.52447l1.49525,1.27374l4.2637,5.96918l0.6152,1.56167l0.95293,1.38175l2.55822,6.82192l0.18104,1.58408l0.55515,1.49463l0.79145,7.12297l1.59662,7.9831l-0.0303,0.63625l0.21521,0.59952l0.85274,8.5274l-0.09405,0.64266l0.15753,0.63011v19.80009l0.01549,0.0488l-0.01549,0.09608v1.37353l-0.62433,2.49733l-0.4099,2.54134l-0.54105,1.26247l-0.0236,0.09442l-0.03347,0.03876l-1.96009,4.57353l-1.46583,1.92872l-1.24637,2.07729l-4.2637,4.2637l-0.91673,0.55004l-0.69327,0.81383l-5.96918,4.2637l-0.84766,0.33392l0.26201,0.22459l0.34986,0.0984l5.07589,2.90051l0.312,0.08649l0.27184,0.24712l0.30945,0.17683l2.12196,2.03355l2.17472,1.97702l0.1977,0.29655l0.26524,0.25419l0.10775,0.30531l6.25122,9.37682l0.57463,1.60895l0.91724,1.44138l1.70548,5.11644l0.08917,1.15923l0.43867,1.07673l0.85274,5.96918l-0.09473,0.91577l0.22329,0.89317v6.82192l-0.19604,0.78414l0.09726,0.8024l-0.85274,6.82192l-0.90659,2.34203l-0.67995,2.41759l-3.41096,5.96918l-0.84675,0.88358l-0.54731,1.0946l-5.11644,5.96918l-1.58411,1.12421l-1.34834,1.39829l-6.82192,4.2637l-1.22654,0.39779l-1.06147,0.73205l-6.82192,2.55822l-0.73564,0.08407l-0.65332,0.34844l-6.82192,1.70548h-0.78432l-0.73144,0.28314l-6.82192,0.85274l-0.16107,-0.01953l-0.15271,0.05481l-8.5274,0.85274l-0.64266,-0.09405l-0.63011,0.15753h-27.08179l-9.18866,1.53144l-1.06568,-0.08526l-1.03716,0.25929h-1.63552l-4.19596,0.93244l-4.94333,-1.25545c-0.9223,0.21136 -1.88262,0.32302 -2.86902,0.32302zM249.16857,247.32664l7.73549,-0.77355l5.89882,-0.73736l5.3658,-1.34145l4.93912,-1.85217l4.0754,-2.54712l3.05212,-3.5608l1.53868,-2.6927l0.43665,-3.49326v-5.11654l-0.56107,-3.9275l-0.79907,-2.3972l-4.19679,-6.29517l-3.0392,-1.73669l-7.07699,-3.5385l-16.66134,-4.544l-5.9199,-0.73999l-0.44517,-0.17233l-0.47683,0.02271l-4.2637,-0.85274l-1.54401,-0.73138l-1.6678,-0.37062l-1.05963,-0.52982l-1.27151,-0.32292l-2.01865,-2.26656l-2.361,-2.02371l-0.4911,-1.17864l-0.22395,-0.25145l-0.11255,-0.55615l-1.40692,-3.37659l0.36177,-1.78761l-0.36177,-1.78761l1.40692,-3.37659l0.11255,-0.55615l0.22395,-0.25145l0.4911,-1.17864l2.361,-2.02371l2.01865,-2.26656l1.27151,-0.32292l0.13941,-0.0697l0.24503,-0.21162l0.35641,-0.0891l0.31879,-0.15939l2.86906,-0.63757l2.8513,-0.71282h0.35641l0.35863,-0.0797l0.3138,0.0797h1.32349l3.35764,-0.55961l5.27262,-1.50646l0.528,-0.0176l0.47744,-0.22616l7.74652,-1.5493l6.69454,-2.23151l5.0254,-1.88452l3.73913,-2.67081l1.7733,-1.7733l0.55364,-1.29182v-18.05506l-0.72702,-7.27019l-1.5828,-7.91403l0.02692,-0.56539l-0.19709,-0.53061l-0.6766,-6.0894l-1.40762,-3.75366l-2.13567,-2.98995l-2.82283,-2.11711l-5.2745,-0.959h-9.1359l-12.53425,1.56678l-13.01682,2.29709l-12.53827,4.70185l-0.39193,0.04479l-0.33764,0.20399l-10.43466,3.21066l-5.34317,2.28993l-1.32092,0.21305l-0.76445,0.36211l-0.39507,2.37043v31.00912l0.83408,15.84753l1.65831,29.84968l2.3561,12.56586l2.4986,10.82727l-0.00733,0.40337l0.16086,0.36999l1.70548,10.23288l-0.08526,1.06568l0.25929,1.03716v8.74058l0.85274,-0.21318h0.35641l0.35863,-0.0797l0.3138,0.0797h1.32349l9.18866,-1.53144l1.06568,0.08526l1.03716,-0.25929z" fill="url(#color-1)" stroke="#000000" stroke-width="10"/><path d="M197.78939,274.61432c-0.64054,0 -1.2701,-0.04708 -1.88538,-0.13798l-0.97234,0.11383l-1.26243,-0.65392c-1.22059,-0.41505 -2.3583,-1.00941 -3.38175,-1.75169l-0.51457,-0.26654l-0.22637,-0.31342c-1.66582,-1.40524 -2.9677,-3.22827 -3.74407,-5.30752l-3.3003,-8.25076l-0.32732,-2.40031l-0.58755,-2.35019v-11.73247l-1.4666,-8.79961l-2.46954,-10.70131l0.00495,-0.27184l-0.11342,-0.2471l-2.55822,-13.64384l0.05027,-0.84201l-0.24966,-0.80572l-1.70548,-30.69864l0.00362,-0.01887l-0.00564,-0.01837l-0.85274,-16.20206l0.06587,-0.33811l-0.08354,-0.33418v-32.40412l0.25929,-1.03716l-0.08526,-1.06568l0.85274,-5.11644l0.20787,-0.47811v-0.52135l0.85274,-3.41096l0.6629,-1.24294l0.30558,-1.37512l0.57711,-1.15422l-0.00803,-0.13888l0.48551,-0.81606l0.6509,-1.3018l0.40401,-0.47134l1.43006,-2.40372l1.3866,-0.88238l1.0696,-1.24787l2.5818,-1.07575l0.52374,-0.33328l1.38077,-0.46026l0.87652,-0.36522l0.13634,0.02759l0.16458,-0.05486l0.80589,-0.06199l0.73047,-0.34601l2.95773,-0.59155l4.74503,-2.03359l0.68398,-0.11032l0.593,-0.35827l10.71708,-3.29756l13.28281,-4.98105l1.18194,-0.13508l1.08641,-0.48471l14.49658,-2.55822l0.32889,0.02316l0.30747,-0.11903l13.64384,-1.70548l0.8024,0.09726l0.78414,-0.19604h11.08562l1.12794,0.28198l1.1602,-0.07566l8.36789,1.52143l0.323,-0.02227l0.33859,0.14256l0.35066,0.06376l2.67779,1.21138l2.70873,1.14051l0.28513,0.21385l0.33473,0.15142l0.20322,0.25204l5.99884,4.49913l1.23863,1.52447l1.49525,1.27374l4.2637,5.96918l0.6152,1.56167l0.95293,1.38175l2.55822,6.82192l0.18104,1.58408l0.55515,1.49463l0.79145,7.12297l1.59662,7.9831l-0.0303,0.63625l0.21521,0.59952l0.85274,8.5274l-0.09405,0.64266l0.15753,0.63011v19.80009l0.01549,0.0488l-0.01549,0.09608v1.37353l-0.62433,2.49733l-0.4099,2.54134l-0.54105,1.26247l-0.0236,0.09442l-0.03347,0.03876l-1.96009,4.57353l-1.46583,1.92872l-1.24637,2.07729l-4.2637,4.2637l-0.91673,0.55004l-0.69327,0.81383l-5.96918,4.2637l-0.84766,0.33392l0.26201,0.22459l0.34986,0.0984l5.07589,2.90051l0.312,0.08649l0.27184,0.24712l0.30945,0.17683l2.12196,2.03355l2.17472,1.97702l0.1977,0.29655l0.26524,0.25419l0.10775,0.30531l6.25122,9.37682l0.57463,1.60895l0.91724,1.44138l1.70548,5.11644l0.08917,1.15923l0.43867,1.07673l0.85274,5.96918l-0.09473,0.91577l0.22329,0.89317v6.82192l-0.19604,0.78414l0.09726,0.8024l-0.85274,6.82192l-0.90659,2.34203l-0.67995,2.41759l-3.41096,5.96918l-0.84675,0.88358l-0.54731,1.0946l-5.11644,5.96918l-1.58411,1.12421l-1.34834,1.39829l-6.82192,4.2637l-1.22654,0.39779l-1.06147,0.73205l-6.82192,2.55822l-0.73564,0.08407l-0.65332,0.34844l-6.82192,1.70548h-0.78432l-0.73144,0.28314l-6.82192,0.85274l-0.16107,-0.01953l-0.15271,0.05481l-8.5274,0.85274l-0.64266,-0.09405l-0.63011,0.15753h-27.08179l-9.18866,1.53144l-1.06568,-0.08526l-1.03716,0.25929h-1.63552l-4.19596,0.93244l-4.94333,-1.25545c-0.9223,0.21136 -1.88262,0.32302 -2.86902,0.32302zM249.16857,247.32664l7.73549,-0.77355l5.89882,-0.73736l5.3658,-1.34145l4.93912,-1.85217l4.0754,-2.54712l3.05212,-3.5608l1.53868,-2.6927l0.43665,-3.49326v-5.11654l-0.56107,-3.9275l-0.79907,-2.3972l-4.19679,-6.29517l-3.0392,-1.73669l-7.07699,-3.5385l-16.66134,-4.544l-5.9199,-0.73999l-0.44517,-0.17233l-0.47683,0.02271l-4.2637,-0.85274l-1.54401,-0.73138l-1.6678,-0.37062l-1.05963,-0.52982l-1.27151,-0.32292l-2.01865,-2.26656l-2.361,-2.02371l-0.4911,-1.17864l-0.22395,-0.25145l-0.11255,-0.55615l-1.40692,-3.37659l0.36177,-1.78761l-0.36177,-1.78761l1.40692,-3.37659l0.11255,-0.55615l0.22395,-0.25145l0.4911,-1.17864l2.361,-2.02371l2.01865,-2.26656l1.27151,-0.32292l0.13941,-0.0697l0.24503,-0.21162l0.35641,-0.0891l0.31879,-0.15939l2.86906,-0.63757l2.8513,-0.71282h0.35641l0.35863,-0.0797l0.3138,0.0797h1.32349l3.35764,-0.55961l5.27262,-1.50646l0.528,-0.0176l0.47744,-0.22616l7.74652,-1.5493l6.69454,-2.23151l5.0254,-1.88452l3.73913,-2.67081l1.7733,-1.7733l0.55364,-1.29182v-18.05506l-0.72702,-7.27019l-1.5828,-7.91403l0.02692,-0.56539l-0.19709,-0.53061l-0.6766,-6.0894l-1.40762,-3.75366l-2.13567,-2.98995l-2.82283,-2.11711l-5.2745,-0.959h-9.1359l-12.53425,1.56678l-13.01682,2.29709l-12.53827,4.70185l-0.39193,0.04479l-0.33764,0.20399l-10.43466,3.21066l-5.34317,2.28993l-1.32092,0.21305l-0.76445,0.36211l-0.39507,2.37043v31.00912l0.83408,15.84753l1.65831,29.84968l2.3561,12.56586l2.4986,10.82727l-0.00733,0.40337l0.16086,0.36999l1.70548,10.23288l-0.08526,1.06568l0.25929,1.03716v8.74058l0.85274,-0.21318h0.35641l0.35863,-0.0797l0.3138,0.0797h1.32349l9.18866,-1.53144l1.06568,0.08526l1.03716,-0.25929z" fill="url(#color-2)" stroke="none" stroke-width="0.5"/></g></g></svg>