<svg version="1.1" xmlns="http://www.w3.org/2000/svg" xmlns:xlink="http://www.w3.org/1999/xlink" width="402.9944" height="449.60586" viewBox="0,0,402.9944,449.60586"><g transform="translate(-38.5028,44.80293)"><g data-paper-data="{&quot;isPaintingLayer&quot;:true}" fill-rule="nonzero" stroke-linecap="butt" stroke-linejoin="miter" stroke-miterlimit="10" stroke-dasharray="" stroke-dashoffset="0" style="mix-blend-mode: normal"><g fill="#ff0000" stroke="#000000" stroke-width="5"><path d="M203.04816,182.18197c-0.85436,2.34948 -3.20384,1.49513 -3.20384,1.49513l-2.54277,-0.95474c-3.83797,-2.11496 -8.09367,-3.56196 -12.05889,-5.50426c-1.17232,-0.57424 -2.20129,-1.54141 -3.48256,-1.79123c-0.49214,-0.09596 -0.8072,0.59569 -1.22466,0.87341c-0.84368,0.56127 -1.73923,1.04558 -2.55776,1.64293c-4.02852,2.93993 -7.39339,7.33126 -10.53689,11.15866c-0.20874,0.25415 -0.70292,1.23317 -1.37028,1.99061c0.24977,0.0641 0.49983,0.12561 0.75001,0.15595c1.29728,0.15732 2.60055,0.26145 3.89859,0.41234c5.04983,0.58701 10.0764,1.21519 15.09582,2.02074c3.32856,0.87382 10.06222,1.36797 11.50002,5.40445c0.5302,1.48847 -0.99617,2.99964 -1.54302,4.48207c-1.15654,3.13519 -2.78035,6.08553 -3.92763,9.22456c-0.3392,0.92808 -2.46092,8.09715 -3.00767,8.8309c-1.32685,1.78064 -2.80382,4.08351 -5.00172,4.40043c-1.35624,0.19556 -5.15161,-3.58829 -6.56441,-4.7992c-5.26202,-4.51006 -10.43539,-9.02515 -15.33956,-13.92932c0,0 -1.76777,-1.76777 0,-3.53553c1.76777,-1.76777 3.53553,0 3.53553,0c4.81414,4.81414 9.89498,9.2429 15.06044,13.67068c0.68821,0.58993 1.43736,1.12573 2.02161,1.81876c0.44051,0.52253 0.3345,1.85549 1.01398,1.78204c0.74066,-0.08007 0.72523,-1.30644 0.99828,-1.99957c0.68944,-1.75011 2.03251,-6.44039 2.59233,-7.9691c1.06627,-2.9117 2.3816,-6.92658 4.07237,-9.57544c0.30169,-0.47265 1.36984,-0.56867 1.25698,-1.11793c-0.10685,-0.52002 -1.03612,-0.2323 -1.55626,-0.33858c-0.80124,-0.16371 -1.61195,-0.28264 -2.40768,-0.47135c-1.2532,-0.29719 -2.4907,-0.65708 -3.73605,-0.98563c-4.86523,-0.77589 -9.74149,-1.3767 -14.6355,-1.94582c-0.08645,-0.01005 -6.25842,-0.59414 -6.89076,-0.88427c-1.59683,-0.73265 -4.06844,-1.17233 -4.40305,-2.89705c-0.34487,-1.77761 1.93632,-3.06125 2.9569,-4.55698c1.55362,-2.27694 2.68993,-3.42573 4.61061,-5.61216c3.49052,-3.97346 6.86654,-8.20895 11.64127,-10.72249c1.14669,-0.60365 2.28327,-1.62575 3.57534,-1.52659c2.0259,0.15547 3.7999,1.44308 5.67059,2.23615c4.11481,1.74445 8.47206,3.55072 12.38796,5.66835l1.85723,0.64526c0,0 2.34948,0.85436 1.49513,3.20384z"/><path d="M219.09867,190.62761c-1.5,2 -3.5,0.5 -3.5,0.5l0.34645,-0.12513c-2.98718,-0.43397 -5.32486,-0.43565 -8.34691,0.05036c-1.51845,0.2442 -3.01093,0.64147 -4.53404,0.85469c-0.3734,0.05227 -1.04334,-0.42897 -1.12943,-0.06188c-0.11839,0.50482 0.73361,0.80336 0.83635,1.3116c0.33027,1.63379 0.29935,3.32024 0.4358,4.98149c0.37017,4.50674 0.53133,9.00449 0.97538,13.50297c0.08296,0.84039 0.08021,1.69133 0.22374,2.52352c0.07898,0.45795 -0.0249,1.31198 0.43968,1.32297c0.61378,0.01453 0.77937,-0.99631 1.32319,-1.28124c0.85302,-0.44693 1.84357,-0.55805 2.75884,-0.85749c3.71829,-1.21649 7.41859,-2.24517 11.24713,-3.06635c0,0 2.44451,-0.52382 2.96833,1.92068c0.52382,2.44451 -1.92068,2.96833 -1.92068,2.96833c-4.48639,0.96042 -8.84901,2.21363 -13.19403,3.67616c-1.43378,0.48261 -2.84227,1.99912 -4.27681,1.51876c-1.84244,-0.61696 -3.01563,-2.57915 -3.96032,-4.27703c-0.63516,-1.14156 -0.41201,-2.58049 -0.57626,-3.87648c-0.57496,-4.53653 -0.62205,-9.11136 -0.99158,-13.66758c-0.1257,-1.54988 -0.26531,-3.0986 -0.39724,-4.64797c-0.12171,-1.42942 -1.05419,-3.03093 -0.36365,-4.2884c0.76328,-1.38993 2.58514,-1.90692 4.07057,-2.46188c4.64063,-1.73376 10.28338,-1.77544 15.11905,-1.09496l1.94645,1.07487c0,0 2,1.5 0.5,3.5z"/><path d="M225.75059,212.13061c1.96252,-6.80137 4.01995,-13.55032 6.48372,-20.1983c0.38363,-1.03514 3.11748,-8.56544 4.52004,-9.09846c2.72751,-1.03655 6.08008,1.6417 8.16369,3.00215c1.66319,1.08595 4.72144,2.69338 5.54033,4.7349c0.85551,2.13284 -0.26707,6.5229 -0.66126,8.46182c-1.14076,5.61118 -2.49378,11.13862 -4.30718,16.57153c-0.61387,1.17454 -0.71466,2.82621 -1.8416,3.52362c-3.98057,2.46335 -10.75232,0.03154 -15.35986,-1.75382c-0.3892,0.10945 -0.86025,0.11919 -1.4266,-0.04262c-1.90941,-0.54555 -1.86878,-2.17445 -1.7713,-2.82141l-0.2419,-0.3824c0,0 0,-1.26694 0.90192,-1.997zM230.73574,212.89007c2.62023,0.87626 5.35622,1.59432 8.00723,2.1451c0.62279,0.12939 1.35428,0.40868 1.90604,0.09218c0.37189,-0.21332 0.1056,-0.85092 0.1584,-1.27638c1.72773,-5.191 2.98392,-10.47398 4.09282,-15.82847c0.37971,-1.83349 1.57887,-3.77861 0.93874,-5.53818c-0.5402,-1.48489 -4.53036,-2.95449 -5.80834,-3.92064c-0.45769,-0.34602 -0.75941,-1.36631 -1.28765,-1.14231c-0.52002,0.22051 0.14355,1.15216 -0.01443,1.69445c-0.45666,1.56761 -1.23867,3.02218 -1.80562,4.55336c-2.34359,6.32935 -4.31318,12.74978 -6.1872,19.2209z"/><path d="M275.91041,224.55478c-1.95217,1.56174 -3.51391,-0.39043 -3.51391,-0.39043l-1.2839,-1.6937c-3.5446,-7.0892 -6.23641,-14.44605 -9.22318,-21.76378c-0.01768,1.65257 -0.04075,3.2891 -0.04075,4.89575c0,5.04261 -0.28901,7.92402 1.58001,12.59388c0,0 0.90612,2.33001 -1.4239,3.23613c-2.33001,0.90612 -3.23613,-1.4239 -3.23613,-1.4239c-0.62571,-1.64838 -1.5245,-3.21763 -1.87712,-4.94515c-0.63073,-3.08997 -0.04286,-6.30728 -0.04286,-9.46096c0,-8.63199 1.01261,-18.73485 -2.98607,-26.63197l0.09932,0.46209c0,0 -0.86038,-0.57359 -1.10557,-1.53632c-0.0511,0.01853 -0.10221,0.03709 -0.15332,0.05567c0,0 -2.34948,0.85436 -3.20384,-1.49513c-0.85436,-2.34948 1.49513,-3.20384 1.49513,-3.20384c6.17438,-2.2452 12.46287,-4.34062 18.9786,-5.37212c1.32468,-0.20971 6.17609,-0.65489 7.1066,0.20737c2.48372,2.30156 3.40582,9.47857 4.16189,12.78977c0.41665,1.82474 1.91222,3.79459 1.13787,5.4986c-0.78216,1.7212 -3.20665,2.02229 -4.91938,2.82283c-2.45313,1.14661 -5.15346,1.68166 -7.65694,2.71373c-1.35402,0.5582 -2.64088,1.28348 -4.02561,1.76041c-0.54154,0.18652 -1.1836,-0.02372 -1.70499,0.21335c-0.75104,0.34149 0.8338,1.42425 1.27437,2.1218c3.42445,8.11729 6.29782,16.34531 10.23802,24.2257l0.7161,0.8063c0,0 1.56174,1.95217 -0.39043,3.51391zM263.92,189.0315c2.82487,-1.2821 5.68256,-2.50108 8.60747,-3.54016c1.05472,-0.37469 2.11677,-0.74541 3.20998,-0.9857c0.67982,-0.14942 1.86262,0.48386 2.08062,-0.17717c0.25275,-0.76638 -1.03591,-1.26329 -1.36213,-2.0014c-0.39495,-0.8936 -0.52025,-1.88347 -0.77209,-2.82744c-0.41811,-1.56716 -0.90118,-3.1192 -1.23774,-4.70588c-0.18654,-0.87942 0.11252,-1.8934 -0.32827,-2.67691c-0.1678,-0.29827 -0.57084,0.41337 -0.90587,0.48321c-1.92228,0.40071 -3.89997,0.50789 -5.81505,0.94171c-3.28939,0.74514 -6.4736,1.64353 -9.63655,2.66772l0.57438,0.5251c2.00512,4.05293 2.90645,8.50146 3.29642,13.05748c0.74588,-0.27613 1.58413,-0.44072 2.28884,-0.76056z"/><path d="M304.84867,214.72761c0,2.5 -2.5,2.5 -2.5,2.5l-2.11803,-0.26393c-3.61678,-1.84015 -7.4579,-2.12607 -11.06402,-3.36204c0.00437,0.12109 0.00888,0.24217 0.01354,0.36322c0,0 0.09608,2.49815 -2.40207,2.59424c-2.49815,0.09608 -2.59424,-2.40207 -2.59424,-2.40207c-0.17446,-4.53606 -0.14392,-9.09481 -0.33135,-13.6245c-0.08031,-1.94084 -1.10932,-5.70402 0.54607,-7.36924c1.46405,-1.47274 3.81363,-1.6453 5.73196,-2.44053c4.9355,-2.04599 10.05999,-2.74139 15.35974,-3.15445l1.36812,-0.29215c0,0 2.45145,-0.49029 2.94174,1.96116c0.49029,2.45145 -1.96116,2.94174 -1.96116,2.94174l-1.96522,0.37452c-4.98273,0.37786 -9.26334,1.33504 -13.97359,2.84555c-1.17772,0.37768 -2.53826,0.26079 -3.60138,0.8928c-0.3267,0.19422 0.16464,0.74295 0.2165,1.11947c0.13026,0.94562 0.28955,1.89091 0.32957,2.84463c0.02593,0.61802 0.04777,1.23662 0.06658,1.85565c1.83975,-0.42869 3.66394,-0.92709 5.47315,-1.46985l3.08844,-0.68802c0,0 2.44047,-0.54233 2.98279,1.89814c0.54233,2.44047 -1.89814,2.98279 -1.89814,2.98279l-2.91156,0.64532c-2.11996,0.63599 -4.26142,1.20675 -6.42177,1.68802c0,0 -0.07611,0.01691 -0.20443,0.03132c0.00561,0.33785 0.01118,0.67573 0.01691,1.01359c0.52956,0.42584 1.02673,0.91973 1.66774,1.1115c0.75967,0.22726 1.597,-0.20209 2.37792,-0.0646c3.16388,0.55704 6.52263,1.82117 9.38425,3.23165l-0.11803,-0.26393c0,0 2.5,0 2.5,2.5z"/><path d="M314.84867,208.72761c0,-1.38071 1.11929,-2.5 2.5,-2.5c1.38071,0 2.5,1.11929 2.5,2.5c0,1.38071 -1.11929,2.5 -2.5,2.5c-1.38071,0 -2.5,-1.11929 -2.5,-2.5z"/><path d="M316.182,187.39428c0,-1.38071 1.11929,-2.5 2.5,-2.5c1.38071,0 2.5,1.11929 2.5,2.5c0,1.38071 -1.11929,2.5 -2.5,2.5c-1.38071,0 -2.5,-1.11929 -2.5,-2.5z"/><path d="M213.80345,153.52416c0.85435,2.34948 -1.49513,3.20384 -1.49513,3.20384l-1.48387,0.49938c-3.16401,0.55714 -6.26118,0.90022 -9.4324,1.14837c1.18572,2.86387 2.40273,5.71562 3.64494,8.53745c0,0 1.00684,2.28829 -1.28144,3.29513c-2.28829,1.00684 -3.29513,-1.28144 -3.29513,-1.28144c-2.77796,-6.3165 -5.92152,-12.87845 -7.92302,-19.47933c-0.87157,-2.87442 -1.83229,-4.88598 0.7476,-7.6144c0.759,-0.80269 5.46936,-1.86948 6.66156,-2.09535c6.20407,-1.17543 12.47005,-1.40081 18.7618,-1.40081h0.58035c0,0 2.5,0 2.5,2.5c0,2.5 -2.5,2.5 -2.5,2.5h-0.58035c-5.96846,0 -11.91361,0.19556 -17.80032,1.30749c-1.39168,0.26288 -2.9321,0.12129 -4.17166,0.80641c-0.73139,0.40425 0.26964,1.65927 0.55416,2.44502c0.31124,0.85953 0.58944,1.73132 0.92248,2.58264c0.39488,1.00938 0.79432,2.01927 1.19805,3.02892c3.5754,-0.24355 7.01076,-0.57898 10.54446,-1.20401l0.64409,-0.27442c0,0 2.34949,-0.85435 3.20384,1.49513z"/><path d="M232.16511,146.22669c0.89745,2.33336 -1.43592,3.23081 -1.43592,3.23081l-1.25743,0.48362c-2.14153,0.82361 -3.99612,1.47828 -5.88714,1.92352l0.04185,0.2892c0,5.17745 -0.53736,10.40251 -0.39668,15.5771c0.9186,0.21405 1.83772,0.43529 2.75893,0.66551l0.94127,-0.07465c0,0 2.5,0 2.5,2.5c0,2.5 -2.5,2.5 -2.5,2.5l-2.15394,-0.07464c-1.08706,-0.27186 -2.17074,-0.53074 -3.25401,-0.7798c-0.15886,0.03687 -0.33161,0.06259 -0.51944,0.07511c-0.89758,0.05984 -1.49372,-0.22484 -1.88913,-0.61383c-1.86799,-0.40695 -3.74126,-0.79165 -5.63495,-1.17023c0,0 -2.45145,-0.49029 -1.96116,-2.94174c0.49029,-2.45145 2.94174,-1.96116 2.94174,-1.96116c1.2611,0.25233 2.51389,0.50749 3.7623,0.76991c-0.02745,-4.69491 0.3836,-9.41257 0.40428,-14.10842c-0.5223,0.01692 -1.06218,0.01982 -1.62413,0.00813c0,0 -2.49922,-0.06248 -2.43674,-2.5617c0.06248,-2.49922 2.5617,-2.43674 2.5617,-2.43674c4.21147,0.12579 6.68633,-0.76602 10.55037,-2.25227l1.25743,-0.48362c0,0 2.33336,-0.89744 3.23081,1.43592z"/><path d="M246.2817,143.70543c2.45145,0.49029 1.96116,2.94174 1.96116,2.94174l-0.04818,-0.00666c-0.00009,0.88315 -0.00019,1.7663 -0.00029,2.64945c-0.18151,5.94479 -0.4696,12.04652 -1.67843,17.88261c-0.6969,3.36455 -0.8309,7.02867 -6.49363,5.81182c-1.4721,-0.31634 -1.99177,-2.28794 -2.72277,-3.60429c-1.03575,-1.86515 -1.25836,-4.07723 -1.91496,-6.10711c-0.00049,-0.00152 -0.00539,-0.01587 -0.01423,-0.04183c-0.0149,0.28091 -0.02917,0.56187 -0.04301,0.84283c-0.08372,1.69939 -0.09414,3.40203 -0.09386,5.10348c0,0 0,2.5 -2.5,2.5c-2.5,0 -2.5,-2.5 -2.5,-2.5c0.00061,-3.76959 -0.4548,-8.58234 0.59914,-12.20319c0.51481,-1.76864 0.40915,-4.62232 2.19566,-5.07121c1.94329,-0.48828 3.70108,1.77402 5.05757,3.24873c0.78853,0.85725 0.66094,2.23386 1.00822,3.34564c0.18992,0.60804 1.94523,5.9861 2.12108,6.55473c0.11623,0.37586 0.26541,0.72917 0.39508,1.07327c0.15852,-1.29549 0.46331,-2.57075 0.64025,-3.86426c0.58842,-4.30172 0.81409,-8.70954 0.94446,-13.04695c-0.00009,-0.8579 -0.00019,-1.71581 -0.00028,-2.57372l0.14527,-0.97392c0,0 0.4903,-2.45145 2.94174,-1.96116z"/><path d="M267.10127,155.45595c-2.17993,0.23993 -4.37349,0.40554 -6.56658,0.40844c0,0 -0.58837,0 -1.19425,-0.28544c-0.46165,2.48534 -0.89329,4.97537 -1.16998,7.49729c0,0 -0.27608,2.48471 -2.76078,2.20863c-2.48471,-0.27608 -2.20863,-2.76078 -2.20863,-2.76078c0.58178,-5.17581 1.89454,-10.12952 2.63146,-15.28361c0.28816,-2.01539 0.23384,-4.08401 0.68622,-6.069c0.38128,-1.67301 2.15803,-6.88448 4.03682,-7.16165c3.46483,-0.51116 5.30589,3.87917 6.40668,6.04425c1.46223,2.87598 3.04046,5.77448 4.06625,8.84082c1.14478,3.42202 1.65817,6.97057 2.78352,10.37069c0.62139,0.40035 1.63836,1.34968 0.96966,3.02146c-0.92846,2.3212 -3.24966,1.39274 -3.24966,1.39274l-2.07267,-1.71905c-0.7912,-2.16527 -1.2906,-4.41631 -1.81724,-6.65969zM260.53469,150.86439c1.94045,0.00284 3.88154,-0.14333 5.81074,-0.35524c-0.25873,-0.77333 -0.54963,-1.53728 -0.88687,-2.2877c-0.90491,-2.01361 -1.99209,-3.94038 -2.96406,-5.92249c-0.15959,-0.32545 -0.35002,-0.63869 -0.53458,-0.95408c-0.26314,1.03779 -0.65923,2.05775 -0.77505,3.11999c-0.23583,2.16286 -0.585,4.29971 -0.96956,6.42751c0.19425,-0.02799 0.31937,-0.02799 0.31937,-0.02799z"/><path d="M293.20235,169.41591c-0.71838,2.39456 -3.11294,1.67618 -3.11294,1.67618l-1.32003,-0.39604c-3.28483,-1.0017 -9.76258,-2.32094 -11.56262,-5.65907c-1.21301,-2.24951 -0.23569,-5.19864 0.29496,-7.41636c1.2292,-5.13715 3.05471,-10.06995 4.4771,-15.15239c0,0 0.67407,-2.40741 3.08148,-1.73334c2.40741,0.67407 1.73334,3.08148 1.73334,3.08148c-1.40886,5.0293 -3.17072,9.91972 -4.43447,14.98965c-0.31661,1.27017 -1.38839,2.70943 -0.75344,3.85417c0.24615,0.44378 0.88819,0.49469 1.35405,0.69594c2.35881,1.01903 4.81128,1.81119 7.26542,2.55655l1.30098,0.39028c0,0 2.39456,0.71838 1.67618,3.11294z"/></g><path d="M203.04816,182.18197c-0.85436,2.34948 -3.20384,1.49513 -3.20384,1.49513l-2.54277,-0.95474c-3.83797,-2.11496 -8.09367,-3.56196 -12.05889,-5.50426c-1.17232,-0.57424 -2.20129,-1.54141 -3.48256,-1.79123c-0.49214,-0.09596 -0.8072,0.59569 -1.22466,0.87341c-0.84368,0.56127 -1.73923,1.04558 -2.55776,1.64293c-4.02852,2.93993 -7.39339,7.33126 -10.53689,11.15866c-0.20874,0.25415 -0.70292,1.23317 -1.37028,1.99061c0.24977,0.0641 0.49983,0.12561 0.75001,0.15595c1.29728,0.15732 2.60055,0.26145 3.89859,0.41234c5.04983,0.58701 10.0764,1.21519 15.09582,2.02074c3.32856,0.87382 10.06222,1.36797 11.50002,5.40445c0.5302,1.48847 -0.99617,2.99964 -1.54302,4.48207c-1.15654,3.13519 -2.78035,6.08553 -3.92763,9.22456c-0.3392,0.92808 -2.46092,8.09715 -3.00767,8.8309c-1.32685,1.78064 -2.80382,4.08351 -5.00172,4.40043c-1.35624,0.19556 -5.15161,-3.58829 -6.56441,-4.7992c-5.26202,-4.51006 -10.43539,-9.02515 -15.33956,-13.92932c0,0 -1.76777,-1.76777 0,-3.53553c1.76777,-1.76777 3.53553,0 3.53553,0c4.81414,4.81414 9.89498,9.2429 15.06044,13.67068c0.68821,0.58993 1.43736,1.12573 2.02161,1.81876c0.44051,0.52253 0.3345,1.85549 1.01398,1.78204c0.74066,-0.08007 0.72523,-1.30644 0.99828,-1.99957c0.68944,-1.75011 2.03251,-6.44039 2.59233,-7.9691c1.06627,-2.9117 2.3816,-6.92658 4.07237,-9.57544c0.30169,-0.47265 1.36984,-0.56867 1.25698,-1.11793c-0.10685,-0.52002 -1.03612,-0.2323 -1.55626,-0.33858c-0.80124,-0.16371 -1.61195,-0.28264 -2.40768,-0.47135c-1.2532,-0.29719 -2.4907,-0.65708 -3.73605,-0.98563c-4.86523,-0.77589 -9.74149,-1.3767 -14.6355,-1.94582c-0.08645,-0.01005 -6.25842,-0.59414 -6.89076,-0.88427c-1.59683,-0.73265 -4.06844,-1.17233 -4.40305,-2.89705c-0.34487,-1.77761 1.93632,-3.06125 2.9569,-4.55698c1.55362,-2.27694 2.68993,-3.42573 4.61061,-5.61216c3.49052,-3.97346 6.86654,-8.20895 11.64127,-10.72249c1.14669,-0.60365 2.28327,-1.62575 3.57534,-1.52659c2.0259,0.15547 3.7999,1.44308 5.67059,2.23615c4.11481,1.74445 8.47206,3.55072 12.38796,5.66835l1.85723,0.64526c0,0 2.34948,0.85436 1.49513,3.20384z" fill="#ff0000" stroke="none" stroke-width="0.5"/><path d="M219.09867,190.62761c-1.5,2 -3.5,0.5 -3.5,0.5l0.34645,-0.12513c-2.98718,-0.43397 -5.32486,-0.43565 -8.34691,0.05036c-1.51845,0.2442 -3.01093,0.64147 -4.53404,0.85469c-0.3734,0.05227 -1.04334,-0.42897 -1.12943,-0.06188c-0.11839,0.50482 0.73361,0.80336 0.83635,1.3116c0.33027,1.63379 0.29935,3.32024 0.4358,4.98149c0.37017,4.50674 0.53133,9.00449 0.97538,13.50297c0.08296,0.84039 0.08021,1.69133 0.22374,2.52352c0.07898,0.45795 -0.0249,1.31198 0.43968,1.32297c0.61378,0.01453 0.77937,-0.99631 1.32319,-1.28124c0.85302,-0.44693 1.84357,-0.55805 2.75884,-0.85749c3.71829,-1.21649 7.41859,-2.24517 11.24713,-3.06635c0,0 2.44451,-0.52382 2.96833,1.92068c0.52382,2.44451 -1.92068,2.96833 -1.92068,2.96833c-4.48639,0.96042 -8.84901,2.21363 -13.19403,3.67616c-1.43378,0.48261 -2.84227,1.99912 -4.27681,1.51876c-1.84244,-0.61696 -3.01563,-2.57915 -3.96032,-4.27703c-0.63516,-1.14156 -0.41201,-2.58049 -0.57626,-3.87648c-0.57496,-4.53653 -0.62205,-9.11136 -0.99158,-13.66758c-0.1257,-1.54988 -0.26531,-3.0986 -0.39724,-4.64797c-0.12171,-1.42942 -1.05419,-3.03093 -0.36365,-4.2884c0.76328,-1.38993 2.58514,-1.90692 4.07057,-2.46188c4.64063,-1.73376 10.28338,-1.77544 15.11905,-1.09496l1.94645,1.07487c0,0 2,1.5 0.5,3.5z" fill="#ff0000" stroke="none" stroke-width="0.5"/><path d="M225.75059,212.13061c1.96252,-6.80137 4.01995,-13.55032 6.48372,-20.1983c0.38363,-1.03514 3.11748,-8.56544 4.52004,-9.09846c2.72751,-1.03655 6.08008,1.6417 8.16369,3.00215c1.66319,1.08595 4.72144,2.69338 5.54033,4.7349c0.85551,2.13284 -0.26707,6.5229 -0.66126,8.46182c-1.14076,5.61118 -2.49378,11.13862 -4.30718,16.57153c-0.61387,1.17454 -0.71466,2.82621 -1.8416,3.52362c-3.98057,2.46335 -10.75232,0.03154 -15.35986,-1.75382c-0.3892,0.10945 -0.86025,0.11919 -1.4266,-0.04262c-1.90941,-0.54555 -1.86878,-2.17445 -1.7713,-2.82141l-0.2419,-0.3824c0,0 0,-1.26694 0.90192,-1.997zM230.73574,212.89007c2.62023,0.87626 5.35622,1.59432 8.00723,2.1451c0.62279,0.12939 1.35428,0.40868 1.90604,0.09218c0.37189,-0.21332 0.1056,-0.85092 0.1584,-1.27638c1.72773,-5.191 2.98392,-10.47398 4.09282,-15.82847c0.37971,-1.83349 1.57887,-3.77861 0.93874,-5.53818c-0.5402,-1.48489 -4.53036,-2.95449 -5.80834,-3.92064c-0.45769,-0.34602 -0.75941,-1.36631 -1.28765,-1.14231c-0.52002,0.22051 0.14355,1.15216 -0.01443,1.69445c-0.45666,1.56761 -1.23867,3.02218 -1.80562,4.55336c-2.34359,6.32935 -4.31318,12.74978 -6.1872,19.2209z" fill="#ff0000" stroke="none" stroke-width="0.5"/><path d="M275.91041,224.55478c-1.95217,1.56174 -3.51391,-0.39043 -3.51391,-0.39043l-1.2839,-1.6937c-3.5446,-7.0892 -6.23641,-14.44605 -9.22318,-21.76378c-0.01768,1.65257 -0.04075,3.2891 -0.04075,4.89575c0,5.04261 -0.28901,7.92402 1.58001,12.59388c0,0 0.90612,2.33001 -1.4239,3.23613c-2.33001,0.90612 -3.23613,-1.4239 -3.23613,-1.4239c-0.62571,-1.64838 -1.5245,-3.21763 -1.87712,-4.94515c-0.63073,-3.08997 -0.04286,-6.30728 -0.04286,-9.46096c0,-8.63199 1.01261,-18.73485 -2.98607,-26.63197l0.09932,0.46209c0,0 -0.86038,-0.57359 -1.10557,-1.53632c-0.0511,0.01853 -0.10221,0.03709 -0.15332,0.05567c0,0 -2.34948,0.85436 -3.20384,-1.49513c-0.85436,-2.34948 1.49513,-3.20384 1.49513,-3.20384c6.17438,-2.2452 12.46287,-4.34062 18.9786,-5.37212c1.32468,-0.20971 6.17609,-0.65489 7.1066,0.20737c2.48372,2.30156 3.40582,9.47857 4.16189,12.78977c0.41665,1.82474 1.91222,3.79459 1.13787,5.4986c-0.78216,1.7212 -3.20665,2.02229 -4.91938,2.82283c-2.45313,1.14661 -5.15346,1.68166 -7.65694,2.71373c-1.35402,0.5582 -2.64088,1.28348 -4.02561,1.76041c-0.54154,0.18652 -1.1836,-0.02372 -1.70499,0.21335c-0.75104,0.34149 0.8338,1.42425 1.27437,2.1218c3.42445,8.11729 6.29782,16.34531 10.23802,24.2257l0.7161,0.8063c0,0 1.56174,1.95217 -0.39043,3.51391zM263.92,189.0315c2.82487,-1.2821 5.68256,-2.50108 8.60747,-3.54016c1.05472,-0.37469 2.11677,-0.74541 3.20998,-0.9857c0.67982,-0.14942 1.86262,0.48386 2.08062,-0.17717c0.25275,-0.76638 -1.03591,-1.26329 -1.36213,-2.0014c-0.39495,-0.8936 -0.52025,-1.88347 -0.77209,-2.82744c-0.41811,-1.56716 -0.90118,-3.1192 -1.23774,-4.70588c-0.18654,-0.87942 0.11252,-1.8934 -0.32827,-2.67691c-0.1678,-0.29827 -0.57084,0.41337 -0.90587,0.48321c-1.92228,0.40071 -3.89997,0.50789 -5.81505,0.94171c-3.28939,0.74514 -6.4736,1.64353 -9.63655,2.66772l0.57438,0.5251c2.00512,4.05293 2.90645,8.50146 3.29642,13.05748c0.74588,-0.27613 1.58413,-0.44072 2.28884,-0.76056z" fill="#ff0000" stroke="none" stroke-width="0.5"/><path d="M304.84867,214.72761c0,2.5 -2.5,2.5 -2.5,2.5l-2.11803,-0.26393c-3.61678,-1.84015 -7.4579,-2.12607 -11.06402,-3.36204c0.00437,0.12109 0.00888,0.24217 0.01354,0.36322c0,0 0.09608,2.49815 -2.40207,2.59424c-2.49815,0.09608 -2.59424,-2.40207 -2.59424,-2.40207c-0.17446,-4.53606 -0.14392,-9.09481 -0.33135,-13.6245c-0.08031,-1.94084 -1.10932,-5.70402 0.54607,-7.36924c1.46405,-1.47274 3.81363,-1.6453 5.73196,-2.44053c4.9355,-2.04599 10.05999,-2.74139 15.35974,-3.15445l1.36812,-0.29215c0,0 2.45145,-0.49029 2.94174,1.96116c0.49029,2.45145 -1.96116,2.94174 -1.96116,2.94174l-1.96522,0.37452c-4.98273,0.37786 -9.26334,1.33504 -13.97359,2.84555c-1.17772,0.37768 -2.53826,0.26079 -3.60138,0.8928c-0.3267,0.19422 0.16464,0.74295 0.2165,1.11947c0.13026,0.94562 0.28955,1.89091 0.32957,2.84463c0.02593,0.61802 0.04777,1.23662 0.06658,1.85565c1.83975,-0.42869 3.66394,-0.92709 5.47315,-1.46985l3.08844,-0.68802c0,0 2.44047,-0.54233 2.98279,1.89814c0.54233,2.44047 -1.89814,2.98279 -1.89814,2.98279l-2.91156,0.64532c-2.11996,0.63599 -4.26142,1.20675 -6.42177,1.68802c0,0 -0.07611,0.01691 -0.20443,0.03132c0.00561,0.33785 0.01118,0.67573 0.01691,1.01359c0.52956,0.42584 1.02673,0.91973 1.66774,1.1115c0.75967,0.22726 1.597,-0.20209 2.37792,-0.0646c3.16388,0.55704 6.52263,1.82117 9.38425,3.23165l-0.11803,-0.26393c0,0 2.5,0 2.5,2.5z" fill="#ff0000" stroke="none" stroke-width="0.5"/><path d="M314.84867,208.72761c0,-1.38071 1.11929,-2.5 2.5,-2.5c1.38071,0 2.5,1.11929 2.5,2.5c0,1.38071 -1.11929,2.5 -2.5,2.5c-1.38071,0 -2.5,-1.11929 -2.5,-2.5z" fill="#ff0000" stroke="none" stroke-width="0.5"/><path d="M316.182,187.39428c0,-1.38071 1.11929,-2.5 2.5,-2.5c1.38071,0 2.5,1.11929 2.5,2.5c0,1.38071 -1.11929,2.5 -2.5,2.5c-1.38071,0 -2.5,-1.11929 -2.5,-2.5z" fill="#ff0000" stroke="none" stroke-width="0.5"/><path d="M213.80345,153.52416c0.85435,2.34948 -1.49513,3.20384 -1.49513,3.20384l-1.48387,0.49938c-3.16401,0.55714 -6.26118,0.90022 -9.4324,1.14837c1.18572,2.86387 2.40273,5.71562 3.64494,8.53745c0,0 1.00684,2.28829 -1.28144,3.29513c-2.28829,1.00684 -3.29513,-1.28144 -3.29513,-1.28144c-2.77796,-6.3165 -5.92152,-12.87845 -7.92302,-19.47933c-0.87157,-2.87442 -1.83229,-4.88598 0.7476,-7.6144c0.759,-0.80269 5.46936,-1.86948 6.66156,-2.09535c6.20407,-1.17543 12.47005,-1.40081 18.7618,-1.40081h0.58035c0,0 2.5,0 2.5,2.5c0,2.5 -2.5,2.5 -2.5,2.5h-0.58035c-5.96846,0 -11.91361,0.19556 -17.80032,1.30749c-1.39168,0.26288 -2.9321,0.12129 -4.17166,0.80641c-0.73139,0.40425 0.26964,1.65927 0.55416,2.44502c0.31124,0.85953 0.58944,1.73132 0.92248,2.58264c0.39488,1.00938 0.79432,2.01927 1.19805,3.02892c3.5754,-0.24355 7.01076,-0.57898 10.54446,-1.20401l0.64409,-0.27442c0,0 2.34949,-0.85435 3.20384,1.49513z" fill="#ff0000" stroke="none" stroke-width="0.5"/><path d="M232.16511,146.22669c0.89745,2.33336 -1.43592,3.23081 -1.43592,3.23081l-1.25743,0.48362c-2.14153,0.82361 -3.99612,1.47828 -5.88714,1.92352l0.04185,0.2892c0,5.17745 -0.53736,10.40251 -0.39668,15.5771c0.9186,0.21405 1.83772,0.43529 2.75893,0.66551l0.94127,-0.07465c0,0 2.5,0 2.5,2.5c0,2.5 -2.5,2.5 -2.5,2.5l-2.15394,-0.07464c-1.08706,-0.27186 -2.17074,-0.53074 -3.25401,-0.7798c-0.15886,0.03687 -0.33161,0.06259 -0.51944,0.07511c-0.89758,0.05984 -1.49372,-0.22484 -1.88913,-0.61383c-1.86799,-0.40695 -3.74126,-0.79165 -5.63495,-1.17023c0,0 -2.45145,-0.49029 -1.96116,-2.94174c0.49029,-2.45145 2.94174,-1.96116 2.94174,-1.96116c1.2611,0.25233 2.51389,0.50749 3.7623,0.76991c-0.02745,-4.69491 0.3836,-9.41257 0.40428,-14.10842c-0.5223,0.01692 -1.06218,0.01982 -1.62413,0.00813c0,0 -2.49922,-0.06248 -2.43674,-2.5617c0.06248,-2.49922 2.5617,-2.43674 2.5617,-2.43674c4.21147,0.12579 6.68633,-0.76602 10.55037,-2.25227l1.25743,-0.48362c0,0 2.33336,-0.89744 3.23081,1.43592z" fill="#ff0000" stroke="none" stroke-width="0.5"/><path d="M246.2817,143.70543c2.45145,0.49029 1.96116,2.94174 1.96116,2.94174l-0.04818,-0.00666c-0.00009,0.88315 -0.00019,1.7663 -0.00029,2.64945c-0.18151,5.94479 -0.4696,12.04652 -1.67843,17.88261c-0.6969,3.36455 -0.8309,7.02867 -6.49363,5.81182c-1.4721,-0.31634 -1.99177,-2.28794 -2.72277,-3.60429c-1.03575,-1.86515 -1.25836,-4.07723 -1.91496,-6.10711c-0.00049,-0.00152 -0.00539,-0.01587 -0.01423,-0.04183c-0.0149,0.28091 -0.02917,0.56187 -0.04301,0.84283c-0.08372,1.69939 -0.09414,3.40203 -0.09386,5.10348c0,0 0,2.5 -2.5,2.5c-2.5,0 -2.5,-2.5 -2.5,-2.5c0.00061,-3.76959 -0.4548,-8.58234 0.59914,-12.20319c0.51481,-1.76864 0.40915,-4.62232 2.19566,-5.07121c1.94329,-0.48828 3.70108,1.77402 5.05757,3.24873c0.78853,0.85725 0.66094,2.23386 1.00822,3.34564c0.18992,0.60804 1.94523,5.9861 2.12108,6.55473c0.11623,0.37586 0.26541,0.72917 0.39508,1.07327c0.15852,-1.29549 0.46331,-2.57075 0.64025,-3.86426c0.58842,-4.30172 0.81409,-8.70954 0.94446,-13.04695c-0.00009,-0.8579 -0.00019,-1.71581 -0.00028,-2.57372l0.14527,-0.97392c0,0 0.4903,-2.45145 2.94174,-1.96116z" fill="#ff0000" stroke="none" stroke-width="0.5"/><path d="M267.10127,155.45595c-2.17993,0.23993 -4.37349,0.40554 -6.56658,0.40844c0,0 -0.58837,0 -1.19425,-0.28544c-0.46165,2.48534 -0.89329,4.97537 -1.16998,7.49729c0,0 -0.27608,2.48471 -2.76078,2.20863c-2.48471,-0.27608 -2.20863,-2.76078 -2.20863,-2.76078c0.58178,-5.17581 1.89454,-10.12952 2.63146,-15.28361c0.28816,-2.01539 0.23384,-4.08401 0.68622,-6.069c0.38128,-1.67301 2.15803,-6.88448 4.03682,-7.16165c3.46483,-0.51116 5.30589,3.87917 6.40668,6.04425c1.46223,2.87598 3.04046,5.77448 4.06625,8.84082c1.14478,3.42202 1.65817,6.97057 2.78352,10.37069c0.62139,0.40035 1.63836,1.34968 0.96966,3.02146c-0.92846,2.3212 -3.24966,1.39274 -3.24966,1.39274l-2.07267,-1.71905c-0.7912,-2.16527 -1.2906,-4.41631 -1.81724,-6.65969zM260.53469,150.86439c1.94045,0.00284 3.88154,-0.14333 5.81074,-0.35524c-0.25873,-0.77333 -0.54963,-1.53728 -0.88687,-2.2877c-0.90491,-2.01361 -1.99209,-3.94038 -2.96406,-5.92249c-0.15959,-0.32545 -0.35002,-0.63869 -0.53458,-0.95408c-0.26314,1.03779 -0.65923,2.05775 -0.77505,3.11999c-0.23583,2.16286 -0.585,4.29971 -0.96956,6.42751c0.19425,-0.02799 0.31937,-0.02799 0.31937,-0.02799z" fill="#ff0000" stroke="none" stroke-width="0.5"/><path d="M293.20235,169.41591c-0.71838,2.39456 -3.11294,1.67618 -3.11294,1.67618l-1.32003,-0.39604c-3.28483,-1.0017 -9.76258,-2.32094 -11.56262,-5.65907c-1.21301,-2.24951 -0.23569,-5.19864 0.29496,-7.41636c1.2292,-5.13715 3.05471,-10.06995 4.4771,-15.15239c0,0 0.67407,-2.40741 3.08148,-1.73334c2.40741,0.67407 1.73334,3.08148 1.73334,3.08148c-1.40886,5.0293 -3.17072,9.91972 -4.43447,14.98965c-0.31661,1.27017 -1.38839,2.70943 -0.75344,3.85417c0.24615,0.44378 0.88819,0.49469 1.35405,0.69594c2.35881,1.01903 4.81128,1.81119 7.26542,2.55655l1.30098,0.39028c0,0 2.39456,0.71838 1.67618,3.11294z" fill="#ff0000" stroke="none" stroke-width="0.5"/><path d="M38.5028,404.80293v-449.60586h402.9944v449.60586z" fill="none" stroke="#000000" stroke-width="0"/></g></g></svg>