<svg version="1.1" xmlns="http://www.w3.org/2000/svg" xmlns:xlink="http://www.w3.org/1999/xlink" width="820.51734" height="515.26538" viewBox="0,0,820.51734,515.26538"><g transform="translate(170.25867,79.36666)"><g data-paper-data="{&quot;isPaintingLayer&quot;:true}" fill-rule="nonzero" stroke="none" stroke-linecap="butt" stroke-linejoin="miter" stroke-miterlimit="10" stroke-dasharray="" stroke-dashoffset="0" style="mix-blend-mode: normal"><path d="M-170.25867,435.8987v-511.79742h820.51734v292.45576v217.79918l-412.83889,1.54251z" fill="#ff9100" stroke-width="0"/><path d="M404.56199,308.79392c2.03978,-1.44543 3.48521,0.59435 3.48521,0.59435l0.82551,2.11252c1.91412,-1.4465 4.18897,-2.32867 6.52871,-3.10542c-0.06867,-0.14247 -0.13958,-0.28317 -0.21346,-0.42147c-2.07909,-3.89232 -3.12854,-8.17979 -4.78769,-12.27233c-1.30185,-3.21122 -1.60694,-6.9209 -3.05587,-9.99734c-0.63389,-1.34593 -1.67089,-2.48011 -2.27625,-3.83912c-2.71299,-6.09055 -3.92265,-12.90747 -6.31054,-19.13451c-2.94843,-7.68878 -6.85256,-14.96219 -9.68425,-22.70692c-2.55126,-6.98533 -5.15485,-14.06838 -8.14848,-20.87708c-1.19922,-2.72751 -2.85116,-5.26189 -3.83293,-8.075c-0.93869,-2.68965 -1.23702,-5.57228 -2.14201,-8.27345c-2.28125,-6.80891 -5.11948,-13.42874 -6.59165,-20.51043c-0.88731,-4.2683 -1.07584,-8.10523 -1.01926,-12.32329c0.06049,-4.50907 -1.52835,-8.28554 2.91562,-11.63831c1.40015,-1.05634 3.2726,-1.26299 4.9089,-1.89449c6.53873,-1.03665 12.6035,-3.13572 19.26617,-3.82825c9.3191,-0.96865 18.81431,-1.32788 27.99942,-3.45782c3.24093,-0.75154 6.29101,-2.20181 9.52604,-2.97832c12.8727,-3.08984 26.48499,-4.28004 39.56587,-6.29191c30.50011,-6.9638 60.5503,-15.91236 92.00066,-17.57559c8.27325,-1.27157 16.69299,-1.07221 25.02941,-1.36568c2.36108,-0.08312 8.24913,-0.93767 10.08124,1.26103c3.71781,4.46168 -0.56119,13.03119 -1.16201,17.73532c-0.58387,4.57143 -0.04588,9.63884 -0.29243,14.27828c-0.39481,7.42935 -1.53117,14.7731 -1.72847,22.20614c-0.30731,11.37284 -1.62999,22.48648 -2.42138,33.80935c-0.8311,11.89121 -0.48738,23.89408 -1.60519,35.7384c-0.08206,0.86947 -0.60657,8.71237 -0.58731,9.65972c0.03082,1.51589 0.72704,3.03907 0.43803,4.52747c-0.30084,1.54934 -1.52062,2.77218 -2.13749,4.22491c-0.53584,1.2619 -0.58042,2.73847 -1.31176,3.89806c-0.87316,1.38445 -2.25885,2.36941 -3.38827,3.55411c-1.97174,1.6309 -4.38029,4.1279 -7.06309,4.89089c-7.9296,2.25516 -16.9451,2.64292 -25.09946,3.89902c-22.92428,3.5313 -46.23288,6.15255 -68.93891,10.88032c-12.87425,2.67831 -26.0065,5.61048 -38.53962,9.63388c-4.04776,1.29942 -8.62759,2.76683 -12.44317,4.66103c-2.70083,1.34079 -5.06649,3.3039 -7.78895,4.60022c-0.10868,0.05175 -0.21758,0.10313 -0.32671,0.15414c0.32403,0.07713 0.64361,0.16156 0.94726,0.27211c0,0 2.31456,0.94486 1.36969,3.25943c-0.94486,2.31457 -3.25943,1.36969 -3.25943,1.36969c-1.76213,-0.77526 -3.87104,-1.02079 -5.28637,-2.32576c-0.019,-0.01752 -0.03782,-0.03516 -0.05648,-0.05294c-3.4583,1.20724 -7.00454,2.21654 -10.45777,3.23779l-3.52546,-4.02755c0,0 -1.44543,-2.03979 0.59436,-3.48522zM420.08127,306.84595c0.78472,-0.28732 1.55396,-0.5981 2.29588,-0.95068c2.73289,-1.29876 5.10524,-3.27231 7.81735,-4.61392c7.12345,-3.52378 15.2159,-5.48979 22.84581,-7.53875c9.72022,-2.6103 19.42228,-5.09078 29.27596,-7.14071c22.7946,-4.7381 46.18411,-7.38205 69.19606,-10.92685c7.97069,-1.22782 16.50543,-1.74246 24.31768,-3.71327c1.64465,-0.4149 4.52536,-3.23343 5.21697,-3.81105c0.83188,-0.81998 1.88835,-1.46215 2.49563,-2.45994c0.59151,-0.97188 0.53507,-2.22359 0.98964,-3.26657c0.4903,-1.12495 1.58976,-1.99211 1.82705,-3.1961c0.22376,-1.13535 -0.48524,-2.27566 -0.5207,-3.43231c-0.03408,-1.11127 0.49577,-9.13427 0.60649,-10.30375c1.11723,-11.80087 0.76698,-23.76701 1.59517,-35.61648c0.7865,-11.2531 2.10563,-22.29349 2.41103,-33.59579c0.20547,-7.47761 1.33634,-14.86051 1.73352,-22.33313c0.25519,-4.80131 -0.26301,-10.02854 0.34166,-14.76314c0.402,-3.14768 1.49323,-6.38099 1.91031,-9.61138c0.16737,-1.29633 1.45981,-2.85873 0.63174,-3.87007c-0.27205,-0.33226 -0.83198,0.28176 -1.26103,0.26362c-1.65947,-0.07018 -3.32284,-0.09913 -4.98271,-0.03911c-8.25635,0.29856 -16.59463,0.08161 -24.78752,1.34652c-31.32076,1.71147 -61.19437,10.59645 -91.57908,17.51363c-13.00091,2.00811 -26.54129,3.1713 -39.336,6.24242c-5.03314,1.2081 -9.52969,2.98543 -14.68939,3.78389c-4.96275,0.76798 -9.95727,1.73978 -14.94729,2.29944c-5.97935,0.67062 -12.11413,0.3741 -18.00109,1.90582c-3.1058,0.80809 -5.82861,1.77345 -9.07636,2.25599c-1.70907,0.5694 -3.84479,0.60626 -4.40418,2.75997c-0.78564,3.02484 0.3664,3.18332 0.33501,5.97037c-0.04384,3.89219 0.08222,7.24675 0.90428,11.21628c1.43436,6.92617 4.24013,13.38366 6.46539,20.04241c1.02436,3.06524 0.97557,4.91313 2.08301,8.10129c0.94389,2.71731 2.56092,5.1541 3.71833,7.78755c3.03299,6.90097 5.67349,14.07684 8.25994,21.15593c2.8177,7.72062 6.71727,14.968 9.6563,22.63229c2.3492,6.12615 3.51261,12.8788 6.19585,18.8601c0.62739,1.39853 1.69204,2.57057 2.3308,3.96394c1.44031,3.14184 1.76442,6.8155 3.08071,10.05742c1.611,3.9678 2.73423,8.03544 4.60187,11.8672c0.17792,0.36503 0.31508,0.75892 0.44592,1.15693z" fill="#ed8600" stroke-width="0.5"/><path d="M325.58457,307.15273c2.03979,-1.44543 3.48522,0.59436 3.48522,0.59436l0.82551,2.11252c1.91412,-1.4465 4.18897,-2.32868 6.52871,-3.10542c-0.06868,-0.14247 -0.13957,-0.28316 -0.21346,-0.42147c-2.07908,-3.89231 -3.12854,-8.17979 -4.78769,-12.27233c-1.30184,-3.21121 -1.60694,-6.9209 -3.05587,-9.99734c-0.63389,-1.34593 -1.67089,-2.48011 -2.27625,-3.83912c-2.713,-6.09055 -3.92266,-12.90747 -6.31054,-19.1345c-2.94843,-7.68878 -6.85256,-14.9622 -9.68425,-22.70693c-2.55125,-6.98533 -5.15485,-14.06838 -8.14847,-20.87708c-1.19922,-2.72751 -2.85116,-5.26189 -3.83294,-8.075c-0.93869,-2.68965 -1.23702,-5.57228 -2.14201,-8.27345c-2.28125,-6.80891 -5.11948,-13.42874 -6.59165,-20.51043c-0.88731,-4.2683 -1.07585,-8.10522 -1.01926,-12.32329c0.06049,-4.50907 -1.52835,-8.28554 2.91562,-11.63831c1.40015,-1.05634 3.2726,-1.26299 4.9089,-1.89449c6.53873,-1.03665 12.60349,-3.13572 19.26617,-3.82825c9.3191,-0.96865 18.81431,-1.32788 27.99942,-3.45781c3.24093,-0.75154 6.29101,-2.20181 9.52604,-2.97832c12.8727,-3.08984 26.48499,-4.28004 39.56587,-6.29191c30.50011,-6.9638 60.55031,-15.91236 92.00066,-17.57559c8.27325,-1.27157 16.69299,-1.07222 25.02941,-1.36568c2.36108,-0.08312 8.24912,-0.93768 10.08125,1.26102c3.71781,4.46169 -0.56119,13.03119 -1.16201,17.73532c-0.58388,4.57143 -0.04588,9.63884 -0.29244,14.27828c-0.39481,7.42935 -1.53117,14.7731 -1.72847,22.20614c-0.3073,11.37284 -1.62999,22.48648 -2.42137,33.80935c-0.8311,11.89121 -0.48738,23.89408 -1.60519,35.73839c-0.08206,0.86947 -0.60657,8.71237 -0.58731,9.65972c0.03082,1.51589 0.72703,3.03907 0.43803,4.52747c-0.30084,1.54934 -1.52062,2.77218 -2.13749,4.2249c-0.53584,1.2619 -0.58042,2.73847 -1.31176,3.89806c-0.87316,1.38445 -2.25885,2.36941 -3.38827,3.55411c-1.97173,1.6309 -4.38029,4.1279 -7.06309,4.89088c-7.92959,2.25516 -16.9451,2.64292 -25.09945,3.89902c-22.92428,3.5313 -46.23289,6.15255 -68.93892,10.88033c-12.87425,2.67831 -26.00649,5.61048 -38.53962,9.63388c-4.04776,1.29942 -8.6276,2.76683 -12.44317,4.66103c-2.70083,1.34079 -5.0665,3.30391 -7.78896,4.60022c-0.10868,0.05175 -0.21758,0.10312 -0.32671,0.15414c0.32403,0.07713 0.64361,0.16156 0.94726,0.27211c0,0 2.31456,0.94486 1.36969,3.25943c-0.94486,2.31457 -3.25943,1.3697 -3.25943,1.3697c-1.76213,-0.77526 -3.87104,-1.02079 -5.28637,-2.32576c-0.019,-0.01752 -0.03782,-0.03516 -0.05648,-0.05293c-3.4583,1.20724 -7.00455,2.21653 -10.45778,3.23779l-3.52546,-4.02754c0,0 -1.44543,-2.03979 0.59435,-3.48523zM341.10385,305.20476c0.78472,-0.28732 1.55396,-0.5981 2.29588,-0.95068c2.7329,-1.29876 5.10524,-3.27231 7.81735,-4.61392c7.12345,-3.52378 15.2159,-5.4898 22.84581,-7.53876c9.72023,-2.6103 19.42228,-5.09078 29.27596,-7.1407c22.7946,-4.7381 46.1841,-7.38205 69.19606,-10.92685c7.9707,-1.22782 16.50543,-1.74247 24.31768,-3.71327c1.64465,-0.4149 4.52537,-3.23342 5.21697,-3.81105c0.83187,-0.81998 1.88834,-1.46215 2.49563,-2.45995c0.5915,-0.97188 0.53507,-2.22359 0.98964,-3.26657c0.4903,-1.12495 1.58976,-1.99211 1.82705,-3.1961c0.22376,-1.13535 -0.48523,-2.27565 -0.5207,-3.4323c-0.03407,-1.11127 0.49577,-9.13427 0.60649,-10.30375c1.11723,-11.80087 0.76698,-23.76702 1.59517,-35.61649c0.7865,-11.2531 2.10563,-22.29349 2.41103,-33.59579c0.20547,-7.47762 1.33634,-14.86051 1.73352,-22.33313c0.25519,-4.80131 -0.26301,-10.02854 0.34166,-14.76314c0.402,-3.14768 1.49323,-6.38099 1.91031,-9.61138c0.16737,-1.29633 1.45981,-2.85873 0.63174,-3.87007c-0.27205,-0.33226 -0.83198,0.28176 -1.26103,0.26362c-1.65947,-0.07018 -3.32284,-0.09913 -4.98271,-0.03911c-8.25635,0.29856 -16.59463,0.08161 -24.78752,1.34652c-31.32076,1.71147 -61.19437,10.59645 -91.57907,17.51364c-13.00091,2.00811 -26.54129,3.17129 -39.336,6.24241c-5.03313,1.2081 -9.52969,2.98543 -14.68939,3.78389c-4.96275,0.76798 -9.95727,1.73978 -14.94729,2.29944c-5.97935,0.67062 -12.11413,0.37411 -18.0011,1.90582c-3.1058,0.80809 -5.82861,1.77345 -9.07636,2.25599c-1.70907,0.5694 -3.8448,0.60625 -4.40418,2.75997c-0.78564,3.02484 0.3664,3.18332 0.33501,5.97037c-0.04384,3.89219 0.08222,7.24675 0.90429,11.21628c1.43436,6.92617 4.24012,13.38366 6.46538,20.04241c1.02436,3.06524 0.97556,4.91313 2.083,8.10129c0.94389,2.71731 2.56092,5.1541 3.71834,7.78755c3.03299,6.90097 5.67349,14.07684 8.25994,21.15593c2.81769,7.72063 6.71727,14.968 9.6563,22.63229c2.3492,6.12615 3.51261,12.87881 6.19585,18.8601c0.62739,1.39853 1.69204,2.57057 2.3308,3.96394c1.44031,3.14184 1.76442,6.8155 3.0807,10.05742c1.61101,3.9678 2.73424,8.03544 4.60187,11.86719c0.17792,0.36503 0.31507,0.75892 0.44591,1.15693z" fill="#d37700" stroke-width="0.5"/><path d="M272.36966,301.59818c2.03979,-1.44543 3.48522,0.59436 3.48522,0.59436l0.82551,2.11252c1.91412,-1.4465 4.18897,-2.32868 6.52871,-3.10542c-0.06868,-0.14247 -0.13957,-0.28316 -0.21346,-0.42147c-2.07908,-3.89231 -3.12854,-8.17979 -4.78769,-12.27233c-1.30184,-3.21121 -1.60694,-6.9209 -3.05587,-9.99734c-0.63389,-1.34593 -1.67089,-2.48011 -2.27625,-3.83912c-2.713,-6.09055 -3.92266,-12.90747 -6.31054,-19.1345c-2.94843,-7.68878 -6.85256,-14.9622 -9.68425,-22.70693c-2.55125,-6.98533 -5.15485,-14.06838 -8.14847,-20.87708c-1.19922,-2.72751 -2.85116,-5.26189 -3.83294,-8.075c-0.93868,-2.68965 -1.23701,-5.57228 -2.14201,-8.27345c-2.28125,-6.80891 -5.11948,-13.42874 -6.59165,-20.51043c-0.88731,-4.2683 -1.07585,-8.10522 -1.01926,-12.32329c0.06049,-4.50907 -1.52835,-8.28554 2.91563,-11.63831c1.40015,-1.05634 3.27259,-1.26299 4.9089,-1.89449c6.53873,-1.03665 12.60349,-3.13572 19.26617,-3.82825c9.3191,-0.96865 18.81431,-1.32788 27.99942,-3.45781c3.24093,-0.75154 6.29101,-2.20181 9.52604,-2.97832c12.8727,-3.08984 26.48499,-4.28004 39.56587,-6.29191c30.50011,-6.9638 60.55031,-15.91236 92.00066,-17.57559c8.27325,-1.27157 16.69299,-1.07221 25.02941,-1.36568c2.36108,-0.08312 8.24913,-0.93767 10.08125,1.26103c3.71781,4.46169 -0.56119,13.03119 -1.16201,17.73532c-0.58387,4.57143 -0.04588,9.63884 -0.29244,14.27828c-0.39481,7.42935 -1.53117,14.7731 -1.72847,22.20614c-0.3073,11.37284 -1.62999,22.48648 -2.42138,33.80935c-0.8311,11.89121 -0.48738,23.89408 -1.60519,35.73839c-0.08206,0.86947 -0.60657,8.71237 -0.58731,9.65972c0.03082,1.51589 0.72703,3.03907 0.43803,4.52747c-0.30084,1.54934 -1.52061,2.77218 -2.13749,4.2249c-0.53584,1.2619 -0.58042,2.73847 -1.31176,3.89806c-0.87316,1.38445 -2.25885,2.36941 -3.38827,3.55411c-1.97174,1.6309 -4.38029,4.1279 -7.06309,4.89088c-7.9296,2.25516 -16.9451,2.64292 -25.09945,3.89902c-22.92428,3.5313 -46.23289,6.15255 -68.93892,10.88033c-12.87425,2.67831 -26.00649,5.61048 -38.53962,9.63388c-4.04776,1.29942 -8.6276,2.76683 -12.44317,4.66103c-2.70083,1.34079 -5.0665,3.30391 -7.78896,4.60022c-0.10868,0.05175 -0.21758,0.10312 -0.32671,0.15414c0.32403,0.07713 0.64361,0.16156 0.94726,0.27211c0,0 2.31456,0.94486 1.36969,3.25943c-0.94486,2.31457 -3.25943,1.3697 -3.25943,1.3697c-1.76213,-0.77526 -3.87104,-1.02079 -5.28637,-2.32576c-0.019,-0.01752 -0.03782,-0.03516 -0.05648,-0.05293c-3.4583,1.20724 -7.00455,2.21653 -10.45778,3.23779l-3.52546,-4.02754c0,0 -1.44543,-2.03979 0.59435,-3.48523zM287.88895,299.65021c0.78472,-0.28732 1.55396,-0.5981 2.29588,-0.95068c2.7329,-1.29876 5.10524,-3.27231 7.81735,-4.61392c7.12345,-3.52378 15.2159,-5.4898 22.84581,-7.53876c9.72023,-2.6103 19.42228,-5.09078 29.27596,-7.1407c22.7946,-4.7381 46.1841,-7.38205 69.19606,-10.92685c7.97069,-1.22782 16.50543,-1.74247 24.31768,-3.71327c1.64465,-0.4149 4.52537,-3.23342 5.21697,-3.81105c0.83188,-0.81998 1.88835,-1.46215 2.49563,-2.45995c0.5915,-0.97188 0.53507,-2.22359 0.98964,-3.26657c0.4903,-1.12495 1.58976,-1.99211 1.82705,-3.1961c0.22376,-1.13535 -0.48523,-2.27565 -0.5207,-3.4323c-0.03407,-1.11127 0.49577,-9.13427 0.60648,-10.30375c1.11723,-11.80087 0.76698,-23.76702 1.59517,-35.61649c0.7865,-11.2531 2.10563,-22.29349 2.41103,-33.59579c0.20547,-7.47762 1.33634,-14.86051 1.73352,-22.33313c0.2552,-4.80131 -0.26301,-10.02854 0.34166,-14.76314c0.402,-3.14768 1.49323,-6.38099 1.91031,-9.61138c0.16737,-1.29633 1.45981,-2.85873 0.63174,-3.87007c-0.27205,-0.33226 -0.83198,0.28176 -1.26103,0.26362c-1.65947,-0.07018 -3.32284,-0.09913 -4.98271,-0.03911c-8.25635,0.29856 -16.59463,0.08161 -24.78752,1.34652c-31.32076,1.71147 -61.19437,10.59645 -91.57907,17.51364c-13.00091,2.00811 -26.54129,3.17129 -39.336,6.24241c-5.03313,1.2081 -9.52969,2.98543 -14.68939,3.78389c-4.96275,0.76798 -9.95727,1.73978 -14.94729,2.29944c-5.97935,0.67062 -12.11413,0.37411 -18.00109,1.90582c-3.10581,0.80809 -5.82861,1.77345 -9.07636,2.25599c-1.70907,0.5694 -3.8448,0.60625 -4.40418,2.75997c-0.78564,3.02484 0.3664,3.18332 0.33501,5.97037c-0.04385,3.89219 0.08222,7.24675 0.90429,11.21628c1.43436,6.92617 4.24013,13.38366 6.46538,20.04241c1.02436,3.06524 0.97556,4.91313 2.083,8.10129c0.94388,2.71731 2.56092,5.1541 3.71833,7.78755c3.03299,6.90097 5.67349,14.07684 8.25994,21.15593c2.81769,7.72063 6.71727,14.968 9.6563,22.63229c2.3492,6.12615 3.51261,12.87881 6.19585,18.8601c0.62739,1.39853 1.69204,2.57057 2.3308,3.96394c1.44031,3.14184 1.76442,6.8155 3.0807,10.05742c1.61101,3.9678 2.73424,8.03544 4.60187,11.86719c0.17792,0.36503 0.31507,0.75892 0.44591,1.15693z" fill="#c06d00" stroke-width="0.5"/><path d="M177.15405,309.20597c2.03979,-1.44543 3.48522,0.59435 3.48522,0.59435l0.82552,2.11252c1.91412,-1.44649 4.18897,-2.32867 6.5287,-3.10542c-0.06868,-0.14248 -0.13958,-0.28317 -0.21346,-0.42147c-2.07909,-3.89232 -3.12854,-8.17979 -4.78769,-12.27234c-1.30185,-3.21121 -1.60695,-6.9209 -3.05587,-9.99734c-0.6339,-1.34593 -1.67089,-2.48012 -2.27625,-3.83912c-2.71299,-6.09055 -3.92265,-12.90747 -6.31054,-19.1345c-2.94843,-7.68878 -6.85256,-14.9622 -9.68425,-22.70693c-2.55125,-6.98533 -5.15485,-14.06838 -8.14848,-20.87708c-1.19922,-2.72751 -2.85116,-5.26189 -3.83293,-8.075c-0.93869,-2.68965 -1.23701,-5.57228 -2.14201,-8.27345c-2.28125,-6.8089 -5.11949,-13.42875 -6.59165,-20.51044c-0.88731,-4.2683 -1.07585,-8.10522 -1.01926,-12.32329c0.06049,-4.50907 -1.52835,-8.28554 2.91563,-11.63831c1.40014,-1.05634 3.27259,-1.26299 4.90889,-1.89448c6.53873,-1.03665 12.6035,-3.13572 19.26617,-3.82825c9.3191,-0.96865 18.81431,-1.32788 27.99942,-3.45781c3.24093,-0.75154 6.291,-2.20181 9.52604,-2.97832c12.87271,-3.08984 26.48499,-4.28004 39.56587,-6.29191c30.50011,-6.9638 60.55031,-15.91236 92.00066,-17.57559c8.27325,-1.27157 16.69299,-1.07222 25.02941,-1.36568c2.36108,-0.08312 8.24913,-0.93767 10.08125,1.26103c3.71781,4.46169 -0.56119,13.03119 -1.16201,17.73532c-0.58388,4.57143 -0.04589,9.63884 -0.29243,14.27828c-0.39481,7.42934 -1.53117,14.7731 -1.72847,22.20614c-0.3073,11.37283 -1.62999,22.48648 -2.42138,33.80935c-0.8311,11.89122 -0.48738,23.89408 -1.60519,35.73839c-0.08206,0.86947 -0.60657,8.71237 -0.58731,9.65973c0.03082,1.51589 0.72704,3.03906 0.43803,4.52747c-0.30084,1.54934 -1.52061,2.77217 -2.13749,4.22491c-0.53584,1.2619 -0.58041,2.73847 -1.31176,3.89807c-0.87316,1.38445 -2.25885,2.3694 -3.38827,3.5541c-1.97174,1.6309 -4.38029,4.1279 -7.06308,4.89089c-7.92959,2.25516 -16.9451,2.64292 -25.09945,3.89903c-22.92429,3.53129 -46.23288,6.15255 -68.93892,10.88032c-12.87425,2.67831 -26.00649,5.61048 -38.53962,9.63388c-4.04776,1.29942 -8.6276,2.76684 -12.44318,4.66103c-2.70083,1.34079 -5.0665,3.30391 -7.78895,4.60022c-0.10868,0.05175 -0.21758,0.10312 -0.32671,0.15414c0.32403,0.07713 0.64361,0.16157 0.94726,0.27212c0,0 2.31456,0.94487 1.3697,3.25944c-0.94487,2.31457 -3.25944,1.3697 -3.25944,1.3697c-1.76213,-0.77526 -3.87104,-1.02079 -5.28637,-2.32576c-0.01899,-0.01751 -0.03782,-0.03516 -0.05647,-0.05293c-3.45831,1.20724 -7.00455,2.21654 -10.45777,3.23779l-3.52547,-4.02755c0,0 -1.44543,-2.03979 0.59435,-3.48522zM192.67334,307.258c0.78472,-0.28732 1.55396,-0.5981 2.29588,-0.95068c2.73289,-1.29876 5.10524,-3.27231 7.81735,-4.61392c7.12345,-3.52378 15.2159,-5.4898 22.84581,-7.53875c9.72022,-2.6103 19.42228,-5.09078 29.27596,-7.14071c22.79459,-4.7381 46.1841,-7.38205 69.19607,-10.92685c7.9707,-1.22782 16.50543,-1.74246 24.31768,-3.71327c1.64465,-0.4149 4.52536,-3.23343 5.21697,-3.81105c0.83187,-0.81998 1.88835,-1.46215 2.49563,-2.45995c0.59151,-0.97188 0.53507,-2.22359 0.98964,-3.26656c0.4903,-1.12495 1.58976,-1.99211 1.82705,-3.1961c0.22376,-1.13535 -0.48524,-2.27566 -0.5207,-3.43231c-0.03407,-1.11127 0.49576,-9.13427 0.60648,-10.30375c1.11723,-11.80088 0.76698,-23.76701 1.59517,-35.61648c0.78651,-11.2531 2.10563,-22.29349 2.41103,-33.59579c0.20547,-7.47762 1.33634,-14.86051 1.73352,-22.33313c0.25519,-4.80131 -0.26301,-10.02854 0.34166,-14.76314c0.402,-3.14769 1.49323,-6.38099 1.91032,-9.61138c0.16737,-1.29633 1.45981,-2.85873 0.63173,-3.87007c-0.27205,-0.33226 -0.83198,0.28176 -1.26103,0.26362c-1.65947,-0.07018 -3.32284,-0.09913 -4.98271,-0.03911c-8.25635,0.29856 -16.59463,0.08161 -24.78752,1.34652c-31.32076,1.71146 -61.19436,10.59645 -91.57908,17.51364c-13.00091,2.0081 -26.54128,3.1713 -39.336,6.24242c-5.03313,1.2081 -9.52969,2.98543 -14.6894,3.78389c-4.96275,0.76798 -9.95726,1.73977 -14.94729,2.29943c-5.97935,0.67062 -12.11413,0.3741 -18.0011,1.90582c-3.10581,0.80809 -5.82861,1.77345 -9.07636,2.25599c-1.70907,0.5694 -3.8448,0.60625 -4.40418,2.75997c-0.78564,3.02484 0.36641,3.18332 0.33501,5.97036c-0.04385,3.89219 0.08222,7.24675 0.90428,11.21628c1.43436,6.92617 4.24012,13.38365 6.46538,20.0424c1.02436,3.06523 0.97557,4.91313 2.08301,8.1013c0.94389,2.7173 2.56092,5.1541 3.71833,7.78755c3.03299,6.90097 5.67349,14.07684 8.25994,21.15593c2.8177,7.72062 6.71727,14.96801 9.65631,22.63229c2.34921,6.12615 3.51261,12.87881 6.19585,18.8601c0.62739,1.39853 1.69204,2.57058 2.33081,3.96394c1.44032,3.14184 1.76442,6.8155 3.0807,10.05742c1.61101,3.9678 2.73424,8.03545 4.60187,11.86719c0.17792,0.36503 0.31508,0.75893 0.44592,1.15693z" fill="#9c5800" stroke-width="0.5"/><path d="M-11.66792,92.65434c-1.11808,-2.23604 1.11796,-3.35413 1.11796,-3.35413l2.19448,-1.03071c5.03384,-1.25727 10.23909,-2.532 15.35454,-3.40844c7.11225,-1.21855 14.28736,-0.7081 21.45024,-0.99985c0.3132,-0.01276 0.62644,-0.02653 0.93972,-0.04122c-4.31994,-5.9823 -5.71766,-13.51929 -7.58572,-20.68011c-4.94154,-18.94246 -9.21083,-38.29426 -12.81852,-57.53538c-0.85336,-4.57803 -0.77382,-9.13383 -1.41264,-13.72373c-2.16116,-15.52791 -6.85163,-30.65214 -9.00852,-46.21524c-0.62234,-4.49051 -1.24052,-8.59964 -1.24052,-13.1463c0,-0.70293 -0.02777,-5.42347 0.10727,-5.77264c0.56027,-1.44874 1.75686,-2.5621 2.63529,-3.84316c1.01551,-0.2958 6.57307,-1.98053 7.86554,-2.12041c4.20379,-0.45497 5.60717,0.21556 9.80574,0.82952c4.50864,0.6593 9.05389,0.23432 13.52337,0.85335c2.58147,0.35753 5.04788,1.36306 7.63327,1.69104c7.48684,0.94978 15.10431,0.83529 22.60361,1.66853c4.14773,0.46085 8.36175,1.48348 12.53106,1.67514c6.40784,0.29456 12.83452,-0.06947 19.25081,0.23517c33.33136,1.58726 66.59472,1.44207 99.96036,1.44207c10.44091,0 20.58895,-1.23181 30.99068,-1.66961c6.67425,-0.28092 13.4243,-0.01265 20.10499,-0.013c6.15227,-0.00033 13.00023,-0.80146 19.07869,0.02332c1.67661,0.2275 3.22075,1.08254 4.88903,1.36474c3.01072,0.50929 6.16479,0.32509 9.07477,1.25021c1.35028,0.42927 2.54941,1.30572 3.93243,1.61357c2.25136,0.50113 4.62402,0.32261 6.86436,0.87092c4.99936,1.36694 9.11475,3.54041 7.7163,9.73055c-0.37559,1.66255 -1.72816,2.96658 -2.26526,4.58419c-0.34299,1.03302 0.02671,2.22165 -0.33531,3.24815c-0.36753,1.04211 -1.29548,1.80157 -1.79352,2.78799c-0.53747,1.06451 -1.3188,4.86701 -1.54983,5.56032c-0.99664,2.99086 -2.35853,5.85828 -3.24342,8.88409c-4.35399,14.88824 -7.06174,30.1592 -10.12453,45.40508c-0.97564,9.81671 -2.75269,19.50271 -3.97743,29.30096c-0.76304,6.10451 -0.97585,12.84178 -2.65135,18.76443c-0.41672,1.47303 -1.45089,2.73336 -1.80642,4.22235c-0.25334,1.06103 0.1705,2.19254 0.01689,3.27252c-0.12489,0.87803 -0.68952,1.6503 -0.84139,2.52407c-0.24504,1.40985 0.5121,3.13056 -0.3411,4.27937c-1.12483,1.51455 -3.12291,2.22026 -4.91771,2.80147c-0.2653,0.08591 -6.72274,0.06687 -7.30528,0.06687c-4.58722,0 -8.95211,-0.05828 -13.51449,-0.62287c-32.09726,-0.82747 -63.88626,5.07055 -95.63774,9.02632c-9.33241,0.52121 -18.60163,0.58723 -27.93419,0.85088c-6.45921,0.18248 -12.94782,0.86725 -19.40895,0.842c-17.31874,-0.0677 -34.60273,-1.67483 -51.93627,-0.51432c-5.88145,0.39211 -11.783,0.98486 -17.67062,1.22466c-6.95806,0.28341 -13.95389,-0.24811 -20.86121,0.94078c-4.97626,0.85652 -10.03772,2.09723 -14.93448,3.32238l-1.17088,0.65206c0,0 -2.23604,1.11808 -3.35413,-1.11796zM35.55833,83.43512c3.47983,-0.25739 6.95974,-0.5601 10.43246,-0.79163c17.44815,-1.15847 34.84099,0.43262 52.27381,0.50324c6.42187,0.02602 12.87333,-0.66047 19.29357,-0.84078c9.21961,-0.25892 18.37606,-0.32247 27.59561,-0.8319c32.02238,-4.01654 64.0867,-9.90531 96.46107,-9.03249c5.53844,0.68946 10.94141,0.5484 16.50564,0.60884c0.094,0.00102 4.1672,0.39834 4.60429,-0.49702c0.36196,-0.74145 -0.42364,-1.63069 -0.3411,-2.45163c0.08872,-0.88242 0.71544,-1.64619 0.84139,-2.52407c0.16371,-1.14113 -0.2497,-2.33683 0.01689,-3.45839c0.38474,-1.61862 1.44519,-3.01477 1.902,-4.61455c1.61415,-5.65284 1.76711,-12.17459 2.49603,-18.00561c1.22997,-9.83915 3.0024,-19.56426 3.99387,-29.42071c1.57012,-7.8838 3.60112,-15.70403 5.05563,-23.60507c0.48028,-2.60892 0.37701,-5.30953 0.93265,-7.90345c1.71566,-8.00921 4.98612,-15.83844 7.56715,-23.57906c0.78116,-2.34275 0.71605,-3.99878 1.81572,-6.21874c0.40734,-0.82231 1.27043,-1.3934 1.57185,-2.26015c0.32428,-0.93251 -0.07266,-2.01584 0.24072,-2.95207c0.63354,-1.89271 4.46081,-5.87911 0.88416,-7.4997c-0.8511,-0.38564 -1.82671,-0.39433 -2.74006,-0.59149c-2.14627,-0.55012 -4.43415,-0.33188 -6.5972,-0.81185c-1.56576,-0.34743 -2.95472,-1.25994 -4.48126,-1.75189c-2.69204,-0.86754 -5.62588,-0.61974 -8.41459,-1.09175c-1.61834,-0.27391 -3.11237,-1.11352 -4.73782,-1.34153c-5.82518,-0.81715 -12.49256,0.02323 -18.39545,0.02354c-6.61056,0.00035 -13.29088,-0.26938 -19.895,0.00858c-10.46929,0.44065 -20.69042,1.67404 -31.20094,1.67404c-33.44493,0 -66.78752,0.14331 -100.1982,-1.44772c-6.44652,-0.30791 -12.9058,0.06627 -19.34411,-0.24049c-4.23477,-0.20177 -8.49721,-1.22072 -12.70973,-1.69022c-7.57415,-0.84417 -15.26864,-0.72323 -22.82973,-1.69693c-2.54419,-0.32763 -4.9709,-1.31814 -7.51124,-1.67442c-2.80703,-0.39367 -5.67431,-0.00863 -8.50051,-0.22544c-4.49697,-0.34498 -9.06722,-1.97732 -13.60381,-1.45706c-1.89856,0.21773 -3.71592,0.90366 -5.5962,1.24495c-1.07466,1.77372 -0.62281,3.44713 -0.62281,5.52872c0,5.94393 1.10644,11.5346 1.88242,17.42851c1.83068,13.90485 6.38752,27.36692 8.31888,41.24377c0.6287,4.51723 0.52579,8.9922 1.37474,13.49155c3.58639,19.12751 7.82985,38.36399 12.74224,57.1947c1.88245,7.21603 3.08743,15.75466 8.60382,21.15981c0,0 0.14658,0.14658 0.31312,0.39754z" fill="#9c5800" stroke-width="0.5"/></g></g></svg>