<svg version="1.1" xmlns="http://www.w3.org/2000/svg" xmlns:xlink="http://www.w3.org/1999/xlink" width="402.9944" height="449.60586" viewBox="0,0,402.9944,449.60586"><g transform="translate(-38.5028,44.80293)"><g data-paper-data="{&quot;isPaintingLayer&quot;:true}" fill-rule="nonzero" stroke-linecap="butt" stroke-linejoin="miter" stroke-miterlimit="10" stroke-dasharray="" stroke-dashoffset="0" style="mix-blend-mode: normal"><path d="M241.12631,166.96474c0.88463,-1.87207 3.59708,-9.98818 6.70989,-9.0988c4.6785,1.33671 -2.57644,11.94378 -3.27641,13.45775c-3.61404,7.81685 -5.71622,15.93606 -7.84656,24.23632c-0.21372,0.83271 -0.7481,4.59748 -1.65922,5.73093c-0.08297,0.10321 -0.188,0.20146 -0.31026,0.29262c-0.43923,0.38288 -1.01352,0.61477 -1.64198,0.61477c-0.0457,0 -0.09111,-0.00123 -0.1362,-0.00365c-1.067,0.06984 -2.12579,-0.35742 -2.23286,-1.69575c-0.08491,-0.25135 -0.13094,-0.5206 -0.13094,-0.80061c0,-0.16453 0.01589,-0.32535 0.04623,-0.48101c1.1043,-10.94327 5.82302,-22.40094 10.4783,-32.25257z" fill="#ff0000" stroke="#000000" stroke-width="5"/><path d="M241.12631,166.96474c0.88463,-1.87207 3.59708,-9.98818 6.70989,-9.0988c4.6785,1.33671 -2.57644,11.94378 -3.27641,13.45775c-3.61404,7.81685 -5.71622,15.93606 -7.84656,24.23632c-0.21372,0.83271 -0.7481,4.59748 -1.65922,5.73093c-0.08297,0.10321 -0.188,0.20146 -0.31026,0.29262c-0.43923,0.38288 -1.01352,0.61477 -1.64198,0.61477c-0.0457,0 -0.09111,-0.00123 -0.1362,-0.00365c-1.067,0.06984 -2.12579,-0.35742 -2.23286,-1.69575c-0.08491,-0.25135 -0.13094,-0.5206 -0.13094,-0.80061c0,-0.16453 0.01589,-0.32535 0.04623,-0.48101c1.1043,-10.94327 5.82302,-22.40094 10.4783,-32.25257z" fill="#ff0000" stroke="none" stroke-width="0.5"/><path d="M38.5028,404.80293v-449.60586h402.9944v449.60586z" fill="none" stroke="#000000" stroke-width="0"/></g></g></svg>