<svg version="1.1" xmlns="http://www.w3.org/2000/svg" xmlns:xlink="http://www.w3.org/1999/xlink" width="64.26851" height="50.91607" viewBox="0,0,64.26851,50.91607"><g transform="translate(-207.86574,-154.54196)"><g data-paper-data="{&quot;isPaintingLayer&quot;:true}" fill-rule="nonzero" stroke="none" stroke-width="0.5" stroke-linecap="butt" stroke-linejoin="miter" stroke-miterlimit="10" stroke-dasharray="" stroke-dashoffset="0" style="mix-blend-mode: normal"><path d="M225.1035,202.71463c-3.62339,-1.63915 -5.85651,-4.74009 -8.433,-7.68448c-5.30326,-6.06051 -10.38368,-9.87533 -8.34367,-18.03535c0.50891,-2.03565 5.51594,-4.40109 7.03308,-5.74977c5.06953,-4.5066 8.84206,-10.1326 14.09615,-14.43992c1.03505,-0.84854 3.26423,-2.40446 4.74271,-2.25282c0.82556,0.08467 1.42474,0.90041 2.22683,1.11341c4.80422,1.27583 5.03855,2.42148 5.99321,6.82704c0.30776,1.42025 -0.5366,4.36358 -0.72846,5.38216c-0.04266,0.22648 -0.38053,0.69396 -0.13759,0.72252c1.90065,0.22342 4.73265,-1.0514 6.50539,-1.3293c4.83405,-0.75779 9.89554,-1.24985 14.75639,-0.65145c2.02342,0.24909 4.99527,0.84192 6.13708,2.63619c1.8351,2.88373 2.07657,5.84614 2.43177,9.27637c0.37031,3.57619 1.64129,8.50943 -0.30207,11.91351c-4.18033,7.32245 -28.15346,4.16447 -32.38771,4.55c-0.87125,0.07933 0.83631,2.69531 -0.02043,4.77087c-2.12765,5.15451 -8.78967,8.03493 -12.87403,3.26985z" fill="#af004c"/><path d="M219.0705,188.83015c-0.28034,-0.32037 -12.67584,-4.10669 -10.74367,-11.83534c0.50892,-2.03565 5.51594,-4.40109 7.03309,-5.74977c5.06954,-4.5066 8.84206,-10.1326 14.09615,-14.43993c1.03505,-0.84853 3.26422,-2.40446 4.74271,-2.25282c0.82556,0.08468 1.42475,0.90041 2.22683,1.11341c4.80422,1.27583 5.03855,2.42148 5.9932,6.82704c0.30776,1.42024 -0.5366,4.36358 -0.72846,5.38217c-0.04265,0.22647 -0.38053,0.69395 -0.13759,0.72251c1.90065,0.22342 4.73265,-1.0514 6.50539,-1.3293c4.83405,-0.75779 9.89553,-1.24985 14.75639,-0.65145c2.02342,0.2491 4.99527,0.84192 6.13708,2.63619c1.8351,2.88374 2.07657,5.84615 2.43177,9.27638c0.15493,1.49623 -8.12515,7.69573 -18.538,9.87067c-14.47523,3.02346 -32.60571,1.76634 -33.77487,0.43024z" fill="#d40000"/></g></g></svg>