<svg version="1.1" xmlns="http://www.w3.org/2000/svg" xmlns:xlink="http://www.w3.org/1999/xlink" width="402.9944" height="449.60586" viewBox="0,0,402.9944,449.60586"><g transform="translate(-38.5028,44.80293)"><g data-paper-data="{&quot;isPaintingLayer&quot;:true}" fill-rule="nonzero" stroke-linecap="butt" stroke-linejoin="miter" stroke-miterlimit="10" stroke-dasharray="" stroke-dashoffset="0" style="mix-blend-mode: normal"><path d="M246.27476,183.26377c1.11973,-4.61653 2.01648,-9.30291 2.7946,-13.90949c1.00999,-5.97928 2.28562,-12.98654 0.93448,-19.02716c-0.53946,-2.41178 -1.70323,-3.30973 -3.28659,-5.43194c-3.11161,-2.10136 -7.65862,-3.21407 -11.10784,-0.82175c-3.03925,2.10797 -4.91213,8.27139 -5.36362,11.67606c-0.44152,3.32942 -0.72472,7.35132 -0.32923,10.69076c0.93797,7.92005 7.70997,14.37044 14.91919,16.83774zM244.97236,188.22087l-0.93752,-0.00744c-9.43724,-3.09047 -17.73617,-10.84152 -19.08081,-21.16226c-0.48109,-3.69259 -0.17685,-8.28977 0.33744,-11.9759c0.64481,-4.6216 3.14835,-12.17101 7.30304,-14.99061c3.75718,-2.54982 9.55607,-3.05157 13.7772,-1.32362c1.39878,0.5726 2.52108,1.66791 3.78162,2.50187c1.15819,1.53836 2.48806,2.96136 3.47456,4.61508c1.8948,3.17637 1.65922,7.06214 1.64035,10.58487c-0.02516,4.69896 -0.4868,9.09926 -1.26879,13.72457c-1.66475,9.8467 -3.8819,19.87812 -7.6795,29.13043c-2.89226,7.04658 -6.7532,13.12545 -7.73993,20.75827c0,0 -0.33041,2.47807 -2.80848,2.14766c-2.47807,-0.33041 -2.14766,-2.80848 -2.14766,-2.80848c1.31207,-9.5822 6.71229,-17.10458 9.77915,-26.14496c0.56332,-1.66055 1.0846,-3.34633 1.56932,-5.04948z" fill="#ff0000" stroke="#000000" stroke-width="5"/><path d="M246.27476,183.26377c1.11973,-4.61653 2.01648,-9.30291 2.7946,-13.90949c1.00999,-5.97928 2.28562,-12.98654 0.93448,-19.02716c-0.53946,-2.41178 -1.70323,-3.30973 -3.28659,-5.43194c-3.11161,-2.10136 -7.65862,-3.21407 -11.10784,-0.82175c-3.03925,2.10797 -4.91213,8.27139 -5.36362,11.67606c-0.44152,3.32942 -0.72472,7.35132 -0.32923,10.69076c0.93797,7.92005 7.70997,14.37044 14.91919,16.83774zM244.97236,188.22087l-0.93752,-0.00744c-9.43724,-3.09047 -17.73617,-10.84152 -19.08081,-21.16226c-0.48109,-3.69259 -0.17685,-8.28977 0.33744,-11.9759c0.64481,-4.6216 3.14835,-12.17101 7.30304,-14.99061c3.75718,-2.54982 9.55607,-3.05157 13.7772,-1.32362c1.39878,0.5726 2.52108,1.66791 3.78162,2.50187c1.15819,1.53836 2.48806,2.96136 3.47456,4.61508c1.8948,3.17637 1.65922,7.06214 1.64035,10.58487c-0.02516,4.69896 -0.4868,9.09926 -1.26879,13.72457c-1.66475,9.8467 -3.8819,19.87812 -7.6795,29.13043c-2.89226,7.04658 -6.7532,13.12545 -7.73993,20.75827c0,0 -0.33041,2.47807 -2.80848,2.14766c-2.47807,-0.33041 -2.14766,-2.80848 -2.14766,-2.80848c1.31207,-9.5822 6.71229,-17.10458 9.77915,-26.14496c0.56332,-1.66055 1.0846,-3.34633 1.56932,-5.04948z" fill="#ff0000" stroke="none" stroke-width="0.5"/><path d="M38.5028,404.80293v-449.60586h402.9944v449.60586z" fill="none" stroke="#000000" stroke-width="0"/></g></g></svg>