<svg version="1.1" xmlns="http://www.w3.org/2000/svg" xmlns:xlink="http://www.w3.org/1999/xlink" width="402.9944" height="449.60586" viewBox="0,0,402.9944,449.60586"><g transform="translate(-38.5028,44.80293)"><g data-paper-data="{&quot;isPaintingLayer&quot;:true}" fill-rule="nonzero" stroke-linecap="butt" stroke-linejoin="miter" stroke-miterlimit="10" stroke-dasharray="" stroke-dashoffset="0" style="mix-blend-mode: normal"><path d="M264.00882,180.27978c-0.17785,2.49367 -2.67152,2.31582 -2.67152,2.31582l-2.02309,-0.14429c-8.20501,-0.58785 -16.47487,-0.4528 -24.6907,-0.079c-5.69806,0.25925 -11.42344,1.34995 -16.89893,-0.39867c0,0 -2.37171,-0.79057 -1.58114,-3.16228c0.79057,-2.37171 3.16228,-1.58114 3.16228,-1.58114c4.59646,1.62011 10.24061,0.3675 15.09075,0.14725c8.41136,-0.38197 16.87299,-0.50999 25.27344,0.08651l2.02309,0.14429c0,0 2.49367,0.17785 2.31582,2.67152z" fill="#ff0000" stroke="#000000" stroke-width="5"/><path d="M264.00882,180.27978c-0.17785,2.49367 -2.67152,2.31582 -2.67152,2.31582l-2.02309,-0.14429c-8.20501,-0.58785 -16.47487,-0.4528 -24.6907,-0.079c-5.69806,0.25925 -11.42344,1.34995 -16.89893,-0.39867c0,0 -2.37171,-0.79057 -1.58114,-3.16228c0.79057,-2.37171 3.16228,-1.58114 3.16228,-1.58114c4.59646,1.62011 10.24061,0.3675 15.09075,0.14725c8.41136,-0.38197 16.87299,-0.50999 25.27344,0.08651l2.02309,0.14429c0,0 2.49367,0.17785 2.31582,2.67152z" fill="#ff0000" stroke="none" stroke-width="0.5"/><path d="M38.5028,404.80293v-449.60586h402.9944v449.60586z" fill="none" stroke="#000000" stroke-width="0"/></g></g></svg>