<svg version="1.1" xmlns="http://www.w3.org/2000/svg" xmlns:xlink="http://www.w3.org/1999/xlink" width="275.30535" height="90.97253" viewBox="0,0,275.30535,90.97253"><defs><linearGradient x1="352.42389" y1="163.15374" x2="352.42389" y2="215.16575" gradientUnits="userSpaceOnUse" id="color-1"><stop offset="0" stop-color="#ff0000"/><stop offset="1" stop-color="#9a003a"/></linearGradient><linearGradient x1="209.54047" y1="145.34885" x2="209.54047" y2="209.80856" gradientUnits="userSpaceOnUse" id="color-2"><stop offset="0" stop-color="#ff0000"/><stop offset="1" stop-color="#9a003a"/></linearGradient><linearGradient x1="256.57335" y1="136.15898" x2="256.57335" y2="209.27947" gradientUnits="userSpaceOnUse" id="color-3"><stop offset="0" stop-color="#ff0000"/><stop offset="1" stop-color="#9a003a"/></linearGradient><linearGradient x1="171.40688" y1="142.69085" x2="171.40688" y2="201.42505" gradientUnits="userSpaceOnUse" id="color-4"><stop offset="0" stop-color="#ff0000"/><stop offset="1" stop-color="#9a003a"/></linearGradient><linearGradient x1="130.89518" y1="130.38225" x2="130.89518" y2="196.88223" gradientUnits="userSpaceOnUse" id="color-5"><stop offset="0" stop-color="#ff0000"/><stop offset="1" stop-color="#9a003a"/></linearGradient><linearGradient x1="292.41551" y1="155.58865" x2="292.41551" y2="212.05426" gradientUnits="userSpaceOnUse" id="color-6"><stop offset="0" stop-color="#ff0000"/><stop offset="1" stop-color="#9a003a"/></linearGradient><linearGradient x1="294.52714" y1="129.49767" x2="294.52714" y2="155.22517" gradientUnits="userSpaceOnUse" id="color-7"><stop offset="0" stop-color="#ff0000"/><stop offset="1" stop-color="#9a003a"/></linearGradient><linearGradient x1="320.87035" y1="137.55836" x2="320.87035" y2="211.72292" gradientUnits="userSpaceOnUse" id="color-8"><stop offset="0" stop-color="#ff0000"/><stop offset="1" stop-color="#9a003a"/></linearGradient></defs><g transform="translate(-99.33164,-126.18438)"><g data-paper-data="{&quot;isPaintingLayer&quot;:true}" fill-rule="nonzero" stroke="none" stroke-width="0.5" stroke-linecap="butt" stroke-linejoin="miter" stroke-miterlimit="10" stroke-dasharray="" stroke-dashoffset="0" style="mix-blend-mode: normal"><g><path d="M328.88163,186.03636c-1.00509,-3.04308 -0.4692,-6.42476 0.17933,-9.4601c-0.07702,-0.80554 0.2683,-1.4962 0.2683,-1.4962c3.23388,-6.44134 9.16224,-13.43162 16.65449,-15.04664c10.03303,-2.16271 24.13894,0.12466 27.88092,11.29747c0.98962,2.95482 0.74667,3.66484 0.74436,6.69995c-0.30584,1.24605 -1.21209,2.62694 -1.8535,3.73814c-1.71097,2.96415 -4.98242,5.3438 -8.41872,5.70155c2.66683,1.40403 5.41295,2.82896 6.88843,5.67561c1.53733,2.96598 0.79497,6.38941 -0.14621,9.37838c-2.19361,6.96641 -7.99912,11.7269 -14.62144,14.17345c-8.38153,0.81218 -16.31901,1.11872 -23.52447,-4.13748c-4.12507,-3.00913 -6.11822,-9.05953 -4.48426,-13.642c0.00702,-0.14896 0.03186,-0.24831 0.03186,-0.24831l0.31199,-1.24796c0.82612,-3.3045 0.61222,-6.67799 0.58862,-10.07631c-0.18507,-0.4262 -0.3521,-0.86267 -0.4997,-1.30953z" fill="#000000"/><path d="M353.13107,178.73817c-2.23265,0.32161 -8.18945,1.35243 -4.63088,4.6333c2.68982,2.47991 6.76295,3.17526 9.90539,4.81143c1.94378,1.01207 3.78737,2.20602 5.67189,3.32456c2.14268,1.27176 3.78903,2.64146 4.65769,4.41682c0.00101,0.0077 0.00162,0.01171 0.00162,0.01171c0.12889,0.83767 0.72819,4.10364 0.57998,5.19165c-0.62405,4.58124 -3.92044,8.11238 -7.65473,10.25662c-7.86338,4.51516 -20.45343,6.08271 -27.01478,-1.54162c-1.64848,-3.26917 -2.86014,-6.60892 -2.73896,-10.20428c0.95776,-1.0925 2.22955,-2.01039 3.43091,-2.84857c3.06953,-0.56449 5.42061,2.12396 9.13733,2.6048c0.7161,0.09265 1.44414,-0.04324 2.16378,-0.10241c0.64589,-0.0531 1.98944,-0.06202 1.81873,-0.68721c-0.85938,-3.14719 -7.83289,-3.89373 -10.0933,-5.8578c-4.1554,-3.61061 -5.12662,-8.5389 -6.15308,-13.64638c0.67125,-4.83795 2.34546,-10.04015 6.60587,-13.0424c3.47388,-2.448 6.77204,-2.72759 10.81617,-2.86831c7.21578,-0.25109 15.75494,0.6871 21.06118,6.38048c4.45975,4.78513 1.552,9.59814 -2.29594,13.07271c-0.02862,-0.01751 -0.05389,-0.0323 -0.07515,-0.04436c-0.70593,0.77027 -1.38069,1.61204 -2.35946,1.75652c-3.22688,0.47633 -5.08675,-1.83682 -7.36847,-3.29207c-1.43324,-0.9141 -2.90094,-1.73703 -4.39465,-2.35195z" fill="url(#color-1)"/></g><g><path d="M230.78461,178.14742c2.5993,0.28006 5.06466,1.12511 6.69816,3.57171c1.12463,1.68443 1.83144,3.64407 2.35862,5.59962c0.28769,1.06715 0.10866,2.21204 0.04472,3.31544c-0.16428,2.83462 -1.1944,5.59472 -2.3546,8.18625c-7.53122,7.68212 -18.48416,11.28629 -28.72455,13.68107c-5.65124,1.32158 -11.2624,1.11527 -15.99233,-2.79932c-6.13915,-5.08089 -10.28171,-10.82163 -12.67081,-17.98808c-3.81263,-10.23681 -3.28819,-23.85337 2.48001,-33.91752c2.91983,-5.09441 7.55548,-8.62017 12.64615,-11.02497c2.54027,-1.20001 4.93948,-2.77107 7.62947,-3.58159c7.20436,-2.17073 14.53153,-1.54088 21.21881,1.8051c1.19085,0.90388 2.54767,1.62318 3.57255,2.71164c1.02581,1.08946 3.37367,5.06626 4.22647,6.67987c3.17742,6.01211 7.19123,15.81831 1.51107,21.72696c-0.86863,0.90357 -1.73707,1.52661 -2.64373,2.03383z" fill="#000000"/><path d="M202.19252,165.32419c-0.6959,1.78078 -1.24667,3.42128 -1.60587,5.16813c1.61378,-0.82735 3.28631,-1.5611 3.81265,-1.81459c2.60878,-1.25639 5.51905,-2.86958 8.54879,-4.13399c-0.42114,-0.95581 -0.95598,-1.8259 -1.60599,-2.54898c-1.44997,-0.46914 -2.99559,-0.93271 -4.47237,-0.88475c-1.887,1.11722 -3.6092,2.91665 -4.6772,4.21419zM202.51015,185.69615c3.449,8.42675 12.66914,1.27768 17.80148,-1.06106c1.16852,-0.53248 2.20325,-1.3711 3.42747,-1.7587c5.35748,-1.69622 9.04971,1.22211 12.33241,5.01026c0.32853,1.36769 1.17899,2.70985 0.98558,4.10309c-0.36008,2.59384 -2.81178,4.84492 -4.57438,6.51121c-6.38936,6.04025 -14.47535,8.18213 -22.85111,10.08493c-3.10114,0.70451 -7.4513,1.59998 -10.66592,1.0544c-4.22643,-0.7173 -7.38303,-3.82771 -9.66062,-7.22625c-6.11397,-9.12304 -7.65109,-20.44153 -7.24986,-31.22025c0.87772,-5.41353 1.34761,-11.05981 5.16992,-15.36415c5.95053,-6.70096 16.10105,-11.72313 25.22755,-10.20994c3.13232,0.51934 4.03517,1.52421 6.3007,3.28355c7.01579,5.44819 11.82703,11.40034 13.1091,20.36039c0,0 0.05518,0.38978 -0.03292,0.88189c0.04882,1.03073 -0.18221,2.12039 -0.78151,3.23587c-0.84614,1.57493 -5.74748,3.47174 -7.17491,4.06673c-2.7613,1.15097 -5.64892,1.9722 -8.48511,2.92381c-4.07243,1.36639 -8.12328,2.60869 -12.29352,3.74038c0,0 -0.48921,0.13276 -1.08684,0.05843c0.13878,0.5181 0.2993,1.0289 0.50251,1.52541z" fill="url(#color-2)"/></g><g><path d="M262.31747,136.665c1.27092,-1.21407 6.06164,-2.22272 7.77131,-2.52454c4.9339,-0.87099 10.07854,-0.84968 13.24444,3.74865c1.3458,1.95471 2.16304,5.94415 2.71076,7.9789c0.09116,14.022 -2.23613,27.82963 -2.28093,41.7868c-0.01398,4.35512 2.09188,7.71945 2.66273,11.9362c0.36408,2.68938 -0.12227,4.04202 -0.69332,6.53974c-0.02504,0.45247 -0.19108,0.85029 -0.3638,1.14871c-0.2222,0.42745 -0.61516,0.9481 -1.27251,1.18726l-0.50716,0.36808c-1.19261,0.39637 -2.38521,0.79273 -3.57781,1.1891c-3.59868,0.78859 -9.61997,1.96399 -13.00205,-0.09386c-1.12578,-0.68499 -1.08472,-2.40792 -1.49025,-3.66177c-0.21057,-0.65105 0.27616,-1.7434 -0.34837,-2.02296c-0.54028,-0.24185 -0.67822,0.99669 -1.15224,1.35123c-0.84564,0.6325 -1.8056,1.10088 -2.75215,1.56907c-2.91431,1.4415 -6.24694,2.24293 -9.42137,2.89404c-5.95884,1.2222 -14.22198,-1.09357 -18.72733,-5.21877c-4.14571,-3.79591 -5.87869,-9.37304 -6.55209,-14.72765c-0.00734,-4.31443 -0.16482,-8.73941 1.29077,-12.89091c4.10237,-11.70036 16.5575,-22.94344 29.62534,-21.20723c1.63615,0.21738 3.2715,0.79872 4.83715,1.54889c-1.36184,-6.53583 -5.11364,-16.01513 -0.00113,-20.89897z" fill="#000000"/><path d="M257.15308,176.85913c-3.16619,-1.43144 -10.31475,0.61852 -11.56169,4.02823c-1.1122,3.0413 -0.63658,6.40501 0.81336,9.14112c1.87008,1.88186 4.33825,2.95924 7.15943,2.45944c2.31829,-0.41071 3.74457,-1.87965 5.28466,-3.64182c0.43954,-0.50292 0.80194,-1.09597 1.10804,-1.73412c0.01349,-1.87069 0.08173,-3.86043 -0.09287,-5.8019c-0.5145,-1.38192 -1.55248,-3.92722 -2.71093,-4.45096zM264.56088,145.43215c0.0004,-1.86573 -0.2537,-6.08475 1.11608,-7.5254c0.94527,-0.99417 2.64455,-0.73144 3.97407,-1.06945c3.42389,-0.87045 8.08605,-1.34679 11.0355,1.413c3.87717,3.62786 2.30883,12.37243 2.30883,17.16175c-0.03231,12.91042 -1.58528,25.654 -0.77151,38.62983c0.20905,3.33337 0.50045,6.19777 -0.00247,9.52768c-0.23483,1.55486 0.43381,3.59936 -0.72594,4.66128c-2.13363,1.95366 -6.20629,0.78694 -9.28212,-0.3533c-0.85206,-0.16767 -1.67505,-0.48389 -2.41282,-0.93144c-0.05548,-0.0211 -0.10977,-0.04158 -0.16285,-0.06141c0,0 -1.00811,-0.37804 -1.4531,-1.29952c-0.54805,-0.63839 -0.97008,-1.38913 -1.21335,-2.23605c-0.3182,-1.10778 -0.28312,-2.26943 -0.21031,-3.43614c-0.22692,0.2386 -0.45648,0.47442 -0.68828,0.70755c-6.80313,5.72676 -18.95282,9.64533 -27.18702,4.51952c-11.36731,-7.07618 -11.93121,-27.07456 -2.21335,-35.52717c0,0 0.01847,-0.01539 0.05329,-0.04134c0.0956,-0.12207 0.16325,-0.18972 0.16325,-0.18972l2.16949,-2.13821c8.28627,-4.80177 17.36425,-8.81391 26.48639,-5.47262c-0.59893,-5.40697 -0.98494,-10.92083 -0.98379,-16.33884z" fill="url(#color-3)"/></g><g><path d="M169.06331,144.63394c2.13048,-0.78201 4.35025,-1.3738 6.60027,-1.66511c7.37466,-1.63693 14.72489,-2.29659 20.83541,2.84582c3.19007,2.68465 4.78189,5.06293 4.3456,9.41976c-0.17698,1.76737 -0.34339,3.56668 -0.90837,5.25064c-2.01028,5.99176 -6.99976,12.09767 -13.82284,10.37037c-3.92267,-0.99304 -11.44166,-9.79353 -15.02984,-3.30056c-1.3306,5.64465 -2.15666,11.36535 -2.47701,17.16746c-0.29884,5.41237 0.51926,12.75693 -3.24971,17.18426c-5.3634,6.30026 -20.39621,6.80868 -23.54172,-3.6302c-0.35711,-1.18515 -0.06946,-2.47471 -0.08375,-3.71241c-0.05362,-4.64302 0.75714,-9.20391 1.18137,-13.8196c1.82378,-8.2002 2.07476,-16.89011 3.05814,-25.24156c0.49789,-4.22835 0.70717,-8.5481 3.10888,-12.25368c3.31682,-5.11749 12.26051,-7.54524 17.11933,-3.17218c1.90602,1.71547 2.46675,2.92877 2.86425,4.55699z" fill="#000000"/><path d="M197.01469,155.41205c0,0.53059 -0.16529,1.02257 -0.44719,1.42727c-0.30098,2.46127 -0.37659,4.50118 -1.81969,6.7537c-0.88221,1.37704 -1.82492,2.92306 -3.29889,3.63152c-5.97806,2.87332 -9.75221,-2.90668 -15.28967,-3.57476c-3.02792,-0.36531 -6.60264,-1.07483 -8.989,1.52883c-1.13987,1.24367 -1.33151,3.14535 -1.70526,4.65811c-1.24089,5.02251 -1.4672,10.46866 -1.46383,15.63957c-0.30411,3.06063 -0.77227,6.01835 -0.76458,9.08768l-0.10018,0.65067c0.43012,1.14674 -0.3197,2.27146 -0.3197,2.27146c-0.02713,0.03576 -0.05384,0.07204 -0.08015,0.10878c-0.00273,0.00851 -0.00554,0.01715 -0.00843,0.02592c0.08086,0.2459 0.12461,0.50865 0.12461,0.78161c0,1.38071 -1.11929,2.5 -2.5,2.5c-0.18507,0 -0.36543,-0.02011 -0.53904,-0.05826c-3.17574,1.17525 -9.136,0.58304 -11.29886,-1.92059c-1.4676,-1.69882 -2.3457,-6.74345 -2.55112,-8.74117c-0.75295,-7.32241 1.2609,-13.83855 2.32048,-20.93813c0.94558,-6.33573 1.39659,-12.95706 3.13941,-19.12511l0.61784,-1.85928c-0.07825,-1.23685 0.99192,-2.09298 0.99192,-2.09298l2.36291,-1.81927c2.53975,-1.16297 4.44205,-2.71951 7.47186,-0.62681c1.41993,0.98075 2.33321,2.65832 2.89816,4.29147c0.84308,-0.42894 1.91456,-0.17539 2.84043,-0.40714c3.0487,-0.76308 3.77004,-1.57583 6.93053,-2.30799c6.38965,-1.48024 19.12113,0.21966 20.67748,8.17908c0.008,0.04091 0.0151,0.08186 0.02133,0.12284c0.4796,0.45551 0.77863,1.09933 0.77863,1.81299z" fill="url(#color-4)"/></g><g><path d="M133.78918,157.91887l-0.68792,1.01286c-1.20245,1.44293 -2.61755,2.72827 -3.62742,4.31197c-0.96794,1.51793 -1.06701,2.83546 -1.17175,4.60665c-0.06317,1.06832 -0.17434,2.14855 -0.04028,3.21031c0.62354,4.93847 6.16688,1.99967 8.82515,0.31185c1.03103,-0.65463 1.94148,-1.64268 3.13679,-1.89331c1.28435,-0.26929 2.6421,0.09539 3.91492,0.41476c7.58545,1.90326 14.81637,10.44938 11.59887,18.37082c-1.40694,3.46386 -3.58883,4.24035 -6.52801,6.2212c-5.80157,2.20408 -11.81644,5.98535 -18.06591,6.77608c-4.55577,0.57643 -8.74949,-1.23791 -12.65782,-3.34239c-3.95119,-2.12756 -8.05196,-4.81466 -10.82836,-8.41925c-5.74612,-7.46015 -7.15179,-18.43513 -8.14492,-27.42481c-0.00501,-4.20176 -0.62428,-8.94223 0.45795,-13.04052c1.87868,-7.11438 7.2915,-11.74819 12.72073,-16.27108c2.08772,-1.7392 5.0409,-4.53107 7.65395,-5.41841c7.69244,-2.61221 17.99397,-0.23716 25.65258,1.46116c6.60966,1.89767 14.44585,6.0705 17.77448,12.50278c3.68487,7.12067 -5.44621,15.39316 -11.50243,17.25647c-6.2473,1.92211 -12.27292,-1.84061 -18.48059,-0.64715z" fill="#000000"/><path d="M147.32592,154.91297c-0.71982,0.12203 -1.35121,-0.08844 -1.35121,-0.08844l-2.19928,-0.73559c-9.10493,-2.63488 -19.15818,1.74094 -19.07606,12.1822c-0.00168,1.80935 -0.10747,4.88136 0.30471,6.66897c0.2828,1.22647 0.92671,2.53896 1.81088,3.70117c3.17847,2.30516 7.54528,1.66265 11.13547,0.22252c0.62606,-0.63526 1.33764,-1.1938 2.37493,-1.48248c1.89765,-0.52812 5.90369,0.78163 7.45765,1.8703c5.94292,4.16348 3.89612,10.31152 -1.03561,14.03684c-5.91938,4.47135 -11.52455,6.06844 -18.78238,5.47477c-3.22179,-0.71182 -6.54104,-1.22624 -9.38302,-3.03185c-10.48356,-6.66059 -14.23631,-17.47842 -14.23631,-29.37943c0,-4.52964 -0.39899,-9.03633 0.89597,-13.45737c1.37813,-4.70499 5.20422,-9.57718 8.26856,-13.24783c2.60806,-2.2327 5.71655,-4.81096 9.02934,-5.98303c7.80879,-2.76277 20.29032,-0.77137 27.3357,3.23722c5.66752,3.22464 10.75251,10.32372 5.28955,16.5195c-1.66693,1.89054 -4.15022,2.52906 -6.37018,3.37321c0,0 -0.69445,0.26042 -1.4687,0.11932z" fill="url(#color-5)"/></g><g><path d="M308.54999,163.73684c2.08285,5.29695 0.39473,10.93609 0.16024,16.3544c-0.41941,9.69145 -0.15179,19.54151 -2.91521,28.95654c-0.71666,1.04264 -1.19756,2.29509 -2.14998,3.12792c-2.83607,2.47995 -6.31817,1.77734 -9.71519,1.77734c-3.00416,0 -7.4823,0.60492 -10.4074,-0.51916c-5.89011,-2.26349 -6.245,-7.75102 -5.90463,-13.28949c0.36201,-5.89055 1.57642,-11.91719 2.31667,-17.79438c0.59476,-4.72207 2.11683,-7.54519 -0.75156,-11.73288c-3.26265,-4.89948 -7.57781,-11.0629 -1.30086,-15.69781c1.18009,-0.87138 2.26894,-1.37403 3.4087,-1.76425c-6.29047,-7.59782 -3.22778,-20.82259 5.83211,-24.96188c2.88531,-1.31825 5.31445,-1.15333 8.49768,-0.99374c2.53652,0.12717 4.99588,0.5884 7.24296,1.86943c3.05795,1.7433 4.88414,4.67168 6.40857,7.68713c1.0519,2.83699 2.58781,7.02514 2.10603,10.15546c-0.70426,4.57584 -4.21751,7.71617 -8.45211,9.6567c2.45673,1.75256 4.44564,4.17198 5.62399,7.16867z" fill="#000000"/><path d="M279.86839,164.72581c-0.78184,-0.81667 -1.69095,-1.58367 -1.81903,-2.65548c-0.20477,-1.71363 0.96395,-3.31431 1.44592,-4.97146c1.4208,-0.4975 2.77141,-1.28492 4.26243,-1.49251c1.06313,-0.14802 4.79266,0.67837 6.12709,0.76657c5.94908,0.3932 12.64618,1.08795 15.85102,7.08247c1.29143,2.41558 1.04703,4.001 1.05777,6.54267c0.02524,5.97523 -0.27031,11.9664 -0.78123,17.92019c-0.46641,5.4351 -0.55525,12.35517 -2.47151,17.56203c-0.84216,2.28832 -2.83758,3.83516 -4.50476,5.44053c-2.32548,0.70181 -4.77873,1.26448 -7.20267,1.10672c-1.05176,-0.06846 -2.11489,-0.16823 -3.12899,-0.45548c-1.34383,-0.38064 -2.78016,-0.69878 -3.89875,-1.53516c-4.87653,-3.64623 -2.51045,-9.07673 -2.20038,-14.07581c0.36467,-5.87933 0.84835,-11.5599 1.54838,-17.42427c0.33496,-2.80608 1.37965,-7.33899 -0.07618,-9.9939c-0.7443,-1.35734 -2.2944,-2.06964 -3.51122,-3.03896l-0.07226,-0.04691c-0.00671,-0.0093 -0.01346,-0.01858 -0.02026,-0.02784c-0.01455,-0.01193 -0.02904,-0.0239 -0.04348,-0.03591c0,0 -0.29836,-0.24863 -0.56188,-0.66749z" fill="url(#color-6)"/><path d="M287.48501,131.12279c0.5392,-0.89738 1.61623,-1.16664 1.61623,-1.16664l2.14171,-0.45848c3.98251,0.01778 7.01568,0.78743 10.73582,2.19414c2.28165,1.53027 4.0989,2.34121 5.36694,5.04793c0.6801,1.45173 0.73661,6.00038 0.58448,7.42983c-0.25966,2.43975 -0.15246,5.1656 -1.52158,7.20162c-2.48568,3.69645 -7.89548,3.85094 -11.71108,3.85396c-6.95342,0.00552 -14.04699,-2.73254 -13.62514,-10.73791c0.07533,-1.42957 0.89241,-5.71807 1.28932,-6.8007c0.93165,-2.54118 2.91797,-4.649 4.9512,-6.43549c0,0 0.0616,-0.05279 0.1721,-0.12826z" fill="url(#color-7)"/></g><g><path d="M340.70043,158.40616c0.03914,0.06382 0.07921,0.12722 0.12007,0.19028c0.42654,0.18984 0.73506,0.35097 0.84123,0.45618c2.48848,2.46591 2.44772,5.549 1.69225,8.68953c-0.58411,2.42815 -2.14754,5.94713 -4.64892,7.21067c-0.33686,0.17016 -0.68468,0.31721 -1.04051,0.44483c-1.25073,0.78709 -2.63164,1.40715 -3.90426,1.86619c-0.50273,0.18133 -1.19578,-0.08742 -1.57748,0.28665c-0.01956,0.01917 -0.03661,0.03939 -0.0514,0.06056c0.01747,0.11763 0.02286,0.2329 0.00961,0.34408c-0.01432,0.1201 -0.02974,0.24002 -0.04617,0.35979c0.03379,0.18011 0.0704,0.36273 0.05604,0.52615c-0.16403,1.866 -0.31167,3.73755 -0.6185,5.58544c-0.86762,5.22512 -0.9541,10.51034 -1.3852,15.76407c-0.01137,3.83013 -0.13685,7.6446 -0.86958,11.40112c-2.21797,1.45585 -4.64852,2.79904 -7.26141,3.25912c-3.78658,0.66674 -11.78571,0.56341 -14.34864,-3.22724c-0.28841,-0.42656 -1.00241,-6.11336 -1.06164,-7.20818c-0.30959,-5.72244 0.70533,-11.67525 0.9343,-17.40157c0.09566,-2.39227 0.20799,-4.78384 0.31199,-7.17576c0.05439,-1.2511 0.07831,-2.51359 0.31199,-3.74388c0.09213,-0.48508 1.03865,-1.02336 0.65178,-1.33015c-0.46256,-0.36682 -1.11053,0.454 -1.69912,0.49959c-1.3383,0.10366 -7.50047,0.28812 -8.83024,-1.04165c-0.99885,-0.99885 -0.69293,-2.73889 -1.03939,-4.10834c-0.00662,-4.06223 -1.02545,-10.42813 2.21712,-13.70557c1.21393,-1.22699 2.89935,-1.91798 4.50283,-2.55672c0.06387,-0.02544 0.56301,-0.09873 1.23632,-0.1896l1.06447,-1.24188l0.03904,0.03347l0.39065,-0.43948c0.84867,-2.24813 1.72163,-4.47978 2.39986,-6.81162c0.00014,-0.06754 0.00031,-0.13523 0.00048,-0.20308c0.00542,-2.07432 -0.2301,-4.64176 0.94848,-6.53557c3.33805,-5.3638 9.50373,-4.29478 14.74354,-3.41989c3.89605,0.65052 8.66605,1.76909 10.82274,5.60382c2.50516,4.45433 -0.37576,10.03758 -0.9407,14.62839c-0.04556,0.09241 -0.11319,0.18606 -0.18844,0.28013c2.03584,1.36256 5.63663,2.56954 6.2168,2.85012z" fill="#000000"/><path d="M315.29631,137.6201c0.30054,-0.06174 0.51254,-0.06174 0.51254,-0.06174h1.53537c4.63701,0.00755 10.33054,-0.1048 13.56255,4.13593c1.12635,1.47788 0.80739,3.62758 1.21109,5.44137c-0.0186,3.71358 -0.14361,7.45591 -0.35181,11.20425c3.08242,0.53934 7.40618,1.32483 8.77661,3.38282c1.85805,2.79024 -0.42224,9.36416 -2.95004,11.09661c-2.18581,1.49807 -4.67376,1.37745 -7.11387,1.11903c-0.21289,2.00822 -0.44061,4.00901 -0.67948,5.99878c-0.4196,3.49514 -1.29856,7.03271 -1.51534,10.55989c-0.33603,5.46771 0.03636,11.23806 -1.60092,16.55506c-0.43453,1.41113 -0.51485,3.20218 -1.69181,4.09374c-1.16854,0.88518 -2.90371,0.4849 -4.36961,0.49784c-2.95524,0.02608 -8.09507,-1.21893 -9.70381,-4.00096c-0.64707,-1.119 -0.19721,-2.5777 -0.29582,-3.86655c0,-8.58275 -0.42396,-17.30151 0.00482,-25.87269c0.09037,-1.80635 0.18615,-3.60996 0.28395,-5.41175c-0.01875,-0.00266 -0.0375,-0.00532 -0.05625,-0.008c-0.04963,-0.00708 -7.70407,-1.3455 -8.02267,-1.59905c-1.87892,-1.49529 -2.95997,-8.89159 -0.30248,-12.4855c2.27796,-3.08064 8.13036,-2.53991 9.23955,-2.43616c0.2303,-5.28526 0.38844,-10.57907 0.38844,-15.90467c0,0 0,-2.5 2.5,-2.5c0.23426,0 0.44657,0.02195 0.63898,0.06174z" fill="url(#color-8)"/></g></g></g></svg>