<svg version="1.1" xmlns="http://www.w3.org/2000/svg" xmlns:xlink="http://www.w3.org/1999/xlink" width="385.48299" height="239.49465" viewBox="0,0,385.48299,239.49465"><g transform="translate(-47.2585,-57.78468)"><g data-paper-data="{&quot;isPaintingLayer&quot;:true}" fill-rule="nonzero" stroke="none" stroke-linecap="butt" stroke-linejoin="miter" stroke-miterlimit="10" stroke-dasharray="" stroke-dashoffset="0" style="mix-blend-mode: normal"><path d="M198.75774,242.3403c1.73113,0.88845 3.79428,1.31308 5.19338,2.66536c1.48952,1.43966 3.91441,8.16134 4.27141,10.05504c1.46725,7.78306 1.00188,17.50896 -0.68336,25.13599c-0.28466,1.28829 -1.36059,7.0108 -2.40571,8.14106c-3.71617,4.01889 -10.29521,5.12468 -15.32033,6.18115c-12.9036,2.71283 -25.44029,2.75392 -38.58009,2.75449c-14.34987,0.00005 -28.69982,0.01332 -43.04969,0.00004c-3.41485,-0.00316 -6.82413,-0.3956 -10.21027,-0.83753c-0.29209,-0.03812 -0.57696,-0.06634 -0.85519,-0.08877c-2.49542,1.28938 -7.02312,0.86721 -8.71693,0.86214c-11.09705,-0.03321 -22.98873,-0.27348 -33.09581,-5.26383c0,0 -0.65707,-0.32854 -1.08075,-0.98561c-1.30121,-0.63283 -1.30121,-2.25046 -1.30121,-2.25046v-2c0.02352,-1.89403 -0.36872,-3.80257 -0.96772,-5.59955c-0.03461,-5.78978 -0.28971,-10.97925 -0.96043,-16.65656c0.43612,-5.7537 -1.32046,-11.77024 -1.44673,-17.32586c-0.29445,-12.95571 -0.87617,-24.3055 -1.7729,-36.34632c0.47925,-11.31262 1.36942,-22.54863 1.36942,-33.96055c0,-24.04449 -3.11828,-48.2534 -1.33632,-72.3604c-0.08819,-6.99305 0.2737,-14.0312 0.4157,-21.00245c0.32097,-1.95543 0.22235,-4.02828 0.96291,-5.8663c0.17009,-0.42214 5.43667,-5.61838 5.46831,-5.64974c4.91232,-4.87005 12.94867,-7.31585 19.49791,-9.13841c0.28579,-0.07953 9.71539,-2.69771 9.86461,-2.72438c2.95145,-0.52743 5.94758,-0.86968 8.96965,-1.05006c0.04807,-0.0412 0.09715,-0.07983 0.14683,-0.11605c0.70577,-1.04262 2.10127,-1.04262 2.10127,-1.04262c1.85612,0 3.70191,0.01769 5.54112,0.05007c6.68752,-0.31762 13.52037,-0.08718 20.14141,0.80048c0.64072,0.03473 1.28231,0.0699 1.92492,0.1054c5.06746,0.27993 11.10843,0.24312 16.03999,1.62933c10.30281,2.89602 17.96142,9.49886 25.82082,16.3792c3.38557,3.36803 6.41762,6.85982 9.16316,10.54223c0.62892,0.70509 1.25909,1.41995 1.89566,2.14355c1.15453,1.31238 2.65595,2.31689 3.68853,3.72723c1.08355,1.47995 1.97768,3.11056 2.76765,4.80536c3.49639,-8.57864 8.91095,-17.34347 16.9926,-21.46346c7.98991,-3.15877 17.53399,-2.7194 26.02414,-2.7194c6.50327,0 13.3656,-1.33345 19.84675,-0.47584c5.35695,0.70886 9.45855,3.23955 14.04695,5.61683c7.37444,-2.88187 14.88104,-4.97033 22.73696,-6.73892c2.30086,-0.51799 8.07444,-1.93754 10.50806,-0.87476c0.41128,0.17961 0.80192,0.39063 1.1758,0.62718l2.2467,-0.37445l0.01229,0.07371c0.19553,-0.04294 0.39348,-0.07678 0.59426,-0.10007c1.49561,-0.17345 2.96933,0.68087 4.29805,1.389c3.81972,2.03569 6.79198,5.17798 9.59144,8.32492c3.83017,4.3056 8.56732,7.85598 12.26695,12.27359c4.64715,5.54901 9.44378,11.8821 13.04084,18.15337l1.02063,1.52026c0,0 0.5667,0.85006 0.43216,1.82562c0.30031,0.33782 0.59993,0.67623 0.89878,1.01527c1.78396,-1.63817 3.66412,-3.17597 5.37673,-4.88858c14.40289,-14.40289 27.52941,-31.83178 49.23546,-34.60182c0,0 1.22161,-0.1527 2.05747,0.61347c2.71812,1.06466 5.66664,1.70997 8.09794,3.32305c11.23736,7.45558 19.21912,17.57364 25.17542,29.49152c2.33696,4.67599 5.17032,10.1317 4.03418,15.46121l0.40337,0.80674l-0.11379,0.05689c0.13284,0.23454 0.2523,0.47709 0.3556,0.72931c0.50249,1.22695 -0.25127,2.66254 -0.66875,3.92095c-0.21938,0.66127 -0.48871,1.29342 -0.7955,1.90348c-0.19714,0.70542 -0.48586,1.53863 -0.90591,2.63593c-4.81977,12.59056 -20.89393,17.58379 -31.68247,23.50743c-5.51954,3.0306 -10.83297,7.10758 -16.64488,9.43234c-4.1909,3.17138 -9.30877,5.7284 -14.47121,7.0721c-0.10461,1.00686 0.51636,2.14777 0.51585,3.20271c-0.00002,0.02767 -0.66386,9.97897 -0.66934,10.06096c-0.62311,9.32704 0.24576,18.69725 -0.33411,28.0112c-0.2781,4.46682 -0.99965,8.34889 -0.99517,12.84465c0,4.99987 0.01717,10.00017 0,15c-0.00996,2.90104 0.4314,5.96099 -1.51324,8.51748c-0.89177,1.17237 -2.38657,1.72763 -3.60001,2.56265c-3.97668,2.7365 -8.13135,4.36434 -12.86354,5.36451c-7.65685,1.61832 -15.73701,1.05536 -23.52321,1.05536c-4.39492,0 -9.21641,0.45689 -13.76476,0.27734c0.1399,0.26916 0.24867,0.55141 0.31193,0.8528c0.8494,4.04704 -2.0608,6.60454 -5.2933,8.45317c-1.11519,2.37098 -7.22845,5.42946 -9.38651,6.2614c-7.42035,2.86057 -15.86855,3.58238 -23.69343,4.35184c-5.43885,0.53483 -11.26027,1.0345 -15.82844,-2.82236c-3.04671,-2.57231 -2.70675,-4.99553 -3.8628,-8.44891c-1.87299,-5.59504 -3.45523,-11.06149 -4.93414,-16.80059c-1.98188,-7.69103 -3.64713,-15.99372 -6.69583,-23.34437c-0.96057,-2.31601 -8.36167,-1.5822 -10.17163,-1.80075c-6.8963,-0.83271 -13.71918,-2.98719 -20.68111,-2.97958c-1.66666,0.00182 -3.33578,0.09034 -5,0c-1.19136,-0.06467 -2.49885,-1.03012 -3.54915,-0.46407c-0.7709,0.41548 -0.14857,1.7586 -0.40595,2.59566c-0.48479,1.57673 -1.26958,3.04737 -1.80845,4.60645c-0.30964,0.89586 -0.61029,1.79538 -0.90441,2.69758c-0.49257,2.23475 -1.07914,4.47692 -1.61587,6.68201c0.53909,0.00107 1.07853,0.00542 1.61837,0.01331z" fill="#000000" stroke-width="0.5"/><path d="M300.52803,187.0071l-0.53018,-0.69133c-1.64994,-6.59975 -2.7071,-14.3755 -5.7872,-20.44247c-1.71423,-3.37657 -4.54314,-6.67178 -6.79039,-9.6678c-4.74942,-6.3319 -9.24492,-12.20641 -14.84311,-17.81022c-5.87664,-7.03938 -12.24347,-13.69127 -18.44838,-20.44702c-3.3999,-3.70173 -5.13639,-3.77856 -5.1857,-9.28903c-0.03925,-4.38604 1.62792,-7.95665 4.87827,-10.86918c1.15341,-1.03354 2.87942,-1.20914 4.1401,-2.10873c2.59665,-1.85291 4.53607,-4.59629 7.30151,-6.18634c1.81432,-1.04318 3.93496,-1.44297 5.8282,-2.33495c6.44804,-3.03792 12.15689,-5.04454 19.33206,-4.9506c1.96531,0.02573 4.00065,-0.36182 5.89411,0.16536c1.13612,0.31632 1.82653,1.49232 2.7398,2.23848c15.72445,12.54883 25.65341,30.8332 37.3469,46.7966c0.10163,0.13874 0.23573,-0.25056 0.35753,-0.37198c1.036,-1.03278 2.0204,-2.12094 3.11576,-3.09052c1.23942,-1.0971 2.63368,-2.00988 3.87859,-3.10075c5.32067,-4.66231 9.90071,-10.1499 15.22125,-14.83497c7.19683,-6.33354 14.94699,-11.21461 22.83947,-16.6291c4.26864,-2.92842 7.90076,-6.59508 13.30113,-7.15438c1.74565,-0.18079 3.59863,-0.38756 5.26217,0.17157c1.19747,0.40248 1.89684,1.67006 2.81106,2.54193c2.98043,2.84239 4.61151,4.92347 6.68442,8.32088c3.50901,5.75112 8.21739,10.60483 10.97482,16.78789c0.86485,1.93926 3.20306,7.50432 3.06833,9.81154c-0.09614,1.64662 -1.11723,3.1039 -1.67584,4.65585c-0.98767,1.62198 -1.69582,3.45155 -2.96301,4.86596c-2.49573,2.78568 -4.61531,3.13235 -7.27152,5.25901c-11.11021,8.89521 -23.08233,16.63785 -35.60888,23.47286c-4.38134,2.39064 -8.72158,4.76812 -13.22654,6.91896c-1.45069,0.69261 -2.92204,1.34328 -4.35361,2.07458c-1.08481,0.55417 -2.63221,0.69783 -3.19175,1.77988c-0.58668,1.13455 0.25301,2.54381 0.29582,3.82036c0.00005,0.00167 -0.00004,9.97424 -0.00004,9.98553c0.11172,9.64509 0.55275,19.36796 1.11543,28.99276c0.38542,6.59277 2.12944,12.84277 1.40645,19.42831c-0.52639,4.79484 -0.34536,11.15545 -4.50436,14.58016c-1.0074,0.82954 -5.66694,1.88043 -7.06044,2.22591c-9.46861,2.34751 -19.72048,1.28732 -29.45705,1.28732c-3.8779,-0.02318 -8.8476,-0.05014 -12.31433,-2.37337c-6.55545,-4.39313 -7.18567,-11.02623 -7.18567,-18.12663c0,-5.00753 -0.51384,-10.36471 0.03217,-15.34933c0.50576,-4.61716 1.58808,-9.21175 1.97634,-13.85686c0.40425,-4.83635 -0.00852,-9.93891 -0.00852,-14.7938c0,0 0,-0.97066 0.60483,-1.70233z" fill="#ffffff" stroke-width="0"/><path d="" fill="#000000" stroke-width="0.5"/><path d="" fill="#000000" stroke-width="0.5"/><path d="" fill="#ffffff" stroke-width="0.5"/><path d="" fill="#ffffff" stroke-width="0.5"/><path d="M163.16424,162.27503c-0.62138,0.04569 -1.34592,-0.70792 -1.97638,-1.46754c-0.13694,-0.04289 -0.21709,-0.07851 -0.21709,-0.07851c-4.74651,-2.12064 -9.58603,-3.13372 -14.67223,-3.98502c-10.29226,-1.72266 -20.52784,-3.4404 -31.01931,-2.47749c-3.44473,0.33866 -7.90783,0.82061 -10.24537,3.81451c-4.02365,5.15346 -5.33749,13.56095 -6.71838,19.79469l-0.00118,0.00531c0.04398,0.16206 -0.00753,0.31659 -0.00753,0.31659l-0.12321,0.36498c-0.15597,0.60427 -0.2561,1.18189 -0.35413,1.70712c0.10118,0.14232 0.10118,0.31466 0.10118,0.31466l-0.01493,0.52309c-0.15269,0.54865 -0.40519,0.94502 -0.72803,1.2199c-0.10925,0.31075 -0.23647,0.54753 -0.38692,0.66022c-0.42565,0.31883 -1.32973,0.12488 -2.11722,-0.10489c-0.12256,-0.00092 -0.19569,-0.00904 -0.19569,-0.00904c-0.79128,-0.08902 -1.58087,-0.19726 -2.36753,-0.32406c0.00163,0.05542 0.00331,0.11079 0.00504,0.16611c-2.23113,-0.22036 -4.4633,-0.4214 -6.70211,-0.61444c-1.15666,-0.09973 -2.37598,-1.01183 -3.43968,-0.54669c-0.61333,0.2682 0.24288,1.3508 0.10353,2.00554c-0.33996,1.59727 -1.14731,3.06729 -1.52153,4.65688c-2.39123,10.15742 0.34924,21.13827 0.35769,31.38427c0,7.6299 -0.41402,15.42208 0.01613,23.03893c0.5419,9.59579 2.37291,19.16706 3.41643,28.71558c0.46228,4.22997 0.95322,9.82665 -0.54232,13.97814c-0.71219,1.977 -1.35975,4.40269 -3.18806,5.43856c-1.8534,1.05009 -4.26139,0.05284 -6.39062,-0.01156c-3.33181,-0.10077 -6.6519,-0.44346 -9.97786,-0.66519c0,0 -2.17674,-0.14511 -2.32787,-2.19763c-2.55457,-1.64698 -2.09791,-7.52764 -1.97355,-8.69729c0.24585,-2.31219 1.35626,-4.43901 2.07979,-6.6571c-0.08124,-1.64619 -0.11145,-3.29557 -0.11207,-4.94245c-0.00223,-5.91742 0.37385,-11.97056 0.00311,-17.87547c-0.52054,-8.29081 -1.74978,-16.54356 -2.34403,-24.83388c-0.40838,-5.70126 -1.38223,-11.44536 -1.65425,-17.13531c-1.14509,-23.95204 0.57599,-47.77396 -1.56887,-71.68599c-0.43683,-0.68985 -0.43596,-1.47214 -0.43596,-1.47214l0.0041,-2.85649c-0.00009,-0.00082 -0.00018,-0.00165 -0.00027,-0.00247l0.00025,-0.00078l0.0002,-0.13747h-0.0043v-3c0,-0.40936 0.09839,-0.79574 0.27281,-1.13679c0.33836,-4.62162 0.72719,-9.15541 0.72719,-13.86321c0,-3.33334 -1.0541,-6.83772 0,-10v-5c0,-0.80215 0.37779,-1.51607 0.96515,-1.97352c-0.16992,-5.88402 -0.72396,-13.96577 3.97053,-17.97658c1.28696,-1.09954 3.25028,-0.94762 4.86655,-1.45054c5.86777,-1.82583 11.84142,-2.97056 17.84032,-4.29172c4.86052,-1.07032 9.78759,-1.94387 14.62532,-3.10716c0.6473,-0.15565 9.4644,-2.61382 9.9003,-2.67835c4.45537,-0.65958 9.46916,-0.02491 13.88411,0.60359c4.92723,0.70143 10.52223,0.91248 15.25907,2.50961c6.94216,2.34069 12.77927,8.33633 17.0374,13.97333c2.9851,3.95174 6.81948,7.91729 9.33324,12.17111c1.52145,2.57461 2.12657,5.59031 3.17633,8.39056c2.93213,8.90941 6.14671,18.16935 7.12676,27.55689c0.55409,5.30741 -1.12058,8.85581 -2.22032,13.87275c-0.3477,1.5862 -0.38129,3.24169 -0.78728,4.81054l-0.13004,0.94808c-1.89299,4.24649 -2.5922,7.08407 -6.72541,9.27463c-0.68234,0.5586 -1.37012,1.00304 -1.881,1.04061zM99.3019,136.88327c0.54997,-0.12677 1.08689,-0.27552 1.61229,-0.44393l0.15723,-0.03925c0,0 0.10576,-0.02644 0.247,-0.09494c4.88148,-1.6761 8.77932,-5.03441 12.94244,-8.14395c1.14982,-0.85883 2.51027,-1.47669 3.48095,-2.53378c2.71949,-2.96156 0.63876,-2.91161 -1.47071,-5.19552c-1.65887,-1.79605 -3.58105,-3.80204 -5.98689,-4.23746c-3.12094,-0.56485 -6.34304,-0.0564 -9.51464,-0.0719c-2.5908,-0.0127 -5.18166,-0.03755 -7.77199,-0.08821l-1.66561,0.86884c0.91626,0.98152 0.48579,2.4164 0.48579,2.4164c-0.92539,3.08464 -2.30586,6.06468 -2.79824,9.24728c-0.24823,1.60447 0.17194,3.26637 -0.08168,4.87001c-0.19027,1.20308 -1.53323,2.25961 -1.23257,3.43995c0.18045,0.7084 1.44631,0.2382 2.17677,0.26686c1.78852,0.07019 3.5939,0.23116 5.38458,0.20873c0.01461,-0.0246 0.03022,-0.05017 0.04686,-0.07653c1.35607,-0.03835 2.59663,-0.18116 3.93317,-0.44614c0.0189,0.0177 0.03732,0.03554 0.05526,0.05353z" fill="#ffffff" stroke-width="0"/><path d="M188.20866,112.46742c0.16972,-0.91747 1.07515,-1.96828 1.97725,-2.87953c1.72108,-3.4879 4.0149,-6.56416 5.77997,-10.08969c2.10864,-4.2118 4.78084,-9.21736 8.93146,-12.02825c0.98254,-0.6654 2.268,-0.7131 3.35762,-1.18307c6.48859,-2.7986 12.62281,-3.92405 19.73648,-4.0937c4.61383,-0.11003 10.47334,-0.58191 14.53456,2.27677c1.25063,0.88031 2.05227,2.26811 3.0784,3.40217c-0.01663,0.10326 -0.03256,0.20669 -0.04787,0.31026c0.36595,0.90699 0.12746,1.87118 -0.3431,2.85226c-0.1392,1.15645 -0.31609,2.30392 -0.66778,3.40976c-0.36953,1.16192 -1.59571,1.91096 -2.00448,3.05966c-0.51786,1.45524 -0.38234,3.06993 -0.71366,4.57861c-0.53755,2.44781 -1.59095,3.71358 -1.1481,6.11345c0.80228,4.34773 2.87365,8.48226 4.77807,12.30208c0.4343,0.87109 0.38156,1.9485 0.88084,2.78405c0.4377,0.73251 1.3419,1.08575 1.84389,1.7758c1.79287,2.46457 2.69112,5.58331 4.80512,7.77866c0.83112,0.8631 2.14629,1.14344 2.99214,1.99211c1.56466,1.56986 2.78099,3.45204 4.16559,5.18279c1.65868,2.07335 3.5528,3.96162 5.09475,6.1232c2.21585,3.10628 2.9889,5.96904 5.73966,8.69401c2.62772,2.642 6.39979,6.37475 7.62496,10.04331c0.37701,1.12891 0.00217,2.38315 0.10244,3.56912c0.35663,4.21812 1.04885,8.54683 1.68365,12.73009c0.65197,4.29644 1.80966,8.77164 2.289,13.07592c0.14547,1.30627 -0.23248,2.64922 -0.00106,3.94303c0.81585,4.56113 3.77222,8.49398 4.96636,12.83192c0.09182,0.33355 0.06688,7.50038 0.06688,7.57438c0,6.4305 -0.69124,13.05549 0.9003,19.30103c2.18963,6.56889 3.78671,14.34602 7.62781,20.23719c0.67124,1.02949 2.54832,2.2288 3.91518,3.33453c0.38338,0.10293 0.73455,0.20018 1.01744,0.3279c0.07346,-0.08597 0.18989,-0.1541 0.37447,-0.1541c0.5,0 0.5,0.5 0.5,0.5l-0.00646,0.7395c-0.10491,0.32636 -0.21035,0.63094 -0.32517,0.92371c-0.07923,3.37618 -4.60979,4.53697 -6.8046,5.19053c-6.36733,1.89603 -14.06996,4.22505 -20.69897,4.0997c-1.32019,-0.02497 -2.78284,0.4143 -3.95671,-0.19031c-4.44729,-2.29061 -4.5668,-5.06324 -5.99614,-9.26254c-1.35008,-3.96647 -2.6324,-7.78198 -4.18806,-11.67291c-2.4925,-5.07831 -4.0841,-10.88656 -6.88636,-15.77578c-0.81398,-1.42018 -2.15115,-2.48618 -3.01261,-3.87806c-2.43185,-3.92923 -4.20462,-8.61936 -6.26981,-12.7637l-1.06201,-3.16613c0,0 -0.02569,-0.07709 -0.05392,-0.2081c-14.05113,-3.84481 -28.46266,-2.16755 -42.84794,-3.59736c-1.29532,-0.21021 -2.58018,-0.76098 -3.88596,-0.63063c-0.45215,0.04514 -0.59124,0.69886 -0.80646,1.09906c-0.66728,1.24078 -1.29778,2.50513 -1.83274,3.80844c-1.15804,2.82129 -2.2584,5.75188 -3.26102,8.69437c0.04345,0.51524 -0.05642,0.91474 -0.05642,0.91474c-1.27344,5.06113 -3.15067,10.08081 -4.9835,14.96835l-0.23493,0.48742c-0.18325,0.72224 -0.62718,1.14592 -1.08497,1.39445c-0.42031,0.29361 -0.98638,0.49935 -1.69822,0.35404c-4.59275,0.03322 -9.00902,0.67039 -13.58886,0.9141c-4.53214,0.24116 -9.11216,0.09192 -13.62678,0.60019l-1.807,0.01529c0,0 -0.24915,0 -0.59013,-0.07865c-0.37216,0.0886 -0.74471,0.16208 -1.12147,0.22147c-1.16834,0.34758 -2.69158,1.03243 -3.40065,0.75508c-1.2659,-0.49515 0.41135,-3.81193 1.61784,-5.6507c0.09967,-0.22387 0.18955,-0.35869 0.18955,-0.35869l0.08269,-0.04276c0.08769,-0.12473 0.1708,-0.23818 0.24766,-0.33825c1.20925,-4.56604 3.53163,-8.91635 5.63631,-13.12639c1.17297,-2.34632 2.3222,-4.74883 3.58046,-7.08437c0.17003,-0.54287 0.33876,-1.08573 0.50616,-1.62856c3.54717,-11.50244 6.24623,-22.97688 11.02282,-34.07125c0.75199,-2.96344 2.26286,-5.6823 3.50456,-8.47616c0.68886,-1.54997 0.90502,-3.28545 1.61883,-4.8241c0.53055,-1.14362 1.45599,-2.06303 2.08352,-3.15644c1.20852,-2.10575 1.91537,-4.46216 2.85258,-6.70189c2.92139,-6.98154 6.98496,-13.15797 8.87163,-20.59631c1.86459,-7.35123 0.61367,-14.54271 0.1161,-21.79476c-0.8214,-1.67829 -1.96599,-4.24117 -1.68107,-5.78136zM149.6412,242.83401h0.05567c-0.01225,-0.01751 -0.02416,-0.03505 -0.03573,-0.05262c-0.00664,0.01755 -0.01328,0.0351 -0.01994,0.05262zM218.16389,171.3331c1.82978,0.02089 3.68386,-0.30917 5.50566,-0.1115c2.59282,0.28132 5.15892,0.81914 7.76149,0.98784c0.61088,0.0396 1.2721,0.58337 1.81252,0.2958c0.56392,-0.30007 0.56988,-1.14344 0.85482,-1.71516c1.50272,-9.70449 -0.11054,-20.00069 -2.12429,-29.57881c-0.45259,-2.15269 -0.99994,-7.01754 -3.50759,-8.19215c-0.61946,-0.29016 -1.35924,0.1903 -2.04329,0.1903c-1.01641,0 -2.06963,-0.48196 -3.04329,-0.1903c-0.60075,0.17996 -0.76209,0.99864 -1.18894,1.45807c-1.53138,1.64823 -2.85196,3.56357 -3.69017,5.65145c-0.59635,1.48543 -1.13505,2.99767 -1.63058,4.5287c-1.30041,5.55802 -1.81305,11.10595 -3.65644,16.58607c-0.67457,2.00539 -0.87128,4.13191 -1.06644,6.25237c0.2033,0.05441 0.41101,0.10305 0.62277,0.14487c0.11911,0.71615 0.25807,1.42916 0.43426,2.11903c0.80478,0.27515 1.60225,0.44801 2.00941,0.57803c0.97303,0.31071 1.9573,0.64993 2.95012,0.99538z" fill="#ffffff" stroke-width="0"/><path d="M110.79966,167.62889c-0.07384,-0.2464 -0.11628,-0.52971 -0.11628,-0.85548c0,-2.5 2.5,-2.5 2.5,-2.5h3c8.22092,0.02728 16.03641,2.34031 24.2062,3.00852c2.94212,0.24064 8.03159,-0.75139 10.55507,1.71724c1.30201,1.27371 1.58663,3.39667 1.6228,5.21774c0.0378,1.9033 -0.87676,3.70674 -1.40926,5.53442c-1.26542,4.34324 -3.01215,8.57454 -4.60058,12.80502c-5.00996,17.56504 -11.31165,34.66488 -16.6081,52.13454c-1.24308,4.10014 -2.09816,8.27654 -3.28487,12.38798c-0.06627,0.22959 -0.19783,0.46946 -0.34816,0.71124c0.80618,0.10749 1.61235,0.21498 2.41853,0.32247c0.76736,-0.07776 1.56309,-0.01654 2.33332,-0.07928c5.04662,-0.4111 10.0433,-0.80651 15.10602,-0.93054c12.21213,-0.28595 24.60038,-1.6371 36.75919,-3.10416c2.03341,-0.24535 9.56636,-1.90859 11.21866,0.23414c0.68651,0.89027 -1.25567,9.73101 -1.5368,11.12806c-0.3126,1.55342 -0.75574,3.08565 -0.9442,4.65896c-0.18688,1.56009 0.35622,3.23278 -0.17813,4.71036c-0.42963,1.18801 -1.65893,1.90759 -2.54193,2.81106c-1.14416,1.17067 -2.10596,2.61119 -3.53602,3.40773c-2.3393,1.30299 -5.27478,0.9321 -7.92629,1.30577c-3.90552,0.55039 -7.19507,1.99576 -11.20955,2.01689c-17.75051,1.376 -35.32967,2.24801 -53.14137,2.00143c-4.45764,-0.06171 -9.06533,-0.05586 -13.43513,-1.04621c-1.77611,-0.40253 -3.84157,-0.42663 -5.21804,-1.61907c-2.31077,-2.00182 -1.79359,-6.64487 -1.80126,-9.11151c-0.02103,-6.76702 0.14286,-13.49653 0.41303,-20.25752c1.44575,-8.27564 2.15069,-16.65604 3.62737,-24.91355c3.59761,-20.11762 8.64938,-40.11865 13.01723,-60.08597c0,0 0.22646,-1.03526 1.05853,-1.61028z" fill="#ffffff" stroke-width="0"/></g></g></svg>